%TF.GenerationSoftware,KiCad,Pcbnew,(5.1.9)-1*%
%TF.CreationDate,2021-03-08T12:26:08+05:30*%
%TF.ProjectId,STM32F4,53544d33-3246-4342-9e6b-696361645f70,rev?*%
%TF.SameCoordinates,Original*%
%TF.FileFunction,Legend,Bot*%
%TF.FilePolarity,Positive*%
%FSLAX46Y46*%
G04 Gerber Fmt 4.6, Leading zero omitted, Abs format (unit mm)*
G04 Created by KiCad (PCBNEW (5.1.9)-1) date 2021-03-08 12:26:08*
%MOMM*%
%LPD*%
G01*
G04 APERTURE LIST*
%ADD10C,0.150000*%
G04 APERTURE END LIST*
D10*
X72428571Y-30261904D02*
X72428571Y-29500000D01*
X72047619Y-29880952D02*
X72809523Y-29880952D01*
X73047619Y-29119047D02*
X73047619Y-28500000D01*
X72666666Y-28833333D01*
X72666666Y-28690476D01*
X72619047Y-28595238D01*
X72571428Y-28547619D01*
X72476190Y-28500000D01*
X72238095Y-28500000D01*
X72142857Y-28547619D01*
X72095238Y-28595238D01*
X72047619Y-28690476D01*
X72047619Y-28976190D01*
X72095238Y-29071428D01*
X72142857Y-29119047D01*
X73047619Y-28214285D02*
X72047619Y-27880952D01*
X73047619Y-27547619D01*
X73047619Y-27309523D02*
X73047619Y-26690476D01*
X72666666Y-27023809D01*
X72666666Y-26880952D01*
X72619047Y-26785714D01*
X72571428Y-26738095D01*
X72476190Y-26690476D01*
X72238095Y-26690476D01*
X72142857Y-26738095D01*
X72095238Y-26785714D01*
X72047619Y-26880952D01*
X72047619Y-27166666D01*
X72095238Y-27261904D01*
X72142857Y-27309523D01*
X71750000Y-29011904D02*
X71797619Y-29107142D01*
X71797619Y-29250000D01*
X71750000Y-29392857D01*
X71654761Y-29488095D01*
X71559523Y-29535714D01*
X71369047Y-29583333D01*
X71226190Y-29583333D01*
X71035714Y-29535714D01*
X70940476Y-29488095D01*
X70845238Y-29392857D01*
X70797619Y-29250000D01*
X70797619Y-29154761D01*
X70845238Y-29011904D01*
X70892857Y-28964285D01*
X71226190Y-28964285D01*
X71226190Y-29154761D01*
X70797619Y-28535714D02*
X71797619Y-28535714D01*
X70797619Y-27964285D01*
X71797619Y-27964285D01*
X70797619Y-27488095D02*
X71797619Y-27488095D01*
X71797619Y-27250000D01*
X71750000Y-27107142D01*
X71654761Y-27011904D01*
X71559523Y-26964285D01*
X71369047Y-26916666D01*
X71226190Y-26916666D01*
X71035714Y-26964285D01*
X70940476Y-27011904D01*
X70845238Y-27107142D01*
X70797619Y-27250000D01*
X70797619Y-27488095D01*
X70500000Y-29011904D02*
X70547619Y-29107142D01*
X70547619Y-29250000D01*
X70500000Y-29392857D01*
X70404761Y-29488095D01*
X70309523Y-29535714D01*
X70119047Y-29583333D01*
X69976190Y-29583333D01*
X69785714Y-29535714D01*
X69690476Y-29488095D01*
X69595238Y-29392857D01*
X69547619Y-29250000D01*
X69547619Y-29154761D01*
X69595238Y-29011904D01*
X69642857Y-28964285D01*
X69976190Y-28964285D01*
X69976190Y-29154761D01*
X69547619Y-28535714D02*
X70547619Y-28535714D01*
X69547619Y-27964285D01*
X70547619Y-27964285D01*
X69547619Y-27488095D02*
X70547619Y-27488095D01*
X70547619Y-27250000D01*
X70500000Y-27107142D01*
X70404761Y-27011904D01*
X70309523Y-26964285D01*
X70119047Y-26916666D01*
X69976190Y-26916666D01*
X69785714Y-26964285D01*
X69690476Y-27011904D01*
X69595238Y-27107142D01*
X69547619Y-27250000D01*
X69547619Y-27488095D01*
X68000000Y-29011904D02*
X68047619Y-29107142D01*
X68047619Y-29250000D01*
X68000000Y-29392857D01*
X67904761Y-29488095D01*
X67809523Y-29535714D01*
X67619047Y-29583333D01*
X67476190Y-29583333D01*
X67285714Y-29535714D01*
X67190476Y-29488095D01*
X67095238Y-29392857D01*
X67047619Y-29250000D01*
X67047619Y-29154761D01*
X67095238Y-29011904D01*
X67142857Y-28964285D01*
X67476190Y-28964285D01*
X67476190Y-29154761D01*
X67047619Y-28535714D02*
X68047619Y-28535714D01*
X67047619Y-27964285D01*
X68047619Y-27964285D01*
X67047619Y-27488095D02*
X68047619Y-27488095D01*
X68047619Y-27250000D01*
X68000000Y-27107142D01*
X67904761Y-27011904D01*
X67809523Y-26964285D01*
X67619047Y-26916666D01*
X67476190Y-26916666D01*
X67285714Y-26964285D01*
X67190476Y-27011904D01*
X67095238Y-27107142D01*
X67047619Y-27250000D01*
X67047619Y-27488095D01*
X67047619Y-35242857D02*
X68047619Y-35242857D01*
X67047619Y-34671428D01*
X68047619Y-34671428D01*
X67047619Y-33623809D02*
X67523809Y-33957142D01*
X67047619Y-34195238D02*
X68047619Y-34195238D01*
X68047619Y-33814285D01*
X68000000Y-33719047D01*
X67952380Y-33671428D01*
X67857142Y-33623809D01*
X67714285Y-33623809D01*
X67619047Y-33671428D01*
X67571428Y-33719047D01*
X67523809Y-33814285D01*
X67523809Y-34195238D01*
X67095238Y-33242857D02*
X67047619Y-33100000D01*
X67047619Y-32861904D01*
X67095238Y-32766666D01*
X67142857Y-32719047D01*
X67238095Y-32671428D01*
X67333333Y-32671428D01*
X67428571Y-32719047D01*
X67476190Y-32766666D01*
X67523809Y-32861904D01*
X67571428Y-33052380D01*
X67619047Y-33147619D01*
X67666666Y-33195238D01*
X67761904Y-33242857D01*
X67857142Y-33242857D01*
X67952380Y-33195238D01*
X68000000Y-33147619D01*
X68047619Y-33052380D01*
X68047619Y-32814285D01*
X68000000Y-32671428D01*
X68047619Y-32385714D02*
X68047619Y-31814285D01*
X67047619Y-32100000D02*
X68047619Y-32100000D01*
X72095238Y-36119047D02*
X72047619Y-35976190D01*
X72047619Y-35738095D01*
X72095238Y-35642857D01*
X72142857Y-35595238D01*
X72238095Y-35547619D01*
X72333333Y-35547619D01*
X72428571Y-35595238D01*
X72476190Y-35642857D01*
X72523809Y-35738095D01*
X72571428Y-35928571D01*
X72619047Y-36023809D01*
X72666666Y-36071428D01*
X72761904Y-36119047D01*
X72857142Y-36119047D01*
X72952380Y-36071428D01*
X73000000Y-36023809D01*
X73047619Y-35928571D01*
X73047619Y-35690476D01*
X73000000Y-35547619D01*
X73047619Y-35214285D02*
X72047619Y-34976190D01*
X72761904Y-34785714D01*
X72047619Y-34595238D01*
X73047619Y-34357142D01*
X72047619Y-33976190D02*
X73047619Y-33976190D01*
X73047619Y-33738095D01*
X73000000Y-33595238D01*
X72904761Y-33500000D01*
X72809523Y-33452380D01*
X72619047Y-33404761D01*
X72476190Y-33404761D01*
X72285714Y-33452380D01*
X72190476Y-33500000D01*
X72095238Y-33595238D01*
X72047619Y-33738095D01*
X72047619Y-33976190D01*
X72047619Y-32976190D02*
X73047619Y-32976190D01*
X73047619Y-32309523D02*
X73047619Y-32119047D01*
X73000000Y-32023809D01*
X72904761Y-31928571D01*
X72714285Y-31880952D01*
X72380952Y-31880952D01*
X72190476Y-31928571D01*
X72095238Y-32023809D01*
X72047619Y-32119047D01*
X72047619Y-32309523D01*
X72095238Y-32404761D01*
X72190476Y-32500000D01*
X72380952Y-32547619D01*
X72714285Y-32547619D01*
X72904761Y-32500000D01*
X73000000Y-32404761D01*
X73047619Y-32309523D01*
X70795238Y-36461904D02*
X70747619Y-36319047D01*
X70747619Y-36080952D01*
X70795238Y-35985714D01*
X70842857Y-35938095D01*
X70938095Y-35890476D01*
X71033333Y-35890476D01*
X71128571Y-35938095D01*
X71176190Y-35985714D01*
X71223809Y-36080952D01*
X71271428Y-36271428D01*
X71319047Y-36366666D01*
X71366666Y-36414285D01*
X71461904Y-36461904D01*
X71557142Y-36461904D01*
X71652380Y-36414285D01*
X71700000Y-36366666D01*
X71747619Y-36271428D01*
X71747619Y-36033333D01*
X71700000Y-35890476D01*
X71747619Y-35557142D02*
X70747619Y-35319047D01*
X71461904Y-35128571D01*
X70747619Y-34938095D01*
X71747619Y-34700000D01*
X70842857Y-33747619D02*
X70795238Y-33795238D01*
X70747619Y-33938095D01*
X70747619Y-34033333D01*
X70795238Y-34176190D01*
X70890476Y-34271428D01*
X70985714Y-34319047D01*
X71176190Y-34366666D01*
X71319047Y-34366666D01*
X71509523Y-34319047D01*
X71604761Y-34271428D01*
X71700000Y-34176190D01*
X71747619Y-34033333D01*
X71747619Y-33938095D01*
X71700000Y-33795238D01*
X71652380Y-33747619D01*
X70747619Y-32842857D02*
X70747619Y-33319047D01*
X71747619Y-33319047D01*
X70747619Y-32509523D02*
X71747619Y-32509523D01*
X70747619Y-31938095D02*
X71319047Y-32366666D01*
X71747619Y-31938095D02*
X71176190Y-32509523D01*
X69595238Y-34630952D02*
X69547619Y-34488095D01*
X69547619Y-34250000D01*
X69595238Y-34154761D01*
X69642857Y-34107142D01*
X69738095Y-34059523D01*
X69833333Y-34059523D01*
X69928571Y-34107142D01*
X69976190Y-34154761D01*
X70023809Y-34250000D01*
X70071428Y-34440476D01*
X70119047Y-34535714D01*
X70166666Y-34583333D01*
X70261904Y-34630952D01*
X70357142Y-34630952D01*
X70452380Y-34583333D01*
X70500000Y-34535714D01*
X70547619Y-34440476D01*
X70547619Y-34202380D01*
X70500000Y-34059523D01*
X70547619Y-33726190D02*
X69547619Y-33488095D01*
X70261904Y-33297619D01*
X69547619Y-33107142D01*
X70547619Y-32869047D01*
X70547619Y-32297619D02*
X70547619Y-32107142D01*
X70500000Y-32011904D01*
X70404761Y-31916666D01*
X70214285Y-31869047D01*
X69880952Y-31869047D01*
X69690476Y-31916666D01*
X69595238Y-32011904D01*
X69547619Y-32107142D01*
X69547619Y-32297619D01*
X69595238Y-32392857D01*
X69690476Y-32488095D01*
X69880952Y-32535714D01*
X70214285Y-32535714D01*
X70404761Y-32488095D01*
X70500000Y-32392857D01*
X70547619Y-32297619D01*
X88761904Y-45500000D02*
X88857142Y-45452380D01*
X89000000Y-45452380D01*
X89142857Y-45500000D01*
X89238095Y-45595238D01*
X89285714Y-45690476D01*
X89333333Y-45880952D01*
X89333333Y-46023809D01*
X89285714Y-46214285D01*
X89238095Y-46309523D01*
X89142857Y-46404761D01*
X89000000Y-46452380D01*
X88904761Y-46452380D01*
X88761904Y-46404761D01*
X88714285Y-46357142D01*
X88714285Y-46023809D01*
X88904761Y-46023809D01*
X88285714Y-46452380D02*
X88285714Y-45452380D01*
X87714285Y-46452380D01*
X87714285Y-45452380D01*
X87238095Y-46452380D02*
X87238095Y-45452380D01*
X87000000Y-45452380D01*
X86857142Y-45500000D01*
X86761904Y-45595238D01*
X86714285Y-45690476D01*
X86666666Y-45880952D01*
X86666666Y-46023809D01*
X86714285Y-46214285D01*
X86761904Y-46309523D01*
X86857142Y-46404761D01*
X87000000Y-46452380D01*
X87238095Y-46452380D01*
X89511904Y-38321428D02*
X88750000Y-38321428D01*
X89130952Y-38702380D02*
X89130952Y-37940476D01*
X88369047Y-37702380D02*
X87750000Y-37702380D01*
X88083333Y-38083333D01*
X87940476Y-38083333D01*
X87845238Y-38130952D01*
X87797619Y-38178571D01*
X87750000Y-38273809D01*
X87750000Y-38511904D01*
X87797619Y-38607142D01*
X87845238Y-38654761D01*
X87940476Y-38702380D01*
X88226190Y-38702380D01*
X88321428Y-38654761D01*
X88369047Y-38607142D01*
X87464285Y-37702380D02*
X87130952Y-38702380D01*
X86797619Y-37702380D01*
X86559523Y-37702380D02*
X85940476Y-37702380D01*
X86273809Y-38083333D01*
X86130952Y-38083333D01*
X86035714Y-38130952D01*
X85988095Y-38178571D01*
X85940476Y-38273809D01*
X85940476Y-38511904D01*
X85988095Y-38607142D01*
X86035714Y-38654761D01*
X86130952Y-38702380D01*
X86416666Y-38702380D01*
X86511904Y-38654761D01*
X86559523Y-38607142D01*
X89011904Y-42952380D02*
X88440476Y-42952380D01*
X88726190Y-43952380D02*
X88726190Y-42952380D01*
X88202380Y-42952380D02*
X87535714Y-43952380D01*
X87535714Y-42952380D02*
X88202380Y-43952380D01*
X88416666Y-41202380D02*
X88750000Y-40726190D01*
X88988095Y-41202380D02*
X88988095Y-40202380D01*
X88607142Y-40202380D01*
X88511904Y-40250000D01*
X88464285Y-40297619D01*
X88416666Y-40392857D01*
X88416666Y-40535714D01*
X88464285Y-40630952D01*
X88511904Y-40678571D01*
X88607142Y-40726190D01*
X88988095Y-40726190D01*
X88083333Y-40202380D02*
X87416666Y-41202380D01*
X87416666Y-40202380D02*
X88083333Y-41202380D01*
X62190476Y-34904761D02*
X62047619Y-34952380D01*
X61809523Y-34952380D01*
X61714285Y-34904761D01*
X61666666Y-34857142D01*
X61619047Y-34761904D01*
X61619047Y-34666666D01*
X61666666Y-34571428D01*
X61714285Y-34523809D01*
X61809523Y-34476190D01*
X62000000Y-34428571D01*
X62095238Y-34380952D01*
X62142857Y-34333333D01*
X62190476Y-34238095D01*
X62190476Y-34142857D01*
X62142857Y-34047619D01*
X62095238Y-34000000D01*
X62000000Y-33952380D01*
X61761904Y-33952380D01*
X61619047Y-34000000D01*
X60619047Y-34857142D02*
X60666666Y-34904761D01*
X60809523Y-34952380D01*
X60904761Y-34952380D01*
X61047619Y-34904761D01*
X61142857Y-34809523D01*
X61190476Y-34714285D01*
X61238095Y-34523809D01*
X61238095Y-34380952D01*
X61190476Y-34190476D01*
X61142857Y-34095238D01*
X61047619Y-34000000D01*
X60904761Y-33952380D01*
X60809523Y-33952380D01*
X60666666Y-34000000D01*
X60619047Y-34047619D01*
X59714285Y-34952380D02*
X60190476Y-34952380D01*
X60190476Y-33952380D01*
X58464285Y-34904761D02*
X58321428Y-34952380D01*
X58083333Y-34952380D01*
X57988095Y-34904761D01*
X57940476Y-34857142D01*
X57892857Y-34761904D01*
X57892857Y-34666666D01*
X57940476Y-34571428D01*
X57988095Y-34523809D01*
X58083333Y-34476190D01*
X58273809Y-34428571D01*
X58369047Y-34380952D01*
X58416666Y-34333333D01*
X58464285Y-34238095D01*
X58464285Y-34142857D01*
X58416666Y-34047619D01*
X58369047Y-34000000D01*
X58273809Y-33952380D01*
X58035714Y-33952380D01*
X57892857Y-34000000D01*
X57464285Y-34952380D02*
X57464285Y-33952380D01*
X57226190Y-33952380D01*
X57083333Y-34000000D01*
X56988095Y-34095238D01*
X56940476Y-34190476D01*
X56892857Y-34380952D01*
X56892857Y-34523809D01*
X56940476Y-34714285D01*
X56988095Y-34809523D01*
X57083333Y-34904761D01*
X57226190Y-34952380D01*
X57464285Y-34952380D01*
X56511904Y-34666666D02*
X56035714Y-34666666D01*
X56607142Y-34952380D02*
X56273809Y-33952380D01*
X55940476Y-34952380D01*
X83988095Y-64202380D02*
X83988095Y-63202380D01*
X83607142Y-63202380D01*
X83511904Y-63250000D01*
X83464285Y-63297619D01*
X83416666Y-63392857D01*
X83416666Y-63535714D01*
X83464285Y-63630952D01*
X83511904Y-63678571D01*
X83607142Y-63726190D01*
X83988095Y-63726190D01*
X82654761Y-63678571D02*
X82511904Y-63726190D01*
X82464285Y-63773809D01*
X82416666Y-63869047D01*
X82416666Y-64011904D01*
X82464285Y-64107142D01*
X82511904Y-64154761D01*
X82607142Y-64202380D01*
X82988095Y-64202380D01*
X82988095Y-63202380D01*
X82654761Y-63202380D01*
X82559523Y-63250000D01*
X82511904Y-63297619D01*
X82464285Y-63392857D01*
X82464285Y-63488095D01*
X82511904Y-63583333D01*
X82559523Y-63630952D01*
X82654761Y-63678571D01*
X82988095Y-63678571D01*
X81464285Y-64202380D02*
X82035714Y-64202380D01*
X81750000Y-64202380D02*
X81750000Y-63202380D01*
X81845238Y-63345238D01*
X81940476Y-63440476D01*
X82035714Y-63488095D01*
X78988095Y-64202380D02*
X78988095Y-63202380D01*
X78607142Y-63202380D01*
X78511904Y-63250000D01*
X78464285Y-63297619D01*
X78416666Y-63392857D01*
X78416666Y-63535714D01*
X78464285Y-63630952D01*
X78511904Y-63678571D01*
X78607142Y-63726190D01*
X78988095Y-63726190D01*
X77654761Y-63678571D02*
X77511904Y-63726190D01*
X77464285Y-63773809D01*
X77416666Y-63869047D01*
X77416666Y-64011904D01*
X77464285Y-64107142D01*
X77511904Y-64154761D01*
X77607142Y-64202380D01*
X77988095Y-64202380D01*
X77988095Y-63202380D01*
X77654761Y-63202380D01*
X77559523Y-63250000D01*
X77511904Y-63297619D01*
X77464285Y-63392857D01*
X77464285Y-63488095D01*
X77511904Y-63583333D01*
X77559523Y-63630952D01*
X77654761Y-63678571D01*
X77988095Y-63678571D01*
X76797619Y-63202380D02*
X76702380Y-63202380D01*
X76607142Y-63250000D01*
X76559523Y-63297619D01*
X76511904Y-63392857D01*
X76464285Y-63583333D01*
X76464285Y-63821428D01*
X76511904Y-64011904D01*
X76559523Y-64107142D01*
X76607142Y-64154761D01*
X76702380Y-64202380D01*
X76797619Y-64202380D01*
X76892857Y-64154761D01*
X76940476Y-64107142D01*
X76988095Y-64011904D01*
X77035714Y-63821428D01*
X77035714Y-63583333D01*
X76988095Y-63392857D01*
X76940476Y-63297619D01*
X76892857Y-63250000D01*
X76797619Y-63202380D01*
X73988095Y-64202380D02*
X73988095Y-63202380D01*
X73607142Y-63202380D01*
X73511904Y-63250000D01*
X73464285Y-63297619D01*
X73416666Y-63392857D01*
X73416666Y-63535714D01*
X73464285Y-63630952D01*
X73511904Y-63678571D01*
X73607142Y-63726190D01*
X73988095Y-63726190D01*
X72416666Y-64107142D02*
X72464285Y-64154761D01*
X72607142Y-64202380D01*
X72702380Y-64202380D01*
X72845238Y-64154761D01*
X72940476Y-64059523D01*
X72988095Y-63964285D01*
X73035714Y-63773809D01*
X73035714Y-63630952D01*
X72988095Y-63440476D01*
X72940476Y-63345238D01*
X72845238Y-63250000D01*
X72702380Y-63202380D01*
X72607142Y-63202380D01*
X72464285Y-63250000D01*
X72416666Y-63297619D01*
X71559523Y-63535714D02*
X71559523Y-64202380D01*
X71797619Y-63154761D02*
X72035714Y-63869047D01*
X71416666Y-63869047D01*
X68916666Y-64202380D02*
X68916666Y-63202380D01*
X68535714Y-63202380D01*
X68440476Y-63250000D01*
X68392857Y-63297619D01*
X68345238Y-63392857D01*
X68345238Y-63535714D01*
X68392857Y-63630952D01*
X68440476Y-63678571D01*
X68535714Y-63726190D01*
X68916666Y-63726190D01*
X67964285Y-63916666D02*
X67488095Y-63916666D01*
X68059523Y-64202380D02*
X67726190Y-63202380D01*
X67392857Y-64202380D01*
X67154761Y-63202380D02*
X66488095Y-63202380D01*
X66916666Y-64202380D01*
X63916666Y-64202380D02*
X63916666Y-63202380D01*
X63535714Y-63202380D01*
X63440476Y-63250000D01*
X63392857Y-63297619D01*
X63345238Y-63392857D01*
X63345238Y-63535714D01*
X63392857Y-63630952D01*
X63440476Y-63678571D01*
X63535714Y-63726190D01*
X63916666Y-63726190D01*
X62964285Y-63916666D02*
X62488095Y-63916666D01*
X63059523Y-64202380D02*
X62726190Y-63202380D01*
X62392857Y-64202380D01*
X61630952Y-63202380D02*
X61821428Y-63202380D01*
X61916666Y-63250000D01*
X61964285Y-63297619D01*
X62059523Y-63440476D01*
X62107142Y-63630952D01*
X62107142Y-64011904D01*
X62059523Y-64107142D01*
X62011904Y-64154761D01*
X61916666Y-64202380D01*
X61726190Y-64202380D01*
X61630952Y-64154761D01*
X61583333Y-64107142D01*
X61535714Y-64011904D01*
X61535714Y-63773809D01*
X61583333Y-63678571D01*
X61630952Y-63630952D01*
X61726190Y-63583333D01*
X61916666Y-63583333D01*
X62011904Y-63630952D01*
X62059523Y-63678571D01*
X62107142Y-63773809D01*
X58916666Y-64202380D02*
X58916666Y-63202380D01*
X58535714Y-63202380D01*
X58440476Y-63250000D01*
X58392857Y-63297619D01*
X58345238Y-63392857D01*
X58345238Y-63535714D01*
X58392857Y-63630952D01*
X58440476Y-63678571D01*
X58535714Y-63726190D01*
X58916666Y-63726190D01*
X57964285Y-63916666D02*
X57488095Y-63916666D01*
X58059523Y-64202380D02*
X57726190Y-63202380D01*
X57392857Y-64202380D01*
X56583333Y-63202380D02*
X57059523Y-63202380D01*
X57107142Y-63678571D01*
X57059523Y-63630952D01*
X56964285Y-63583333D01*
X56726190Y-63583333D01*
X56630952Y-63630952D01*
X56583333Y-63678571D01*
X56535714Y-63773809D01*
X56535714Y-64011904D01*
X56583333Y-64107142D01*
X56630952Y-64154761D01*
X56726190Y-64202380D01*
X56964285Y-64202380D01*
X57059523Y-64154761D01*
X57107142Y-64107142D01*
X53916666Y-64202380D02*
X53916666Y-63202380D01*
X53535714Y-63202380D01*
X53440476Y-63250000D01*
X53392857Y-63297619D01*
X53345238Y-63392857D01*
X53345238Y-63535714D01*
X53392857Y-63630952D01*
X53440476Y-63678571D01*
X53535714Y-63726190D01*
X53916666Y-63726190D01*
X52964285Y-63916666D02*
X52488095Y-63916666D01*
X53059523Y-64202380D02*
X52726190Y-63202380D01*
X52392857Y-64202380D01*
X51630952Y-63535714D02*
X51630952Y-64202380D01*
X51869047Y-63154761D02*
X52107142Y-63869047D01*
X51488095Y-63869047D01*
X49166666Y-64202380D02*
X49166666Y-63202380D01*
X48785714Y-63202380D01*
X48690476Y-63250000D01*
X48642857Y-63297619D01*
X48595238Y-63392857D01*
X48595238Y-63535714D01*
X48642857Y-63630952D01*
X48690476Y-63678571D01*
X48785714Y-63726190D01*
X49166666Y-63726190D01*
X48214285Y-63916666D02*
X47738095Y-63916666D01*
X48309523Y-64202380D02*
X47976190Y-63202380D01*
X47642857Y-64202380D01*
X47357142Y-63297619D02*
X47309523Y-63250000D01*
X47214285Y-63202380D01*
X46976190Y-63202380D01*
X46880952Y-63250000D01*
X46833333Y-63297619D01*
X46785714Y-63392857D01*
X46785714Y-63488095D01*
X46833333Y-63630952D01*
X47404761Y-64202380D01*
X46785714Y-64202380D01*
X43916666Y-64202380D02*
X43916666Y-63202380D01*
X43535714Y-63202380D01*
X43440476Y-63250000D01*
X43392857Y-63297619D01*
X43345238Y-63392857D01*
X43345238Y-63535714D01*
X43392857Y-63630952D01*
X43440476Y-63678571D01*
X43535714Y-63726190D01*
X43916666Y-63726190D01*
X42964285Y-63916666D02*
X42488095Y-63916666D01*
X43059523Y-64202380D02*
X42726190Y-63202380D01*
X42392857Y-64202380D01*
X41535714Y-64202380D02*
X42107142Y-64202380D01*
X41821428Y-64202380D02*
X41821428Y-63202380D01*
X41916666Y-63345238D01*
X42011904Y-63440476D01*
X42107142Y-63488095D01*
X38916666Y-64202380D02*
X38916666Y-63202380D01*
X38535714Y-63202380D01*
X38440476Y-63250000D01*
X38392857Y-63297619D01*
X38345238Y-63392857D01*
X38345238Y-63535714D01*
X38392857Y-63630952D01*
X38440476Y-63678571D01*
X38535714Y-63726190D01*
X38916666Y-63726190D01*
X37964285Y-63916666D02*
X37488095Y-63916666D01*
X38059523Y-64202380D02*
X37726190Y-63202380D01*
X37392857Y-64202380D01*
X36869047Y-63202380D02*
X36773809Y-63202380D01*
X36678571Y-63250000D01*
X36630952Y-63297619D01*
X36583333Y-63392857D01*
X36535714Y-63583333D01*
X36535714Y-63821428D01*
X36583333Y-64011904D01*
X36630952Y-64107142D01*
X36678571Y-64154761D01*
X36773809Y-64202380D01*
X36869047Y-64202380D01*
X36964285Y-64154761D01*
X37011904Y-64107142D01*
X37059523Y-64011904D01*
X37107142Y-63821428D01*
X37107142Y-63583333D01*
X37059523Y-63392857D01*
X37011904Y-63297619D01*
X36964285Y-63250000D01*
X36869047Y-63202380D01*
M02*
