M48
; DRILL file {KiCad (5.1.9)-1} date 03/08/21 12:26:04
; FORMAT={-:-/ absolute / inch / decimal}
; #@! TF.CreationDate,2021-03-08T12:26:04+05:30
; #@! TF.GenerationSoftware,Kicad,Pcbnew,(5.1.9)-1
; #@! TF.FileFunction,Plated,1,4,PTH
FMAT,2
INCH
T1C0.0157
T2C0.0197
T3C0.0256
T4C0.0276
T5C0.0354
T6C0.0429
T7C0.0512
T8C0.0591
T9C0.1260
%
G90
G05
T1
X1.0827Y-1.378
X1.0827Y-1.4764
X1.0827Y-1.5748
X1.0827Y-1.6732
X1.0827Y-2.2638
X1.0827Y-2.3622
X1.0827Y-2.4606
X1.1811Y-1.378
X1.1811Y-1.4764
X1.1811Y-1.5748
X1.1811Y-1.6732
X1.1811Y-2.3622
X1.1811Y-2.4606
X1.2795Y-1.378
X1.2795Y-1.378
X1.2795Y-1.4764
X1.2795Y-1.5748
X1.2795Y-1.6732
X1.2795Y-2.3622
X1.2795Y-2.4606
X1.3228Y-1.7953
X1.378Y-2.2638
X1.378Y-2.3622
X1.378Y-2.4606
X1.378Y-2.7559
X1.4764Y-2.7559
X1.4803Y-1.4331
X1.4803Y-1.4646
X1.4803Y-1.4961
X1.5175Y-1.5337
X1.5748Y-2.7559
X1.6Y-1.3441
X1.6142Y-1.8504
X1.6142Y-1.9291
X1.6142Y-2.0079
X1.6142Y-2.0866
X1.6142Y-2.1654
X1.6142Y-2.2441
X1.6142Y-2.3228
X1.622Y-1.6339
X1.622Y-1.6732
X1.627Y-1.3973
X1.6339Y-1.3478
X1.6732Y-2.7559
X1.6929Y-1.8504
X1.6929Y-1.9291
X1.6929Y-2.0079
X1.6929Y-2.0866
X1.6929Y-2.1654
X1.6929Y-2.2441
X1.6929Y-2.3228
X1.7717Y-1.8504
X1.7717Y-1.9291
X1.7717Y-2.0079
X1.7717Y-2.0866
X1.7717Y-2.1654
X1.7717Y-2.2441
X1.7717Y-2.3228
X1.7717Y-2.7559
X1.8189Y-1.5669
X1.8189Y-1.6024
X1.8425Y-1.3622
X1.8425Y-1.4016
X1.8504Y-1.8504
X1.8504Y-1.9291
X1.8504Y-2.0079
X1.8504Y-2.0866
X1.8504Y-2.1654
X1.8504Y-2.2441
X1.8504Y-2.3228
X1.8695Y-1.775
X1.8701Y-2.7559
X1.874Y-1.0906
X1.8819Y-1.2047
X1.8819Y-1.2441
X1.8819Y-1.2835
X1.8819Y-1.3228
X1.8819Y-1.3622
X1.8819Y-1.4016
X1.9083Y-1.0917
X1.9213Y-1.2047
X1.9213Y-1.2441
X1.9213Y-1.2835
X1.9213Y-1.3228
X1.9213Y-1.3622
X1.9213Y-1.4016
X1.9213Y-2.0276
X1.9291Y-2.0866
X1.9291Y-2.1654
X1.9291Y-2.2441
X1.9331Y-2.2992
X1.9331Y-2.3504
X1.9466Y-1.8644
X1.9685Y-2.7559
X1.9713Y-2.0248
X1.9843Y-2.2992
X1.9843Y-2.3504
X2.024Y-1.4492
X2.0669Y-1.0827
X2.0669Y-1.1811
X2.0669Y-1.2795
X2.0669Y-1.378
X2.0669Y-2.7559
X2.0748Y-1.7953
X2.0758Y-1.8415
X2.089Y-1.4512
X2.1171Y-1.8415
X2.1181Y-1.7953
X2.122Y-2.2402
X2.122Y-2.2756
X2.1496Y-2.063
X2.1496Y-2.0945
X2.1654Y-1.0827
X2.1654Y-1.378
X2.1654Y-2.7559
X2.1975Y-1.8673
X2.2638Y-1.0827
X2.2638Y-2.7559
X2.3031Y-2.3189
X2.3031Y-2.3533
X2.3386Y-1.4646
X2.3406Y-2.3386
X2.3431Y-1.6593
X2.3612Y-1.5876
X2.3622Y-1.0827
X2.3622Y-1.8898
X2.3622Y-1.9685
X2.3622Y-2.0472
X2.3622Y-2.7559
X2.3751Y-2.3386
X2.3825Y-1.6581
X2.3971Y-1.6045
X2.4409Y-1.8898
X2.4409Y-1.9685
X2.4409Y-2.0472
X2.4606Y-1.0827
X2.4606Y-1.378
X2.4606Y-2.7559
X2.5197Y-1.8898
X2.5197Y-1.9685
X2.5197Y-2.0472
X2.5366Y-1.4634
X2.5591Y-1.0827
X2.5591Y-1.378
X2.5591Y-2.7559
X2.5861Y-2.3813
X2.5876Y-1.5148
X2.5984Y-1.8898
X2.5984Y-1.9685
X2.5984Y-2.0472
X2.6575Y-2.7559
X2.6944Y-2.3568
X2.6944Y-2.3883
X2.7087Y-2.2323
X2.7559Y-1.7992
X2.7559Y-2.7559
X2.7598Y-2.2323
X2.7882Y-2.2473
X2.7953Y-2.3228
X2.7953Y-2.3622
X2.8497Y-1.771
X2.8543Y-2.7559
X2.8559Y-1.0291
X2.874Y-2.3228
X2.874Y-2.3622
X2.9055Y-1.0276
X2.9055Y-2.2559
X2.937Y-2.0748
X2.9469Y-2.2559
X2.9528Y-1.0827
X2.9528Y-1.1811
X2.9528Y-1.5748
X2.9528Y-1.6732
X2.9528Y-1.7717
X2.9528Y-2.3228
X2.9528Y-2.3622
X2.9528Y-2.7559
X2.9606Y-1.4449
X2.9665Y-2.1772
X2.9882Y-2.2146
X3.0315Y-2.2047
X3.0315Y-2.2835
X3.0315Y-2.3622
X3.0512Y-1.0827
X3.0512Y-1.1811
X3.0512Y-1.5748
X3.0512Y-1.6732
X3.0512Y-1.7717
X3.0512Y-2.7559
X3.1102Y-2.2047
X3.1102Y-2.2835
X3.1102Y-2.3622
X3.1339Y-1.4528
X3.1496Y-1.0827
X3.1496Y-1.1811
X3.1496Y-1.5748
X3.1496Y-1.6732
X3.1496Y-1.7717
X3.1496Y-1.8504
X3.1496Y-2.7559
X3.2047Y-2.2913
X3.248Y-1.0827
X3.248Y-1.1811
X3.248Y-1.5748
X3.248Y-1.6732
X3.248Y-1.7717
X3.248Y-2.7559
X3.252Y-2.0551
X3.2677Y-1.9291
X3.3465Y-1.0827
X3.3465Y-1.1811
X3.3465Y-1.5748
X3.3465Y-1.8504
X3.3465Y-1.9291
X3.3465Y-2.7559
X3.4252Y-1.8504
X3.4252Y-1.9291
X3.4252Y-2.0551
X3.4449Y-2.4606
X3.4803Y-1.8346
X3.4803Y-1.9567
X3.4803Y-1.9921
X3.6417Y-2.4606
X3.6449Y-1.878
X3.6457Y-1.437
T2
X1.0866Y-1.1811
X1.0866Y-2.6378
X1.1143Y-1.1143
X1.1143Y-1.2479
X1.1143Y-2.571
X1.1143Y-2.7046
X1.1811Y-1.0866
X1.1811Y-1.2756
X1.1811Y-2.5433
X1.1811Y-2.7323
X1.2479Y-1.1143
X1.2479Y-1.2479
X1.2479Y-2.571
X1.2479Y-2.7046
X1.2756Y-1.1811
X1.2756Y-2.6378
X3.4488Y-1.1811
X3.4488Y-2.6378
X3.4765Y-1.1143
X3.4765Y-1.2479
X3.4765Y-2.571
X3.4765Y-2.7046
X3.5433Y-1.0866
X3.5433Y-1.2756
X3.5433Y-2.5433
X3.5433Y-2.7323
X3.6101Y-1.1143
X3.6101Y-1.2479
X3.6101Y-2.571
X3.6101Y-2.7046
X3.6378Y-1.1811
X3.6378Y-2.6378
T5
X3.0709Y-1.2992
X3.1496Y-1.2992
X3.2283Y-1.2992
T6
X2.1803Y-1.2598
X2.2803Y-1.2598
X2.3803Y-1.2598
X2.4803Y-1.2598
X3.5748Y-1.5079
X3.5748Y-1.6079
X3.5748Y-1.7079
X3.5748Y-1.8079
T7
X1.275Y-2.065
X1.275Y-2.265
X1.485Y-2.63
X1.6819Y-2.63
X1.8787Y-2.63
X2.0756Y-2.63
X2.2724Y-2.63
X2.4693Y-2.63
X2.6661Y-2.63
X2.863Y-2.63
X3.0598Y-2.63
X3.2567Y-2.63
T8
X2.9882Y-1.2992
X3.311Y-1.2992
T9
X1.1811Y-1.1811
X1.1811Y-2.6378
X3.5433Y-1.1811
X3.5433Y-2.6378
T3
G00X3.5478Y-2.0159
M15
G01X3.5321Y-2.0159
M16
G05
G00X3.5478Y-2.2065
M15
G01X3.5321Y-2.2065
M16
G05
T4
G00X3.6679Y-2.0037
M15
G01X3.6482Y-2.0037
M16
G05
G00X3.6679Y-2.2187
M15
G01X3.6482Y-2.2187
M16
G05
T0
M30
