%TF.GenerationSoftware,KiCad,Pcbnew,(5.1.9)-1*%
%TF.CreationDate,2021-03-08T12:26:08+05:30*%
%TF.ProjectId,STM32F4,53544d33-3246-4342-9e6b-696361645f70,rev?*%
%TF.SameCoordinates,Original*%
%TF.FileFunction,Copper,L2,Inr*%
%TF.FilePolarity,Positive*%
%FSLAX46Y46*%
G04 Gerber Fmt 4.6, Leading zero omitted, Abs format (unit mm)*
G04 Created by KiCad (PCBNEW (5.1.9)-1) date 2021-03-08 12:26:08*
%MOMM*%
%LPD*%
G01*
G04 APERTURE LIST*
%TA.AperFunction,ComponentPad*%
%ADD10C,6.400000*%
%TD*%
%TA.AperFunction,ComponentPad*%
%ADD11C,0.800000*%
%TD*%
%TA.AperFunction,ComponentPad*%
%ADD12C,2.600000*%
%TD*%
%TA.AperFunction,ComponentPad*%
%ADD13R,2.600000X2.600000*%
%TD*%
%TA.AperFunction,ComponentPad*%
%ADD14C,1.740000*%
%TD*%
%TA.AperFunction,ComponentPad*%
%ADD15R,1.500000X2.500000*%
%TD*%
%TA.AperFunction,ComponentPad*%
%ADD16O,1.500000X2.500000*%
%TD*%
%TA.AperFunction,ComponentPad*%
%ADD17O,2.200000X3.500000*%
%TD*%
%TA.AperFunction,ComponentPad*%
%ADD18O,1.500000X1.100000*%
%TD*%
%TA.AperFunction,ComponentPad*%
%ADD19O,1.700000X1.350000*%
%TD*%
%TA.AperFunction,ViaPad*%
%ADD20C,0.800000*%
%TD*%
%TA.AperFunction,Conductor*%
%ADD21C,0.254000*%
%TD*%
%TA.AperFunction,Conductor*%
%ADD22C,0.100000*%
%TD*%
G04 APERTURE END LIST*
D10*
%TO.N,GND*%
%TO.C,H4*%
X90000000Y-67000000D03*
D11*
X92400000Y-67000000D03*
X91697056Y-68697056D03*
X90000000Y-69400000D03*
X88302944Y-68697056D03*
X87600000Y-67000000D03*
X88302944Y-65302944D03*
X90000000Y-64600000D03*
X91697056Y-65302944D03*
%TD*%
%TO.N,GND*%
%TO.C,H3*%
X91697056Y-28302944D03*
X90000000Y-27600000D03*
X88302944Y-28302944D03*
X87600000Y-30000000D03*
X88302944Y-31697056D03*
X90000000Y-32400000D03*
X91697056Y-31697056D03*
X92400000Y-30000000D03*
D10*
X90000000Y-30000000D03*
%TD*%
D11*
%TO.N,GND*%
%TO.C,H2*%
X31697056Y-28302944D03*
X30000000Y-27600000D03*
X28302944Y-28302944D03*
X27600000Y-30000000D03*
X28302944Y-31697056D03*
X30000000Y-32400000D03*
X31697056Y-31697056D03*
X32400000Y-30000000D03*
D10*
X30000000Y-30000000D03*
%TD*%
D11*
%TO.N,GND*%
%TO.C,H1*%
X31697056Y-65302944D03*
X30000000Y-64600000D03*
X28302944Y-65302944D03*
X27600000Y-67000000D03*
X28302944Y-68697056D03*
X30000000Y-69400000D03*
X31697056Y-68697056D03*
X32400000Y-67000000D03*
D10*
X30000000Y-67000000D03*
%TD*%
D12*
%TO.N,GND*%
%TO.C,J1*%
X32385000Y-57531000D03*
D13*
%TO.N,+12V*%
X32385000Y-52451000D03*
%TD*%
D14*
%TO.N,GND*%
%TO.C,J4*%
X90800000Y-45920000D03*
%TO.N,USART_TX*%
X90800000Y-43380000D03*
%TO.N,USART_RX*%
X90800000Y-40840000D03*
%TO.N,+3V3*%
%TA.AperFunction,ComponentPad*%
G36*
G01*
X90179999Y-37430000D02*
X91420001Y-37430000D01*
G75*
G02*
X91670000Y-37679999I0J-249999D01*
G01*
X91670000Y-38920001D01*
G75*
G02*
X91420001Y-39170000I-249999J0D01*
G01*
X90179999Y-39170000D01*
G75*
G02*
X89930000Y-38920001I0J249999D01*
G01*
X89930000Y-37679999D01*
G75*
G02*
X90179999Y-37430000I249999J0D01*
G01*
G37*
%TD.AperFunction*%
%TD*%
D15*
%TO.N,+3V3*%
%TO.C,SW1*%
X82000000Y-33000000D03*
D16*
%TO.N,Net-(R10-Pad2)*%
X80000000Y-33000000D03*
%TO.N,GND*%
X78000000Y-33000000D03*
D17*
%TO.N,*%
X84100000Y-33000000D03*
X75900000Y-33000000D03*
%TD*%
D13*
%TO.N,PA0*%
%TO.C,J2*%
X37719000Y-66802000D03*
D12*
%TO.N,PA1*%
X42719000Y-66802000D03*
%TO.N,PA2*%
X47719000Y-66802000D03*
%TO.N,PA4*%
X52719000Y-66802000D03*
%TO.N,PA5*%
X57719000Y-66802000D03*
%TO.N,PA6*%
X62719000Y-66802000D03*
%TO.N,PA7*%
X67719000Y-66802000D03*
%TO.N,PC4*%
X72719000Y-66802000D03*
%TO.N,PB0*%
X77719000Y-66802000D03*
%TO.N,PB1*%
X82719000Y-66802000D03*
%TD*%
%TO.N,+3V3*%
%TO.C,J5*%
%TA.AperFunction,ComponentPad*%
G36*
G01*
X63870000Y-31379999D02*
X63870000Y-32620001D01*
G75*
G02*
X63620001Y-32870000I-249999J0D01*
G01*
X62379999Y-32870000D01*
G75*
G02*
X62130000Y-32620001I0J249999D01*
G01*
X62130000Y-31379999D01*
G75*
G02*
X62379999Y-31130000I249999J0D01*
G01*
X63620001Y-31130000D01*
G75*
G02*
X63870000Y-31379999I0J-249999D01*
G01*
G37*
%TD.AperFunction*%
D14*
%TO.N,I2C1_SCL*%
X60460000Y-32000000D03*
%TO.N,I2C1_SDA*%
X57920000Y-32000000D03*
%TO.N,GND*%
X55380000Y-32000000D03*
%TD*%
D18*
%TO.N,Net-(J6-Pad6)*%
%TO.C,J6*%
X89915000Y-56045000D03*
X89915000Y-51205000D03*
D19*
X92915000Y-56355000D03*
X92915000Y-50895000D03*
%TD*%
D20*
%TO.N,GND*%
X72382500Y-44982500D03*
X68436600Y-59863400D03*
X65686000Y-60486000D03*
X68436600Y-60663400D03*
X50400000Y-58400000D03*
X49100000Y-58400000D03*
X50070500Y-51429500D03*
X48800000Y-51500000D03*
X54600000Y-52400000D03*
X54600000Y-53200000D03*
X53773500Y-46773500D03*
X52726500Y-46773500D03*
X52700000Y-45600000D03*
X53800000Y-45600000D03*
X58500000Y-58900000D03*
X58500000Y-59774990D03*
X75200000Y-36700000D03*
X92580000Y-47700000D03*
X74850000Y-57300000D03*
X46200000Y-39800000D03*
X46200000Y-40700000D03*
X37600000Y-38000000D03*
X37600000Y-37200000D03*
X38544500Y-38955500D03*
X37600000Y-36400000D03*
X49444240Y-47355760D03*
X47485000Y-45085000D03*
X47600000Y-27700000D03*
X48469669Y-27730331D03*
X40640000Y-34140000D03*
X53060520Y-36860480D03*
X60514500Y-42114500D03*
X73800000Y-26100000D03*
X82600000Y-52200000D03*
X88400000Y-49699990D03*
X88400000Y-50600004D03*
X74600000Y-52700000D03*
X41500000Y-34234026D03*
X50400024Y-59700000D03*
X49100000Y-59699992D03*
X75000000Y-45000000D03*
X77500000Y-45000000D03*
X80000000Y-45000000D03*
X82500000Y-45000000D03*
X82500000Y-42500000D03*
X80000000Y-42500000D03*
X77500000Y-42500000D03*
X75000000Y-42500000D03*
X75000000Y-40000000D03*
X77500000Y-40000000D03*
X80000000Y-40000000D03*
X82500000Y-40000000D03*
X85000000Y-40000000D03*
X41000000Y-47000000D03*
X41000000Y-49000000D03*
X41000000Y-51000000D03*
X41000000Y-53000000D03*
X41000000Y-55000000D03*
X41000000Y-57000000D03*
X41000000Y-59000000D03*
X43000000Y-59000000D03*
X45000000Y-59000000D03*
X47000000Y-59000000D03*
X47000000Y-57000000D03*
X49000000Y-57000000D03*
X45000000Y-57000000D03*
X43000000Y-57000000D03*
X43000000Y-55000000D03*
X45000000Y-55000000D03*
X47000000Y-55000000D03*
X49000000Y-55000000D03*
X49000000Y-53000000D03*
X47000000Y-53000000D03*
X45000000Y-53000000D03*
X43000000Y-53000000D03*
X43000000Y-51000000D03*
X45000000Y-51000000D03*
X47000000Y-51000000D03*
X43000000Y-49000000D03*
X45000000Y-49000000D03*
X47000000Y-49000000D03*
X47000000Y-47000000D03*
X45000000Y-47000000D03*
X43000000Y-47000000D03*
X27500000Y-42500000D03*
X30000000Y-42500000D03*
X32500000Y-42500000D03*
X32500000Y-40000000D03*
X32500000Y-37500000D03*
X32500000Y-35000000D03*
X32500000Y-35000000D03*
X30000000Y-35000000D03*
X30000000Y-37500000D03*
X30000000Y-40000000D03*
X27500000Y-40000000D03*
X27500000Y-37500000D03*
X27500000Y-35000000D03*
X27500000Y-57500000D03*
X27500000Y-60000000D03*
X27500000Y-62500000D03*
X30000000Y-60000000D03*
X30000000Y-62500000D03*
X35000000Y-62500000D03*
X32500000Y-62500000D03*
X32500000Y-60000000D03*
X35000000Y-60000000D03*
X35000000Y-57500000D03*
X35000000Y-70000000D03*
X37500000Y-70000000D03*
X40000000Y-70000000D03*
X42500000Y-70000000D03*
X45000000Y-70000000D03*
X47500000Y-70000000D03*
X50000000Y-70000000D03*
X52500000Y-70000000D03*
X55000000Y-70000000D03*
X57500000Y-70000000D03*
X60000000Y-70000000D03*
X65000000Y-70000000D03*
X62500000Y-70000000D03*
X67500000Y-70000000D03*
X70000000Y-70000000D03*
X72500000Y-70000000D03*
X75000000Y-70000000D03*
X77500000Y-70000000D03*
X80000000Y-70000000D03*
X82500000Y-70000000D03*
X85000000Y-70000000D03*
X92500000Y-62500000D03*
X87500000Y-62500000D03*
X52500000Y-35000000D03*
X52500000Y-32500000D03*
X52500000Y-30000000D03*
X52500000Y-27500000D03*
X55000000Y-27500000D03*
X57500000Y-27500000D03*
X60000000Y-27500000D03*
X62500000Y-27500000D03*
X65000000Y-27500000D03*
X55000000Y-35000000D03*
X62500000Y-35000000D03*
X65000000Y-35000000D03*
X85000000Y-27500000D03*
X82500000Y-27500000D03*
X80000000Y-27500000D03*
X77500000Y-27500000D03*
X75000000Y-27500000D03*
X75000000Y-30000000D03*
X77500000Y-30000000D03*
X80000000Y-30000000D03*
X82500000Y-30000000D03*
X85000000Y-30000000D03*
X79000000Y-60000000D03*
X79000000Y-58000000D03*
X79000000Y-56000000D03*
X77000000Y-56000000D03*
X77000000Y-58000000D03*
X77000000Y-60000000D03*
X75000000Y-60000000D03*
X73000000Y-60000000D03*
X71000000Y-60000000D03*
X71000000Y-59000000D03*
X73000000Y-59000000D03*
X75000000Y-59000000D03*
X83000000Y-49000000D03*
X88400000Y-46600000D03*
X85000000Y-49000000D03*
X87000000Y-49000000D03*
X87000000Y-47000000D03*
X85000000Y-47000000D03*
X80000000Y-47000000D03*
X60000000Y-52000000D03*
X62000000Y-52000000D03*
X64000000Y-52000000D03*
X66000000Y-52000000D03*
X66000000Y-50000000D03*
X64000000Y-50000000D03*
X62000000Y-50000000D03*
X60000000Y-50000000D03*
X60000000Y-48000000D03*
X62000000Y-48000000D03*
X64000000Y-48000000D03*
X66000000Y-48000000D03*
X75900000Y-56250000D03*
%TO.N,Net-(D1-Pad1)*%
X81400000Y-58200000D03*
X33600000Y-45600000D03*
%TO.N,NRST*%
X59400000Y-37200000D03*
X64430136Y-37169474D03*
%TO.N,USART_TX*%
X75350014Y-55300000D03*
%TO.N,USART_RX*%
X73800000Y-57300000D03*
%TO.N,Net-(R10-Pad2)*%
X60886412Y-40755339D03*
%TO.N,+5V*%
X87000000Y-52200000D03*
%TO.N,+3V3*%
X47800000Y-34600000D03*
X48800000Y-34600000D03*
X48800000Y-33600000D03*
X48800000Y-32600000D03*
X47800000Y-32600000D03*
X47800000Y-33600000D03*
X48800000Y-31600000D03*
X47800000Y-31600000D03*
X46800000Y-35600000D03*
X47800000Y-35600000D03*
X48800000Y-35600000D03*
X48800000Y-30600000D03*
X47800000Y-30600000D03*
X46800000Y-34600000D03*
X70000000Y-45700000D03*
X68800000Y-56700000D03*
X70100000Y-56700000D03*
X53900000Y-56900000D03*
X53900000Y-57800000D03*
X60327060Y-59400000D03*
X59450010Y-59400000D03*
X79600000Y-36900000D03*
X70819667Y-57080342D03*
X92600000Y-36500000D03*
X41200000Y-41500000D03*
X41200000Y-42500000D03*
X51409500Y-36809500D03*
X59515019Y-42146774D03*
X59975000Y-40325000D03*
X65725000Y-38475000D03*
X55815500Y-47429499D03*
X72540000Y-26140000D03*
X41325942Y-35492050D03*
%TD*%
D21*
%TO.N,GND*%
X71544774Y-25838102D02*
X71505000Y-26038061D01*
X71505000Y-26241939D01*
X71544774Y-26441898D01*
X71622795Y-26630256D01*
X71736063Y-26799774D01*
X71880226Y-26943937D01*
X72049744Y-27057205D01*
X72238102Y-27135226D01*
X72438061Y-27175000D01*
X72641939Y-27175000D01*
X72841898Y-27135226D01*
X73030256Y-27057205D01*
X73199774Y-26943937D01*
X73343937Y-26799774D01*
X73457205Y-26630256D01*
X73535226Y-26441898D01*
X73575000Y-26241939D01*
X73575000Y-26038061D01*
X73535226Y-25838102D01*
X73461453Y-25660000D01*
X89970608Y-25660000D01*
X90768083Y-25731173D01*
X91511891Y-25934656D01*
X92207905Y-26266638D01*
X92834130Y-26716626D01*
X93370777Y-27270403D01*
X93800871Y-27910451D01*
X94110829Y-28616553D01*
X94292065Y-29371457D01*
X94340001Y-30024220D01*
X94340000Y-50502889D01*
X94306138Y-50391259D01*
X94184495Y-50163682D01*
X94020792Y-49964208D01*
X93821318Y-49800505D01*
X93593741Y-49678862D01*
X93346805Y-49603955D01*
X93154351Y-49585000D01*
X92675649Y-49585000D01*
X92483195Y-49603955D01*
X92236259Y-49678862D01*
X92008682Y-49800505D01*
X91809208Y-49964208D01*
X91645505Y-50163682D01*
X91523862Y-50391259D01*
X91448955Y-50638195D01*
X91423662Y-50895000D01*
X91448955Y-51151805D01*
X91523862Y-51398741D01*
X91645505Y-51626318D01*
X91809208Y-51825792D01*
X92008682Y-51989495D01*
X92236259Y-52111138D01*
X92483195Y-52186045D01*
X92675649Y-52205000D01*
X93154351Y-52205000D01*
X93346805Y-52186045D01*
X93593741Y-52111138D01*
X93821318Y-51989495D01*
X94020792Y-51825792D01*
X94184495Y-51626318D01*
X94306138Y-51398741D01*
X94340000Y-51287111D01*
X94340000Y-55962888D01*
X94306138Y-55851259D01*
X94184495Y-55623682D01*
X94020792Y-55424208D01*
X93821318Y-55260505D01*
X93593741Y-55138862D01*
X93346805Y-55063955D01*
X93154351Y-55045000D01*
X92675649Y-55045000D01*
X92483195Y-55063955D01*
X92236259Y-55138862D01*
X92008682Y-55260505D01*
X91809208Y-55424208D01*
X91645505Y-55623682D01*
X91523862Y-55851259D01*
X91448955Y-56098195D01*
X91423662Y-56355000D01*
X91448955Y-56611805D01*
X91523862Y-56858741D01*
X91645505Y-57086318D01*
X91809208Y-57285792D01*
X92008682Y-57449495D01*
X92236259Y-57571138D01*
X92483195Y-57646045D01*
X92675649Y-57665000D01*
X93154351Y-57665000D01*
X93346805Y-57646045D01*
X93593741Y-57571138D01*
X93821318Y-57449495D01*
X94020792Y-57285792D01*
X94184495Y-57086318D01*
X94306138Y-56858741D01*
X94340000Y-56747112D01*
X94340000Y-67970608D01*
X94268827Y-68768083D01*
X94065344Y-69511890D01*
X93733363Y-70207904D01*
X93283374Y-70834130D01*
X92729597Y-71370777D01*
X92089549Y-71800871D01*
X91383447Y-72110829D01*
X90628543Y-72292065D01*
X89975793Y-72340000D01*
X30029392Y-72340000D01*
X29231917Y-72268827D01*
X28488110Y-72065344D01*
X27792096Y-71733363D01*
X27165870Y-71283374D01*
X26629223Y-70729597D01*
X26199129Y-70089549D01*
X26063793Y-69781244D01*
X27463415Y-69781244D01*
X27822789Y-70290999D01*
X28506665Y-70652516D01*
X29247930Y-70873670D01*
X30018096Y-70945960D01*
X30787567Y-70866608D01*
X31526772Y-70638665D01*
X32177211Y-70290999D01*
X32536585Y-69781244D01*
X87463415Y-69781244D01*
X87822789Y-70290999D01*
X88506665Y-70652516D01*
X89247930Y-70873670D01*
X90018096Y-70945960D01*
X90787567Y-70866608D01*
X91526772Y-70638665D01*
X92177211Y-70290999D01*
X92536585Y-69781244D01*
X90000000Y-67244659D01*
X87463415Y-69781244D01*
X32536585Y-69781244D01*
X30000000Y-67244659D01*
X27463415Y-69781244D01*
X26063793Y-69781244D01*
X25889171Y-69383447D01*
X25707935Y-68628543D01*
X25660000Y-67975793D01*
X25660000Y-67018096D01*
X26054040Y-67018096D01*
X26133392Y-67787567D01*
X26361335Y-68526772D01*
X26709001Y-69177211D01*
X27218756Y-69536585D01*
X29755341Y-67000000D01*
X30244659Y-67000000D01*
X32781244Y-69536585D01*
X33290999Y-69177211D01*
X33652516Y-68493335D01*
X33873670Y-67752070D01*
X33945960Y-66981904D01*
X33866608Y-66212433D01*
X33647538Y-65502000D01*
X35780928Y-65502000D01*
X35780928Y-68102000D01*
X35793188Y-68226482D01*
X35829498Y-68346180D01*
X35888463Y-68456494D01*
X35967815Y-68553185D01*
X36064506Y-68632537D01*
X36174820Y-68691502D01*
X36294518Y-68727812D01*
X36419000Y-68740072D01*
X39019000Y-68740072D01*
X39143482Y-68727812D01*
X39263180Y-68691502D01*
X39373494Y-68632537D01*
X39470185Y-68553185D01*
X39549537Y-68456494D01*
X39608502Y-68346180D01*
X39644812Y-68226482D01*
X39657072Y-68102000D01*
X39657072Y-66611419D01*
X40784000Y-66611419D01*
X40784000Y-66992581D01*
X40858361Y-67366419D01*
X41004225Y-67718566D01*
X41215987Y-68035491D01*
X41485509Y-68305013D01*
X41802434Y-68516775D01*
X42154581Y-68662639D01*
X42528419Y-68737000D01*
X42909581Y-68737000D01*
X43283419Y-68662639D01*
X43635566Y-68516775D01*
X43952491Y-68305013D01*
X44222013Y-68035491D01*
X44433775Y-67718566D01*
X44579639Y-67366419D01*
X44654000Y-66992581D01*
X44654000Y-66611419D01*
X45784000Y-66611419D01*
X45784000Y-66992581D01*
X45858361Y-67366419D01*
X46004225Y-67718566D01*
X46215987Y-68035491D01*
X46485509Y-68305013D01*
X46802434Y-68516775D01*
X47154581Y-68662639D01*
X47528419Y-68737000D01*
X47909581Y-68737000D01*
X48283419Y-68662639D01*
X48635566Y-68516775D01*
X48952491Y-68305013D01*
X49222013Y-68035491D01*
X49433775Y-67718566D01*
X49579639Y-67366419D01*
X49654000Y-66992581D01*
X49654000Y-66611419D01*
X50784000Y-66611419D01*
X50784000Y-66992581D01*
X50858361Y-67366419D01*
X51004225Y-67718566D01*
X51215987Y-68035491D01*
X51485509Y-68305013D01*
X51802434Y-68516775D01*
X52154581Y-68662639D01*
X52528419Y-68737000D01*
X52909581Y-68737000D01*
X53283419Y-68662639D01*
X53635566Y-68516775D01*
X53952491Y-68305013D01*
X54222013Y-68035491D01*
X54433775Y-67718566D01*
X54579639Y-67366419D01*
X54654000Y-66992581D01*
X54654000Y-66611419D01*
X55784000Y-66611419D01*
X55784000Y-66992581D01*
X55858361Y-67366419D01*
X56004225Y-67718566D01*
X56215987Y-68035491D01*
X56485509Y-68305013D01*
X56802434Y-68516775D01*
X57154581Y-68662639D01*
X57528419Y-68737000D01*
X57909581Y-68737000D01*
X58283419Y-68662639D01*
X58635566Y-68516775D01*
X58952491Y-68305013D01*
X59222013Y-68035491D01*
X59433775Y-67718566D01*
X59579639Y-67366419D01*
X59654000Y-66992581D01*
X59654000Y-66611419D01*
X60784000Y-66611419D01*
X60784000Y-66992581D01*
X60858361Y-67366419D01*
X61004225Y-67718566D01*
X61215987Y-68035491D01*
X61485509Y-68305013D01*
X61802434Y-68516775D01*
X62154581Y-68662639D01*
X62528419Y-68737000D01*
X62909581Y-68737000D01*
X63283419Y-68662639D01*
X63635566Y-68516775D01*
X63952491Y-68305013D01*
X64222013Y-68035491D01*
X64433775Y-67718566D01*
X64579639Y-67366419D01*
X64654000Y-66992581D01*
X64654000Y-66611419D01*
X65784000Y-66611419D01*
X65784000Y-66992581D01*
X65858361Y-67366419D01*
X66004225Y-67718566D01*
X66215987Y-68035491D01*
X66485509Y-68305013D01*
X66802434Y-68516775D01*
X67154581Y-68662639D01*
X67528419Y-68737000D01*
X67909581Y-68737000D01*
X68283419Y-68662639D01*
X68635566Y-68516775D01*
X68952491Y-68305013D01*
X69222013Y-68035491D01*
X69433775Y-67718566D01*
X69579639Y-67366419D01*
X69654000Y-66992581D01*
X69654000Y-66611419D01*
X70784000Y-66611419D01*
X70784000Y-66992581D01*
X70858361Y-67366419D01*
X71004225Y-67718566D01*
X71215987Y-68035491D01*
X71485509Y-68305013D01*
X71802434Y-68516775D01*
X72154581Y-68662639D01*
X72528419Y-68737000D01*
X72909581Y-68737000D01*
X73283419Y-68662639D01*
X73635566Y-68516775D01*
X73952491Y-68305013D01*
X74222013Y-68035491D01*
X74433775Y-67718566D01*
X74579639Y-67366419D01*
X74654000Y-66992581D01*
X74654000Y-66611419D01*
X75784000Y-66611419D01*
X75784000Y-66992581D01*
X75858361Y-67366419D01*
X76004225Y-67718566D01*
X76215987Y-68035491D01*
X76485509Y-68305013D01*
X76802434Y-68516775D01*
X77154581Y-68662639D01*
X77528419Y-68737000D01*
X77909581Y-68737000D01*
X78283419Y-68662639D01*
X78635566Y-68516775D01*
X78952491Y-68305013D01*
X79222013Y-68035491D01*
X79433775Y-67718566D01*
X79579639Y-67366419D01*
X79654000Y-66992581D01*
X79654000Y-66611419D01*
X80784000Y-66611419D01*
X80784000Y-66992581D01*
X80858361Y-67366419D01*
X81004225Y-67718566D01*
X81215987Y-68035491D01*
X81485509Y-68305013D01*
X81802434Y-68516775D01*
X82154581Y-68662639D01*
X82528419Y-68737000D01*
X82909581Y-68737000D01*
X83283419Y-68662639D01*
X83635566Y-68516775D01*
X83952491Y-68305013D01*
X84222013Y-68035491D01*
X84433775Y-67718566D01*
X84579639Y-67366419D01*
X84648924Y-67018096D01*
X86054040Y-67018096D01*
X86133392Y-67787567D01*
X86361335Y-68526772D01*
X86709001Y-69177211D01*
X87218756Y-69536585D01*
X89755341Y-67000000D01*
X90244659Y-67000000D01*
X92781244Y-69536585D01*
X93290999Y-69177211D01*
X93652516Y-68493335D01*
X93873670Y-67752070D01*
X93945960Y-66981904D01*
X93866608Y-66212433D01*
X93638665Y-65473228D01*
X93290999Y-64822789D01*
X92781244Y-64463415D01*
X90244659Y-67000000D01*
X89755341Y-67000000D01*
X87218756Y-64463415D01*
X86709001Y-64822789D01*
X86347484Y-65506665D01*
X86126330Y-66247930D01*
X86054040Y-67018096D01*
X84648924Y-67018096D01*
X84654000Y-66992581D01*
X84654000Y-66611419D01*
X84579639Y-66237581D01*
X84433775Y-65885434D01*
X84222013Y-65568509D01*
X83952491Y-65298987D01*
X83635566Y-65087225D01*
X83283419Y-64941361D01*
X82909581Y-64867000D01*
X82528419Y-64867000D01*
X82154581Y-64941361D01*
X81802434Y-65087225D01*
X81485509Y-65298987D01*
X81215987Y-65568509D01*
X81004225Y-65885434D01*
X80858361Y-66237581D01*
X80784000Y-66611419D01*
X79654000Y-66611419D01*
X79579639Y-66237581D01*
X79433775Y-65885434D01*
X79222013Y-65568509D01*
X78952491Y-65298987D01*
X78635566Y-65087225D01*
X78283419Y-64941361D01*
X77909581Y-64867000D01*
X77528419Y-64867000D01*
X77154581Y-64941361D01*
X76802434Y-65087225D01*
X76485509Y-65298987D01*
X76215987Y-65568509D01*
X76004225Y-65885434D01*
X75858361Y-66237581D01*
X75784000Y-66611419D01*
X74654000Y-66611419D01*
X74579639Y-66237581D01*
X74433775Y-65885434D01*
X74222013Y-65568509D01*
X73952491Y-65298987D01*
X73635566Y-65087225D01*
X73283419Y-64941361D01*
X72909581Y-64867000D01*
X72528419Y-64867000D01*
X72154581Y-64941361D01*
X71802434Y-65087225D01*
X71485509Y-65298987D01*
X71215987Y-65568509D01*
X71004225Y-65885434D01*
X70858361Y-66237581D01*
X70784000Y-66611419D01*
X69654000Y-66611419D01*
X69579639Y-66237581D01*
X69433775Y-65885434D01*
X69222013Y-65568509D01*
X68952491Y-65298987D01*
X68635566Y-65087225D01*
X68283419Y-64941361D01*
X67909581Y-64867000D01*
X67528419Y-64867000D01*
X67154581Y-64941361D01*
X66802434Y-65087225D01*
X66485509Y-65298987D01*
X66215987Y-65568509D01*
X66004225Y-65885434D01*
X65858361Y-66237581D01*
X65784000Y-66611419D01*
X64654000Y-66611419D01*
X64579639Y-66237581D01*
X64433775Y-65885434D01*
X64222013Y-65568509D01*
X63952491Y-65298987D01*
X63635566Y-65087225D01*
X63283419Y-64941361D01*
X62909581Y-64867000D01*
X62528419Y-64867000D01*
X62154581Y-64941361D01*
X61802434Y-65087225D01*
X61485509Y-65298987D01*
X61215987Y-65568509D01*
X61004225Y-65885434D01*
X60858361Y-66237581D01*
X60784000Y-66611419D01*
X59654000Y-66611419D01*
X59579639Y-66237581D01*
X59433775Y-65885434D01*
X59222013Y-65568509D01*
X58952491Y-65298987D01*
X58635566Y-65087225D01*
X58283419Y-64941361D01*
X57909581Y-64867000D01*
X57528419Y-64867000D01*
X57154581Y-64941361D01*
X56802434Y-65087225D01*
X56485509Y-65298987D01*
X56215987Y-65568509D01*
X56004225Y-65885434D01*
X55858361Y-66237581D01*
X55784000Y-66611419D01*
X54654000Y-66611419D01*
X54579639Y-66237581D01*
X54433775Y-65885434D01*
X54222013Y-65568509D01*
X53952491Y-65298987D01*
X53635566Y-65087225D01*
X53283419Y-64941361D01*
X52909581Y-64867000D01*
X52528419Y-64867000D01*
X52154581Y-64941361D01*
X51802434Y-65087225D01*
X51485509Y-65298987D01*
X51215987Y-65568509D01*
X51004225Y-65885434D01*
X50858361Y-66237581D01*
X50784000Y-66611419D01*
X49654000Y-66611419D01*
X49579639Y-66237581D01*
X49433775Y-65885434D01*
X49222013Y-65568509D01*
X48952491Y-65298987D01*
X48635566Y-65087225D01*
X48283419Y-64941361D01*
X47909581Y-64867000D01*
X47528419Y-64867000D01*
X47154581Y-64941361D01*
X46802434Y-65087225D01*
X46485509Y-65298987D01*
X46215987Y-65568509D01*
X46004225Y-65885434D01*
X45858361Y-66237581D01*
X45784000Y-66611419D01*
X44654000Y-66611419D01*
X44579639Y-66237581D01*
X44433775Y-65885434D01*
X44222013Y-65568509D01*
X43952491Y-65298987D01*
X43635566Y-65087225D01*
X43283419Y-64941361D01*
X42909581Y-64867000D01*
X42528419Y-64867000D01*
X42154581Y-64941361D01*
X41802434Y-65087225D01*
X41485509Y-65298987D01*
X41215987Y-65568509D01*
X41004225Y-65885434D01*
X40858361Y-66237581D01*
X40784000Y-66611419D01*
X39657072Y-66611419D01*
X39657072Y-65502000D01*
X39644812Y-65377518D01*
X39608502Y-65257820D01*
X39549537Y-65147506D01*
X39470185Y-65050815D01*
X39373494Y-64971463D01*
X39263180Y-64912498D01*
X39143482Y-64876188D01*
X39019000Y-64863928D01*
X36419000Y-64863928D01*
X36294518Y-64876188D01*
X36174820Y-64912498D01*
X36064506Y-64971463D01*
X35967815Y-65050815D01*
X35888463Y-65147506D01*
X35829498Y-65257820D01*
X35793188Y-65377518D01*
X35780928Y-65502000D01*
X33647538Y-65502000D01*
X33638665Y-65473228D01*
X33290999Y-64822789D01*
X32781244Y-64463415D01*
X30244659Y-67000000D01*
X29755341Y-67000000D01*
X27218756Y-64463415D01*
X26709001Y-64822789D01*
X26347484Y-65506665D01*
X26126330Y-66247930D01*
X26054040Y-67018096D01*
X25660000Y-67018096D01*
X25660000Y-64218756D01*
X27463415Y-64218756D01*
X30000000Y-66755341D01*
X32536585Y-64218756D01*
X87463415Y-64218756D01*
X90000000Y-66755341D01*
X92536585Y-64218756D01*
X92177211Y-63709001D01*
X91493335Y-63347484D01*
X90752070Y-63126330D01*
X89981904Y-63054040D01*
X89212433Y-63133392D01*
X88473228Y-63361335D01*
X87822789Y-63709001D01*
X87463415Y-64218756D01*
X32536585Y-64218756D01*
X32177211Y-63709001D01*
X31493335Y-63347484D01*
X30752070Y-63126330D01*
X29981904Y-63054040D01*
X29212433Y-63133392D01*
X28473228Y-63361335D01*
X27822789Y-63709001D01*
X27463415Y-64218756D01*
X25660000Y-64218756D01*
X25660000Y-58959337D01*
X31201322Y-58959337D01*
X31332081Y-59274545D01*
X31692461Y-59446458D01*
X32079456Y-59544760D01*
X32478192Y-59565675D01*
X32873346Y-59508399D01*
X33249734Y-59375132D01*
X33393923Y-59298061D01*
X58415010Y-59298061D01*
X58415010Y-59501939D01*
X58454784Y-59701898D01*
X58532805Y-59890256D01*
X58646073Y-60059774D01*
X58790236Y-60203937D01*
X58959754Y-60317205D01*
X59148112Y-60395226D01*
X59348071Y-60435000D01*
X59551949Y-60435000D01*
X59751908Y-60395226D01*
X59888535Y-60338633D01*
X60025162Y-60395226D01*
X60225121Y-60435000D01*
X60428999Y-60435000D01*
X60628958Y-60395226D01*
X60817316Y-60317205D01*
X60986834Y-60203937D01*
X61130997Y-60059774D01*
X61244265Y-59890256D01*
X61322286Y-59701898D01*
X61362060Y-59501939D01*
X61362060Y-59298061D01*
X61322286Y-59098102D01*
X61244265Y-58909744D01*
X61130997Y-58740226D01*
X60986834Y-58596063D01*
X60817316Y-58482795D01*
X60628958Y-58404774D01*
X60428999Y-58365000D01*
X60225121Y-58365000D01*
X60025162Y-58404774D01*
X59888535Y-58461367D01*
X59751908Y-58404774D01*
X59551949Y-58365000D01*
X59348071Y-58365000D01*
X59148112Y-58404774D01*
X58959754Y-58482795D01*
X58790236Y-58596063D01*
X58646073Y-58740226D01*
X58532805Y-58909744D01*
X58454784Y-59098102D01*
X58415010Y-59298061D01*
X33393923Y-59298061D01*
X33437919Y-59274545D01*
X33568678Y-58959337D01*
X32385000Y-57775659D01*
X31201322Y-58959337D01*
X25660000Y-58959337D01*
X25660000Y-57624192D01*
X30350325Y-57624192D01*
X30407601Y-58019346D01*
X30540868Y-58395734D01*
X30641455Y-58583919D01*
X30956663Y-58714678D01*
X32140341Y-57531000D01*
X32629659Y-57531000D01*
X33813337Y-58714678D01*
X34128545Y-58583919D01*
X34300458Y-58223539D01*
X34398760Y-57836544D01*
X34419675Y-57437808D01*
X34362399Y-57042654D01*
X34275797Y-56798061D01*
X52865000Y-56798061D01*
X52865000Y-57001939D01*
X52904774Y-57201898D01*
X52966120Y-57350000D01*
X52904774Y-57498102D01*
X52865000Y-57698061D01*
X52865000Y-57901939D01*
X52904774Y-58101898D01*
X52982795Y-58290256D01*
X53096063Y-58459774D01*
X53240226Y-58603937D01*
X53409744Y-58717205D01*
X53598102Y-58795226D01*
X53798061Y-58835000D01*
X54001939Y-58835000D01*
X54201898Y-58795226D01*
X54390256Y-58717205D01*
X54559774Y-58603937D01*
X54703937Y-58459774D01*
X54817205Y-58290256D01*
X54895226Y-58101898D01*
X54935000Y-57901939D01*
X54935000Y-57698061D01*
X54895226Y-57498102D01*
X54833880Y-57350000D01*
X54895226Y-57201898D01*
X54935000Y-57001939D01*
X54935000Y-56798061D01*
X54895226Y-56598102D01*
X54895210Y-56598061D01*
X67765000Y-56598061D01*
X67765000Y-56801939D01*
X67804774Y-57001898D01*
X67882795Y-57190256D01*
X67996063Y-57359774D01*
X68140226Y-57503937D01*
X68309744Y-57617205D01*
X68498102Y-57695226D01*
X68698061Y-57735000D01*
X68901939Y-57735000D01*
X69101898Y-57695226D01*
X69290256Y-57617205D01*
X69450000Y-57510468D01*
X69609744Y-57617205D01*
X69798102Y-57695226D01*
X69998061Y-57735000D01*
X70012312Y-57735000D01*
X70015730Y-57740116D01*
X70159893Y-57884279D01*
X70329411Y-57997547D01*
X70517769Y-58075568D01*
X70717728Y-58115342D01*
X70921606Y-58115342D01*
X71121565Y-58075568D01*
X71309923Y-57997547D01*
X71479441Y-57884279D01*
X71623604Y-57740116D01*
X71736872Y-57570598D01*
X71814893Y-57382240D01*
X71851528Y-57198061D01*
X72765000Y-57198061D01*
X72765000Y-57401939D01*
X72804774Y-57601898D01*
X72882795Y-57790256D01*
X72996063Y-57959774D01*
X73140226Y-58103937D01*
X73309744Y-58217205D01*
X73498102Y-58295226D01*
X73698061Y-58335000D01*
X73901939Y-58335000D01*
X74101898Y-58295226D01*
X74290256Y-58217205D01*
X74459774Y-58103937D01*
X74465650Y-58098061D01*
X80365000Y-58098061D01*
X80365000Y-58301939D01*
X80404774Y-58501898D01*
X80482795Y-58690256D01*
X80596063Y-58859774D01*
X80740226Y-59003937D01*
X80909744Y-59117205D01*
X81098102Y-59195226D01*
X81298061Y-59235000D01*
X81501939Y-59235000D01*
X81701898Y-59195226D01*
X81890256Y-59117205D01*
X82059774Y-59003937D01*
X82203937Y-58859774D01*
X82317205Y-58690256D01*
X82395226Y-58501898D01*
X82435000Y-58301939D01*
X82435000Y-58098061D01*
X82395226Y-57898102D01*
X82317205Y-57709744D01*
X82203937Y-57540226D01*
X82059774Y-57396063D01*
X81890256Y-57282795D01*
X81701898Y-57204774D01*
X81501939Y-57165000D01*
X81298061Y-57165000D01*
X81098102Y-57204774D01*
X80909744Y-57282795D01*
X80740226Y-57396063D01*
X80596063Y-57540226D01*
X80482795Y-57709744D01*
X80404774Y-57898102D01*
X80365000Y-58098061D01*
X74465650Y-58098061D01*
X74603937Y-57959774D01*
X74717205Y-57790256D01*
X74795226Y-57601898D01*
X74835000Y-57401939D01*
X74835000Y-57198061D01*
X74795226Y-56998102D01*
X74717205Y-56809744D01*
X74603937Y-56640226D01*
X74459774Y-56496063D01*
X74290256Y-56382795D01*
X74101898Y-56304774D01*
X73901939Y-56265000D01*
X73698061Y-56265000D01*
X73498102Y-56304774D01*
X73309744Y-56382795D01*
X73140226Y-56496063D01*
X72996063Y-56640226D01*
X72882795Y-56809744D01*
X72804774Y-56998102D01*
X72765000Y-57198061D01*
X71851528Y-57198061D01*
X71854667Y-57182281D01*
X71854667Y-56978403D01*
X71814893Y-56778444D01*
X71736872Y-56590086D01*
X71623604Y-56420568D01*
X71479441Y-56276405D01*
X71309923Y-56163137D01*
X71121565Y-56085116D01*
X70921606Y-56045342D01*
X70907355Y-56045342D01*
X70903937Y-56040226D01*
X70759774Y-55896063D01*
X70590256Y-55782795D01*
X70401898Y-55704774D01*
X70201939Y-55665000D01*
X69998061Y-55665000D01*
X69798102Y-55704774D01*
X69609744Y-55782795D01*
X69450000Y-55889532D01*
X69290256Y-55782795D01*
X69101898Y-55704774D01*
X68901939Y-55665000D01*
X68698061Y-55665000D01*
X68498102Y-55704774D01*
X68309744Y-55782795D01*
X68140226Y-55896063D01*
X67996063Y-56040226D01*
X67882795Y-56209744D01*
X67804774Y-56398102D01*
X67765000Y-56598061D01*
X54895210Y-56598061D01*
X54817205Y-56409744D01*
X54703937Y-56240226D01*
X54559774Y-56096063D01*
X54390256Y-55982795D01*
X54201898Y-55904774D01*
X54001939Y-55865000D01*
X53798061Y-55865000D01*
X53598102Y-55904774D01*
X53409744Y-55982795D01*
X53240226Y-56096063D01*
X53096063Y-56240226D01*
X52982795Y-56409744D01*
X52904774Y-56598102D01*
X52865000Y-56798061D01*
X34275797Y-56798061D01*
X34229132Y-56666266D01*
X34128545Y-56478081D01*
X33813337Y-56347322D01*
X32629659Y-57531000D01*
X32140341Y-57531000D01*
X30956663Y-56347322D01*
X30641455Y-56478081D01*
X30469542Y-56838461D01*
X30371240Y-57225456D01*
X30350325Y-57624192D01*
X25660000Y-57624192D01*
X25660000Y-56102663D01*
X31201322Y-56102663D01*
X32385000Y-57286341D01*
X33568678Y-56102663D01*
X33437919Y-55787455D01*
X33077539Y-55615542D01*
X32690544Y-55517240D01*
X32291808Y-55496325D01*
X31896654Y-55553601D01*
X31520266Y-55686868D01*
X31332081Y-55787455D01*
X31201322Y-56102663D01*
X25660000Y-56102663D01*
X25660000Y-55198061D01*
X74315014Y-55198061D01*
X74315014Y-55401939D01*
X74354788Y-55601898D01*
X74432809Y-55790256D01*
X74546077Y-55959774D01*
X74690240Y-56103937D01*
X74859758Y-56217205D01*
X75048116Y-56295226D01*
X75248075Y-56335000D01*
X75451953Y-56335000D01*
X75651912Y-56295226D01*
X75840270Y-56217205D01*
X76009788Y-56103937D01*
X76068725Y-56045000D01*
X88524267Y-56045000D01*
X88547147Y-56277300D01*
X88614906Y-56500674D01*
X88724942Y-56706536D01*
X88873025Y-56886975D01*
X89053464Y-57035058D01*
X89259326Y-57145094D01*
X89482700Y-57212853D01*
X89656793Y-57230000D01*
X90173207Y-57230000D01*
X90347300Y-57212853D01*
X90570674Y-57145094D01*
X90776536Y-57035058D01*
X90956975Y-56886975D01*
X91105058Y-56706536D01*
X91215094Y-56500674D01*
X91282853Y-56277300D01*
X91305733Y-56045000D01*
X91282853Y-55812700D01*
X91215094Y-55589326D01*
X91105058Y-55383464D01*
X90956975Y-55203025D01*
X90776536Y-55054942D01*
X90570674Y-54944906D01*
X90347300Y-54877147D01*
X90173207Y-54860000D01*
X89656793Y-54860000D01*
X89482700Y-54877147D01*
X89259326Y-54944906D01*
X89053464Y-55054942D01*
X88873025Y-55203025D01*
X88724942Y-55383464D01*
X88614906Y-55589326D01*
X88547147Y-55812700D01*
X88524267Y-56045000D01*
X76068725Y-56045000D01*
X76153951Y-55959774D01*
X76267219Y-55790256D01*
X76345240Y-55601898D01*
X76385014Y-55401939D01*
X76385014Y-55198061D01*
X76345240Y-54998102D01*
X76267219Y-54809744D01*
X76153951Y-54640226D01*
X76009788Y-54496063D01*
X75840270Y-54382795D01*
X75651912Y-54304774D01*
X75451953Y-54265000D01*
X75248075Y-54265000D01*
X75048116Y-54304774D01*
X74859758Y-54382795D01*
X74690240Y-54496063D01*
X74546077Y-54640226D01*
X74432809Y-54809744D01*
X74354788Y-54998102D01*
X74315014Y-55198061D01*
X25660000Y-55198061D01*
X25660000Y-51151000D01*
X30446928Y-51151000D01*
X30446928Y-53751000D01*
X30459188Y-53875482D01*
X30495498Y-53995180D01*
X30554463Y-54105494D01*
X30633815Y-54202185D01*
X30730506Y-54281537D01*
X30840820Y-54340502D01*
X30960518Y-54376812D01*
X31085000Y-54389072D01*
X33685000Y-54389072D01*
X33809482Y-54376812D01*
X33929180Y-54340502D01*
X34039494Y-54281537D01*
X34136185Y-54202185D01*
X34215537Y-54105494D01*
X34274502Y-53995180D01*
X34310812Y-53875482D01*
X34323072Y-53751000D01*
X34323072Y-52098061D01*
X85965000Y-52098061D01*
X85965000Y-52301939D01*
X86004774Y-52501898D01*
X86082795Y-52690256D01*
X86196063Y-52859774D01*
X86340226Y-53003937D01*
X86509744Y-53117205D01*
X86698102Y-53195226D01*
X86898061Y-53235000D01*
X87101939Y-53235000D01*
X87301898Y-53195226D01*
X87490256Y-53117205D01*
X87659774Y-53003937D01*
X87803937Y-52859774D01*
X87917205Y-52690256D01*
X87995226Y-52501898D01*
X88035000Y-52301939D01*
X88035000Y-52098061D01*
X87995226Y-51898102D01*
X87917205Y-51709744D01*
X87803937Y-51540226D01*
X87659774Y-51396063D01*
X87490256Y-51282795D01*
X87302444Y-51205000D01*
X88524267Y-51205000D01*
X88547147Y-51437300D01*
X88614906Y-51660674D01*
X88724942Y-51866536D01*
X88873025Y-52046975D01*
X89053464Y-52195058D01*
X89259326Y-52305094D01*
X89482700Y-52372853D01*
X89656793Y-52390000D01*
X90173207Y-52390000D01*
X90347300Y-52372853D01*
X90570674Y-52305094D01*
X90776536Y-52195058D01*
X90956975Y-52046975D01*
X91105058Y-51866536D01*
X91215094Y-51660674D01*
X91282853Y-51437300D01*
X91305733Y-51205000D01*
X91282853Y-50972700D01*
X91215094Y-50749326D01*
X91105058Y-50543464D01*
X90956975Y-50363025D01*
X90776536Y-50214942D01*
X90570674Y-50104906D01*
X90347300Y-50037147D01*
X90173207Y-50020000D01*
X89656793Y-50020000D01*
X89482700Y-50037147D01*
X89259326Y-50104906D01*
X89053464Y-50214942D01*
X88873025Y-50363025D01*
X88724942Y-50543464D01*
X88614906Y-50749326D01*
X88547147Y-50972700D01*
X88524267Y-51205000D01*
X87302444Y-51205000D01*
X87301898Y-51204774D01*
X87101939Y-51165000D01*
X86898061Y-51165000D01*
X86698102Y-51204774D01*
X86509744Y-51282795D01*
X86340226Y-51396063D01*
X86196063Y-51540226D01*
X86082795Y-51709744D01*
X86004774Y-51898102D01*
X85965000Y-52098061D01*
X34323072Y-52098061D01*
X34323072Y-51151000D01*
X34310812Y-51026518D01*
X34274502Y-50906820D01*
X34215537Y-50796506D01*
X34136185Y-50699815D01*
X34039494Y-50620463D01*
X33929180Y-50561498D01*
X33809482Y-50525188D01*
X33685000Y-50512928D01*
X31085000Y-50512928D01*
X30960518Y-50525188D01*
X30840820Y-50561498D01*
X30730506Y-50620463D01*
X30633815Y-50699815D01*
X30554463Y-50796506D01*
X30495498Y-50906820D01*
X30459188Y-51026518D01*
X30446928Y-51151000D01*
X25660000Y-51151000D01*
X25660000Y-47327560D01*
X54780500Y-47327560D01*
X54780500Y-47531438D01*
X54820274Y-47731397D01*
X54898295Y-47919755D01*
X55011563Y-48089273D01*
X55155726Y-48233436D01*
X55325244Y-48346704D01*
X55513602Y-48424725D01*
X55713561Y-48464499D01*
X55917439Y-48464499D01*
X56117398Y-48424725D01*
X56305756Y-48346704D01*
X56475274Y-48233436D01*
X56619437Y-48089273D01*
X56732705Y-47919755D01*
X56810726Y-47731397D01*
X56850500Y-47531438D01*
X56850500Y-47327560D01*
X56810726Y-47127601D01*
X56774881Y-47041063D01*
X89923596Y-47041063D01*
X90002223Y-47312372D01*
X90289190Y-47441257D01*
X90595788Y-47511680D01*
X90910233Y-47520937D01*
X91220442Y-47468671D01*
X91514495Y-47356889D01*
X91597777Y-47312372D01*
X91676404Y-47041063D01*
X90800000Y-46164659D01*
X89923596Y-47041063D01*
X56774881Y-47041063D01*
X56732705Y-46939243D01*
X56619437Y-46769725D01*
X56475274Y-46625562D01*
X56305756Y-46512294D01*
X56117398Y-46434273D01*
X55917439Y-46394499D01*
X55713561Y-46394499D01*
X55513602Y-46434273D01*
X55325244Y-46512294D01*
X55155726Y-46625562D01*
X55011563Y-46769725D01*
X54898295Y-46939243D01*
X54820274Y-47127601D01*
X54780500Y-47327560D01*
X25660000Y-47327560D01*
X25660000Y-45498061D01*
X32565000Y-45498061D01*
X32565000Y-45701939D01*
X32604774Y-45901898D01*
X32682795Y-46090256D01*
X32796063Y-46259774D01*
X32940226Y-46403937D01*
X33109744Y-46517205D01*
X33298102Y-46595226D01*
X33498061Y-46635000D01*
X33701939Y-46635000D01*
X33901898Y-46595226D01*
X34090256Y-46517205D01*
X34259774Y-46403937D01*
X34403937Y-46259774D01*
X34517205Y-46090256D01*
X34595226Y-45901898D01*
X34635000Y-45701939D01*
X34635000Y-45598061D01*
X68965000Y-45598061D01*
X68965000Y-45801939D01*
X69004774Y-46001898D01*
X69082795Y-46190256D01*
X69196063Y-46359774D01*
X69340226Y-46503937D01*
X69509744Y-46617205D01*
X69698102Y-46695226D01*
X69898061Y-46735000D01*
X70101939Y-46735000D01*
X70301898Y-46695226D01*
X70490256Y-46617205D01*
X70659774Y-46503937D01*
X70803937Y-46359774D01*
X70917205Y-46190256D01*
X70983489Y-46030233D01*
X89199063Y-46030233D01*
X89251329Y-46340442D01*
X89363111Y-46634495D01*
X89407628Y-46717777D01*
X89678937Y-46796404D01*
X90555341Y-45920000D01*
X91044659Y-45920000D01*
X91921063Y-46796404D01*
X92192372Y-46717777D01*
X92321257Y-46430810D01*
X92391680Y-46124212D01*
X92400937Y-45809767D01*
X92348671Y-45499558D01*
X92236889Y-45205505D01*
X92192372Y-45122223D01*
X91921063Y-45043596D01*
X91044659Y-45920000D01*
X90555341Y-45920000D01*
X89678937Y-45043596D01*
X89407628Y-45122223D01*
X89278743Y-45409190D01*
X89208320Y-45715788D01*
X89199063Y-46030233D01*
X70983489Y-46030233D01*
X70995226Y-46001898D01*
X71035000Y-45801939D01*
X71035000Y-45598061D01*
X70995226Y-45398102D01*
X70917205Y-45209744D01*
X70803937Y-45040226D01*
X70659774Y-44896063D01*
X70490256Y-44782795D01*
X70301898Y-44704774D01*
X70101939Y-44665000D01*
X69898061Y-44665000D01*
X69698102Y-44704774D01*
X69509744Y-44782795D01*
X69340226Y-44896063D01*
X69196063Y-45040226D01*
X69082795Y-45209744D01*
X69004774Y-45398102D01*
X68965000Y-45598061D01*
X34635000Y-45598061D01*
X34635000Y-45498061D01*
X34595226Y-45298102D01*
X34517205Y-45109744D01*
X34403937Y-44940226D01*
X34259774Y-44796063D01*
X34090256Y-44682795D01*
X33901898Y-44604774D01*
X33701939Y-44565000D01*
X33498061Y-44565000D01*
X33298102Y-44604774D01*
X33109744Y-44682795D01*
X32940226Y-44796063D01*
X32796063Y-44940226D01*
X32682795Y-45109744D01*
X32604774Y-45298102D01*
X32565000Y-45498061D01*
X25660000Y-45498061D01*
X25660000Y-41398061D01*
X40165000Y-41398061D01*
X40165000Y-41601939D01*
X40204774Y-41801898D01*
X40282795Y-41990256D01*
X40289306Y-42000000D01*
X40282795Y-42009744D01*
X40204774Y-42198102D01*
X40165000Y-42398061D01*
X40165000Y-42601939D01*
X40204774Y-42801898D01*
X40282795Y-42990256D01*
X40396063Y-43159774D01*
X40540226Y-43303937D01*
X40709744Y-43417205D01*
X40898102Y-43495226D01*
X41098061Y-43535000D01*
X41301939Y-43535000D01*
X41501898Y-43495226D01*
X41690256Y-43417205D01*
X41859774Y-43303937D01*
X42003937Y-43159774D01*
X42117205Y-42990256D01*
X42195226Y-42801898D01*
X42235000Y-42601939D01*
X42235000Y-42398061D01*
X42195226Y-42198102D01*
X42131741Y-42044835D01*
X58480019Y-42044835D01*
X58480019Y-42248713D01*
X58519793Y-42448672D01*
X58597814Y-42637030D01*
X58711082Y-42806548D01*
X58855245Y-42950711D01*
X59024763Y-43063979D01*
X59213121Y-43142000D01*
X59413080Y-43181774D01*
X59616958Y-43181774D01*
X59816917Y-43142000D01*
X60005275Y-43063979D01*
X60174793Y-42950711D01*
X60318956Y-42806548D01*
X60432224Y-42637030D01*
X60510245Y-42448672D01*
X60550019Y-42248713D01*
X60550019Y-42044835D01*
X60510245Y-41844876D01*
X60447707Y-41693897D01*
X60584514Y-41750565D01*
X60784473Y-41790339D01*
X60988351Y-41790339D01*
X61188310Y-41750565D01*
X61376668Y-41672544D01*
X61546186Y-41559276D01*
X61690349Y-41415113D01*
X61803617Y-41245595D01*
X61881638Y-41057237D01*
X61921412Y-40857278D01*
X61921412Y-40653400D01*
X61881638Y-40453441D01*
X61803617Y-40265083D01*
X61690349Y-40095565D01*
X61546186Y-39951402D01*
X61376668Y-39838134D01*
X61188310Y-39760113D01*
X60988351Y-39720339D01*
X60815762Y-39720339D01*
X60778937Y-39665226D01*
X60634774Y-39521063D01*
X60465256Y-39407795D01*
X60276898Y-39329774D01*
X60076939Y-39290000D01*
X59873061Y-39290000D01*
X59673102Y-39329774D01*
X59484744Y-39407795D01*
X59315226Y-39521063D01*
X59171063Y-39665226D01*
X59057795Y-39834744D01*
X58979774Y-40023102D01*
X58940000Y-40223061D01*
X58940000Y-40426939D01*
X58979774Y-40626898D01*
X59057795Y-40815256D01*
X59171063Y-40984774D01*
X59315226Y-41128937D01*
X59317880Y-41130710D01*
X59213121Y-41151548D01*
X59024763Y-41229569D01*
X58855245Y-41342837D01*
X58711082Y-41487000D01*
X58597814Y-41656518D01*
X58519793Y-41844876D01*
X58480019Y-42044835D01*
X42131741Y-42044835D01*
X42117205Y-42009744D01*
X42110694Y-42000000D01*
X42117205Y-41990256D01*
X42195226Y-41801898D01*
X42235000Y-41601939D01*
X42235000Y-41398061D01*
X42195226Y-41198102D01*
X42117205Y-41009744D01*
X42003937Y-40840226D01*
X41859774Y-40696063D01*
X41690256Y-40582795D01*
X41501898Y-40504774D01*
X41301939Y-40465000D01*
X41098061Y-40465000D01*
X40898102Y-40504774D01*
X40709744Y-40582795D01*
X40540226Y-40696063D01*
X40396063Y-40840226D01*
X40282795Y-41009744D01*
X40204774Y-41198102D01*
X40165000Y-41398061D01*
X25660000Y-41398061D01*
X25660000Y-36707561D01*
X50374500Y-36707561D01*
X50374500Y-36911439D01*
X50414274Y-37111398D01*
X50492295Y-37299756D01*
X50605563Y-37469274D01*
X50749726Y-37613437D01*
X50919244Y-37726705D01*
X51107602Y-37804726D01*
X51307561Y-37844500D01*
X51511439Y-37844500D01*
X51711398Y-37804726D01*
X51899756Y-37726705D01*
X52069274Y-37613437D01*
X52213437Y-37469274D01*
X52326705Y-37299756D01*
X52404726Y-37111398D01*
X52407378Y-37098061D01*
X58365000Y-37098061D01*
X58365000Y-37301939D01*
X58404774Y-37501898D01*
X58482795Y-37690256D01*
X58596063Y-37859774D01*
X58740226Y-38003937D01*
X58909744Y-38117205D01*
X59098102Y-38195226D01*
X59298061Y-38235000D01*
X59501939Y-38235000D01*
X59701898Y-38195226D01*
X59890256Y-38117205D01*
X60059774Y-38003937D01*
X60203937Y-37859774D01*
X60317205Y-37690256D01*
X60395226Y-37501898D01*
X60435000Y-37301939D01*
X60435000Y-37098061D01*
X60428929Y-37067535D01*
X63395136Y-37067535D01*
X63395136Y-37271413D01*
X63434910Y-37471372D01*
X63512931Y-37659730D01*
X63626199Y-37829248D01*
X63770362Y-37973411D01*
X63939880Y-38086679D01*
X64128238Y-38164700D01*
X64328197Y-38204474D01*
X64532075Y-38204474D01*
X64732034Y-38164700D01*
X64733507Y-38164090D01*
X64729774Y-38173102D01*
X64690000Y-38373061D01*
X64690000Y-38576939D01*
X64729774Y-38776898D01*
X64807795Y-38965256D01*
X64921063Y-39134774D01*
X65065226Y-39278937D01*
X65234744Y-39392205D01*
X65423102Y-39470226D01*
X65623061Y-39510000D01*
X65826939Y-39510000D01*
X66026898Y-39470226D01*
X66215256Y-39392205D01*
X66384774Y-39278937D01*
X66528937Y-39134774D01*
X66642205Y-38965256D01*
X66720226Y-38776898D01*
X66760000Y-38576939D01*
X66760000Y-38373061D01*
X66720226Y-38173102D01*
X66642205Y-37984744D01*
X66528937Y-37815226D01*
X66384774Y-37671063D01*
X66215256Y-37557795D01*
X66026898Y-37479774D01*
X65826939Y-37440000D01*
X65623061Y-37440000D01*
X65423102Y-37479774D01*
X65421629Y-37480384D01*
X65425362Y-37471372D01*
X65465136Y-37271413D01*
X65465136Y-37067535D01*
X65425362Y-36867576D01*
X65396568Y-36798061D01*
X78565000Y-36798061D01*
X78565000Y-37001939D01*
X78604774Y-37201898D01*
X78682795Y-37390256D01*
X78796063Y-37559774D01*
X78940226Y-37703937D01*
X79109744Y-37817205D01*
X79298102Y-37895226D01*
X79498061Y-37935000D01*
X79701939Y-37935000D01*
X79901898Y-37895226D01*
X80090256Y-37817205D01*
X80259774Y-37703937D01*
X80283712Y-37679999D01*
X89291928Y-37679999D01*
X89291928Y-38920001D01*
X89308992Y-39093255D01*
X89359528Y-39259851D01*
X89441595Y-39413387D01*
X89552038Y-39547962D01*
X89686613Y-39658405D01*
X89795175Y-39716433D01*
X89630990Y-39880618D01*
X89466286Y-40127115D01*
X89352836Y-40401008D01*
X89295000Y-40691770D01*
X89295000Y-40988230D01*
X89352836Y-41278992D01*
X89466286Y-41552885D01*
X89630990Y-41799382D01*
X89840618Y-42009010D01*
X89991760Y-42110000D01*
X89840618Y-42210990D01*
X89630990Y-42420618D01*
X89466286Y-42667115D01*
X89352836Y-42941008D01*
X89295000Y-43231770D01*
X89295000Y-43528230D01*
X89352836Y-43818992D01*
X89466286Y-44092885D01*
X89630990Y-44339382D01*
X89840618Y-44549010D01*
X89970815Y-44636005D01*
X89923596Y-44798937D01*
X90800000Y-45675341D01*
X91676404Y-44798937D01*
X91629185Y-44636005D01*
X91759382Y-44549010D01*
X91969010Y-44339382D01*
X92133714Y-44092885D01*
X92247164Y-43818992D01*
X92305000Y-43528230D01*
X92305000Y-43231770D01*
X92247164Y-42941008D01*
X92133714Y-42667115D01*
X91969010Y-42420618D01*
X91759382Y-42210990D01*
X91608240Y-42110000D01*
X91759382Y-42009010D01*
X91969010Y-41799382D01*
X92133714Y-41552885D01*
X92247164Y-41278992D01*
X92305000Y-40988230D01*
X92305000Y-40691770D01*
X92247164Y-40401008D01*
X92133714Y-40127115D01*
X91969010Y-39880618D01*
X91804825Y-39716433D01*
X91913387Y-39658405D01*
X92047962Y-39547962D01*
X92158405Y-39413387D01*
X92240472Y-39259851D01*
X92291008Y-39093255D01*
X92308072Y-38920001D01*
X92308072Y-37679999D01*
X92291008Y-37506745D01*
X92285992Y-37490210D01*
X92298102Y-37495226D01*
X92498061Y-37535000D01*
X92701939Y-37535000D01*
X92901898Y-37495226D01*
X93090256Y-37417205D01*
X93259774Y-37303937D01*
X93403937Y-37159774D01*
X93517205Y-36990256D01*
X93595226Y-36801898D01*
X93635000Y-36601939D01*
X93635000Y-36398061D01*
X93595226Y-36198102D01*
X93517205Y-36009744D01*
X93403937Y-35840226D01*
X93259774Y-35696063D01*
X93090256Y-35582795D01*
X92901898Y-35504774D01*
X92701939Y-35465000D01*
X92498061Y-35465000D01*
X92298102Y-35504774D01*
X92109744Y-35582795D01*
X91940226Y-35696063D01*
X91796063Y-35840226D01*
X91682795Y-36009744D01*
X91604774Y-36198102D01*
X91565000Y-36398061D01*
X91565000Y-36601939D01*
X91604774Y-36801898D01*
X91609790Y-36814008D01*
X91593255Y-36808992D01*
X91420001Y-36791928D01*
X90179999Y-36791928D01*
X90006745Y-36808992D01*
X89840149Y-36859528D01*
X89686613Y-36941595D01*
X89552038Y-37052038D01*
X89441595Y-37186613D01*
X89359528Y-37340149D01*
X89308992Y-37506745D01*
X89291928Y-37679999D01*
X80283712Y-37679999D01*
X80403937Y-37559774D01*
X80517205Y-37390256D01*
X80595226Y-37201898D01*
X80635000Y-37001939D01*
X80635000Y-36798061D01*
X80595226Y-36598102D01*
X80517205Y-36409744D01*
X80403937Y-36240226D01*
X80259774Y-36096063D01*
X80090256Y-35982795D01*
X79901898Y-35904774D01*
X79701939Y-35865000D01*
X79498061Y-35865000D01*
X79298102Y-35904774D01*
X79109744Y-35982795D01*
X78940226Y-36096063D01*
X78796063Y-36240226D01*
X78682795Y-36409744D01*
X78604774Y-36598102D01*
X78565000Y-36798061D01*
X65396568Y-36798061D01*
X65347341Y-36679218D01*
X65234073Y-36509700D01*
X65089910Y-36365537D01*
X64920392Y-36252269D01*
X64732034Y-36174248D01*
X64532075Y-36134474D01*
X64328197Y-36134474D01*
X64128238Y-36174248D01*
X63939880Y-36252269D01*
X63770362Y-36365537D01*
X63626199Y-36509700D01*
X63512931Y-36679218D01*
X63434910Y-36867576D01*
X63395136Y-37067535D01*
X60428929Y-37067535D01*
X60395226Y-36898102D01*
X60317205Y-36709744D01*
X60203937Y-36540226D01*
X60059774Y-36396063D01*
X59890256Y-36282795D01*
X59701898Y-36204774D01*
X59501939Y-36165000D01*
X59298061Y-36165000D01*
X59098102Y-36204774D01*
X58909744Y-36282795D01*
X58740226Y-36396063D01*
X58596063Y-36540226D01*
X58482795Y-36709744D01*
X58404774Y-36898102D01*
X58365000Y-37098061D01*
X52407378Y-37098061D01*
X52444500Y-36911439D01*
X52444500Y-36707561D01*
X52404726Y-36507602D01*
X52326705Y-36319244D01*
X52213437Y-36149726D01*
X52069274Y-36005563D01*
X51899756Y-35892295D01*
X51711398Y-35814274D01*
X51511439Y-35774500D01*
X51307561Y-35774500D01*
X51107602Y-35814274D01*
X50919244Y-35892295D01*
X50749726Y-36005563D01*
X50605563Y-36149726D01*
X50492295Y-36319244D01*
X50414274Y-36507602D01*
X50374500Y-36707561D01*
X25660000Y-36707561D01*
X25660000Y-35390111D01*
X40290942Y-35390111D01*
X40290942Y-35593989D01*
X40330716Y-35793948D01*
X40408737Y-35982306D01*
X40522005Y-36151824D01*
X40666168Y-36295987D01*
X40835686Y-36409255D01*
X41024044Y-36487276D01*
X41224003Y-36527050D01*
X41427881Y-36527050D01*
X41627840Y-36487276D01*
X41816198Y-36409255D01*
X41985716Y-36295987D01*
X42129879Y-36151824D01*
X42243147Y-35982306D01*
X42321168Y-35793948D01*
X42360942Y-35593989D01*
X42360942Y-35390111D01*
X42321168Y-35190152D01*
X42243147Y-35001794D01*
X42129879Y-34832276D01*
X41985716Y-34688113D01*
X41816198Y-34574845D01*
X41630827Y-34498061D01*
X45765000Y-34498061D01*
X45765000Y-34701939D01*
X45804774Y-34901898D01*
X45882795Y-35090256D01*
X45889306Y-35100000D01*
X45882795Y-35109744D01*
X45804774Y-35298102D01*
X45765000Y-35498061D01*
X45765000Y-35701939D01*
X45804774Y-35901898D01*
X45882795Y-36090256D01*
X45996063Y-36259774D01*
X46140226Y-36403937D01*
X46309744Y-36517205D01*
X46498102Y-36595226D01*
X46698061Y-36635000D01*
X46901939Y-36635000D01*
X47101898Y-36595226D01*
X47290256Y-36517205D01*
X47300000Y-36510694D01*
X47309744Y-36517205D01*
X47498102Y-36595226D01*
X47698061Y-36635000D01*
X47901939Y-36635000D01*
X48101898Y-36595226D01*
X48290256Y-36517205D01*
X48300000Y-36510694D01*
X48309744Y-36517205D01*
X48498102Y-36595226D01*
X48698061Y-36635000D01*
X48901939Y-36635000D01*
X49101898Y-36595226D01*
X49290256Y-36517205D01*
X49459774Y-36403937D01*
X49603937Y-36259774D01*
X49717205Y-36090256D01*
X49795226Y-35901898D01*
X49835000Y-35701939D01*
X49835000Y-35498061D01*
X49795226Y-35298102D01*
X49717205Y-35109744D01*
X49710694Y-35100000D01*
X49717205Y-35090256D01*
X49795226Y-34901898D01*
X49835000Y-34701939D01*
X49835000Y-34498061D01*
X49795226Y-34298102D01*
X49717205Y-34109744D01*
X49710694Y-34100000D01*
X49717205Y-34090256D01*
X49795226Y-33901898D01*
X49835000Y-33701939D01*
X49835000Y-33498061D01*
X49795226Y-33298102D01*
X49721894Y-33121063D01*
X54503596Y-33121063D01*
X54582223Y-33392372D01*
X54869190Y-33521257D01*
X55175788Y-33591680D01*
X55490233Y-33600937D01*
X55800442Y-33548671D01*
X56094495Y-33436889D01*
X56177777Y-33392372D01*
X56256404Y-33121063D01*
X55380000Y-32244659D01*
X54503596Y-33121063D01*
X49721894Y-33121063D01*
X49717205Y-33109744D01*
X49710694Y-33100000D01*
X49717205Y-33090256D01*
X49795226Y-32901898D01*
X49835000Y-32701939D01*
X49835000Y-32498061D01*
X49795226Y-32298102D01*
X49717408Y-32110233D01*
X53779063Y-32110233D01*
X53831329Y-32420442D01*
X53943111Y-32714495D01*
X53987628Y-32797777D01*
X54258937Y-32876404D01*
X55135341Y-32000000D01*
X55624659Y-32000000D01*
X56501063Y-32876404D01*
X56663995Y-32829185D01*
X56750990Y-32959382D01*
X56960618Y-33169010D01*
X57207115Y-33333714D01*
X57481008Y-33447164D01*
X57771770Y-33505000D01*
X58068230Y-33505000D01*
X58358992Y-33447164D01*
X58632885Y-33333714D01*
X58879382Y-33169010D01*
X59089010Y-32959382D01*
X59190000Y-32808240D01*
X59290990Y-32959382D01*
X59500618Y-33169010D01*
X59747115Y-33333714D01*
X60021008Y-33447164D01*
X60311770Y-33505000D01*
X60608230Y-33505000D01*
X60898992Y-33447164D01*
X61172885Y-33333714D01*
X61419382Y-33169010D01*
X61583567Y-33004825D01*
X61641595Y-33113387D01*
X61752038Y-33247962D01*
X61886613Y-33358405D01*
X62040149Y-33440472D01*
X62206745Y-33491008D01*
X62379999Y-33508072D01*
X63620001Y-33508072D01*
X63793255Y-33491008D01*
X63959851Y-33440472D01*
X64113387Y-33358405D01*
X64247962Y-33247962D01*
X64358405Y-33113387D01*
X64440472Y-32959851D01*
X64491008Y-32793255D01*
X64508072Y-32620001D01*
X64508072Y-32264775D01*
X74165000Y-32264775D01*
X74165000Y-33735224D01*
X74190105Y-33990118D01*
X74289314Y-34317167D01*
X74450421Y-34618577D01*
X74667234Y-34882766D01*
X74931422Y-35099579D01*
X75232832Y-35260686D01*
X75559881Y-35359895D01*
X75900000Y-35393394D01*
X76240118Y-35359895D01*
X76567167Y-35260686D01*
X76868577Y-35099579D01*
X77132766Y-34882766D01*
X77229976Y-34764315D01*
X77323267Y-34824194D01*
X77599667Y-34921711D01*
X77827000Y-34783645D01*
X77827000Y-33173000D01*
X77807000Y-33173000D01*
X77807000Y-32827000D01*
X77827000Y-32827000D01*
X77827000Y-31216355D01*
X78173000Y-31216355D01*
X78173000Y-32827000D01*
X78193000Y-32827000D01*
X78193000Y-33173000D01*
X78173000Y-33173000D01*
X78173000Y-34783645D01*
X78400333Y-34921711D01*
X78676733Y-34824194D01*
X78922067Y-34666726D01*
X79067580Y-34526478D01*
X79226812Y-34657157D01*
X79467419Y-34785764D01*
X79728493Y-34864960D01*
X80000000Y-34891701D01*
X80271506Y-34864960D01*
X80532580Y-34785764D01*
X80765885Y-34661060D01*
X80798815Y-34701185D01*
X80895506Y-34780537D01*
X81005820Y-34839502D01*
X81125518Y-34875812D01*
X81250000Y-34888072D01*
X82750000Y-34888072D01*
X82862496Y-34876992D01*
X82867234Y-34882766D01*
X83131422Y-35099579D01*
X83432832Y-35260686D01*
X83759881Y-35359895D01*
X84100000Y-35393394D01*
X84440118Y-35359895D01*
X84767167Y-35260686D01*
X85068577Y-35099579D01*
X85332766Y-34882766D01*
X85549579Y-34618578D01*
X85710686Y-34317168D01*
X85809895Y-33990119D01*
X85835000Y-33735225D01*
X85835000Y-32781244D01*
X87463415Y-32781244D01*
X87822789Y-33290999D01*
X88506665Y-33652516D01*
X89247930Y-33873670D01*
X90018096Y-33945960D01*
X90787567Y-33866608D01*
X91526772Y-33638665D01*
X92177211Y-33290999D01*
X92536585Y-32781244D01*
X90000000Y-30244659D01*
X87463415Y-32781244D01*
X85835000Y-32781244D01*
X85835000Y-32264775D01*
X85809895Y-32009881D01*
X85710686Y-31682832D01*
X85549579Y-31381422D01*
X85332766Y-31117234D01*
X85068578Y-30900421D01*
X84767168Y-30739314D01*
X84440119Y-30640105D01*
X84100000Y-30606606D01*
X83759882Y-30640105D01*
X83432833Y-30739314D01*
X83131423Y-30900421D01*
X82867235Y-31117234D01*
X82862497Y-31123008D01*
X82750000Y-31111928D01*
X81250000Y-31111928D01*
X81125518Y-31124188D01*
X81005820Y-31160498D01*
X80895506Y-31219463D01*
X80798815Y-31298815D01*
X80765886Y-31338940D01*
X80532581Y-31214236D01*
X80271507Y-31135040D01*
X80000000Y-31108299D01*
X79728494Y-31135040D01*
X79467420Y-31214236D01*
X79226813Y-31342843D01*
X79067580Y-31473522D01*
X78922067Y-31333274D01*
X78676733Y-31175806D01*
X78400333Y-31078289D01*
X78173000Y-31216355D01*
X77827000Y-31216355D01*
X77599667Y-31078289D01*
X77323267Y-31175806D01*
X77229976Y-31235685D01*
X77132766Y-31117234D01*
X76868578Y-30900421D01*
X76567168Y-30739314D01*
X76240119Y-30640105D01*
X75900000Y-30606606D01*
X75559882Y-30640105D01*
X75232833Y-30739314D01*
X74931423Y-30900421D01*
X74667235Y-31117234D01*
X74450422Y-31381422D01*
X74289315Y-31682832D01*
X74190105Y-32009881D01*
X74165000Y-32264775D01*
X64508072Y-32264775D01*
X64508072Y-31379999D01*
X64491008Y-31206745D01*
X64440472Y-31040149D01*
X64358405Y-30886613D01*
X64247962Y-30752038D01*
X64113387Y-30641595D01*
X63959851Y-30559528D01*
X63793255Y-30508992D01*
X63620001Y-30491928D01*
X62379999Y-30491928D01*
X62206745Y-30508992D01*
X62040149Y-30559528D01*
X61886613Y-30641595D01*
X61752038Y-30752038D01*
X61641595Y-30886613D01*
X61583567Y-30995175D01*
X61419382Y-30830990D01*
X61172885Y-30666286D01*
X60898992Y-30552836D01*
X60608230Y-30495000D01*
X60311770Y-30495000D01*
X60021008Y-30552836D01*
X59747115Y-30666286D01*
X59500618Y-30830990D01*
X59290990Y-31040618D01*
X59190000Y-31191760D01*
X59089010Y-31040618D01*
X58879382Y-30830990D01*
X58632885Y-30666286D01*
X58358992Y-30552836D01*
X58068230Y-30495000D01*
X57771770Y-30495000D01*
X57481008Y-30552836D01*
X57207115Y-30666286D01*
X56960618Y-30830990D01*
X56750990Y-31040618D01*
X56663995Y-31170815D01*
X56501063Y-31123596D01*
X55624659Y-32000000D01*
X55135341Y-32000000D01*
X54258937Y-31123596D01*
X53987628Y-31202223D01*
X53858743Y-31489190D01*
X53788320Y-31795788D01*
X53779063Y-32110233D01*
X49717408Y-32110233D01*
X49717205Y-32109744D01*
X49710694Y-32100000D01*
X49717205Y-32090256D01*
X49795226Y-31901898D01*
X49835000Y-31701939D01*
X49835000Y-31498061D01*
X49795226Y-31298102D01*
X49717205Y-31109744D01*
X49710694Y-31100000D01*
X49717205Y-31090256D01*
X49795226Y-30901898D01*
X49799793Y-30878937D01*
X54503596Y-30878937D01*
X55380000Y-31755341D01*
X56256404Y-30878937D01*
X56177777Y-30607628D01*
X55890810Y-30478743D01*
X55584212Y-30408320D01*
X55269767Y-30399063D01*
X54959558Y-30451329D01*
X54665505Y-30563111D01*
X54582223Y-30607628D01*
X54503596Y-30878937D01*
X49799793Y-30878937D01*
X49835000Y-30701939D01*
X49835000Y-30498061D01*
X49795226Y-30298102D01*
X49717205Y-30109744D01*
X49655968Y-30018096D01*
X86054040Y-30018096D01*
X86133392Y-30787567D01*
X86361335Y-31526772D01*
X86709001Y-32177211D01*
X87218756Y-32536585D01*
X89755341Y-30000000D01*
X90244659Y-30000000D01*
X92781244Y-32536585D01*
X93290999Y-32177211D01*
X93652516Y-31493335D01*
X93873670Y-30752070D01*
X93945960Y-29981904D01*
X93866608Y-29212433D01*
X93638665Y-28473228D01*
X93290999Y-27822789D01*
X92781244Y-27463415D01*
X90244659Y-30000000D01*
X89755341Y-30000000D01*
X87218756Y-27463415D01*
X86709001Y-27822789D01*
X86347484Y-28506665D01*
X86126330Y-29247930D01*
X86054040Y-30018096D01*
X49655968Y-30018096D01*
X49603937Y-29940226D01*
X49459774Y-29796063D01*
X49290256Y-29682795D01*
X49101898Y-29604774D01*
X48901939Y-29565000D01*
X48698061Y-29565000D01*
X48498102Y-29604774D01*
X48309744Y-29682795D01*
X48300000Y-29689306D01*
X48290256Y-29682795D01*
X48101898Y-29604774D01*
X47901939Y-29565000D01*
X47698061Y-29565000D01*
X47498102Y-29604774D01*
X47309744Y-29682795D01*
X47140226Y-29796063D01*
X46996063Y-29940226D01*
X46882795Y-30109744D01*
X46804774Y-30298102D01*
X46765000Y-30498061D01*
X46765000Y-30701939D01*
X46804774Y-30901898D01*
X46882795Y-31090256D01*
X46889306Y-31100000D01*
X46882795Y-31109744D01*
X46804774Y-31298102D01*
X46765000Y-31498061D01*
X46765000Y-31701939D01*
X46804774Y-31901898D01*
X46882795Y-32090256D01*
X46889306Y-32100000D01*
X46882795Y-32109744D01*
X46804774Y-32298102D01*
X46765000Y-32498061D01*
X46765000Y-32701939D01*
X46804774Y-32901898D01*
X46882795Y-33090256D01*
X46889306Y-33100000D01*
X46882795Y-33109744D01*
X46804774Y-33298102D01*
X46765000Y-33498061D01*
X46765000Y-33565000D01*
X46698061Y-33565000D01*
X46498102Y-33604774D01*
X46309744Y-33682795D01*
X46140226Y-33796063D01*
X45996063Y-33940226D01*
X45882795Y-34109744D01*
X45804774Y-34298102D01*
X45765000Y-34498061D01*
X41630827Y-34498061D01*
X41627840Y-34496824D01*
X41427881Y-34457050D01*
X41224003Y-34457050D01*
X41024044Y-34496824D01*
X40835686Y-34574845D01*
X40666168Y-34688113D01*
X40522005Y-34832276D01*
X40408737Y-35001794D01*
X40330716Y-35190152D01*
X40290942Y-35390111D01*
X25660000Y-35390111D01*
X25660000Y-32781244D01*
X27463415Y-32781244D01*
X27822789Y-33290999D01*
X28506665Y-33652516D01*
X29247930Y-33873670D01*
X30018096Y-33945960D01*
X30787567Y-33866608D01*
X31526772Y-33638665D01*
X32177211Y-33290999D01*
X32536585Y-32781244D01*
X30000000Y-30244659D01*
X27463415Y-32781244D01*
X25660000Y-32781244D01*
X25660000Y-30029392D01*
X25661008Y-30018096D01*
X26054040Y-30018096D01*
X26133392Y-30787567D01*
X26361335Y-31526772D01*
X26709001Y-32177211D01*
X27218756Y-32536585D01*
X29755341Y-30000000D01*
X30244659Y-30000000D01*
X32781244Y-32536585D01*
X33290999Y-32177211D01*
X33652516Y-31493335D01*
X33873670Y-30752070D01*
X33945960Y-29981904D01*
X33866608Y-29212433D01*
X33638665Y-28473228D01*
X33290999Y-27822789D01*
X32781244Y-27463415D01*
X30244659Y-30000000D01*
X29755341Y-30000000D01*
X27218756Y-27463415D01*
X26709001Y-27822789D01*
X26347484Y-28506665D01*
X26126330Y-29247930D01*
X26054040Y-30018096D01*
X25661008Y-30018096D01*
X25731173Y-29231917D01*
X25934656Y-28488109D01*
X26266638Y-27792095D01*
X26678623Y-27218756D01*
X27463415Y-27218756D01*
X30000000Y-29755341D01*
X32536585Y-27218756D01*
X87463415Y-27218756D01*
X90000000Y-29755341D01*
X92536585Y-27218756D01*
X92177211Y-26709001D01*
X91493335Y-26347484D01*
X90752070Y-26126330D01*
X89981904Y-26054040D01*
X89212433Y-26133392D01*
X88473228Y-26361335D01*
X87822789Y-26709001D01*
X87463415Y-27218756D01*
X32536585Y-27218756D01*
X32177211Y-26709001D01*
X31493335Y-26347484D01*
X30752070Y-26126330D01*
X29981904Y-26054040D01*
X29212433Y-26133392D01*
X28473228Y-26361335D01*
X27822789Y-26709001D01*
X27463415Y-27218756D01*
X26678623Y-27218756D01*
X26716626Y-27165870D01*
X27270403Y-26629223D01*
X27910451Y-26199129D01*
X28616553Y-25889171D01*
X29371457Y-25707935D01*
X30024207Y-25660000D01*
X71618547Y-25660000D01*
X71544774Y-25838102D01*
%TA.AperFunction,Conductor*%
D22*
G36*
X71544774Y-25838102D02*
G01*
X71505000Y-26038061D01*
X71505000Y-26241939D01*
X71544774Y-26441898D01*
X71622795Y-26630256D01*
X71736063Y-26799774D01*
X71880226Y-26943937D01*
X72049744Y-27057205D01*
X72238102Y-27135226D01*
X72438061Y-27175000D01*
X72641939Y-27175000D01*
X72841898Y-27135226D01*
X73030256Y-27057205D01*
X73199774Y-26943937D01*
X73343937Y-26799774D01*
X73457205Y-26630256D01*
X73535226Y-26441898D01*
X73575000Y-26241939D01*
X73575000Y-26038061D01*
X73535226Y-25838102D01*
X73461453Y-25660000D01*
X89970608Y-25660000D01*
X90768083Y-25731173D01*
X91511891Y-25934656D01*
X92207905Y-26266638D01*
X92834130Y-26716626D01*
X93370777Y-27270403D01*
X93800871Y-27910451D01*
X94110829Y-28616553D01*
X94292065Y-29371457D01*
X94340001Y-30024220D01*
X94340000Y-50502889D01*
X94306138Y-50391259D01*
X94184495Y-50163682D01*
X94020792Y-49964208D01*
X93821318Y-49800505D01*
X93593741Y-49678862D01*
X93346805Y-49603955D01*
X93154351Y-49585000D01*
X92675649Y-49585000D01*
X92483195Y-49603955D01*
X92236259Y-49678862D01*
X92008682Y-49800505D01*
X91809208Y-49964208D01*
X91645505Y-50163682D01*
X91523862Y-50391259D01*
X91448955Y-50638195D01*
X91423662Y-50895000D01*
X91448955Y-51151805D01*
X91523862Y-51398741D01*
X91645505Y-51626318D01*
X91809208Y-51825792D01*
X92008682Y-51989495D01*
X92236259Y-52111138D01*
X92483195Y-52186045D01*
X92675649Y-52205000D01*
X93154351Y-52205000D01*
X93346805Y-52186045D01*
X93593741Y-52111138D01*
X93821318Y-51989495D01*
X94020792Y-51825792D01*
X94184495Y-51626318D01*
X94306138Y-51398741D01*
X94340000Y-51287111D01*
X94340000Y-55962888D01*
X94306138Y-55851259D01*
X94184495Y-55623682D01*
X94020792Y-55424208D01*
X93821318Y-55260505D01*
X93593741Y-55138862D01*
X93346805Y-55063955D01*
X93154351Y-55045000D01*
X92675649Y-55045000D01*
X92483195Y-55063955D01*
X92236259Y-55138862D01*
X92008682Y-55260505D01*
X91809208Y-55424208D01*
X91645505Y-55623682D01*
X91523862Y-55851259D01*
X91448955Y-56098195D01*
X91423662Y-56355000D01*
X91448955Y-56611805D01*
X91523862Y-56858741D01*
X91645505Y-57086318D01*
X91809208Y-57285792D01*
X92008682Y-57449495D01*
X92236259Y-57571138D01*
X92483195Y-57646045D01*
X92675649Y-57665000D01*
X93154351Y-57665000D01*
X93346805Y-57646045D01*
X93593741Y-57571138D01*
X93821318Y-57449495D01*
X94020792Y-57285792D01*
X94184495Y-57086318D01*
X94306138Y-56858741D01*
X94340000Y-56747112D01*
X94340000Y-67970608D01*
X94268827Y-68768083D01*
X94065344Y-69511890D01*
X93733363Y-70207904D01*
X93283374Y-70834130D01*
X92729597Y-71370777D01*
X92089549Y-71800871D01*
X91383447Y-72110829D01*
X90628543Y-72292065D01*
X89975793Y-72340000D01*
X30029392Y-72340000D01*
X29231917Y-72268827D01*
X28488110Y-72065344D01*
X27792096Y-71733363D01*
X27165870Y-71283374D01*
X26629223Y-70729597D01*
X26199129Y-70089549D01*
X26063793Y-69781244D01*
X27463415Y-69781244D01*
X27822789Y-70290999D01*
X28506665Y-70652516D01*
X29247930Y-70873670D01*
X30018096Y-70945960D01*
X30787567Y-70866608D01*
X31526772Y-70638665D01*
X32177211Y-70290999D01*
X32536585Y-69781244D01*
X87463415Y-69781244D01*
X87822789Y-70290999D01*
X88506665Y-70652516D01*
X89247930Y-70873670D01*
X90018096Y-70945960D01*
X90787567Y-70866608D01*
X91526772Y-70638665D01*
X92177211Y-70290999D01*
X92536585Y-69781244D01*
X90000000Y-67244659D01*
X87463415Y-69781244D01*
X32536585Y-69781244D01*
X30000000Y-67244659D01*
X27463415Y-69781244D01*
X26063793Y-69781244D01*
X25889171Y-69383447D01*
X25707935Y-68628543D01*
X25660000Y-67975793D01*
X25660000Y-67018096D01*
X26054040Y-67018096D01*
X26133392Y-67787567D01*
X26361335Y-68526772D01*
X26709001Y-69177211D01*
X27218756Y-69536585D01*
X29755341Y-67000000D01*
X30244659Y-67000000D01*
X32781244Y-69536585D01*
X33290999Y-69177211D01*
X33652516Y-68493335D01*
X33873670Y-67752070D01*
X33945960Y-66981904D01*
X33866608Y-66212433D01*
X33647538Y-65502000D01*
X35780928Y-65502000D01*
X35780928Y-68102000D01*
X35793188Y-68226482D01*
X35829498Y-68346180D01*
X35888463Y-68456494D01*
X35967815Y-68553185D01*
X36064506Y-68632537D01*
X36174820Y-68691502D01*
X36294518Y-68727812D01*
X36419000Y-68740072D01*
X39019000Y-68740072D01*
X39143482Y-68727812D01*
X39263180Y-68691502D01*
X39373494Y-68632537D01*
X39470185Y-68553185D01*
X39549537Y-68456494D01*
X39608502Y-68346180D01*
X39644812Y-68226482D01*
X39657072Y-68102000D01*
X39657072Y-66611419D01*
X40784000Y-66611419D01*
X40784000Y-66992581D01*
X40858361Y-67366419D01*
X41004225Y-67718566D01*
X41215987Y-68035491D01*
X41485509Y-68305013D01*
X41802434Y-68516775D01*
X42154581Y-68662639D01*
X42528419Y-68737000D01*
X42909581Y-68737000D01*
X43283419Y-68662639D01*
X43635566Y-68516775D01*
X43952491Y-68305013D01*
X44222013Y-68035491D01*
X44433775Y-67718566D01*
X44579639Y-67366419D01*
X44654000Y-66992581D01*
X44654000Y-66611419D01*
X45784000Y-66611419D01*
X45784000Y-66992581D01*
X45858361Y-67366419D01*
X46004225Y-67718566D01*
X46215987Y-68035491D01*
X46485509Y-68305013D01*
X46802434Y-68516775D01*
X47154581Y-68662639D01*
X47528419Y-68737000D01*
X47909581Y-68737000D01*
X48283419Y-68662639D01*
X48635566Y-68516775D01*
X48952491Y-68305013D01*
X49222013Y-68035491D01*
X49433775Y-67718566D01*
X49579639Y-67366419D01*
X49654000Y-66992581D01*
X49654000Y-66611419D01*
X50784000Y-66611419D01*
X50784000Y-66992581D01*
X50858361Y-67366419D01*
X51004225Y-67718566D01*
X51215987Y-68035491D01*
X51485509Y-68305013D01*
X51802434Y-68516775D01*
X52154581Y-68662639D01*
X52528419Y-68737000D01*
X52909581Y-68737000D01*
X53283419Y-68662639D01*
X53635566Y-68516775D01*
X53952491Y-68305013D01*
X54222013Y-68035491D01*
X54433775Y-67718566D01*
X54579639Y-67366419D01*
X54654000Y-66992581D01*
X54654000Y-66611419D01*
X55784000Y-66611419D01*
X55784000Y-66992581D01*
X55858361Y-67366419D01*
X56004225Y-67718566D01*
X56215987Y-68035491D01*
X56485509Y-68305013D01*
X56802434Y-68516775D01*
X57154581Y-68662639D01*
X57528419Y-68737000D01*
X57909581Y-68737000D01*
X58283419Y-68662639D01*
X58635566Y-68516775D01*
X58952491Y-68305013D01*
X59222013Y-68035491D01*
X59433775Y-67718566D01*
X59579639Y-67366419D01*
X59654000Y-66992581D01*
X59654000Y-66611419D01*
X60784000Y-66611419D01*
X60784000Y-66992581D01*
X60858361Y-67366419D01*
X61004225Y-67718566D01*
X61215987Y-68035491D01*
X61485509Y-68305013D01*
X61802434Y-68516775D01*
X62154581Y-68662639D01*
X62528419Y-68737000D01*
X62909581Y-68737000D01*
X63283419Y-68662639D01*
X63635566Y-68516775D01*
X63952491Y-68305013D01*
X64222013Y-68035491D01*
X64433775Y-67718566D01*
X64579639Y-67366419D01*
X64654000Y-66992581D01*
X64654000Y-66611419D01*
X65784000Y-66611419D01*
X65784000Y-66992581D01*
X65858361Y-67366419D01*
X66004225Y-67718566D01*
X66215987Y-68035491D01*
X66485509Y-68305013D01*
X66802434Y-68516775D01*
X67154581Y-68662639D01*
X67528419Y-68737000D01*
X67909581Y-68737000D01*
X68283419Y-68662639D01*
X68635566Y-68516775D01*
X68952491Y-68305013D01*
X69222013Y-68035491D01*
X69433775Y-67718566D01*
X69579639Y-67366419D01*
X69654000Y-66992581D01*
X69654000Y-66611419D01*
X70784000Y-66611419D01*
X70784000Y-66992581D01*
X70858361Y-67366419D01*
X71004225Y-67718566D01*
X71215987Y-68035491D01*
X71485509Y-68305013D01*
X71802434Y-68516775D01*
X72154581Y-68662639D01*
X72528419Y-68737000D01*
X72909581Y-68737000D01*
X73283419Y-68662639D01*
X73635566Y-68516775D01*
X73952491Y-68305013D01*
X74222013Y-68035491D01*
X74433775Y-67718566D01*
X74579639Y-67366419D01*
X74654000Y-66992581D01*
X74654000Y-66611419D01*
X75784000Y-66611419D01*
X75784000Y-66992581D01*
X75858361Y-67366419D01*
X76004225Y-67718566D01*
X76215987Y-68035491D01*
X76485509Y-68305013D01*
X76802434Y-68516775D01*
X77154581Y-68662639D01*
X77528419Y-68737000D01*
X77909581Y-68737000D01*
X78283419Y-68662639D01*
X78635566Y-68516775D01*
X78952491Y-68305013D01*
X79222013Y-68035491D01*
X79433775Y-67718566D01*
X79579639Y-67366419D01*
X79654000Y-66992581D01*
X79654000Y-66611419D01*
X80784000Y-66611419D01*
X80784000Y-66992581D01*
X80858361Y-67366419D01*
X81004225Y-67718566D01*
X81215987Y-68035491D01*
X81485509Y-68305013D01*
X81802434Y-68516775D01*
X82154581Y-68662639D01*
X82528419Y-68737000D01*
X82909581Y-68737000D01*
X83283419Y-68662639D01*
X83635566Y-68516775D01*
X83952491Y-68305013D01*
X84222013Y-68035491D01*
X84433775Y-67718566D01*
X84579639Y-67366419D01*
X84648924Y-67018096D01*
X86054040Y-67018096D01*
X86133392Y-67787567D01*
X86361335Y-68526772D01*
X86709001Y-69177211D01*
X87218756Y-69536585D01*
X89755341Y-67000000D01*
X90244659Y-67000000D01*
X92781244Y-69536585D01*
X93290999Y-69177211D01*
X93652516Y-68493335D01*
X93873670Y-67752070D01*
X93945960Y-66981904D01*
X93866608Y-66212433D01*
X93638665Y-65473228D01*
X93290999Y-64822789D01*
X92781244Y-64463415D01*
X90244659Y-67000000D01*
X89755341Y-67000000D01*
X87218756Y-64463415D01*
X86709001Y-64822789D01*
X86347484Y-65506665D01*
X86126330Y-66247930D01*
X86054040Y-67018096D01*
X84648924Y-67018096D01*
X84654000Y-66992581D01*
X84654000Y-66611419D01*
X84579639Y-66237581D01*
X84433775Y-65885434D01*
X84222013Y-65568509D01*
X83952491Y-65298987D01*
X83635566Y-65087225D01*
X83283419Y-64941361D01*
X82909581Y-64867000D01*
X82528419Y-64867000D01*
X82154581Y-64941361D01*
X81802434Y-65087225D01*
X81485509Y-65298987D01*
X81215987Y-65568509D01*
X81004225Y-65885434D01*
X80858361Y-66237581D01*
X80784000Y-66611419D01*
X79654000Y-66611419D01*
X79579639Y-66237581D01*
X79433775Y-65885434D01*
X79222013Y-65568509D01*
X78952491Y-65298987D01*
X78635566Y-65087225D01*
X78283419Y-64941361D01*
X77909581Y-64867000D01*
X77528419Y-64867000D01*
X77154581Y-64941361D01*
X76802434Y-65087225D01*
X76485509Y-65298987D01*
X76215987Y-65568509D01*
X76004225Y-65885434D01*
X75858361Y-66237581D01*
X75784000Y-66611419D01*
X74654000Y-66611419D01*
X74579639Y-66237581D01*
X74433775Y-65885434D01*
X74222013Y-65568509D01*
X73952491Y-65298987D01*
X73635566Y-65087225D01*
X73283419Y-64941361D01*
X72909581Y-64867000D01*
X72528419Y-64867000D01*
X72154581Y-64941361D01*
X71802434Y-65087225D01*
X71485509Y-65298987D01*
X71215987Y-65568509D01*
X71004225Y-65885434D01*
X70858361Y-66237581D01*
X70784000Y-66611419D01*
X69654000Y-66611419D01*
X69579639Y-66237581D01*
X69433775Y-65885434D01*
X69222013Y-65568509D01*
X68952491Y-65298987D01*
X68635566Y-65087225D01*
X68283419Y-64941361D01*
X67909581Y-64867000D01*
X67528419Y-64867000D01*
X67154581Y-64941361D01*
X66802434Y-65087225D01*
X66485509Y-65298987D01*
X66215987Y-65568509D01*
X66004225Y-65885434D01*
X65858361Y-66237581D01*
X65784000Y-66611419D01*
X64654000Y-66611419D01*
X64579639Y-66237581D01*
X64433775Y-65885434D01*
X64222013Y-65568509D01*
X63952491Y-65298987D01*
X63635566Y-65087225D01*
X63283419Y-64941361D01*
X62909581Y-64867000D01*
X62528419Y-64867000D01*
X62154581Y-64941361D01*
X61802434Y-65087225D01*
X61485509Y-65298987D01*
X61215987Y-65568509D01*
X61004225Y-65885434D01*
X60858361Y-66237581D01*
X60784000Y-66611419D01*
X59654000Y-66611419D01*
X59579639Y-66237581D01*
X59433775Y-65885434D01*
X59222013Y-65568509D01*
X58952491Y-65298987D01*
X58635566Y-65087225D01*
X58283419Y-64941361D01*
X57909581Y-64867000D01*
X57528419Y-64867000D01*
X57154581Y-64941361D01*
X56802434Y-65087225D01*
X56485509Y-65298987D01*
X56215987Y-65568509D01*
X56004225Y-65885434D01*
X55858361Y-66237581D01*
X55784000Y-66611419D01*
X54654000Y-66611419D01*
X54579639Y-66237581D01*
X54433775Y-65885434D01*
X54222013Y-65568509D01*
X53952491Y-65298987D01*
X53635566Y-65087225D01*
X53283419Y-64941361D01*
X52909581Y-64867000D01*
X52528419Y-64867000D01*
X52154581Y-64941361D01*
X51802434Y-65087225D01*
X51485509Y-65298987D01*
X51215987Y-65568509D01*
X51004225Y-65885434D01*
X50858361Y-66237581D01*
X50784000Y-66611419D01*
X49654000Y-66611419D01*
X49579639Y-66237581D01*
X49433775Y-65885434D01*
X49222013Y-65568509D01*
X48952491Y-65298987D01*
X48635566Y-65087225D01*
X48283419Y-64941361D01*
X47909581Y-64867000D01*
X47528419Y-64867000D01*
X47154581Y-64941361D01*
X46802434Y-65087225D01*
X46485509Y-65298987D01*
X46215987Y-65568509D01*
X46004225Y-65885434D01*
X45858361Y-66237581D01*
X45784000Y-66611419D01*
X44654000Y-66611419D01*
X44579639Y-66237581D01*
X44433775Y-65885434D01*
X44222013Y-65568509D01*
X43952491Y-65298987D01*
X43635566Y-65087225D01*
X43283419Y-64941361D01*
X42909581Y-64867000D01*
X42528419Y-64867000D01*
X42154581Y-64941361D01*
X41802434Y-65087225D01*
X41485509Y-65298987D01*
X41215987Y-65568509D01*
X41004225Y-65885434D01*
X40858361Y-66237581D01*
X40784000Y-66611419D01*
X39657072Y-66611419D01*
X39657072Y-65502000D01*
X39644812Y-65377518D01*
X39608502Y-65257820D01*
X39549537Y-65147506D01*
X39470185Y-65050815D01*
X39373494Y-64971463D01*
X39263180Y-64912498D01*
X39143482Y-64876188D01*
X39019000Y-64863928D01*
X36419000Y-64863928D01*
X36294518Y-64876188D01*
X36174820Y-64912498D01*
X36064506Y-64971463D01*
X35967815Y-65050815D01*
X35888463Y-65147506D01*
X35829498Y-65257820D01*
X35793188Y-65377518D01*
X35780928Y-65502000D01*
X33647538Y-65502000D01*
X33638665Y-65473228D01*
X33290999Y-64822789D01*
X32781244Y-64463415D01*
X30244659Y-67000000D01*
X29755341Y-67000000D01*
X27218756Y-64463415D01*
X26709001Y-64822789D01*
X26347484Y-65506665D01*
X26126330Y-66247930D01*
X26054040Y-67018096D01*
X25660000Y-67018096D01*
X25660000Y-64218756D01*
X27463415Y-64218756D01*
X30000000Y-66755341D01*
X32536585Y-64218756D01*
X87463415Y-64218756D01*
X90000000Y-66755341D01*
X92536585Y-64218756D01*
X92177211Y-63709001D01*
X91493335Y-63347484D01*
X90752070Y-63126330D01*
X89981904Y-63054040D01*
X89212433Y-63133392D01*
X88473228Y-63361335D01*
X87822789Y-63709001D01*
X87463415Y-64218756D01*
X32536585Y-64218756D01*
X32177211Y-63709001D01*
X31493335Y-63347484D01*
X30752070Y-63126330D01*
X29981904Y-63054040D01*
X29212433Y-63133392D01*
X28473228Y-63361335D01*
X27822789Y-63709001D01*
X27463415Y-64218756D01*
X25660000Y-64218756D01*
X25660000Y-58959337D01*
X31201322Y-58959337D01*
X31332081Y-59274545D01*
X31692461Y-59446458D01*
X32079456Y-59544760D01*
X32478192Y-59565675D01*
X32873346Y-59508399D01*
X33249734Y-59375132D01*
X33393923Y-59298061D01*
X58415010Y-59298061D01*
X58415010Y-59501939D01*
X58454784Y-59701898D01*
X58532805Y-59890256D01*
X58646073Y-60059774D01*
X58790236Y-60203937D01*
X58959754Y-60317205D01*
X59148112Y-60395226D01*
X59348071Y-60435000D01*
X59551949Y-60435000D01*
X59751908Y-60395226D01*
X59888535Y-60338633D01*
X60025162Y-60395226D01*
X60225121Y-60435000D01*
X60428999Y-60435000D01*
X60628958Y-60395226D01*
X60817316Y-60317205D01*
X60986834Y-60203937D01*
X61130997Y-60059774D01*
X61244265Y-59890256D01*
X61322286Y-59701898D01*
X61362060Y-59501939D01*
X61362060Y-59298061D01*
X61322286Y-59098102D01*
X61244265Y-58909744D01*
X61130997Y-58740226D01*
X60986834Y-58596063D01*
X60817316Y-58482795D01*
X60628958Y-58404774D01*
X60428999Y-58365000D01*
X60225121Y-58365000D01*
X60025162Y-58404774D01*
X59888535Y-58461367D01*
X59751908Y-58404774D01*
X59551949Y-58365000D01*
X59348071Y-58365000D01*
X59148112Y-58404774D01*
X58959754Y-58482795D01*
X58790236Y-58596063D01*
X58646073Y-58740226D01*
X58532805Y-58909744D01*
X58454784Y-59098102D01*
X58415010Y-59298061D01*
X33393923Y-59298061D01*
X33437919Y-59274545D01*
X33568678Y-58959337D01*
X32385000Y-57775659D01*
X31201322Y-58959337D01*
X25660000Y-58959337D01*
X25660000Y-57624192D01*
X30350325Y-57624192D01*
X30407601Y-58019346D01*
X30540868Y-58395734D01*
X30641455Y-58583919D01*
X30956663Y-58714678D01*
X32140341Y-57531000D01*
X32629659Y-57531000D01*
X33813337Y-58714678D01*
X34128545Y-58583919D01*
X34300458Y-58223539D01*
X34398760Y-57836544D01*
X34419675Y-57437808D01*
X34362399Y-57042654D01*
X34275797Y-56798061D01*
X52865000Y-56798061D01*
X52865000Y-57001939D01*
X52904774Y-57201898D01*
X52966120Y-57350000D01*
X52904774Y-57498102D01*
X52865000Y-57698061D01*
X52865000Y-57901939D01*
X52904774Y-58101898D01*
X52982795Y-58290256D01*
X53096063Y-58459774D01*
X53240226Y-58603937D01*
X53409744Y-58717205D01*
X53598102Y-58795226D01*
X53798061Y-58835000D01*
X54001939Y-58835000D01*
X54201898Y-58795226D01*
X54390256Y-58717205D01*
X54559774Y-58603937D01*
X54703937Y-58459774D01*
X54817205Y-58290256D01*
X54895226Y-58101898D01*
X54935000Y-57901939D01*
X54935000Y-57698061D01*
X54895226Y-57498102D01*
X54833880Y-57350000D01*
X54895226Y-57201898D01*
X54935000Y-57001939D01*
X54935000Y-56798061D01*
X54895226Y-56598102D01*
X54895210Y-56598061D01*
X67765000Y-56598061D01*
X67765000Y-56801939D01*
X67804774Y-57001898D01*
X67882795Y-57190256D01*
X67996063Y-57359774D01*
X68140226Y-57503937D01*
X68309744Y-57617205D01*
X68498102Y-57695226D01*
X68698061Y-57735000D01*
X68901939Y-57735000D01*
X69101898Y-57695226D01*
X69290256Y-57617205D01*
X69450000Y-57510468D01*
X69609744Y-57617205D01*
X69798102Y-57695226D01*
X69998061Y-57735000D01*
X70012312Y-57735000D01*
X70015730Y-57740116D01*
X70159893Y-57884279D01*
X70329411Y-57997547D01*
X70517769Y-58075568D01*
X70717728Y-58115342D01*
X70921606Y-58115342D01*
X71121565Y-58075568D01*
X71309923Y-57997547D01*
X71479441Y-57884279D01*
X71623604Y-57740116D01*
X71736872Y-57570598D01*
X71814893Y-57382240D01*
X71851528Y-57198061D01*
X72765000Y-57198061D01*
X72765000Y-57401939D01*
X72804774Y-57601898D01*
X72882795Y-57790256D01*
X72996063Y-57959774D01*
X73140226Y-58103937D01*
X73309744Y-58217205D01*
X73498102Y-58295226D01*
X73698061Y-58335000D01*
X73901939Y-58335000D01*
X74101898Y-58295226D01*
X74290256Y-58217205D01*
X74459774Y-58103937D01*
X74465650Y-58098061D01*
X80365000Y-58098061D01*
X80365000Y-58301939D01*
X80404774Y-58501898D01*
X80482795Y-58690256D01*
X80596063Y-58859774D01*
X80740226Y-59003937D01*
X80909744Y-59117205D01*
X81098102Y-59195226D01*
X81298061Y-59235000D01*
X81501939Y-59235000D01*
X81701898Y-59195226D01*
X81890256Y-59117205D01*
X82059774Y-59003937D01*
X82203937Y-58859774D01*
X82317205Y-58690256D01*
X82395226Y-58501898D01*
X82435000Y-58301939D01*
X82435000Y-58098061D01*
X82395226Y-57898102D01*
X82317205Y-57709744D01*
X82203937Y-57540226D01*
X82059774Y-57396063D01*
X81890256Y-57282795D01*
X81701898Y-57204774D01*
X81501939Y-57165000D01*
X81298061Y-57165000D01*
X81098102Y-57204774D01*
X80909744Y-57282795D01*
X80740226Y-57396063D01*
X80596063Y-57540226D01*
X80482795Y-57709744D01*
X80404774Y-57898102D01*
X80365000Y-58098061D01*
X74465650Y-58098061D01*
X74603937Y-57959774D01*
X74717205Y-57790256D01*
X74795226Y-57601898D01*
X74835000Y-57401939D01*
X74835000Y-57198061D01*
X74795226Y-56998102D01*
X74717205Y-56809744D01*
X74603937Y-56640226D01*
X74459774Y-56496063D01*
X74290256Y-56382795D01*
X74101898Y-56304774D01*
X73901939Y-56265000D01*
X73698061Y-56265000D01*
X73498102Y-56304774D01*
X73309744Y-56382795D01*
X73140226Y-56496063D01*
X72996063Y-56640226D01*
X72882795Y-56809744D01*
X72804774Y-56998102D01*
X72765000Y-57198061D01*
X71851528Y-57198061D01*
X71854667Y-57182281D01*
X71854667Y-56978403D01*
X71814893Y-56778444D01*
X71736872Y-56590086D01*
X71623604Y-56420568D01*
X71479441Y-56276405D01*
X71309923Y-56163137D01*
X71121565Y-56085116D01*
X70921606Y-56045342D01*
X70907355Y-56045342D01*
X70903937Y-56040226D01*
X70759774Y-55896063D01*
X70590256Y-55782795D01*
X70401898Y-55704774D01*
X70201939Y-55665000D01*
X69998061Y-55665000D01*
X69798102Y-55704774D01*
X69609744Y-55782795D01*
X69450000Y-55889532D01*
X69290256Y-55782795D01*
X69101898Y-55704774D01*
X68901939Y-55665000D01*
X68698061Y-55665000D01*
X68498102Y-55704774D01*
X68309744Y-55782795D01*
X68140226Y-55896063D01*
X67996063Y-56040226D01*
X67882795Y-56209744D01*
X67804774Y-56398102D01*
X67765000Y-56598061D01*
X54895210Y-56598061D01*
X54817205Y-56409744D01*
X54703937Y-56240226D01*
X54559774Y-56096063D01*
X54390256Y-55982795D01*
X54201898Y-55904774D01*
X54001939Y-55865000D01*
X53798061Y-55865000D01*
X53598102Y-55904774D01*
X53409744Y-55982795D01*
X53240226Y-56096063D01*
X53096063Y-56240226D01*
X52982795Y-56409744D01*
X52904774Y-56598102D01*
X52865000Y-56798061D01*
X34275797Y-56798061D01*
X34229132Y-56666266D01*
X34128545Y-56478081D01*
X33813337Y-56347322D01*
X32629659Y-57531000D01*
X32140341Y-57531000D01*
X30956663Y-56347322D01*
X30641455Y-56478081D01*
X30469542Y-56838461D01*
X30371240Y-57225456D01*
X30350325Y-57624192D01*
X25660000Y-57624192D01*
X25660000Y-56102663D01*
X31201322Y-56102663D01*
X32385000Y-57286341D01*
X33568678Y-56102663D01*
X33437919Y-55787455D01*
X33077539Y-55615542D01*
X32690544Y-55517240D01*
X32291808Y-55496325D01*
X31896654Y-55553601D01*
X31520266Y-55686868D01*
X31332081Y-55787455D01*
X31201322Y-56102663D01*
X25660000Y-56102663D01*
X25660000Y-55198061D01*
X74315014Y-55198061D01*
X74315014Y-55401939D01*
X74354788Y-55601898D01*
X74432809Y-55790256D01*
X74546077Y-55959774D01*
X74690240Y-56103937D01*
X74859758Y-56217205D01*
X75048116Y-56295226D01*
X75248075Y-56335000D01*
X75451953Y-56335000D01*
X75651912Y-56295226D01*
X75840270Y-56217205D01*
X76009788Y-56103937D01*
X76068725Y-56045000D01*
X88524267Y-56045000D01*
X88547147Y-56277300D01*
X88614906Y-56500674D01*
X88724942Y-56706536D01*
X88873025Y-56886975D01*
X89053464Y-57035058D01*
X89259326Y-57145094D01*
X89482700Y-57212853D01*
X89656793Y-57230000D01*
X90173207Y-57230000D01*
X90347300Y-57212853D01*
X90570674Y-57145094D01*
X90776536Y-57035058D01*
X90956975Y-56886975D01*
X91105058Y-56706536D01*
X91215094Y-56500674D01*
X91282853Y-56277300D01*
X91305733Y-56045000D01*
X91282853Y-55812700D01*
X91215094Y-55589326D01*
X91105058Y-55383464D01*
X90956975Y-55203025D01*
X90776536Y-55054942D01*
X90570674Y-54944906D01*
X90347300Y-54877147D01*
X90173207Y-54860000D01*
X89656793Y-54860000D01*
X89482700Y-54877147D01*
X89259326Y-54944906D01*
X89053464Y-55054942D01*
X88873025Y-55203025D01*
X88724942Y-55383464D01*
X88614906Y-55589326D01*
X88547147Y-55812700D01*
X88524267Y-56045000D01*
X76068725Y-56045000D01*
X76153951Y-55959774D01*
X76267219Y-55790256D01*
X76345240Y-55601898D01*
X76385014Y-55401939D01*
X76385014Y-55198061D01*
X76345240Y-54998102D01*
X76267219Y-54809744D01*
X76153951Y-54640226D01*
X76009788Y-54496063D01*
X75840270Y-54382795D01*
X75651912Y-54304774D01*
X75451953Y-54265000D01*
X75248075Y-54265000D01*
X75048116Y-54304774D01*
X74859758Y-54382795D01*
X74690240Y-54496063D01*
X74546077Y-54640226D01*
X74432809Y-54809744D01*
X74354788Y-54998102D01*
X74315014Y-55198061D01*
X25660000Y-55198061D01*
X25660000Y-51151000D01*
X30446928Y-51151000D01*
X30446928Y-53751000D01*
X30459188Y-53875482D01*
X30495498Y-53995180D01*
X30554463Y-54105494D01*
X30633815Y-54202185D01*
X30730506Y-54281537D01*
X30840820Y-54340502D01*
X30960518Y-54376812D01*
X31085000Y-54389072D01*
X33685000Y-54389072D01*
X33809482Y-54376812D01*
X33929180Y-54340502D01*
X34039494Y-54281537D01*
X34136185Y-54202185D01*
X34215537Y-54105494D01*
X34274502Y-53995180D01*
X34310812Y-53875482D01*
X34323072Y-53751000D01*
X34323072Y-52098061D01*
X85965000Y-52098061D01*
X85965000Y-52301939D01*
X86004774Y-52501898D01*
X86082795Y-52690256D01*
X86196063Y-52859774D01*
X86340226Y-53003937D01*
X86509744Y-53117205D01*
X86698102Y-53195226D01*
X86898061Y-53235000D01*
X87101939Y-53235000D01*
X87301898Y-53195226D01*
X87490256Y-53117205D01*
X87659774Y-53003937D01*
X87803937Y-52859774D01*
X87917205Y-52690256D01*
X87995226Y-52501898D01*
X88035000Y-52301939D01*
X88035000Y-52098061D01*
X87995226Y-51898102D01*
X87917205Y-51709744D01*
X87803937Y-51540226D01*
X87659774Y-51396063D01*
X87490256Y-51282795D01*
X87302444Y-51205000D01*
X88524267Y-51205000D01*
X88547147Y-51437300D01*
X88614906Y-51660674D01*
X88724942Y-51866536D01*
X88873025Y-52046975D01*
X89053464Y-52195058D01*
X89259326Y-52305094D01*
X89482700Y-52372853D01*
X89656793Y-52390000D01*
X90173207Y-52390000D01*
X90347300Y-52372853D01*
X90570674Y-52305094D01*
X90776536Y-52195058D01*
X90956975Y-52046975D01*
X91105058Y-51866536D01*
X91215094Y-51660674D01*
X91282853Y-51437300D01*
X91305733Y-51205000D01*
X91282853Y-50972700D01*
X91215094Y-50749326D01*
X91105058Y-50543464D01*
X90956975Y-50363025D01*
X90776536Y-50214942D01*
X90570674Y-50104906D01*
X90347300Y-50037147D01*
X90173207Y-50020000D01*
X89656793Y-50020000D01*
X89482700Y-50037147D01*
X89259326Y-50104906D01*
X89053464Y-50214942D01*
X88873025Y-50363025D01*
X88724942Y-50543464D01*
X88614906Y-50749326D01*
X88547147Y-50972700D01*
X88524267Y-51205000D01*
X87302444Y-51205000D01*
X87301898Y-51204774D01*
X87101939Y-51165000D01*
X86898061Y-51165000D01*
X86698102Y-51204774D01*
X86509744Y-51282795D01*
X86340226Y-51396063D01*
X86196063Y-51540226D01*
X86082795Y-51709744D01*
X86004774Y-51898102D01*
X85965000Y-52098061D01*
X34323072Y-52098061D01*
X34323072Y-51151000D01*
X34310812Y-51026518D01*
X34274502Y-50906820D01*
X34215537Y-50796506D01*
X34136185Y-50699815D01*
X34039494Y-50620463D01*
X33929180Y-50561498D01*
X33809482Y-50525188D01*
X33685000Y-50512928D01*
X31085000Y-50512928D01*
X30960518Y-50525188D01*
X30840820Y-50561498D01*
X30730506Y-50620463D01*
X30633815Y-50699815D01*
X30554463Y-50796506D01*
X30495498Y-50906820D01*
X30459188Y-51026518D01*
X30446928Y-51151000D01*
X25660000Y-51151000D01*
X25660000Y-47327560D01*
X54780500Y-47327560D01*
X54780500Y-47531438D01*
X54820274Y-47731397D01*
X54898295Y-47919755D01*
X55011563Y-48089273D01*
X55155726Y-48233436D01*
X55325244Y-48346704D01*
X55513602Y-48424725D01*
X55713561Y-48464499D01*
X55917439Y-48464499D01*
X56117398Y-48424725D01*
X56305756Y-48346704D01*
X56475274Y-48233436D01*
X56619437Y-48089273D01*
X56732705Y-47919755D01*
X56810726Y-47731397D01*
X56850500Y-47531438D01*
X56850500Y-47327560D01*
X56810726Y-47127601D01*
X56774881Y-47041063D01*
X89923596Y-47041063D01*
X90002223Y-47312372D01*
X90289190Y-47441257D01*
X90595788Y-47511680D01*
X90910233Y-47520937D01*
X91220442Y-47468671D01*
X91514495Y-47356889D01*
X91597777Y-47312372D01*
X91676404Y-47041063D01*
X90800000Y-46164659D01*
X89923596Y-47041063D01*
X56774881Y-47041063D01*
X56732705Y-46939243D01*
X56619437Y-46769725D01*
X56475274Y-46625562D01*
X56305756Y-46512294D01*
X56117398Y-46434273D01*
X55917439Y-46394499D01*
X55713561Y-46394499D01*
X55513602Y-46434273D01*
X55325244Y-46512294D01*
X55155726Y-46625562D01*
X55011563Y-46769725D01*
X54898295Y-46939243D01*
X54820274Y-47127601D01*
X54780500Y-47327560D01*
X25660000Y-47327560D01*
X25660000Y-45498061D01*
X32565000Y-45498061D01*
X32565000Y-45701939D01*
X32604774Y-45901898D01*
X32682795Y-46090256D01*
X32796063Y-46259774D01*
X32940226Y-46403937D01*
X33109744Y-46517205D01*
X33298102Y-46595226D01*
X33498061Y-46635000D01*
X33701939Y-46635000D01*
X33901898Y-46595226D01*
X34090256Y-46517205D01*
X34259774Y-46403937D01*
X34403937Y-46259774D01*
X34517205Y-46090256D01*
X34595226Y-45901898D01*
X34635000Y-45701939D01*
X34635000Y-45598061D01*
X68965000Y-45598061D01*
X68965000Y-45801939D01*
X69004774Y-46001898D01*
X69082795Y-46190256D01*
X69196063Y-46359774D01*
X69340226Y-46503937D01*
X69509744Y-46617205D01*
X69698102Y-46695226D01*
X69898061Y-46735000D01*
X70101939Y-46735000D01*
X70301898Y-46695226D01*
X70490256Y-46617205D01*
X70659774Y-46503937D01*
X70803937Y-46359774D01*
X70917205Y-46190256D01*
X70983489Y-46030233D01*
X89199063Y-46030233D01*
X89251329Y-46340442D01*
X89363111Y-46634495D01*
X89407628Y-46717777D01*
X89678937Y-46796404D01*
X90555341Y-45920000D01*
X91044659Y-45920000D01*
X91921063Y-46796404D01*
X92192372Y-46717777D01*
X92321257Y-46430810D01*
X92391680Y-46124212D01*
X92400937Y-45809767D01*
X92348671Y-45499558D01*
X92236889Y-45205505D01*
X92192372Y-45122223D01*
X91921063Y-45043596D01*
X91044659Y-45920000D01*
X90555341Y-45920000D01*
X89678937Y-45043596D01*
X89407628Y-45122223D01*
X89278743Y-45409190D01*
X89208320Y-45715788D01*
X89199063Y-46030233D01*
X70983489Y-46030233D01*
X70995226Y-46001898D01*
X71035000Y-45801939D01*
X71035000Y-45598061D01*
X70995226Y-45398102D01*
X70917205Y-45209744D01*
X70803937Y-45040226D01*
X70659774Y-44896063D01*
X70490256Y-44782795D01*
X70301898Y-44704774D01*
X70101939Y-44665000D01*
X69898061Y-44665000D01*
X69698102Y-44704774D01*
X69509744Y-44782795D01*
X69340226Y-44896063D01*
X69196063Y-45040226D01*
X69082795Y-45209744D01*
X69004774Y-45398102D01*
X68965000Y-45598061D01*
X34635000Y-45598061D01*
X34635000Y-45498061D01*
X34595226Y-45298102D01*
X34517205Y-45109744D01*
X34403937Y-44940226D01*
X34259774Y-44796063D01*
X34090256Y-44682795D01*
X33901898Y-44604774D01*
X33701939Y-44565000D01*
X33498061Y-44565000D01*
X33298102Y-44604774D01*
X33109744Y-44682795D01*
X32940226Y-44796063D01*
X32796063Y-44940226D01*
X32682795Y-45109744D01*
X32604774Y-45298102D01*
X32565000Y-45498061D01*
X25660000Y-45498061D01*
X25660000Y-41398061D01*
X40165000Y-41398061D01*
X40165000Y-41601939D01*
X40204774Y-41801898D01*
X40282795Y-41990256D01*
X40289306Y-42000000D01*
X40282795Y-42009744D01*
X40204774Y-42198102D01*
X40165000Y-42398061D01*
X40165000Y-42601939D01*
X40204774Y-42801898D01*
X40282795Y-42990256D01*
X40396063Y-43159774D01*
X40540226Y-43303937D01*
X40709744Y-43417205D01*
X40898102Y-43495226D01*
X41098061Y-43535000D01*
X41301939Y-43535000D01*
X41501898Y-43495226D01*
X41690256Y-43417205D01*
X41859774Y-43303937D01*
X42003937Y-43159774D01*
X42117205Y-42990256D01*
X42195226Y-42801898D01*
X42235000Y-42601939D01*
X42235000Y-42398061D01*
X42195226Y-42198102D01*
X42131741Y-42044835D01*
X58480019Y-42044835D01*
X58480019Y-42248713D01*
X58519793Y-42448672D01*
X58597814Y-42637030D01*
X58711082Y-42806548D01*
X58855245Y-42950711D01*
X59024763Y-43063979D01*
X59213121Y-43142000D01*
X59413080Y-43181774D01*
X59616958Y-43181774D01*
X59816917Y-43142000D01*
X60005275Y-43063979D01*
X60174793Y-42950711D01*
X60318956Y-42806548D01*
X60432224Y-42637030D01*
X60510245Y-42448672D01*
X60550019Y-42248713D01*
X60550019Y-42044835D01*
X60510245Y-41844876D01*
X60447707Y-41693897D01*
X60584514Y-41750565D01*
X60784473Y-41790339D01*
X60988351Y-41790339D01*
X61188310Y-41750565D01*
X61376668Y-41672544D01*
X61546186Y-41559276D01*
X61690349Y-41415113D01*
X61803617Y-41245595D01*
X61881638Y-41057237D01*
X61921412Y-40857278D01*
X61921412Y-40653400D01*
X61881638Y-40453441D01*
X61803617Y-40265083D01*
X61690349Y-40095565D01*
X61546186Y-39951402D01*
X61376668Y-39838134D01*
X61188310Y-39760113D01*
X60988351Y-39720339D01*
X60815762Y-39720339D01*
X60778937Y-39665226D01*
X60634774Y-39521063D01*
X60465256Y-39407795D01*
X60276898Y-39329774D01*
X60076939Y-39290000D01*
X59873061Y-39290000D01*
X59673102Y-39329774D01*
X59484744Y-39407795D01*
X59315226Y-39521063D01*
X59171063Y-39665226D01*
X59057795Y-39834744D01*
X58979774Y-40023102D01*
X58940000Y-40223061D01*
X58940000Y-40426939D01*
X58979774Y-40626898D01*
X59057795Y-40815256D01*
X59171063Y-40984774D01*
X59315226Y-41128937D01*
X59317880Y-41130710D01*
X59213121Y-41151548D01*
X59024763Y-41229569D01*
X58855245Y-41342837D01*
X58711082Y-41487000D01*
X58597814Y-41656518D01*
X58519793Y-41844876D01*
X58480019Y-42044835D01*
X42131741Y-42044835D01*
X42117205Y-42009744D01*
X42110694Y-42000000D01*
X42117205Y-41990256D01*
X42195226Y-41801898D01*
X42235000Y-41601939D01*
X42235000Y-41398061D01*
X42195226Y-41198102D01*
X42117205Y-41009744D01*
X42003937Y-40840226D01*
X41859774Y-40696063D01*
X41690256Y-40582795D01*
X41501898Y-40504774D01*
X41301939Y-40465000D01*
X41098061Y-40465000D01*
X40898102Y-40504774D01*
X40709744Y-40582795D01*
X40540226Y-40696063D01*
X40396063Y-40840226D01*
X40282795Y-41009744D01*
X40204774Y-41198102D01*
X40165000Y-41398061D01*
X25660000Y-41398061D01*
X25660000Y-36707561D01*
X50374500Y-36707561D01*
X50374500Y-36911439D01*
X50414274Y-37111398D01*
X50492295Y-37299756D01*
X50605563Y-37469274D01*
X50749726Y-37613437D01*
X50919244Y-37726705D01*
X51107602Y-37804726D01*
X51307561Y-37844500D01*
X51511439Y-37844500D01*
X51711398Y-37804726D01*
X51899756Y-37726705D01*
X52069274Y-37613437D01*
X52213437Y-37469274D01*
X52326705Y-37299756D01*
X52404726Y-37111398D01*
X52407378Y-37098061D01*
X58365000Y-37098061D01*
X58365000Y-37301939D01*
X58404774Y-37501898D01*
X58482795Y-37690256D01*
X58596063Y-37859774D01*
X58740226Y-38003937D01*
X58909744Y-38117205D01*
X59098102Y-38195226D01*
X59298061Y-38235000D01*
X59501939Y-38235000D01*
X59701898Y-38195226D01*
X59890256Y-38117205D01*
X60059774Y-38003937D01*
X60203937Y-37859774D01*
X60317205Y-37690256D01*
X60395226Y-37501898D01*
X60435000Y-37301939D01*
X60435000Y-37098061D01*
X60428929Y-37067535D01*
X63395136Y-37067535D01*
X63395136Y-37271413D01*
X63434910Y-37471372D01*
X63512931Y-37659730D01*
X63626199Y-37829248D01*
X63770362Y-37973411D01*
X63939880Y-38086679D01*
X64128238Y-38164700D01*
X64328197Y-38204474D01*
X64532075Y-38204474D01*
X64732034Y-38164700D01*
X64733507Y-38164090D01*
X64729774Y-38173102D01*
X64690000Y-38373061D01*
X64690000Y-38576939D01*
X64729774Y-38776898D01*
X64807795Y-38965256D01*
X64921063Y-39134774D01*
X65065226Y-39278937D01*
X65234744Y-39392205D01*
X65423102Y-39470226D01*
X65623061Y-39510000D01*
X65826939Y-39510000D01*
X66026898Y-39470226D01*
X66215256Y-39392205D01*
X66384774Y-39278937D01*
X66528937Y-39134774D01*
X66642205Y-38965256D01*
X66720226Y-38776898D01*
X66760000Y-38576939D01*
X66760000Y-38373061D01*
X66720226Y-38173102D01*
X66642205Y-37984744D01*
X66528937Y-37815226D01*
X66384774Y-37671063D01*
X66215256Y-37557795D01*
X66026898Y-37479774D01*
X65826939Y-37440000D01*
X65623061Y-37440000D01*
X65423102Y-37479774D01*
X65421629Y-37480384D01*
X65425362Y-37471372D01*
X65465136Y-37271413D01*
X65465136Y-37067535D01*
X65425362Y-36867576D01*
X65396568Y-36798061D01*
X78565000Y-36798061D01*
X78565000Y-37001939D01*
X78604774Y-37201898D01*
X78682795Y-37390256D01*
X78796063Y-37559774D01*
X78940226Y-37703937D01*
X79109744Y-37817205D01*
X79298102Y-37895226D01*
X79498061Y-37935000D01*
X79701939Y-37935000D01*
X79901898Y-37895226D01*
X80090256Y-37817205D01*
X80259774Y-37703937D01*
X80283712Y-37679999D01*
X89291928Y-37679999D01*
X89291928Y-38920001D01*
X89308992Y-39093255D01*
X89359528Y-39259851D01*
X89441595Y-39413387D01*
X89552038Y-39547962D01*
X89686613Y-39658405D01*
X89795175Y-39716433D01*
X89630990Y-39880618D01*
X89466286Y-40127115D01*
X89352836Y-40401008D01*
X89295000Y-40691770D01*
X89295000Y-40988230D01*
X89352836Y-41278992D01*
X89466286Y-41552885D01*
X89630990Y-41799382D01*
X89840618Y-42009010D01*
X89991760Y-42110000D01*
X89840618Y-42210990D01*
X89630990Y-42420618D01*
X89466286Y-42667115D01*
X89352836Y-42941008D01*
X89295000Y-43231770D01*
X89295000Y-43528230D01*
X89352836Y-43818992D01*
X89466286Y-44092885D01*
X89630990Y-44339382D01*
X89840618Y-44549010D01*
X89970815Y-44636005D01*
X89923596Y-44798937D01*
X90800000Y-45675341D01*
X91676404Y-44798937D01*
X91629185Y-44636005D01*
X91759382Y-44549010D01*
X91969010Y-44339382D01*
X92133714Y-44092885D01*
X92247164Y-43818992D01*
X92305000Y-43528230D01*
X92305000Y-43231770D01*
X92247164Y-42941008D01*
X92133714Y-42667115D01*
X91969010Y-42420618D01*
X91759382Y-42210990D01*
X91608240Y-42110000D01*
X91759382Y-42009010D01*
X91969010Y-41799382D01*
X92133714Y-41552885D01*
X92247164Y-41278992D01*
X92305000Y-40988230D01*
X92305000Y-40691770D01*
X92247164Y-40401008D01*
X92133714Y-40127115D01*
X91969010Y-39880618D01*
X91804825Y-39716433D01*
X91913387Y-39658405D01*
X92047962Y-39547962D01*
X92158405Y-39413387D01*
X92240472Y-39259851D01*
X92291008Y-39093255D01*
X92308072Y-38920001D01*
X92308072Y-37679999D01*
X92291008Y-37506745D01*
X92285992Y-37490210D01*
X92298102Y-37495226D01*
X92498061Y-37535000D01*
X92701939Y-37535000D01*
X92901898Y-37495226D01*
X93090256Y-37417205D01*
X93259774Y-37303937D01*
X93403937Y-37159774D01*
X93517205Y-36990256D01*
X93595226Y-36801898D01*
X93635000Y-36601939D01*
X93635000Y-36398061D01*
X93595226Y-36198102D01*
X93517205Y-36009744D01*
X93403937Y-35840226D01*
X93259774Y-35696063D01*
X93090256Y-35582795D01*
X92901898Y-35504774D01*
X92701939Y-35465000D01*
X92498061Y-35465000D01*
X92298102Y-35504774D01*
X92109744Y-35582795D01*
X91940226Y-35696063D01*
X91796063Y-35840226D01*
X91682795Y-36009744D01*
X91604774Y-36198102D01*
X91565000Y-36398061D01*
X91565000Y-36601939D01*
X91604774Y-36801898D01*
X91609790Y-36814008D01*
X91593255Y-36808992D01*
X91420001Y-36791928D01*
X90179999Y-36791928D01*
X90006745Y-36808992D01*
X89840149Y-36859528D01*
X89686613Y-36941595D01*
X89552038Y-37052038D01*
X89441595Y-37186613D01*
X89359528Y-37340149D01*
X89308992Y-37506745D01*
X89291928Y-37679999D01*
X80283712Y-37679999D01*
X80403937Y-37559774D01*
X80517205Y-37390256D01*
X80595226Y-37201898D01*
X80635000Y-37001939D01*
X80635000Y-36798061D01*
X80595226Y-36598102D01*
X80517205Y-36409744D01*
X80403937Y-36240226D01*
X80259774Y-36096063D01*
X80090256Y-35982795D01*
X79901898Y-35904774D01*
X79701939Y-35865000D01*
X79498061Y-35865000D01*
X79298102Y-35904774D01*
X79109744Y-35982795D01*
X78940226Y-36096063D01*
X78796063Y-36240226D01*
X78682795Y-36409744D01*
X78604774Y-36598102D01*
X78565000Y-36798061D01*
X65396568Y-36798061D01*
X65347341Y-36679218D01*
X65234073Y-36509700D01*
X65089910Y-36365537D01*
X64920392Y-36252269D01*
X64732034Y-36174248D01*
X64532075Y-36134474D01*
X64328197Y-36134474D01*
X64128238Y-36174248D01*
X63939880Y-36252269D01*
X63770362Y-36365537D01*
X63626199Y-36509700D01*
X63512931Y-36679218D01*
X63434910Y-36867576D01*
X63395136Y-37067535D01*
X60428929Y-37067535D01*
X60395226Y-36898102D01*
X60317205Y-36709744D01*
X60203937Y-36540226D01*
X60059774Y-36396063D01*
X59890256Y-36282795D01*
X59701898Y-36204774D01*
X59501939Y-36165000D01*
X59298061Y-36165000D01*
X59098102Y-36204774D01*
X58909744Y-36282795D01*
X58740226Y-36396063D01*
X58596063Y-36540226D01*
X58482795Y-36709744D01*
X58404774Y-36898102D01*
X58365000Y-37098061D01*
X52407378Y-37098061D01*
X52444500Y-36911439D01*
X52444500Y-36707561D01*
X52404726Y-36507602D01*
X52326705Y-36319244D01*
X52213437Y-36149726D01*
X52069274Y-36005563D01*
X51899756Y-35892295D01*
X51711398Y-35814274D01*
X51511439Y-35774500D01*
X51307561Y-35774500D01*
X51107602Y-35814274D01*
X50919244Y-35892295D01*
X50749726Y-36005563D01*
X50605563Y-36149726D01*
X50492295Y-36319244D01*
X50414274Y-36507602D01*
X50374500Y-36707561D01*
X25660000Y-36707561D01*
X25660000Y-35390111D01*
X40290942Y-35390111D01*
X40290942Y-35593989D01*
X40330716Y-35793948D01*
X40408737Y-35982306D01*
X40522005Y-36151824D01*
X40666168Y-36295987D01*
X40835686Y-36409255D01*
X41024044Y-36487276D01*
X41224003Y-36527050D01*
X41427881Y-36527050D01*
X41627840Y-36487276D01*
X41816198Y-36409255D01*
X41985716Y-36295987D01*
X42129879Y-36151824D01*
X42243147Y-35982306D01*
X42321168Y-35793948D01*
X42360942Y-35593989D01*
X42360942Y-35390111D01*
X42321168Y-35190152D01*
X42243147Y-35001794D01*
X42129879Y-34832276D01*
X41985716Y-34688113D01*
X41816198Y-34574845D01*
X41630827Y-34498061D01*
X45765000Y-34498061D01*
X45765000Y-34701939D01*
X45804774Y-34901898D01*
X45882795Y-35090256D01*
X45889306Y-35100000D01*
X45882795Y-35109744D01*
X45804774Y-35298102D01*
X45765000Y-35498061D01*
X45765000Y-35701939D01*
X45804774Y-35901898D01*
X45882795Y-36090256D01*
X45996063Y-36259774D01*
X46140226Y-36403937D01*
X46309744Y-36517205D01*
X46498102Y-36595226D01*
X46698061Y-36635000D01*
X46901939Y-36635000D01*
X47101898Y-36595226D01*
X47290256Y-36517205D01*
X47300000Y-36510694D01*
X47309744Y-36517205D01*
X47498102Y-36595226D01*
X47698061Y-36635000D01*
X47901939Y-36635000D01*
X48101898Y-36595226D01*
X48290256Y-36517205D01*
X48300000Y-36510694D01*
X48309744Y-36517205D01*
X48498102Y-36595226D01*
X48698061Y-36635000D01*
X48901939Y-36635000D01*
X49101898Y-36595226D01*
X49290256Y-36517205D01*
X49459774Y-36403937D01*
X49603937Y-36259774D01*
X49717205Y-36090256D01*
X49795226Y-35901898D01*
X49835000Y-35701939D01*
X49835000Y-35498061D01*
X49795226Y-35298102D01*
X49717205Y-35109744D01*
X49710694Y-35100000D01*
X49717205Y-35090256D01*
X49795226Y-34901898D01*
X49835000Y-34701939D01*
X49835000Y-34498061D01*
X49795226Y-34298102D01*
X49717205Y-34109744D01*
X49710694Y-34100000D01*
X49717205Y-34090256D01*
X49795226Y-33901898D01*
X49835000Y-33701939D01*
X49835000Y-33498061D01*
X49795226Y-33298102D01*
X49721894Y-33121063D01*
X54503596Y-33121063D01*
X54582223Y-33392372D01*
X54869190Y-33521257D01*
X55175788Y-33591680D01*
X55490233Y-33600937D01*
X55800442Y-33548671D01*
X56094495Y-33436889D01*
X56177777Y-33392372D01*
X56256404Y-33121063D01*
X55380000Y-32244659D01*
X54503596Y-33121063D01*
X49721894Y-33121063D01*
X49717205Y-33109744D01*
X49710694Y-33100000D01*
X49717205Y-33090256D01*
X49795226Y-32901898D01*
X49835000Y-32701939D01*
X49835000Y-32498061D01*
X49795226Y-32298102D01*
X49717408Y-32110233D01*
X53779063Y-32110233D01*
X53831329Y-32420442D01*
X53943111Y-32714495D01*
X53987628Y-32797777D01*
X54258937Y-32876404D01*
X55135341Y-32000000D01*
X55624659Y-32000000D01*
X56501063Y-32876404D01*
X56663995Y-32829185D01*
X56750990Y-32959382D01*
X56960618Y-33169010D01*
X57207115Y-33333714D01*
X57481008Y-33447164D01*
X57771770Y-33505000D01*
X58068230Y-33505000D01*
X58358992Y-33447164D01*
X58632885Y-33333714D01*
X58879382Y-33169010D01*
X59089010Y-32959382D01*
X59190000Y-32808240D01*
X59290990Y-32959382D01*
X59500618Y-33169010D01*
X59747115Y-33333714D01*
X60021008Y-33447164D01*
X60311770Y-33505000D01*
X60608230Y-33505000D01*
X60898992Y-33447164D01*
X61172885Y-33333714D01*
X61419382Y-33169010D01*
X61583567Y-33004825D01*
X61641595Y-33113387D01*
X61752038Y-33247962D01*
X61886613Y-33358405D01*
X62040149Y-33440472D01*
X62206745Y-33491008D01*
X62379999Y-33508072D01*
X63620001Y-33508072D01*
X63793255Y-33491008D01*
X63959851Y-33440472D01*
X64113387Y-33358405D01*
X64247962Y-33247962D01*
X64358405Y-33113387D01*
X64440472Y-32959851D01*
X64491008Y-32793255D01*
X64508072Y-32620001D01*
X64508072Y-32264775D01*
X74165000Y-32264775D01*
X74165000Y-33735224D01*
X74190105Y-33990118D01*
X74289314Y-34317167D01*
X74450421Y-34618577D01*
X74667234Y-34882766D01*
X74931422Y-35099579D01*
X75232832Y-35260686D01*
X75559881Y-35359895D01*
X75900000Y-35393394D01*
X76240118Y-35359895D01*
X76567167Y-35260686D01*
X76868577Y-35099579D01*
X77132766Y-34882766D01*
X77229976Y-34764315D01*
X77323267Y-34824194D01*
X77599667Y-34921711D01*
X77827000Y-34783645D01*
X77827000Y-33173000D01*
X77807000Y-33173000D01*
X77807000Y-32827000D01*
X77827000Y-32827000D01*
X77827000Y-31216355D01*
X78173000Y-31216355D01*
X78173000Y-32827000D01*
X78193000Y-32827000D01*
X78193000Y-33173000D01*
X78173000Y-33173000D01*
X78173000Y-34783645D01*
X78400333Y-34921711D01*
X78676733Y-34824194D01*
X78922067Y-34666726D01*
X79067580Y-34526478D01*
X79226812Y-34657157D01*
X79467419Y-34785764D01*
X79728493Y-34864960D01*
X80000000Y-34891701D01*
X80271506Y-34864960D01*
X80532580Y-34785764D01*
X80765885Y-34661060D01*
X80798815Y-34701185D01*
X80895506Y-34780537D01*
X81005820Y-34839502D01*
X81125518Y-34875812D01*
X81250000Y-34888072D01*
X82750000Y-34888072D01*
X82862496Y-34876992D01*
X82867234Y-34882766D01*
X83131422Y-35099579D01*
X83432832Y-35260686D01*
X83759881Y-35359895D01*
X84100000Y-35393394D01*
X84440118Y-35359895D01*
X84767167Y-35260686D01*
X85068577Y-35099579D01*
X85332766Y-34882766D01*
X85549579Y-34618578D01*
X85710686Y-34317168D01*
X85809895Y-33990119D01*
X85835000Y-33735225D01*
X85835000Y-32781244D01*
X87463415Y-32781244D01*
X87822789Y-33290999D01*
X88506665Y-33652516D01*
X89247930Y-33873670D01*
X90018096Y-33945960D01*
X90787567Y-33866608D01*
X91526772Y-33638665D01*
X92177211Y-33290999D01*
X92536585Y-32781244D01*
X90000000Y-30244659D01*
X87463415Y-32781244D01*
X85835000Y-32781244D01*
X85835000Y-32264775D01*
X85809895Y-32009881D01*
X85710686Y-31682832D01*
X85549579Y-31381422D01*
X85332766Y-31117234D01*
X85068578Y-30900421D01*
X84767168Y-30739314D01*
X84440119Y-30640105D01*
X84100000Y-30606606D01*
X83759882Y-30640105D01*
X83432833Y-30739314D01*
X83131423Y-30900421D01*
X82867235Y-31117234D01*
X82862497Y-31123008D01*
X82750000Y-31111928D01*
X81250000Y-31111928D01*
X81125518Y-31124188D01*
X81005820Y-31160498D01*
X80895506Y-31219463D01*
X80798815Y-31298815D01*
X80765886Y-31338940D01*
X80532581Y-31214236D01*
X80271507Y-31135040D01*
X80000000Y-31108299D01*
X79728494Y-31135040D01*
X79467420Y-31214236D01*
X79226813Y-31342843D01*
X79067580Y-31473522D01*
X78922067Y-31333274D01*
X78676733Y-31175806D01*
X78400333Y-31078289D01*
X78173000Y-31216355D01*
X77827000Y-31216355D01*
X77599667Y-31078289D01*
X77323267Y-31175806D01*
X77229976Y-31235685D01*
X77132766Y-31117234D01*
X76868578Y-30900421D01*
X76567168Y-30739314D01*
X76240119Y-30640105D01*
X75900000Y-30606606D01*
X75559882Y-30640105D01*
X75232833Y-30739314D01*
X74931423Y-30900421D01*
X74667235Y-31117234D01*
X74450422Y-31381422D01*
X74289315Y-31682832D01*
X74190105Y-32009881D01*
X74165000Y-32264775D01*
X64508072Y-32264775D01*
X64508072Y-31379999D01*
X64491008Y-31206745D01*
X64440472Y-31040149D01*
X64358405Y-30886613D01*
X64247962Y-30752038D01*
X64113387Y-30641595D01*
X63959851Y-30559528D01*
X63793255Y-30508992D01*
X63620001Y-30491928D01*
X62379999Y-30491928D01*
X62206745Y-30508992D01*
X62040149Y-30559528D01*
X61886613Y-30641595D01*
X61752038Y-30752038D01*
X61641595Y-30886613D01*
X61583567Y-30995175D01*
X61419382Y-30830990D01*
X61172885Y-30666286D01*
X60898992Y-30552836D01*
X60608230Y-30495000D01*
X60311770Y-30495000D01*
X60021008Y-30552836D01*
X59747115Y-30666286D01*
X59500618Y-30830990D01*
X59290990Y-31040618D01*
X59190000Y-31191760D01*
X59089010Y-31040618D01*
X58879382Y-30830990D01*
X58632885Y-30666286D01*
X58358992Y-30552836D01*
X58068230Y-30495000D01*
X57771770Y-30495000D01*
X57481008Y-30552836D01*
X57207115Y-30666286D01*
X56960618Y-30830990D01*
X56750990Y-31040618D01*
X56663995Y-31170815D01*
X56501063Y-31123596D01*
X55624659Y-32000000D01*
X55135341Y-32000000D01*
X54258937Y-31123596D01*
X53987628Y-31202223D01*
X53858743Y-31489190D01*
X53788320Y-31795788D01*
X53779063Y-32110233D01*
X49717408Y-32110233D01*
X49717205Y-32109744D01*
X49710694Y-32100000D01*
X49717205Y-32090256D01*
X49795226Y-31901898D01*
X49835000Y-31701939D01*
X49835000Y-31498061D01*
X49795226Y-31298102D01*
X49717205Y-31109744D01*
X49710694Y-31100000D01*
X49717205Y-31090256D01*
X49795226Y-30901898D01*
X49799793Y-30878937D01*
X54503596Y-30878937D01*
X55380000Y-31755341D01*
X56256404Y-30878937D01*
X56177777Y-30607628D01*
X55890810Y-30478743D01*
X55584212Y-30408320D01*
X55269767Y-30399063D01*
X54959558Y-30451329D01*
X54665505Y-30563111D01*
X54582223Y-30607628D01*
X54503596Y-30878937D01*
X49799793Y-30878937D01*
X49835000Y-30701939D01*
X49835000Y-30498061D01*
X49795226Y-30298102D01*
X49717205Y-30109744D01*
X49655968Y-30018096D01*
X86054040Y-30018096D01*
X86133392Y-30787567D01*
X86361335Y-31526772D01*
X86709001Y-32177211D01*
X87218756Y-32536585D01*
X89755341Y-30000000D01*
X90244659Y-30000000D01*
X92781244Y-32536585D01*
X93290999Y-32177211D01*
X93652516Y-31493335D01*
X93873670Y-30752070D01*
X93945960Y-29981904D01*
X93866608Y-29212433D01*
X93638665Y-28473228D01*
X93290999Y-27822789D01*
X92781244Y-27463415D01*
X90244659Y-30000000D01*
X89755341Y-30000000D01*
X87218756Y-27463415D01*
X86709001Y-27822789D01*
X86347484Y-28506665D01*
X86126330Y-29247930D01*
X86054040Y-30018096D01*
X49655968Y-30018096D01*
X49603937Y-29940226D01*
X49459774Y-29796063D01*
X49290256Y-29682795D01*
X49101898Y-29604774D01*
X48901939Y-29565000D01*
X48698061Y-29565000D01*
X48498102Y-29604774D01*
X48309744Y-29682795D01*
X48300000Y-29689306D01*
X48290256Y-29682795D01*
X48101898Y-29604774D01*
X47901939Y-29565000D01*
X47698061Y-29565000D01*
X47498102Y-29604774D01*
X47309744Y-29682795D01*
X47140226Y-29796063D01*
X46996063Y-29940226D01*
X46882795Y-30109744D01*
X46804774Y-30298102D01*
X46765000Y-30498061D01*
X46765000Y-30701939D01*
X46804774Y-30901898D01*
X46882795Y-31090256D01*
X46889306Y-31100000D01*
X46882795Y-31109744D01*
X46804774Y-31298102D01*
X46765000Y-31498061D01*
X46765000Y-31701939D01*
X46804774Y-31901898D01*
X46882795Y-32090256D01*
X46889306Y-32100000D01*
X46882795Y-32109744D01*
X46804774Y-32298102D01*
X46765000Y-32498061D01*
X46765000Y-32701939D01*
X46804774Y-32901898D01*
X46882795Y-33090256D01*
X46889306Y-33100000D01*
X46882795Y-33109744D01*
X46804774Y-33298102D01*
X46765000Y-33498061D01*
X46765000Y-33565000D01*
X46698061Y-33565000D01*
X46498102Y-33604774D01*
X46309744Y-33682795D01*
X46140226Y-33796063D01*
X45996063Y-33940226D01*
X45882795Y-34109744D01*
X45804774Y-34298102D01*
X45765000Y-34498061D01*
X41630827Y-34498061D01*
X41627840Y-34496824D01*
X41427881Y-34457050D01*
X41224003Y-34457050D01*
X41024044Y-34496824D01*
X40835686Y-34574845D01*
X40666168Y-34688113D01*
X40522005Y-34832276D01*
X40408737Y-35001794D01*
X40330716Y-35190152D01*
X40290942Y-35390111D01*
X25660000Y-35390111D01*
X25660000Y-32781244D01*
X27463415Y-32781244D01*
X27822789Y-33290999D01*
X28506665Y-33652516D01*
X29247930Y-33873670D01*
X30018096Y-33945960D01*
X30787567Y-33866608D01*
X31526772Y-33638665D01*
X32177211Y-33290999D01*
X32536585Y-32781244D01*
X30000000Y-30244659D01*
X27463415Y-32781244D01*
X25660000Y-32781244D01*
X25660000Y-30029392D01*
X25661008Y-30018096D01*
X26054040Y-30018096D01*
X26133392Y-30787567D01*
X26361335Y-31526772D01*
X26709001Y-32177211D01*
X27218756Y-32536585D01*
X29755341Y-30000000D01*
X30244659Y-30000000D01*
X32781244Y-32536585D01*
X33290999Y-32177211D01*
X33652516Y-31493335D01*
X33873670Y-30752070D01*
X33945960Y-29981904D01*
X33866608Y-29212433D01*
X33638665Y-28473228D01*
X33290999Y-27822789D01*
X32781244Y-27463415D01*
X30244659Y-30000000D01*
X29755341Y-30000000D01*
X27218756Y-27463415D01*
X26709001Y-27822789D01*
X26347484Y-28506665D01*
X26126330Y-29247930D01*
X26054040Y-30018096D01*
X25661008Y-30018096D01*
X25731173Y-29231917D01*
X25934656Y-28488109D01*
X26266638Y-27792095D01*
X26678623Y-27218756D01*
X27463415Y-27218756D01*
X30000000Y-29755341D01*
X32536585Y-27218756D01*
X87463415Y-27218756D01*
X90000000Y-29755341D01*
X92536585Y-27218756D01*
X92177211Y-26709001D01*
X91493335Y-26347484D01*
X90752070Y-26126330D01*
X89981904Y-26054040D01*
X89212433Y-26133392D01*
X88473228Y-26361335D01*
X87822789Y-26709001D01*
X87463415Y-27218756D01*
X32536585Y-27218756D01*
X32177211Y-26709001D01*
X31493335Y-26347484D01*
X30752070Y-26126330D01*
X29981904Y-26054040D01*
X29212433Y-26133392D01*
X28473228Y-26361335D01*
X27822789Y-26709001D01*
X27463415Y-27218756D01*
X26678623Y-27218756D01*
X26716626Y-27165870D01*
X27270403Y-26629223D01*
X27910451Y-26199129D01*
X28616553Y-25889171D01*
X29371457Y-25707935D01*
X30024207Y-25660000D01*
X71618547Y-25660000D01*
X71544774Y-25838102D01*
G37*
%TD.AperFunction*%
%TD*%
M02*
