%TF.GenerationSoftware,KiCad,Pcbnew,(5.1.9)-1*%
%TF.CreationDate,2021-03-08T12:26:08+05:30*%
%TF.ProjectId,STM32F4,53544d33-3246-4342-9e6b-696361645f70,rev?*%
%TF.SameCoordinates,Original*%
%TF.FileFunction,Soldermask,Bot*%
%TF.FilePolarity,Negative*%
%FSLAX46Y46*%
G04 Gerber Fmt 4.6, Leading zero omitted, Abs format (unit mm)*
G04 Created by KiCad (PCBNEW (5.1.9)-1) date 2021-03-08 12:26:08*
%MOMM*%
%LPD*%
G01*
G04 APERTURE LIST*
%ADD10C,0.150000*%
%ADD11C,6.400000*%
%ADD12C,0.800000*%
%ADD13C,2.600000*%
%ADD14R,2.600000X2.600000*%
%ADD15C,1.740000*%
%ADD16R,1.500000X2.500000*%
%ADD17O,1.500000X2.500000*%
%ADD18O,2.200000X3.500000*%
%ADD19O,1.500000X1.100000*%
%ADD20O,1.700000X1.350000*%
G04 APERTURE END LIST*
D10*
X70897619Y-55179761D02*
X70754761Y-55227380D01*
X70516666Y-55227380D01*
X70421428Y-55179761D01*
X70373809Y-55132142D01*
X70326190Y-55036904D01*
X70326190Y-54941666D01*
X70373809Y-54846428D01*
X70421428Y-54798809D01*
X70516666Y-54751190D01*
X70707142Y-54703571D01*
X70802380Y-54655952D01*
X70850000Y-54608333D01*
X70897619Y-54513095D01*
X70897619Y-54417857D01*
X70850000Y-54322619D01*
X70802380Y-54275000D01*
X70707142Y-54227380D01*
X70469047Y-54227380D01*
X70326190Y-54275000D01*
X70040476Y-54227380D02*
X69469047Y-54227380D01*
X69754761Y-55227380D02*
X69754761Y-54227380D01*
X69135714Y-55227380D02*
X69135714Y-54227380D01*
X68802380Y-54941666D01*
X68469047Y-54227380D01*
X68469047Y-55227380D01*
X68088095Y-54227380D02*
X67469047Y-54227380D01*
X67802380Y-54608333D01*
X67659523Y-54608333D01*
X67564285Y-54655952D01*
X67516666Y-54703571D01*
X67469047Y-54798809D01*
X67469047Y-55036904D01*
X67516666Y-55132142D01*
X67564285Y-55179761D01*
X67659523Y-55227380D01*
X67945238Y-55227380D01*
X68040476Y-55179761D01*
X68088095Y-55132142D01*
X67088095Y-54322619D02*
X67040476Y-54275000D01*
X66945238Y-54227380D01*
X66707142Y-54227380D01*
X66611904Y-54275000D01*
X66564285Y-54322619D01*
X66516666Y-54417857D01*
X66516666Y-54513095D01*
X66564285Y-54655952D01*
X67135714Y-55227380D01*
X66516666Y-55227380D01*
X64992857Y-54703571D02*
X64850000Y-54751190D01*
X64802380Y-54798809D01*
X64754761Y-54894047D01*
X64754761Y-55036904D01*
X64802380Y-55132142D01*
X64850000Y-55179761D01*
X64945238Y-55227380D01*
X65326190Y-55227380D01*
X65326190Y-54227380D01*
X64992857Y-54227380D01*
X64897619Y-54275000D01*
X64850000Y-54322619D01*
X64802380Y-54417857D01*
X64802380Y-54513095D01*
X64850000Y-54608333D01*
X64897619Y-54655952D01*
X64992857Y-54703571D01*
X65326190Y-54703571D01*
X64183333Y-55227380D02*
X64278571Y-55179761D01*
X64326190Y-55132142D01*
X64373809Y-55036904D01*
X64373809Y-54751190D01*
X64326190Y-54655952D01*
X64278571Y-54608333D01*
X64183333Y-54560714D01*
X64040476Y-54560714D01*
X63945238Y-54608333D01*
X63897619Y-54655952D01*
X63850000Y-54751190D01*
X63850000Y-55036904D01*
X63897619Y-55132142D01*
X63945238Y-55179761D01*
X64040476Y-55227380D01*
X64183333Y-55227380D01*
X62992857Y-55227380D02*
X62992857Y-54703571D01*
X63040476Y-54608333D01*
X63135714Y-54560714D01*
X63326190Y-54560714D01*
X63421428Y-54608333D01*
X62992857Y-55179761D02*
X63088095Y-55227380D01*
X63326190Y-55227380D01*
X63421428Y-55179761D01*
X63469047Y-55084523D01*
X63469047Y-54989285D01*
X63421428Y-54894047D01*
X63326190Y-54846428D01*
X63088095Y-54846428D01*
X62992857Y-54798809D01*
X62516666Y-55227380D02*
X62516666Y-54560714D01*
X62516666Y-54751190D02*
X62469047Y-54655952D01*
X62421428Y-54608333D01*
X62326190Y-54560714D01*
X62230952Y-54560714D01*
X61469047Y-55227380D02*
X61469047Y-54227380D01*
X61469047Y-55179761D02*
X61564285Y-55227380D01*
X61754761Y-55227380D01*
X61850000Y-55179761D01*
X61897619Y-55132142D01*
X61945238Y-55036904D01*
X61945238Y-54751190D01*
X61897619Y-54655952D01*
X61850000Y-54608333D01*
X61754761Y-54560714D01*
X61564285Y-54560714D01*
X61469047Y-54608333D01*
X60040476Y-54227380D02*
X59945238Y-54227380D01*
X59850000Y-54275000D01*
X59802380Y-54322619D01*
X59754761Y-54417857D01*
X59707142Y-54608333D01*
X59707142Y-54846428D01*
X59754761Y-55036904D01*
X59802380Y-55132142D01*
X59850000Y-55179761D01*
X59945238Y-55227380D01*
X60040476Y-55227380D01*
X60135714Y-55179761D01*
X60183333Y-55132142D01*
X60230952Y-55036904D01*
X60278571Y-54846428D01*
X60278571Y-54608333D01*
X60230952Y-54417857D01*
X60183333Y-54322619D01*
X60135714Y-54275000D01*
X60040476Y-54227380D01*
X59373809Y-54227380D02*
X58754761Y-54227380D01*
X59088095Y-54608333D01*
X58945238Y-54608333D01*
X58850000Y-54655952D01*
X58802380Y-54703571D01*
X58754761Y-54798809D01*
X58754761Y-55036904D01*
X58802380Y-55132142D01*
X58850000Y-55179761D01*
X58945238Y-55227380D01*
X59230952Y-55227380D01*
X59326190Y-55179761D01*
X59373809Y-55132142D01*
X58326190Y-54846428D02*
X57564285Y-54846428D01*
X56897619Y-54227380D02*
X56802380Y-54227380D01*
X56707142Y-54275000D01*
X56659523Y-54322619D01*
X56611904Y-54417857D01*
X56564285Y-54608333D01*
X56564285Y-54846428D01*
X56611904Y-55036904D01*
X56659523Y-55132142D01*
X56707142Y-55179761D01*
X56802380Y-55227380D01*
X56897619Y-55227380D01*
X56992857Y-55179761D01*
X57040476Y-55132142D01*
X57088095Y-55036904D01*
X57135714Y-54846428D01*
X57135714Y-54608333D01*
X57088095Y-54417857D01*
X57040476Y-54322619D01*
X56992857Y-54275000D01*
X56897619Y-54227380D01*
X56230952Y-54227380D02*
X55611904Y-54227380D01*
X55945238Y-54608333D01*
X55802380Y-54608333D01*
X55707142Y-54655952D01*
X55659523Y-54703571D01*
X55611904Y-54798809D01*
X55611904Y-55036904D01*
X55659523Y-55132142D01*
X55707142Y-55179761D01*
X55802380Y-55227380D01*
X56088095Y-55227380D01*
X56183333Y-55179761D01*
X56230952Y-55132142D01*
X55183333Y-54846428D02*
X54421428Y-54846428D01*
X53992857Y-54322619D02*
X53945238Y-54275000D01*
X53850000Y-54227380D01*
X53611904Y-54227380D01*
X53516666Y-54275000D01*
X53469047Y-54322619D01*
X53421428Y-54417857D01*
X53421428Y-54513095D01*
X53469047Y-54655952D01*
X54040476Y-55227380D01*
X53421428Y-55227380D01*
X52802380Y-54227380D02*
X52707142Y-54227380D01*
X52611904Y-54275000D01*
X52564285Y-54322619D01*
X52516666Y-54417857D01*
X52469047Y-54608333D01*
X52469047Y-54846428D01*
X52516666Y-55036904D01*
X52564285Y-55132142D01*
X52611904Y-55179761D01*
X52707142Y-55227380D01*
X52802380Y-55227380D01*
X52897619Y-55179761D01*
X52945238Y-55132142D01*
X52992857Y-55036904D01*
X53040476Y-54846428D01*
X53040476Y-54608333D01*
X52992857Y-54417857D01*
X52945238Y-54322619D01*
X52897619Y-54275000D01*
X52802380Y-54227380D01*
X52088095Y-54322619D02*
X52040476Y-54275000D01*
X51945238Y-54227380D01*
X51707142Y-54227380D01*
X51611904Y-54275000D01*
X51564285Y-54322619D01*
X51516666Y-54417857D01*
X51516666Y-54513095D01*
X51564285Y-54655952D01*
X52135714Y-55227380D01*
X51516666Y-55227380D01*
X50564285Y-55227380D02*
X51135714Y-55227380D01*
X50850000Y-55227380D02*
X50850000Y-54227380D01*
X50945238Y-54370238D01*
X51040476Y-54465476D01*
X51135714Y-54513095D01*
X62945238Y-56496428D02*
X62183333Y-56496428D01*
X61135714Y-56877380D02*
X61469047Y-56401190D01*
X61707142Y-56877380D02*
X61707142Y-55877380D01*
X61326190Y-55877380D01*
X61230952Y-55925000D01*
X61183333Y-55972619D01*
X61135714Y-56067857D01*
X61135714Y-56210714D01*
X61183333Y-56305952D01*
X61230952Y-56353571D01*
X61326190Y-56401190D01*
X61707142Y-56401190D01*
X60707142Y-56782142D02*
X60659523Y-56829761D01*
X60707142Y-56877380D01*
X60754761Y-56829761D01*
X60707142Y-56782142D01*
X60707142Y-56877380D01*
X60230952Y-56877380D02*
X60230952Y-55877380D01*
X59992857Y-55877380D01*
X59850000Y-55925000D01*
X59754761Y-56020238D01*
X59707142Y-56115476D01*
X59659523Y-56305952D01*
X59659523Y-56448809D01*
X59707142Y-56639285D01*
X59754761Y-56734523D01*
X59850000Y-56829761D01*
X59992857Y-56877380D01*
X60230952Y-56877380D01*
X59230952Y-56782142D02*
X59183333Y-56829761D01*
X59230952Y-56877380D01*
X59278571Y-56829761D01*
X59230952Y-56782142D01*
X59230952Y-56877380D01*
X58754761Y-56877380D02*
X58754761Y-55877380D01*
X58516666Y-55877380D01*
X58373809Y-55925000D01*
X58278571Y-56020238D01*
X58230952Y-56115476D01*
X58183333Y-56305952D01*
X58183333Y-56448809D01*
X58230952Y-56639285D01*
X58278571Y-56734523D01*
X58373809Y-56829761D01*
X58516666Y-56877380D01*
X58754761Y-56877380D01*
X57754761Y-56782142D02*
X57707142Y-56829761D01*
X57754761Y-56877380D01*
X57802380Y-56829761D01*
X57754761Y-56782142D01*
X57754761Y-56877380D01*
D11*
%TO.C,H4*%
X90000000Y-67000000D03*
D12*
X92400000Y-67000000D03*
X91697056Y-68697056D03*
X90000000Y-69400000D03*
X88302944Y-68697056D03*
X87600000Y-67000000D03*
X88302944Y-65302944D03*
X90000000Y-64600000D03*
X91697056Y-65302944D03*
%TD*%
%TO.C,H3*%
X91697056Y-28302944D03*
X90000000Y-27600000D03*
X88302944Y-28302944D03*
X87600000Y-30000000D03*
X88302944Y-31697056D03*
X90000000Y-32400000D03*
X91697056Y-31697056D03*
X92400000Y-30000000D03*
D11*
X90000000Y-30000000D03*
%TD*%
D12*
%TO.C,H2*%
X31697056Y-28302944D03*
X30000000Y-27600000D03*
X28302944Y-28302944D03*
X27600000Y-30000000D03*
X28302944Y-31697056D03*
X30000000Y-32400000D03*
X31697056Y-31697056D03*
X32400000Y-30000000D03*
D11*
X30000000Y-30000000D03*
%TD*%
D12*
%TO.C,H1*%
X31697056Y-65302944D03*
X30000000Y-64600000D03*
X28302944Y-65302944D03*
X27600000Y-67000000D03*
X28302944Y-68697056D03*
X30000000Y-69400000D03*
X31697056Y-68697056D03*
X32400000Y-67000000D03*
D11*
X30000000Y-67000000D03*
%TD*%
D13*
%TO.C,J1*%
X32385000Y-57531000D03*
D14*
X32385000Y-52451000D03*
%TD*%
D15*
%TO.C,J4*%
X90800000Y-45920000D03*
X90800000Y-43380000D03*
X90800000Y-40840000D03*
G36*
G01*
X90179999Y-37430000D02*
X91420001Y-37430000D01*
G75*
G02*
X91670000Y-37679999I0J-249999D01*
G01*
X91670000Y-38920001D01*
G75*
G02*
X91420001Y-39170000I-249999J0D01*
G01*
X90179999Y-39170000D01*
G75*
G02*
X89930000Y-38920001I0J249999D01*
G01*
X89930000Y-37679999D01*
G75*
G02*
X90179999Y-37430000I249999J0D01*
G01*
G37*
%TD*%
D16*
%TO.C,SW1*%
X82000000Y-33000000D03*
D17*
X80000000Y-33000000D03*
X78000000Y-33000000D03*
D18*
X84100000Y-33000000D03*
X75900000Y-33000000D03*
%TD*%
D14*
%TO.C,J2*%
X37719000Y-66802000D03*
D13*
X42719000Y-66802000D03*
X47719000Y-66802000D03*
X52719000Y-66802000D03*
X57719000Y-66802000D03*
X62719000Y-66802000D03*
X67719000Y-66802000D03*
X72719000Y-66802000D03*
X77719000Y-66802000D03*
X82719000Y-66802000D03*
%TD*%
%TO.C,J5*%
G36*
G01*
X63870000Y-31379999D02*
X63870000Y-32620001D01*
G75*
G02*
X63620001Y-32870000I-249999J0D01*
G01*
X62379999Y-32870000D01*
G75*
G02*
X62130000Y-32620001I0J249999D01*
G01*
X62130000Y-31379999D01*
G75*
G02*
X62379999Y-31130000I249999J0D01*
G01*
X63620001Y-31130000D01*
G75*
G02*
X63870000Y-31379999I0J-249999D01*
G01*
G37*
D15*
X60460000Y-32000000D03*
X57920000Y-32000000D03*
X55380000Y-32000000D03*
%TD*%
D19*
%TO.C,J6*%
X89915000Y-56045000D03*
X89915000Y-51205000D03*
D20*
X92915000Y-56355000D03*
X92915000Y-50895000D03*
%TD*%
M02*
