%TF.GenerationSoftware,KiCad,Pcbnew,(5.1.9)-1*%
%TF.CreationDate,2021-03-02T22:26:18+05:30*%
%TF.ProjectId,STM32F4,53544d33-3246-4342-9e6b-696361645f70,rev?*%
%TF.SameCoordinates,Original*%
%TF.FileFunction,Copper,L4,Bot*%
%TF.FilePolarity,Positive*%
%FSLAX46Y46*%
G04 Gerber Fmt 4.6, Leading zero omitted, Abs format (unit mm)*
G04 Created by KiCad (PCBNEW (5.1.9)-1) date 2021-03-02 22:26:18*
%MOMM*%
%LPD*%
G01*
G04 APERTURE LIST*
%TA.AperFunction,ComponentPad*%
%ADD10C,6.400000*%
%TD*%
%TA.AperFunction,ComponentPad*%
%ADD11C,0.800000*%
%TD*%
%TA.AperFunction,ComponentPad*%
%ADD12C,2.600000*%
%TD*%
%TA.AperFunction,ComponentPad*%
%ADD13R,2.600000X2.600000*%
%TD*%
%TA.AperFunction,ComponentPad*%
%ADD14C,1.740000*%
%TD*%
%TA.AperFunction,ComponentPad*%
%ADD15R,1.500000X2.500000*%
%TD*%
%TA.AperFunction,ComponentPad*%
%ADD16O,1.500000X2.500000*%
%TD*%
%TA.AperFunction,ComponentPad*%
%ADD17O,2.200000X3.500000*%
%TD*%
%TA.AperFunction,ComponentPad*%
%ADD18O,1.500000X1.100000*%
%TD*%
%TA.AperFunction,ComponentPad*%
%ADD19O,1.700000X1.350000*%
%TD*%
%TA.AperFunction,ViaPad*%
%ADD20C,0.800000*%
%TD*%
%TA.AperFunction,Conductor*%
%ADD21C,1.000000*%
%TD*%
%TA.AperFunction,Conductor*%
%ADD22C,0.300000*%
%TD*%
%TA.AperFunction,Conductor*%
%ADD23C,0.250000*%
%TD*%
%TA.AperFunction,Conductor*%
%ADD24C,0.100000*%
%TD*%
G04 APERTURE END LIST*
D10*
%TO.P,H4,1*%
%TO.N,GND*%
X90000000Y-67000000D03*
D11*
X92400000Y-67000000D03*
X91697056Y-68697056D03*
X90000000Y-69400000D03*
X88302944Y-68697056D03*
X87600000Y-67000000D03*
X88302944Y-65302944D03*
X90000000Y-64600000D03*
X91697056Y-65302944D03*
%TD*%
%TO.P,H3,1*%
%TO.N,GND*%
X91697056Y-28302944D03*
X90000000Y-27600000D03*
X88302944Y-28302944D03*
X87600000Y-30000000D03*
X88302944Y-31697056D03*
X90000000Y-32400000D03*
X91697056Y-31697056D03*
X92400000Y-30000000D03*
D10*
X90000000Y-30000000D03*
%TD*%
D11*
%TO.P,H2,1*%
%TO.N,GND*%
X31697056Y-28302944D03*
X30000000Y-27600000D03*
X28302944Y-28302944D03*
X27600000Y-30000000D03*
X28302944Y-31697056D03*
X30000000Y-32400000D03*
X31697056Y-31697056D03*
X32400000Y-30000000D03*
D10*
X30000000Y-30000000D03*
%TD*%
D11*
%TO.P,H1,1*%
%TO.N,GND*%
X31697056Y-65302944D03*
X30000000Y-64600000D03*
X28302944Y-65302944D03*
X27600000Y-67000000D03*
X28302944Y-68697056D03*
X30000000Y-69400000D03*
X31697056Y-68697056D03*
X32400000Y-67000000D03*
D10*
X30000000Y-67000000D03*
%TD*%
D12*
%TO.P,J1,2*%
%TO.N,GND*%
X32385000Y-57531000D03*
D13*
%TO.P,J1,1*%
%TO.N,+12V*%
X32385000Y-52451000D03*
%TD*%
D14*
%TO.P,J4,4*%
%TO.N,GND*%
X90800000Y-45920000D03*
%TO.P,J4,3*%
%TO.N,USART_TX*%
X90800000Y-43380000D03*
%TO.P,J4,2*%
%TO.N,USART_RX*%
X90800000Y-40840000D03*
%TO.P,J4,1*%
%TO.N,+3V3*%
%TA.AperFunction,ComponentPad*%
G36*
G01*
X90179999Y-37430000D02*
X91420001Y-37430000D01*
G75*
G02*
X91670000Y-37679999I0J-249999D01*
G01*
X91670000Y-38920001D01*
G75*
G02*
X91420001Y-39170000I-249999J0D01*
G01*
X90179999Y-39170000D01*
G75*
G02*
X89930000Y-38920001I0J249999D01*
G01*
X89930000Y-37679999D01*
G75*
G02*
X90179999Y-37430000I249999J0D01*
G01*
G37*
%TD.AperFunction*%
%TD*%
D15*
%TO.P,SW1,1*%
%TO.N,+3V3*%
X82000000Y-33000000D03*
D16*
%TO.P,SW1,2*%
%TO.N,Net-(R10-Pad2)*%
X80000000Y-33000000D03*
%TO.P,SW1,3*%
%TO.N,GND*%
X78000000Y-33000000D03*
D17*
%TO.P,SW1,*%
%TO.N,*%
X84100000Y-33000000D03*
X75900000Y-33000000D03*
%TD*%
D13*
%TO.P,J2,1*%
%TO.N,PA0*%
X37719000Y-66802000D03*
D12*
%TO.P,J2,2*%
%TO.N,PA1*%
X42719000Y-66802000D03*
%TO.P,J2,3*%
%TO.N,PA2*%
X47719000Y-66802000D03*
%TO.P,J2,4*%
%TO.N,PA4*%
X52719000Y-66802000D03*
%TO.P,J2,5*%
%TO.N,PA5*%
X57719000Y-66802000D03*
%TO.P,J2,6*%
%TO.N,PA6*%
X62719000Y-66802000D03*
%TO.P,J2,7*%
%TO.N,PA7*%
X67719000Y-66802000D03*
%TO.P,J2,8*%
%TO.N,PC4*%
X72719000Y-66802000D03*
%TO.P,J2,9*%
%TO.N,PB0*%
X77719000Y-66802000D03*
%TO.P,J2,10*%
%TO.N,PB1*%
X82719000Y-66802000D03*
%TD*%
%TO.P,J5,1*%
%TO.N,+3V3*%
%TA.AperFunction,ComponentPad*%
G36*
G01*
X63870000Y-31379999D02*
X63870000Y-32620001D01*
G75*
G02*
X63620001Y-32870000I-249999J0D01*
G01*
X62379999Y-32870000D01*
G75*
G02*
X62130000Y-32620001I0J249999D01*
G01*
X62130000Y-31379999D01*
G75*
G02*
X62379999Y-31130000I249999J0D01*
G01*
X63620001Y-31130000D01*
G75*
G02*
X63870000Y-31379999I0J-249999D01*
G01*
G37*
%TD.AperFunction*%
D14*
%TO.P,J5,2*%
%TO.N,I2C1_SCL*%
X60460000Y-32000000D03*
%TO.P,J5,3*%
%TO.N,I2C1_SDA*%
X57920000Y-32000000D03*
%TO.P,J5,4*%
%TO.N,GND*%
X55380000Y-32000000D03*
%TD*%
D18*
%TO.P,J6,6*%
%TO.N,Net-(J6-Pad6)*%
X89915000Y-56045000D03*
X89915000Y-51205000D03*
D19*
X92915000Y-56355000D03*
X92915000Y-50895000D03*
%TD*%
D20*
%TO.N,GND*%
X72382500Y-44982500D03*
X68436600Y-59863400D03*
X65686000Y-60486000D03*
X68436600Y-60663400D03*
X50400000Y-58400000D03*
X49100000Y-58400000D03*
X50070500Y-51429500D03*
X48800000Y-51500000D03*
X54600000Y-52400000D03*
X54600000Y-53200000D03*
X53773500Y-46773500D03*
X52726500Y-46773500D03*
X52700000Y-45600000D03*
X53800000Y-45600000D03*
X58500000Y-58900000D03*
X58500000Y-59774990D03*
X75200000Y-36700000D03*
X92580000Y-47700000D03*
X74850000Y-57300000D03*
X46200000Y-39800000D03*
X46200000Y-40700000D03*
X37600000Y-38000000D03*
X37600000Y-37200000D03*
X38544500Y-38955500D03*
X37600000Y-36400000D03*
X49444240Y-47355760D03*
X47485000Y-45085000D03*
X47600000Y-27700000D03*
X48469669Y-27730331D03*
X40640000Y-34140000D03*
X53060520Y-36860480D03*
X60514500Y-42114500D03*
X73800000Y-26100000D03*
X82600000Y-52200000D03*
X88400000Y-49699990D03*
X88400000Y-50600004D03*
X74600000Y-52700000D03*
X41500000Y-34234026D03*
X50400024Y-59700000D03*
X49100000Y-59699992D03*
X75000000Y-45000000D03*
X77500000Y-45000000D03*
X80000000Y-45000000D03*
X82500000Y-45000000D03*
X82500000Y-42500000D03*
X80000000Y-42500000D03*
X77500000Y-42500000D03*
X75000000Y-42500000D03*
X75000000Y-40000000D03*
X77500000Y-40000000D03*
X80000000Y-40000000D03*
X82500000Y-40000000D03*
X85000000Y-40000000D03*
X41000000Y-47000000D03*
X41000000Y-49000000D03*
X41000000Y-51000000D03*
X41000000Y-53000000D03*
X41000000Y-55000000D03*
X41000000Y-57000000D03*
X41000000Y-59000000D03*
X43000000Y-59000000D03*
X45000000Y-59000000D03*
X47000000Y-59000000D03*
X47000000Y-57000000D03*
X49000000Y-57000000D03*
X45000000Y-57000000D03*
X43000000Y-57000000D03*
X43000000Y-55000000D03*
X45000000Y-55000000D03*
X47000000Y-55000000D03*
X49000000Y-55000000D03*
X49000000Y-53000000D03*
X47000000Y-53000000D03*
X45000000Y-53000000D03*
X43000000Y-53000000D03*
X43000000Y-51000000D03*
X45000000Y-51000000D03*
X47000000Y-51000000D03*
X43000000Y-49000000D03*
X45000000Y-49000000D03*
X47000000Y-49000000D03*
X47000000Y-47000000D03*
X45000000Y-47000000D03*
X43000000Y-47000000D03*
X27500000Y-42500000D03*
X30000000Y-42500000D03*
X32500000Y-42500000D03*
X32500000Y-40000000D03*
X32500000Y-37500000D03*
X32500000Y-35000000D03*
X32500000Y-35000000D03*
X30000000Y-35000000D03*
X30000000Y-37500000D03*
X30000000Y-40000000D03*
X27500000Y-40000000D03*
X27500000Y-37500000D03*
X27500000Y-35000000D03*
X27500000Y-57500000D03*
X27500000Y-60000000D03*
X27500000Y-62500000D03*
X30000000Y-60000000D03*
X30000000Y-62500000D03*
X35000000Y-62500000D03*
X32500000Y-62500000D03*
X32500000Y-60000000D03*
X35000000Y-60000000D03*
X35000000Y-57500000D03*
X35000000Y-70000000D03*
X37500000Y-70000000D03*
X40000000Y-70000000D03*
X42500000Y-70000000D03*
X45000000Y-70000000D03*
X47500000Y-70000000D03*
X50000000Y-70000000D03*
X52500000Y-70000000D03*
X55000000Y-70000000D03*
X57500000Y-70000000D03*
X60000000Y-70000000D03*
X65000000Y-70000000D03*
X62500000Y-70000000D03*
X67500000Y-70000000D03*
X70000000Y-70000000D03*
X72500000Y-70000000D03*
X75000000Y-70000000D03*
X77500000Y-70000000D03*
X80000000Y-70000000D03*
X82500000Y-70000000D03*
X85000000Y-70000000D03*
X92500000Y-62500000D03*
X87500000Y-62500000D03*
X52500000Y-35000000D03*
X52500000Y-32500000D03*
X52500000Y-30000000D03*
X52500000Y-27500000D03*
X55000000Y-27500000D03*
X57500000Y-27500000D03*
X60000000Y-27500000D03*
X62500000Y-27500000D03*
X65000000Y-27500000D03*
X55000000Y-35000000D03*
X62500000Y-35000000D03*
X65000000Y-35000000D03*
X85000000Y-27500000D03*
X82500000Y-27500000D03*
X80000000Y-27500000D03*
X77500000Y-27500000D03*
X75000000Y-27500000D03*
X75000000Y-30000000D03*
X77500000Y-30000000D03*
X80000000Y-30000000D03*
X82500000Y-30000000D03*
X85000000Y-30000000D03*
X79000000Y-60000000D03*
X79000000Y-58000000D03*
X79000000Y-56000000D03*
X77000000Y-56000000D03*
X77000000Y-58000000D03*
X77000000Y-60000000D03*
X75000000Y-60000000D03*
X73000000Y-60000000D03*
X71000000Y-60000000D03*
X71000000Y-59000000D03*
X73000000Y-59000000D03*
X75000000Y-59000000D03*
X83000000Y-49000000D03*
X88400000Y-46600000D03*
X85000000Y-49000000D03*
X87000000Y-49000000D03*
X87000000Y-47000000D03*
X85000000Y-47000000D03*
X80000000Y-47000000D03*
X60000000Y-52000000D03*
X62000000Y-52000000D03*
X64000000Y-52000000D03*
X66000000Y-52000000D03*
X66000000Y-50000000D03*
X64000000Y-50000000D03*
X62000000Y-50000000D03*
X60000000Y-50000000D03*
X60000000Y-48000000D03*
X62000000Y-48000000D03*
X64000000Y-48000000D03*
X66000000Y-48000000D03*
X75900000Y-56250000D03*
%TO.N,Net-(D1-Pad1)*%
X81400000Y-58200000D03*
X33600000Y-45600000D03*
%TO.N,NRST*%
X59400000Y-37200000D03*
X64430136Y-37169474D03*
%TO.N,USART_TX*%
X75350014Y-55300000D03*
%TO.N,USART_RX*%
X73800000Y-57300000D03*
%TO.N,Net-(R10-Pad2)*%
X60886412Y-40755339D03*
%TO.N,+5V*%
X87000000Y-52200000D03*
%TO.N,+3V3*%
X47800000Y-34600000D03*
X48800000Y-34600000D03*
X48800000Y-33600000D03*
X48800000Y-32600000D03*
X47800000Y-32600000D03*
X47800000Y-33600000D03*
X48800000Y-31600000D03*
X47800000Y-31600000D03*
X46800000Y-35600000D03*
X47800000Y-35600000D03*
X48800000Y-35600000D03*
X48800000Y-30600000D03*
X47800000Y-30600000D03*
X46800000Y-34600000D03*
X70000000Y-45700000D03*
X68800000Y-56700000D03*
X70100000Y-56700000D03*
X53900000Y-56900000D03*
X53900000Y-57800000D03*
X60327060Y-59400000D03*
X59450010Y-59400000D03*
X79600000Y-36900000D03*
X70819667Y-57080342D03*
X92600000Y-36500000D03*
X41200000Y-41500000D03*
X41200000Y-42500000D03*
X51409500Y-36809500D03*
X59515019Y-42146774D03*
X59975000Y-40325000D03*
X65725000Y-38475000D03*
X55815500Y-47429499D03*
X72540000Y-26140000D03*
X41325942Y-35492050D03*
%TD*%
D21*
%TO.N,GND*%
X90800000Y-45920000D02*
X92580000Y-47700000D01*
%TO.N,Net-(D1-Pad1)*%
X33600000Y-47700000D02*
X33600000Y-45600000D01*
X38100000Y-52200000D02*
X33600000Y-47700000D01*
X39200000Y-62300000D02*
X38100000Y-61200000D01*
X38100000Y-61200000D02*
X38100000Y-52200000D01*
X80000000Y-62300000D02*
X39200000Y-62300000D01*
X81400000Y-60900000D02*
X80000000Y-62300000D01*
X81400000Y-58200000D02*
X81400000Y-60900000D01*
D22*
%TO.N,NRST*%
X59400000Y-37200000D02*
X64400000Y-37200000D01*
X64400000Y-37199610D02*
X64430136Y-37169474D01*
X64400000Y-37200000D02*
X64400000Y-37199610D01*
%TO.N,USART_TX*%
X75350014Y-55249986D02*
X75350014Y-55300000D01*
X87220000Y-43380000D02*
X85300000Y-45300000D01*
X90800000Y-43380000D02*
X87220000Y-43380000D01*
X85300000Y-45300000D02*
X75350014Y-55249986D01*
%TO.N,USART_RX*%
X90800000Y-40840000D02*
X87760000Y-40840000D01*
X73800000Y-54800000D02*
X73800000Y-57300000D01*
X87760000Y-40840000D02*
X73800000Y-54800000D01*
%TO.N,Net-(R10-Pad2)*%
X80000000Y-34600000D02*
X80000000Y-33000000D01*
X77700000Y-36900000D02*
X80000000Y-34600000D01*
X76400000Y-36900000D02*
X77700000Y-36900000D01*
X72544661Y-40755339D02*
X76400000Y-36900000D01*
X60886412Y-40755339D02*
X72544661Y-40755339D01*
D21*
%TO.N,+3V3*%
X90800000Y-38300000D02*
X90800000Y-38200000D01*
X92500000Y-36500000D02*
X92600000Y-36500000D01*
X90800000Y-38200000D02*
X92500000Y-36500000D01*
%TD*%
D23*
%TO.N,GND*%
X71631656Y-25654480D02*
X71554390Y-25841018D01*
X71515000Y-26039046D01*
X71515000Y-26240954D01*
X71554390Y-26438982D01*
X71631656Y-26625520D01*
X71743830Y-26793400D01*
X71886600Y-26936170D01*
X72054480Y-27048344D01*
X72241018Y-27125610D01*
X72439046Y-27165000D01*
X72640954Y-27165000D01*
X72838982Y-27125610D01*
X73025520Y-27048344D01*
X73193400Y-26936170D01*
X73336170Y-26793400D01*
X73448344Y-26625520D01*
X73525610Y-26438982D01*
X73565000Y-26240954D01*
X73565000Y-26039046D01*
X73525610Y-25841018D01*
X73448344Y-25654480D01*
X73445351Y-25650000D01*
X89971049Y-25650000D01*
X90769864Y-25721292D01*
X91515389Y-25925245D01*
X92213013Y-26257995D01*
X92840689Y-26709026D01*
X93378579Y-27264085D01*
X93809671Y-27905618D01*
X94120345Y-28613354D01*
X94301980Y-29369917D01*
X94350001Y-30023842D01*
X94350000Y-50570302D01*
X94296855Y-50395104D01*
X94176140Y-50169264D01*
X94013687Y-49971313D01*
X93815736Y-49808860D01*
X93589896Y-49688145D01*
X93344845Y-49613810D01*
X93153864Y-49595000D01*
X92676136Y-49595000D01*
X92485155Y-49613810D01*
X92240104Y-49688145D01*
X92014264Y-49808860D01*
X91816313Y-49971313D01*
X91653860Y-50169264D01*
X91533145Y-50395104D01*
X91458810Y-50640155D01*
X91433710Y-50895000D01*
X91458810Y-51149845D01*
X91533145Y-51394896D01*
X91653860Y-51620736D01*
X91816313Y-51818687D01*
X92014264Y-51981140D01*
X92240104Y-52101855D01*
X92485155Y-52176190D01*
X92676136Y-52195000D01*
X93153864Y-52195000D01*
X93344845Y-52176190D01*
X93589896Y-52101855D01*
X93815736Y-51981140D01*
X94013687Y-51818687D01*
X94176140Y-51620736D01*
X94296855Y-51394896D01*
X94350000Y-51219698D01*
X94350000Y-56030302D01*
X94296855Y-55855104D01*
X94176140Y-55629264D01*
X94013687Y-55431313D01*
X93815736Y-55268860D01*
X93589896Y-55148145D01*
X93344845Y-55073810D01*
X93153864Y-55055000D01*
X92676136Y-55055000D01*
X92485155Y-55073810D01*
X92240104Y-55148145D01*
X92014264Y-55268860D01*
X91816313Y-55431313D01*
X91653860Y-55629264D01*
X91533145Y-55855104D01*
X91458810Y-56100155D01*
X91433710Y-56355000D01*
X91458810Y-56609845D01*
X91533145Y-56854896D01*
X91653860Y-57080736D01*
X91816313Y-57278687D01*
X92014264Y-57441140D01*
X92240104Y-57561855D01*
X92485155Y-57636190D01*
X92676136Y-57655000D01*
X93153864Y-57655000D01*
X93344845Y-57636190D01*
X93589896Y-57561855D01*
X93815736Y-57441140D01*
X94013687Y-57278687D01*
X94176140Y-57080736D01*
X94296855Y-56854896D01*
X94350000Y-56679698D01*
X94350000Y-67971049D01*
X94278708Y-68769865D01*
X94074755Y-69515389D01*
X93742005Y-70213013D01*
X93290972Y-70840692D01*
X92735916Y-71378579D01*
X92094383Y-71809670D01*
X91386650Y-72120344D01*
X90630083Y-72301980D01*
X89976171Y-72350000D01*
X30028951Y-72350000D01*
X29230135Y-72278708D01*
X28484611Y-72074755D01*
X27786987Y-71742005D01*
X27159308Y-71290972D01*
X26621421Y-70735916D01*
X26190330Y-70094383D01*
X26014651Y-69694175D01*
X27482602Y-69694175D01*
X27843165Y-70181292D01*
X28505247Y-70540942D01*
X29224771Y-70764516D01*
X29974087Y-70843421D01*
X30724399Y-70774626D01*
X31446873Y-70560774D01*
X32113744Y-70210084D01*
X32156835Y-70181292D01*
X32517398Y-69694175D01*
X87482602Y-69694175D01*
X87843165Y-70181292D01*
X88505247Y-70540942D01*
X89224771Y-70764516D01*
X89974087Y-70843421D01*
X90724399Y-70774626D01*
X91446873Y-70560774D01*
X92113744Y-70210084D01*
X92156835Y-70181292D01*
X92517398Y-69694175D01*
X90000000Y-67176777D01*
X87482602Y-69694175D01*
X32517398Y-69694175D01*
X30000000Y-67176777D01*
X27482602Y-69694175D01*
X26014651Y-69694175D01*
X25879656Y-69386650D01*
X25698020Y-68630083D01*
X25650000Y-67976171D01*
X25650000Y-66974087D01*
X26156579Y-66974087D01*
X26225374Y-67724399D01*
X26439226Y-68446873D01*
X26789916Y-69113744D01*
X26818708Y-69156835D01*
X27305825Y-69517398D01*
X29823223Y-67000000D01*
X30176777Y-67000000D01*
X32694175Y-69517398D01*
X33181292Y-69156835D01*
X33540942Y-68494753D01*
X33764516Y-67775229D01*
X33843421Y-67025913D01*
X33774626Y-66275601D01*
X33560774Y-65553127D01*
X33533888Y-65502000D01*
X35790976Y-65502000D01*
X35790976Y-68102000D01*
X35803043Y-68224521D01*
X35838781Y-68342334D01*
X35896817Y-68450911D01*
X35974920Y-68546080D01*
X36070089Y-68624183D01*
X36178666Y-68682219D01*
X36296479Y-68717957D01*
X36419000Y-68730024D01*
X39019000Y-68730024D01*
X39141521Y-68717957D01*
X39259334Y-68682219D01*
X39367911Y-68624183D01*
X39463080Y-68546080D01*
X39541183Y-68450911D01*
X39599219Y-68342334D01*
X39634957Y-68224521D01*
X39647024Y-68102000D01*
X39647024Y-66612404D01*
X40794000Y-66612404D01*
X40794000Y-66991596D01*
X40867977Y-67363502D01*
X41013087Y-67713829D01*
X41223755Y-68029116D01*
X41491884Y-68297245D01*
X41807171Y-68507913D01*
X42157498Y-68653023D01*
X42529404Y-68727000D01*
X42908596Y-68727000D01*
X43280502Y-68653023D01*
X43630829Y-68507913D01*
X43946116Y-68297245D01*
X44214245Y-68029116D01*
X44424913Y-67713829D01*
X44570023Y-67363502D01*
X44644000Y-66991596D01*
X44644000Y-66612404D01*
X45794000Y-66612404D01*
X45794000Y-66991596D01*
X45867977Y-67363502D01*
X46013087Y-67713829D01*
X46223755Y-68029116D01*
X46491884Y-68297245D01*
X46807171Y-68507913D01*
X47157498Y-68653023D01*
X47529404Y-68727000D01*
X47908596Y-68727000D01*
X48280502Y-68653023D01*
X48630829Y-68507913D01*
X48946116Y-68297245D01*
X49214245Y-68029116D01*
X49424913Y-67713829D01*
X49570023Y-67363502D01*
X49644000Y-66991596D01*
X49644000Y-66612404D01*
X50794000Y-66612404D01*
X50794000Y-66991596D01*
X50867977Y-67363502D01*
X51013087Y-67713829D01*
X51223755Y-68029116D01*
X51491884Y-68297245D01*
X51807171Y-68507913D01*
X52157498Y-68653023D01*
X52529404Y-68727000D01*
X52908596Y-68727000D01*
X53280502Y-68653023D01*
X53630829Y-68507913D01*
X53946116Y-68297245D01*
X54214245Y-68029116D01*
X54424913Y-67713829D01*
X54570023Y-67363502D01*
X54644000Y-66991596D01*
X54644000Y-66612404D01*
X55794000Y-66612404D01*
X55794000Y-66991596D01*
X55867977Y-67363502D01*
X56013087Y-67713829D01*
X56223755Y-68029116D01*
X56491884Y-68297245D01*
X56807171Y-68507913D01*
X57157498Y-68653023D01*
X57529404Y-68727000D01*
X57908596Y-68727000D01*
X58280502Y-68653023D01*
X58630829Y-68507913D01*
X58946116Y-68297245D01*
X59214245Y-68029116D01*
X59424913Y-67713829D01*
X59570023Y-67363502D01*
X59644000Y-66991596D01*
X59644000Y-66612404D01*
X60794000Y-66612404D01*
X60794000Y-66991596D01*
X60867977Y-67363502D01*
X61013087Y-67713829D01*
X61223755Y-68029116D01*
X61491884Y-68297245D01*
X61807171Y-68507913D01*
X62157498Y-68653023D01*
X62529404Y-68727000D01*
X62908596Y-68727000D01*
X63280502Y-68653023D01*
X63630829Y-68507913D01*
X63946116Y-68297245D01*
X64214245Y-68029116D01*
X64424913Y-67713829D01*
X64570023Y-67363502D01*
X64644000Y-66991596D01*
X64644000Y-66612404D01*
X65794000Y-66612404D01*
X65794000Y-66991596D01*
X65867977Y-67363502D01*
X66013087Y-67713829D01*
X66223755Y-68029116D01*
X66491884Y-68297245D01*
X66807171Y-68507913D01*
X67157498Y-68653023D01*
X67529404Y-68727000D01*
X67908596Y-68727000D01*
X68280502Y-68653023D01*
X68630829Y-68507913D01*
X68946116Y-68297245D01*
X69214245Y-68029116D01*
X69424913Y-67713829D01*
X69570023Y-67363502D01*
X69644000Y-66991596D01*
X69644000Y-66612404D01*
X70794000Y-66612404D01*
X70794000Y-66991596D01*
X70867977Y-67363502D01*
X71013087Y-67713829D01*
X71223755Y-68029116D01*
X71491884Y-68297245D01*
X71807171Y-68507913D01*
X72157498Y-68653023D01*
X72529404Y-68727000D01*
X72908596Y-68727000D01*
X73280502Y-68653023D01*
X73630829Y-68507913D01*
X73946116Y-68297245D01*
X74214245Y-68029116D01*
X74424913Y-67713829D01*
X74570023Y-67363502D01*
X74644000Y-66991596D01*
X74644000Y-66612404D01*
X75794000Y-66612404D01*
X75794000Y-66991596D01*
X75867977Y-67363502D01*
X76013087Y-67713829D01*
X76223755Y-68029116D01*
X76491884Y-68297245D01*
X76807171Y-68507913D01*
X77157498Y-68653023D01*
X77529404Y-68727000D01*
X77908596Y-68727000D01*
X78280502Y-68653023D01*
X78630829Y-68507913D01*
X78946116Y-68297245D01*
X79214245Y-68029116D01*
X79424913Y-67713829D01*
X79570023Y-67363502D01*
X79644000Y-66991596D01*
X79644000Y-66612404D01*
X80794000Y-66612404D01*
X80794000Y-66991596D01*
X80867977Y-67363502D01*
X81013087Y-67713829D01*
X81223755Y-68029116D01*
X81491884Y-68297245D01*
X81807171Y-68507913D01*
X82157498Y-68653023D01*
X82529404Y-68727000D01*
X82908596Y-68727000D01*
X83280502Y-68653023D01*
X83630829Y-68507913D01*
X83946116Y-68297245D01*
X84214245Y-68029116D01*
X84424913Y-67713829D01*
X84570023Y-67363502D01*
X84644000Y-66991596D01*
X84644000Y-66974087D01*
X86156579Y-66974087D01*
X86225374Y-67724399D01*
X86439226Y-68446873D01*
X86789916Y-69113744D01*
X86818708Y-69156835D01*
X87305825Y-69517398D01*
X89823223Y-67000000D01*
X90176777Y-67000000D01*
X92694175Y-69517398D01*
X93181292Y-69156835D01*
X93540942Y-68494753D01*
X93764516Y-67775229D01*
X93843421Y-67025913D01*
X93774626Y-66275601D01*
X93560774Y-65553127D01*
X93210084Y-64886256D01*
X93181292Y-64843165D01*
X92694175Y-64482602D01*
X90176777Y-67000000D01*
X89823223Y-67000000D01*
X87305825Y-64482602D01*
X86818708Y-64843165D01*
X86459058Y-65505247D01*
X86235484Y-66224771D01*
X86156579Y-66974087D01*
X84644000Y-66974087D01*
X84644000Y-66612404D01*
X84570023Y-66240498D01*
X84424913Y-65890171D01*
X84214245Y-65574884D01*
X83946116Y-65306755D01*
X83630829Y-65096087D01*
X83280502Y-64950977D01*
X82908596Y-64877000D01*
X82529404Y-64877000D01*
X82157498Y-64950977D01*
X81807171Y-65096087D01*
X81491884Y-65306755D01*
X81223755Y-65574884D01*
X81013087Y-65890171D01*
X80867977Y-66240498D01*
X80794000Y-66612404D01*
X79644000Y-66612404D01*
X79570023Y-66240498D01*
X79424913Y-65890171D01*
X79214245Y-65574884D01*
X78946116Y-65306755D01*
X78630829Y-65096087D01*
X78280502Y-64950977D01*
X77908596Y-64877000D01*
X77529404Y-64877000D01*
X77157498Y-64950977D01*
X76807171Y-65096087D01*
X76491884Y-65306755D01*
X76223755Y-65574884D01*
X76013087Y-65890171D01*
X75867977Y-66240498D01*
X75794000Y-66612404D01*
X74644000Y-66612404D01*
X74570023Y-66240498D01*
X74424913Y-65890171D01*
X74214245Y-65574884D01*
X73946116Y-65306755D01*
X73630829Y-65096087D01*
X73280502Y-64950977D01*
X72908596Y-64877000D01*
X72529404Y-64877000D01*
X72157498Y-64950977D01*
X71807171Y-65096087D01*
X71491884Y-65306755D01*
X71223755Y-65574884D01*
X71013087Y-65890171D01*
X70867977Y-66240498D01*
X70794000Y-66612404D01*
X69644000Y-66612404D01*
X69570023Y-66240498D01*
X69424913Y-65890171D01*
X69214245Y-65574884D01*
X68946116Y-65306755D01*
X68630829Y-65096087D01*
X68280502Y-64950977D01*
X67908596Y-64877000D01*
X67529404Y-64877000D01*
X67157498Y-64950977D01*
X66807171Y-65096087D01*
X66491884Y-65306755D01*
X66223755Y-65574884D01*
X66013087Y-65890171D01*
X65867977Y-66240498D01*
X65794000Y-66612404D01*
X64644000Y-66612404D01*
X64570023Y-66240498D01*
X64424913Y-65890171D01*
X64214245Y-65574884D01*
X63946116Y-65306755D01*
X63630829Y-65096087D01*
X63280502Y-64950977D01*
X62908596Y-64877000D01*
X62529404Y-64877000D01*
X62157498Y-64950977D01*
X61807171Y-65096087D01*
X61491884Y-65306755D01*
X61223755Y-65574884D01*
X61013087Y-65890171D01*
X60867977Y-66240498D01*
X60794000Y-66612404D01*
X59644000Y-66612404D01*
X59570023Y-66240498D01*
X59424913Y-65890171D01*
X59214245Y-65574884D01*
X58946116Y-65306755D01*
X58630829Y-65096087D01*
X58280502Y-64950977D01*
X57908596Y-64877000D01*
X57529404Y-64877000D01*
X57157498Y-64950977D01*
X56807171Y-65096087D01*
X56491884Y-65306755D01*
X56223755Y-65574884D01*
X56013087Y-65890171D01*
X55867977Y-66240498D01*
X55794000Y-66612404D01*
X54644000Y-66612404D01*
X54570023Y-66240498D01*
X54424913Y-65890171D01*
X54214245Y-65574884D01*
X53946116Y-65306755D01*
X53630829Y-65096087D01*
X53280502Y-64950977D01*
X52908596Y-64877000D01*
X52529404Y-64877000D01*
X52157498Y-64950977D01*
X51807171Y-65096087D01*
X51491884Y-65306755D01*
X51223755Y-65574884D01*
X51013087Y-65890171D01*
X50867977Y-66240498D01*
X50794000Y-66612404D01*
X49644000Y-66612404D01*
X49570023Y-66240498D01*
X49424913Y-65890171D01*
X49214245Y-65574884D01*
X48946116Y-65306755D01*
X48630829Y-65096087D01*
X48280502Y-64950977D01*
X47908596Y-64877000D01*
X47529404Y-64877000D01*
X47157498Y-64950977D01*
X46807171Y-65096087D01*
X46491884Y-65306755D01*
X46223755Y-65574884D01*
X46013087Y-65890171D01*
X45867977Y-66240498D01*
X45794000Y-66612404D01*
X44644000Y-66612404D01*
X44570023Y-66240498D01*
X44424913Y-65890171D01*
X44214245Y-65574884D01*
X43946116Y-65306755D01*
X43630829Y-65096087D01*
X43280502Y-64950977D01*
X42908596Y-64877000D01*
X42529404Y-64877000D01*
X42157498Y-64950977D01*
X41807171Y-65096087D01*
X41491884Y-65306755D01*
X41223755Y-65574884D01*
X41013087Y-65890171D01*
X40867977Y-66240498D01*
X40794000Y-66612404D01*
X39647024Y-66612404D01*
X39647024Y-65502000D01*
X39634957Y-65379479D01*
X39599219Y-65261666D01*
X39541183Y-65153089D01*
X39463080Y-65057920D01*
X39367911Y-64979817D01*
X39259334Y-64921781D01*
X39141521Y-64886043D01*
X39019000Y-64873976D01*
X36419000Y-64873976D01*
X36296479Y-64886043D01*
X36178666Y-64921781D01*
X36070089Y-64979817D01*
X35974920Y-65057920D01*
X35896817Y-65153089D01*
X35838781Y-65261666D01*
X35803043Y-65379479D01*
X35790976Y-65502000D01*
X33533888Y-65502000D01*
X33210084Y-64886256D01*
X33181292Y-64843165D01*
X32694175Y-64482602D01*
X30176777Y-67000000D01*
X29823223Y-67000000D01*
X27305825Y-64482602D01*
X26818708Y-64843165D01*
X26459058Y-65505247D01*
X26235484Y-66224771D01*
X26156579Y-66974087D01*
X25650000Y-66974087D01*
X25650000Y-64305825D01*
X27482602Y-64305825D01*
X30000000Y-66823223D01*
X32517398Y-64305825D01*
X87482602Y-64305825D01*
X90000000Y-66823223D01*
X92517398Y-64305825D01*
X92156835Y-63818708D01*
X91494753Y-63459058D01*
X90775229Y-63235484D01*
X90025913Y-63156579D01*
X89275601Y-63225374D01*
X88553127Y-63439226D01*
X87886256Y-63789916D01*
X87843165Y-63818708D01*
X87482602Y-64305825D01*
X32517398Y-64305825D01*
X32156835Y-63818708D01*
X31494753Y-63459058D01*
X30775229Y-63235484D01*
X30025913Y-63156579D01*
X29275601Y-63225374D01*
X28553127Y-63439226D01*
X27886256Y-63789916D01*
X27843165Y-63818708D01*
X27482602Y-64305825D01*
X25650000Y-64305825D01*
X25650000Y-58873559D01*
X31219218Y-58873559D01*
X31351542Y-59166095D01*
X31690391Y-59336295D01*
X32055934Y-59437118D01*
X32434122Y-59464690D01*
X32810422Y-59417951D01*
X33170374Y-59298698D01*
X33418458Y-59166095D01*
X33550782Y-58873559D01*
X32385000Y-57707777D01*
X31219218Y-58873559D01*
X25650000Y-58873559D01*
X25650000Y-57580122D01*
X30451310Y-57580122D01*
X30498049Y-57956422D01*
X30617302Y-58316374D01*
X30749905Y-58564458D01*
X31042441Y-58696782D01*
X32208223Y-57531000D01*
X32561777Y-57531000D01*
X33727559Y-58696782D01*
X34020095Y-58564458D01*
X34190295Y-58225609D01*
X34291118Y-57860066D01*
X34318690Y-57481878D01*
X34271951Y-57105578D01*
X34152698Y-56745626D01*
X34020095Y-56497542D01*
X33727559Y-56365218D01*
X32561777Y-57531000D01*
X32208223Y-57531000D01*
X31042441Y-56365218D01*
X30749905Y-56497542D01*
X30579705Y-56836391D01*
X30478882Y-57201934D01*
X30451310Y-57580122D01*
X25650000Y-57580122D01*
X25650000Y-56188441D01*
X31219218Y-56188441D01*
X32385000Y-57354223D01*
X33550782Y-56188441D01*
X33418458Y-55895905D01*
X33079609Y-55725705D01*
X32714066Y-55624882D01*
X32335878Y-55597310D01*
X31959578Y-55644049D01*
X31599626Y-55763302D01*
X31351542Y-55895905D01*
X31219218Y-56188441D01*
X25650000Y-56188441D01*
X25650000Y-51151000D01*
X30456976Y-51151000D01*
X30456976Y-53751000D01*
X30469043Y-53873521D01*
X30504781Y-53991334D01*
X30562817Y-54099911D01*
X30640920Y-54195080D01*
X30736089Y-54273183D01*
X30844666Y-54331219D01*
X30962479Y-54366957D01*
X31085000Y-54379024D01*
X33685000Y-54379024D01*
X33807521Y-54366957D01*
X33925334Y-54331219D01*
X34033911Y-54273183D01*
X34129080Y-54195080D01*
X34207183Y-54099911D01*
X34265219Y-53991334D01*
X34300957Y-53873521D01*
X34313024Y-53751000D01*
X34313024Y-51151000D01*
X34300957Y-51028479D01*
X34265219Y-50910666D01*
X34207183Y-50802089D01*
X34129080Y-50706920D01*
X34033911Y-50628817D01*
X33925334Y-50570781D01*
X33807521Y-50535043D01*
X33685000Y-50522976D01*
X31085000Y-50522976D01*
X30962479Y-50535043D01*
X30844666Y-50570781D01*
X30736089Y-50628817D01*
X30640920Y-50706920D01*
X30562817Y-50802089D01*
X30504781Y-50910666D01*
X30469043Y-51028479D01*
X30456976Y-51151000D01*
X25650000Y-51151000D01*
X25650000Y-47700000D01*
X32469557Y-47700000D01*
X32475000Y-47755261D01*
X32475000Y-47755263D01*
X32491278Y-47920537D01*
X32555607Y-48132601D01*
X32660071Y-48328040D01*
X32800656Y-48499344D01*
X32843589Y-48534578D01*
X36975001Y-52665991D01*
X36975000Y-61144738D01*
X36969557Y-61200000D01*
X36975000Y-61255261D01*
X36975000Y-61255263D01*
X36991278Y-61420537D01*
X37055607Y-61632601D01*
X37160071Y-61828040D01*
X37300656Y-61999344D01*
X37343589Y-62034578D01*
X38365426Y-63056416D01*
X38400656Y-63099344D01*
X38571960Y-63239929D01*
X38767398Y-63344393D01*
X38979462Y-63408722D01*
X39144736Y-63425000D01*
X39144738Y-63425000D01*
X39200000Y-63430443D01*
X39255261Y-63425000D01*
X79944739Y-63425000D01*
X80000000Y-63430443D01*
X80055261Y-63425000D01*
X80055264Y-63425000D01*
X80220538Y-63408722D01*
X80432602Y-63344393D01*
X80628040Y-63239929D01*
X80799344Y-63099344D01*
X80834578Y-63056411D01*
X82156416Y-61734574D01*
X82199344Y-61699344D01*
X82339929Y-61528040D01*
X82444393Y-61332602D01*
X82508722Y-61120538D01*
X82525000Y-60955264D01*
X82525000Y-60955262D01*
X82530443Y-60900000D01*
X82525000Y-60844739D01*
X82525000Y-58144736D01*
X82508722Y-57979462D01*
X82444393Y-57767398D01*
X82339929Y-57571960D01*
X82199344Y-57400656D01*
X82028040Y-57260071D01*
X81832601Y-57155607D01*
X81620537Y-57091278D01*
X81400000Y-57069557D01*
X81179462Y-57091278D01*
X80967398Y-57155607D01*
X80771960Y-57260071D01*
X80600656Y-57400656D01*
X80460071Y-57571960D01*
X80355607Y-57767399D01*
X80291278Y-57979463D01*
X80275000Y-58144737D01*
X80275001Y-60434009D01*
X79534011Y-61175000D01*
X39665990Y-61175000D01*
X39225000Y-60734011D01*
X39225000Y-59299046D01*
X58425010Y-59299046D01*
X58425010Y-59500954D01*
X58464400Y-59698982D01*
X58541666Y-59885520D01*
X58653840Y-60053400D01*
X58796610Y-60196170D01*
X58964490Y-60308344D01*
X59151028Y-60385610D01*
X59349056Y-60425000D01*
X59550964Y-60425000D01*
X59748992Y-60385610D01*
X59888535Y-60327810D01*
X60028078Y-60385610D01*
X60226106Y-60425000D01*
X60428014Y-60425000D01*
X60626042Y-60385610D01*
X60812580Y-60308344D01*
X60980460Y-60196170D01*
X61123230Y-60053400D01*
X61235404Y-59885520D01*
X61312670Y-59698982D01*
X61352060Y-59500954D01*
X61352060Y-59299046D01*
X61312670Y-59101018D01*
X61235404Y-58914480D01*
X61123230Y-58746600D01*
X60980460Y-58603830D01*
X60812580Y-58491656D01*
X60626042Y-58414390D01*
X60428014Y-58375000D01*
X60226106Y-58375000D01*
X60028078Y-58414390D01*
X59888535Y-58472190D01*
X59748992Y-58414390D01*
X59550964Y-58375000D01*
X59349056Y-58375000D01*
X59151028Y-58414390D01*
X58964490Y-58491656D01*
X58796610Y-58603830D01*
X58653840Y-58746600D01*
X58541666Y-58914480D01*
X58464400Y-59101018D01*
X58425010Y-59299046D01*
X39225000Y-59299046D01*
X39225000Y-56799046D01*
X52875000Y-56799046D01*
X52875000Y-57000954D01*
X52914390Y-57198982D01*
X52976943Y-57350000D01*
X52914390Y-57501018D01*
X52875000Y-57699046D01*
X52875000Y-57900954D01*
X52914390Y-58098982D01*
X52991656Y-58285520D01*
X53103830Y-58453400D01*
X53246600Y-58596170D01*
X53414480Y-58708344D01*
X53601018Y-58785610D01*
X53799046Y-58825000D01*
X54000954Y-58825000D01*
X54198982Y-58785610D01*
X54385520Y-58708344D01*
X54553400Y-58596170D01*
X54696170Y-58453400D01*
X54808344Y-58285520D01*
X54885610Y-58098982D01*
X54925000Y-57900954D01*
X54925000Y-57699046D01*
X54885610Y-57501018D01*
X54823057Y-57350000D01*
X54885610Y-57198982D01*
X54925000Y-57000954D01*
X54925000Y-56799046D01*
X54885610Y-56601018D01*
X54884794Y-56599046D01*
X67775000Y-56599046D01*
X67775000Y-56800954D01*
X67814390Y-56998982D01*
X67891656Y-57185520D01*
X68003830Y-57353400D01*
X68146600Y-57496170D01*
X68314480Y-57608344D01*
X68501018Y-57685610D01*
X68699046Y-57725000D01*
X68900954Y-57725000D01*
X69098982Y-57685610D01*
X69285520Y-57608344D01*
X69450000Y-57498442D01*
X69614480Y-57608344D01*
X69801018Y-57685610D01*
X69999046Y-57725000D01*
X70017656Y-57725000D01*
X70023497Y-57733742D01*
X70166267Y-57876512D01*
X70334147Y-57988686D01*
X70520685Y-58065952D01*
X70718713Y-58105342D01*
X70920621Y-58105342D01*
X71118649Y-58065952D01*
X71305187Y-57988686D01*
X71473067Y-57876512D01*
X71615837Y-57733742D01*
X71728011Y-57565862D01*
X71805277Y-57379324D01*
X71841136Y-57199046D01*
X72775000Y-57199046D01*
X72775000Y-57400954D01*
X72814390Y-57598982D01*
X72891656Y-57785520D01*
X73003830Y-57953400D01*
X73146600Y-58096170D01*
X73314480Y-58208344D01*
X73501018Y-58285610D01*
X73699046Y-58325000D01*
X73900954Y-58325000D01*
X74098982Y-58285610D01*
X74285520Y-58208344D01*
X74453400Y-58096170D01*
X74596170Y-57953400D01*
X74708344Y-57785520D01*
X74785610Y-57598982D01*
X74825000Y-57400954D01*
X74825000Y-57199046D01*
X74785610Y-57001018D01*
X74708344Y-56814480D01*
X74596170Y-56646600D01*
X74575000Y-56625430D01*
X74575000Y-55974556D01*
X74696614Y-56096170D01*
X74864494Y-56208344D01*
X75051032Y-56285610D01*
X75249060Y-56325000D01*
X75450968Y-56325000D01*
X75648996Y-56285610D01*
X75835534Y-56208344D01*
X76003414Y-56096170D01*
X76054584Y-56045000D01*
X88534315Y-56045000D01*
X88557002Y-56275340D01*
X88624189Y-56496829D01*
X88733296Y-56700953D01*
X88880130Y-56879870D01*
X89059047Y-57026704D01*
X89263171Y-57135811D01*
X89484660Y-57202998D01*
X89657280Y-57220000D01*
X90172720Y-57220000D01*
X90345340Y-57202998D01*
X90566829Y-57135811D01*
X90770953Y-57026704D01*
X90949870Y-56879870D01*
X91096704Y-56700953D01*
X91205811Y-56496829D01*
X91272998Y-56275340D01*
X91295685Y-56045000D01*
X91272998Y-55814660D01*
X91205811Y-55593171D01*
X91096704Y-55389047D01*
X90949870Y-55210130D01*
X90770953Y-55063296D01*
X90566829Y-54954189D01*
X90345340Y-54887002D01*
X90172720Y-54870000D01*
X89657280Y-54870000D01*
X89484660Y-54887002D01*
X89263171Y-54954189D01*
X89059047Y-55063296D01*
X88880130Y-55210130D01*
X88733296Y-55389047D01*
X88624189Y-55593171D01*
X88557002Y-55814660D01*
X88534315Y-56045000D01*
X76054584Y-56045000D01*
X76146184Y-55953400D01*
X76258358Y-55785520D01*
X76335624Y-55598982D01*
X76375014Y-55400954D01*
X76375014Y-55321000D01*
X79596968Y-52099046D01*
X85975000Y-52099046D01*
X85975000Y-52300954D01*
X86014390Y-52498982D01*
X86091656Y-52685520D01*
X86203830Y-52853400D01*
X86346600Y-52996170D01*
X86514480Y-53108344D01*
X86701018Y-53185610D01*
X86899046Y-53225000D01*
X87100954Y-53225000D01*
X87298982Y-53185610D01*
X87485520Y-53108344D01*
X87653400Y-52996170D01*
X87796170Y-52853400D01*
X87908344Y-52685520D01*
X87985610Y-52498982D01*
X88025000Y-52300954D01*
X88025000Y-52099046D01*
X87985610Y-51901018D01*
X87908344Y-51714480D01*
X87796170Y-51546600D01*
X87653400Y-51403830D01*
X87485520Y-51291656D01*
X87298982Y-51214390D01*
X87251776Y-51205000D01*
X88534315Y-51205000D01*
X88557002Y-51435340D01*
X88624189Y-51656829D01*
X88733296Y-51860953D01*
X88880130Y-52039870D01*
X89059047Y-52186704D01*
X89263171Y-52295811D01*
X89484660Y-52362998D01*
X89657280Y-52380000D01*
X90172720Y-52380000D01*
X90345340Y-52362998D01*
X90566829Y-52295811D01*
X90770953Y-52186704D01*
X90949870Y-52039870D01*
X91096704Y-51860953D01*
X91205811Y-51656829D01*
X91272998Y-51435340D01*
X91295685Y-51205000D01*
X91272998Y-50974660D01*
X91205811Y-50753171D01*
X91096704Y-50549047D01*
X90949870Y-50370130D01*
X90770953Y-50223296D01*
X90566829Y-50114189D01*
X90345340Y-50047002D01*
X90172720Y-50030000D01*
X89657280Y-50030000D01*
X89484660Y-50047002D01*
X89263171Y-50114189D01*
X89059047Y-50223296D01*
X88880130Y-50370130D01*
X88733296Y-50549047D01*
X88624189Y-50753171D01*
X88557002Y-50974660D01*
X88534315Y-51205000D01*
X87251776Y-51205000D01*
X87100954Y-51175000D01*
X86899046Y-51175000D01*
X86701018Y-51214390D01*
X86514480Y-51291656D01*
X86346600Y-51403830D01*
X86203830Y-51546600D01*
X86091656Y-51714480D01*
X86014390Y-51901018D01*
X85975000Y-52099046D01*
X79596968Y-52099046D01*
X84739984Y-46956030D01*
X89940747Y-46956030D01*
X90021198Y-47204591D01*
X90286773Y-47331845D01*
X90572073Y-47404842D01*
X90866131Y-47420778D01*
X91157648Y-47379040D01*
X91435420Y-47281231D01*
X91578802Y-47204591D01*
X91659253Y-46956030D01*
X90800000Y-46096777D01*
X89940747Y-46956030D01*
X84739984Y-46956030D01*
X85709883Y-45986131D01*
X89299222Y-45986131D01*
X89340960Y-46277648D01*
X89438769Y-46555420D01*
X89515409Y-46698802D01*
X89763970Y-46779253D01*
X90623223Y-45920000D01*
X90976777Y-45920000D01*
X91836030Y-46779253D01*
X92084591Y-46698802D01*
X92211845Y-46433227D01*
X92284842Y-46147927D01*
X92300778Y-45853869D01*
X92259040Y-45562352D01*
X92161231Y-45284580D01*
X92084591Y-45141198D01*
X91836030Y-45060747D01*
X90976777Y-45920000D01*
X90623223Y-45920000D01*
X89763970Y-45060747D01*
X89515409Y-45141198D01*
X89388155Y-45406773D01*
X89315158Y-45692073D01*
X89299222Y-45986131D01*
X85709883Y-45986131D01*
X85874923Y-45821092D01*
X85874927Y-45821087D01*
X87541015Y-44155000D01*
X89519817Y-44155000D01*
X89638757Y-44333007D01*
X89846993Y-44541243D01*
X90015281Y-44653689D01*
X89940747Y-44883970D01*
X90800000Y-45743223D01*
X91659253Y-44883970D01*
X91584719Y-44653689D01*
X91753007Y-44541243D01*
X91961243Y-44333007D01*
X92124852Y-44088148D01*
X92237548Y-43816076D01*
X92295000Y-43527245D01*
X92295000Y-43232755D01*
X92237548Y-42943924D01*
X92124852Y-42671852D01*
X91961243Y-42426993D01*
X91753007Y-42218757D01*
X91590240Y-42110000D01*
X91753007Y-42001243D01*
X91961243Y-41793007D01*
X92124852Y-41548148D01*
X92237548Y-41276076D01*
X92295000Y-40987245D01*
X92295000Y-40692755D01*
X92237548Y-40403924D01*
X92124852Y-40131852D01*
X91961243Y-39886993D01*
X91788219Y-39713969D01*
X91907804Y-39650050D01*
X92040857Y-39540857D01*
X92150050Y-39407804D01*
X92231188Y-39256006D01*
X92281153Y-39091295D01*
X92298024Y-38920001D01*
X92298024Y-38292965D01*
X93062667Y-37528323D01*
X93228040Y-37439929D01*
X93399344Y-37299344D01*
X93539929Y-37128040D01*
X93644393Y-36932602D01*
X93708722Y-36720538D01*
X93730443Y-36500000D01*
X93708722Y-36279462D01*
X93644393Y-36067398D01*
X93539929Y-35871960D01*
X93399344Y-35700656D01*
X93228040Y-35560071D01*
X93032602Y-35455607D01*
X92820538Y-35391278D01*
X92655264Y-35375000D01*
X92555261Y-35375000D01*
X92499999Y-35369557D01*
X92444738Y-35375000D01*
X92444736Y-35375000D01*
X92279462Y-35391278D01*
X92067398Y-35455607D01*
X91871960Y-35560071D01*
X91700656Y-35700656D01*
X91665426Y-35743584D01*
X90607035Y-36801976D01*
X90179999Y-36801976D01*
X90008705Y-36818847D01*
X89843994Y-36868812D01*
X89692196Y-36949950D01*
X89559143Y-37059143D01*
X89449950Y-37192196D01*
X89368812Y-37343994D01*
X89318847Y-37508705D01*
X89301976Y-37679999D01*
X89301976Y-38920001D01*
X89318847Y-39091295D01*
X89368812Y-39256006D01*
X89449950Y-39407804D01*
X89559143Y-39540857D01*
X89692196Y-39650050D01*
X89811781Y-39713969D01*
X89638757Y-39886993D01*
X89519817Y-40065000D01*
X87798062Y-40065000D01*
X87759999Y-40061251D01*
X87721936Y-40065000D01*
X87721935Y-40065000D01*
X87608074Y-40076214D01*
X87461986Y-40120530D01*
X87327350Y-40192494D01*
X87209341Y-40289341D01*
X87185072Y-40318913D01*
X73278919Y-54225067D01*
X73249341Y-54249341D01*
X73182146Y-54331219D01*
X73152494Y-54367350D01*
X73114029Y-54439314D01*
X73080530Y-54501987D01*
X73036214Y-54648075D01*
X73025000Y-54761935D01*
X73021251Y-54800000D01*
X73025000Y-54838063D01*
X73025001Y-56625429D01*
X73003830Y-56646600D01*
X72891656Y-56814480D01*
X72814390Y-57001018D01*
X72775000Y-57199046D01*
X71841136Y-57199046D01*
X71844667Y-57181296D01*
X71844667Y-56979388D01*
X71805277Y-56781360D01*
X71728011Y-56594822D01*
X71615837Y-56426942D01*
X71473067Y-56284172D01*
X71305187Y-56171998D01*
X71118649Y-56094732D01*
X70920621Y-56055342D01*
X70902011Y-56055342D01*
X70896170Y-56046600D01*
X70753400Y-55903830D01*
X70585520Y-55791656D01*
X70398982Y-55714390D01*
X70200954Y-55675000D01*
X69999046Y-55675000D01*
X69801018Y-55714390D01*
X69614480Y-55791656D01*
X69450000Y-55901558D01*
X69285520Y-55791656D01*
X69098982Y-55714390D01*
X68900954Y-55675000D01*
X68699046Y-55675000D01*
X68501018Y-55714390D01*
X68314480Y-55791656D01*
X68146600Y-55903830D01*
X68003830Y-56046600D01*
X67891656Y-56214480D01*
X67814390Y-56401018D01*
X67775000Y-56599046D01*
X54884794Y-56599046D01*
X54808344Y-56414480D01*
X54696170Y-56246600D01*
X54553400Y-56103830D01*
X54385520Y-55991656D01*
X54198982Y-55914390D01*
X54000954Y-55875000D01*
X53799046Y-55875000D01*
X53601018Y-55914390D01*
X53414480Y-55991656D01*
X53246600Y-56103830D01*
X53103830Y-56246600D01*
X52991656Y-56414480D01*
X52914390Y-56601018D01*
X52875000Y-56799046D01*
X39225000Y-56799046D01*
X39225000Y-52255261D01*
X39230443Y-52199999D01*
X39225000Y-52144736D01*
X39208722Y-51979462D01*
X39144393Y-51767398D01*
X39039929Y-51571960D01*
X38899344Y-51400656D01*
X38856416Y-51365426D01*
X34819535Y-47328545D01*
X54790500Y-47328545D01*
X54790500Y-47530453D01*
X54829890Y-47728481D01*
X54907156Y-47915019D01*
X55019330Y-48082899D01*
X55162100Y-48225669D01*
X55329980Y-48337843D01*
X55516518Y-48415109D01*
X55714546Y-48454499D01*
X55916454Y-48454499D01*
X56114482Y-48415109D01*
X56301020Y-48337843D01*
X56468900Y-48225669D01*
X56611670Y-48082899D01*
X56723844Y-47915019D01*
X56801110Y-47728481D01*
X56840500Y-47530453D01*
X56840500Y-47328545D01*
X56801110Y-47130517D01*
X56723844Y-46943979D01*
X56611670Y-46776099D01*
X56468900Y-46633329D01*
X56301020Y-46521155D01*
X56114482Y-46443889D01*
X55916454Y-46404499D01*
X55714546Y-46404499D01*
X55516518Y-46443889D01*
X55329980Y-46521155D01*
X55162100Y-46633329D01*
X55019330Y-46776099D01*
X54907156Y-46943979D01*
X54829890Y-47130517D01*
X54790500Y-47328545D01*
X34819535Y-47328545D01*
X34725000Y-47234011D01*
X34725000Y-45599046D01*
X68975000Y-45599046D01*
X68975000Y-45800954D01*
X69014390Y-45998982D01*
X69091656Y-46185520D01*
X69203830Y-46353400D01*
X69346600Y-46496170D01*
X69514480Y-46608344D01*
X69701018Y-46685610D01*
X69899046Y-46725000D01*
X70100954Y-46725000D01*
X70298982Y-46685610D01*
X70485520Y-46608344D01*
X70653400Y-46496170D01*
X70796170Y-46353400D01*
X70908344Y-46185520D01*
X70985610Y-45998982D01*
X71025000Y-45800954D01*
X71025000Y-45599046D01*
X70985610Y-45401018D01*
X70908344Y-45214480D01*
X70796170Y-45046600D01*
X70653400Y-44903830D01*
X70485520Y-44791656D01*
X70298982Y-44714390D01*
X70100954Y-44675000D01*
X69899046Y-44675000D01*
X69701018Y-44714390D01*
X69514480Y-44791656D01*
X69346600Y-44903830D01*
X69203830Y-45046600D01*
X69091656Y-45214480D01*
X69014390Y-45401018D01*
X68975000Y-45599046D01*
X34725000Y-45599046D01*
X34725000Y-45544736D01*
X34708722Y-45379462D01*
X34644393Y-45167398D01*
X34539929Y-44971960D01*
X34399344Y-44800656D01*
X34228040Y-44660071D01*
X34032602Y-44555607D01*
X33820538Y-44491278D01*
X33600000Y-44469557D01*
X33379463Y-44491278D01*
X33167399Y-44555607D01*
X32971961Y-44660071D01*
X32800657Y-44800656D01*
X32660072Y-44971960D01*
X32555608Y-45167398D01*
X32491279Y-45379462D01*
X32475001Y-45544736D01*
X32475000Y-47644738D01*
X32469557Y-47700000D01*
X25650000Y-47700000D01*
X25650000Y-41399046D01*
X40175000Y-41399046D01*
X40175000Y-41600954D01*
X40214390Y-41798982D01*
X40291656Y-41985520D01*
X40301331Y-42000000D01*
X40291656Y-42014480D01*
X40214390Y-42201018D01*
X40175000Y-42399046D01*
X40175000Y-42600954D01*
X40214390Y-42798982D01*
X40291656Y-42985520D01*
X40403830Y-43153400D01*
X40546600Y-43296170D01*
X40714480Y-43408344D01*
X40901018Y-43485610D01*
X41099046Y-43525000D01*
X41300954Y-43525000D01*
X41498982Y-43485610D01*
X41685520Y-43408344D01*
X41853400Y-43296170D01*
X41996170Y-43153400D01*
X42108344Y-42985520D01*
X42185610Y-42798982D01*
X42225000Y-42600954D01*
X42225000Y-42399046D01*
X42185610Y-42201018D01*
X42121326Y-42045820D01*
X58490019Y-42045820D01*
X58490019Y-42247728D01*
X58529409Y-42445756D01*
X58606675Y-42632294D01*
X58718849Y-42800174D01*
X58861619Y-42942944D01*
X59029499Y-43055118D01*
X59216037Y-43132384D01*
X59414065Y-43171774D01*
X59615973Y-43171774D01*
X59814001Y-43132384D01*
X60000539Y-43055118D01*
X60168419Y-42942944D01*
X60311189Y-42800174D01*
X60423363Y-42632294D01*
X60500629Y-42445756D01*
X60540019Y-42247728D01*
X60540019Y-42045820D01*
X60500629Y-41847792D01*
X60429231Y-41675421D01*
X60587430Y-41740949D01*
X60785458Y-41780339D01*
X60987366Y-41780339D01*
X61185394Y-41740949D01*
X61371932Y-41663683D01*
X61539812Y-41551509D01*
X61560982Y-41530339D01*
X72506598Y-41530339D01*
X72544661Y-41534088D01*
X72582724Y-41530339D01*
X72582726Y-41530339D01*
X72696587Y-41519125D01*
X72842675Y-41474809D01*
X72977311Y-41402845D01*
X73095320Y-41305998D01*
X73119593Y-41276421D01*
X76721015Y-37675000D01*
X77661937Y-37675000D01*
X77700000Y-37678749D01*
X77738063Y-37675000D01*
X77738065Y-37675000D01*
X77851926Y-37663786D01*
X77998014Y-37619470D01*
X78132650Y-37547506D01*
X78250659Y-37450659D01*
X78274932Y-37421082D01*
X78594919Y-37101095D01*
X78614390Y-37198982D01*
X78691656Y-37385520D01*
X78803830Y-37553400D01*
X78946600Y-37696170D01*
X79114480Y-37808344D01*
X79301018Y-37885610D01*
X79499046Y-37925000D01*
X79700954Y-37925000D01*
X79898982Y-37885610D01*
X80085520Y-37808344D01*
X80253400Y-37696170D01*
X80396170Y-37553400D01*
X80508344Y-37385520D01*
X80585610Y-37198982D01*
X80625000Y-37000954D01*
X80625000Y-36799046D01*
X80585610Y-36601018D01*
X80508344Y-36414480D01*
X80396170Y-36246600D01*
X80253400Y-36103830D01*
X80085520Y-35991656D01*
X79898982Y-35914390D01*
X79801095Y-35894919D01*
X80521088Y-35174927D01*
X80550659Y-35150659D01*
X80612658Y-35075112D01*
X80647506Y-35032651D01*
X80693500Y-34946600D01*
X80719470Y-34898014D01*
X80763786Y-34751926D01*
X80773387Y-34654439D01*
X80805920Y-34694080D01*
X80901089Y-34772183D01*
X81009666Y-34830219D01*
X81127479Y-34865957D01*
X81250000Y-34878024D01*
X82750000Y-34878024D01*
X82866835Y-34866517D01*
X82874339Y-34875661D01*
X83137005Y-35091225D01*
X83436677Y-35251403D01*
X83761841Y-35350040D01*
X84100000Y-35383346D01*
X84438158Y-35350040D01*
X84763322Y-35251403D01*
X85062994Y-35091225D01*
X85325661Y-34875661D01*
X85541225Y-34612995D01*
X85701403Y-34313323D01*
X85800040Y-33988159D01*
X85825000Y-33734738D01*
X85825000Y-32694175D01*
X87482602Y-32694175D01*
X87843165Y-33181292D01*
X88505247Y-33540942D01*
X89224771Y-33764516D01*
X89974087Y-33843421D01*
X90724399Y-33774626D01*
X91446873Y-33560774D01*
X92113744Y-33210084D01*
X92156835Y-33181292D01*
X92517398Y-32694175D01*
X90000000Y-30176777D01*
X87482602Y-32694175D01*
X85825000Y-32694175D01*
X85825000Y-32265262D01*
X85800040Y-32011841D01*
X85701403Y-31686677D01*
X85541225Y-31387005D01*
X85325661Y-31124339D01*
X85062995Y-30908775D01*
X84763323Y-30748597D01*
X84438159Y-30649960D01*
X84100000Y-30616654D01*
X83761842Y-30649960D01*
X83436678Y-30748597D01*
X83137006Y-30908775D01*
X82874340Y-31124339D01*
X82866836Y-31133483D01*
X82750000Y-31121976D01*
X81250000Y-31121976D01*
X81127479Y-31134043D01*
X81009666Y-31169781D01*
X80901089Y-31227817D01*
X80805920Y-31305920D01*
X80768296Y-31351765D01*
X80767605Y-31351198D01*
X80528736Y-31223519D01*
X80269547Y-31144895D01*
X80000000Y-31118347D01*
X79730454Y-31144895D01*
X79471265Y-31223519D01*
X79232396Y-31351198D01*
X79023025Y-31523024D01*
X78997253Y-31554427D01*
X78883884Y-31439340D01*
X78659976Y-31287283D01*
X78410705Y-31181830D01*
X78337668Y-31167107D01*
X78125000Y-31287677D01*
X78125000Y-32875000D01*
X78145000Y-32875000D01*
X78145000Y-33125000D01*
X78125000Y-33125000D01*
X78125000Y-34712323D01*
X78337668Y-34832893D01*
X78410705Y-34818170D01*
X78659976Y-34712717D01*
X78883884Y-34560660D01*
X78997253Y-34445573D01*
X79023024Y-34476975D01*
X79025213Y-34478772D01*
X77378986Y-36125000D01*
X76438063Y-36125000D01*
X76400000Y-36121251D01*
X76361937Y-36125000D01*
X76361935Y-36125000D01*
X76248074Y-36136214D01*
X76135987Y-36170216D01*
X76101985Y-36180530D01*
X75967349Y-36252494D01*
X75934489Y-36279462D01*
X75849341Y-36349341D01*
X75825072Y-36378913D01*
X72223647Y-39980339D01*
X61560982Y-39980339D01*
X61539812Y-39959169D01*
X61371932Y-39846995D01*
X61185394Y-39769729D01*
X60987366Y-39730339D01*
X60810418Y-39730339D01*
X60771170Y-39671600D01*
X60628400Y-39528830D01*
X60460520Y-39416656D01*
X60273982Y-39339390D01*
X60075954Y-39300000D01*
X59874046Y-39300000D01*
X59676018Y-39339390D01*
X59489480Y-39416656D01*
X59321600Y-39528830D01*
X59178830Y-39671600D01*
X59066656Y-39839480D01*
X58989390Y-40026018D01*
X58950000Y-40224046D01*
X58950000Y-40425954D01*
X58989390Y-40623982D01*
X59066656Y-40810520D01*
X59178830Y-40978400D01*
X59321600Y-41121170D01*
X59343508Y-41135809D01*
X59216037Y-41161164D01*
X59029499Y-41238430D01*
X58861619Y-41350604D01*
X58718849Y-41493374D01*
X58606675Y-41661254D01*
X58529409Y-41847792D01*
X58490019Y-42045820D01*
X42121326Y-42045820D01*
X42108344Y-42014480D01*
X42098669Y-42000000D01*
X42108344Y-41985520D01*
X42185610Y-41798982D01*
X42225000Y-41600954D01*
X42225000Y-41399046D01*
X42185610Y-41201018D01*
X42108344Y-41014480D01*
X41996170Y-40846600D01*
X41853400Y-40703830D01*
X41685520Y-40591656D01*
X41498982Y-40514390D01*
X41300954Y-40475000D01*
X41099046Y-40475000D01*
X40901018Y-40514390D01*
X40714480Y-40591656D01*
X40546600Y-40703830D01*
X40403830Y-40846600D01*
X40291656Y-41014480D01*
X40214390Y-41201018D01*
X40175000Y-41399046D01*
X25650000Y-41399046D01*
X25650000Y-36708546D01*
X50384500Y-36708546D01*
X50384500Y-36910454D01*
X50423890Y-37108482D01*
X50501156Y-37295020D01*
X50613330Y-37462900D01*
X50756100Y-37605670D01*
X50923980Y-37717844D01*
X51110518Y-37795110D01*
X51308546Y-37834500D01*
X51510454Y-37834500D01*
X51708482Y-37795110D01*
X51895020Y-37717844D01*
X52062900Y-37605670D01*
X52205670Y-37462900D01*
X52317844Y-37295020D01*
X52395110Y-37108482D01*
X52396986Y-37099046D01*
X58375000Y-37099046D01*
X58375000Y-37300954D01*
X58414390Y-37498982D01*
X58491656Y-37685520D01*
X58603830Y-37853400D01*
X58746600Y-37996170D01*
X58914480Y-38108344D01*
X59101018Y-38185610D01*
X59299046Y-38225000D01*
X59500954Y-38225000D01*
X59698982Y-38185610D01*
X59885520Y-38108344D01*
X60053400Y-37996170D01*
X60074570Y-37975000D01*
X63790738Y-37975000D01*
X63944616Y-38077818D01*
X64131154Y-38155084D01*
X64329182Y-38194474D01*
X64531090Y-38194474D01*
X64729118Y-38155084D01*
X64751984Y-38145613D01*
X64739390Y-38176018D01*
X64700000Y-38374046D01*
X64700000Y-38575954D01*
X64739390Y-38773982D01*
X64816656Y-38960520D01*
X64928830Y-39128400D01*
X65071600Y-39271170D01*
X65239480Y-39383344D01*
X65426018Y-39460610D01*
X65624046Y-39500000D01*
X65825954Y-39500000D01*
X66023982Y-39460610D01*
X66210520Y-39383344D01*
X66378400Y-39271170D01*
X66521170Y-39128400D01*
X66633344Y-38960520D01*
X66710610Y-38773982D01*
X66750000Y-38575954D01*
X66750000Y-38374046D01*
X66710610Y-38176018D01*
X66633344Y-37989480D01*
X66521170Y-37821600D01*
X66378400Y-37678830D01*
X66210520Y-37566656D01*
X66023982Y-37489390D01*
X65825954Y-37450000D01*
X65624046Y-37450000D01*
X65426018Y-37489390D01*
X65403152Y-37498861D01*
X65415746Y-37468456D01*
X65455136Y-37270428D01*
X65455136Y-37068520D01*
X65415746Y-36870492D01*
X65338480Y-36683954D01*
X65226306Y-36516074D01*
X65083536Y-36373304D01*
X64915656Y-36261130D01*
X64729118Y-36183864D01*
X64531090Y-36144474D01*
X64329182Y-36144474D01*
X64131154Y-36183864D01*
X63944616Y-36261130D01*
X63776736Y-36373304D01*
X63725040Y-36425000D01*
X60074570Y-36425000D01*
X60053400Y-36403830D01*
X59885520Y-36291656D01*
X59698982Y-36214390D01*
X59500954Y-36175000D01*
X59299046Y-36175000D01*
X59101018Y-36214390D01*
X58914480Y-36291656D01*
X58746600Y-36403830D01*
X58603830Y-36546600D01*
X58491656Y-36714480D01*
X58414390Y-36901018D01*
X58375000Y-37099046D01*
X52396986Y-37099046D01*
X52434500Y-36910454D01*
X52434500Y-36708546D01*
X52395110Y-36510518D01*
X52317844Y-36323980D01*
X52205670Y-36156100D01*
X52062900Y-36013330D01*
X51895020Y-35901156D01*
X51708482Y-35823890D01*
X51510454Y-35784500D01*
X51308546Y-35784500D01*
X51110518Y-35823890D01*
X50923980Y-35901156D01*
X50756100Y-36013330D01*
X50613330Y-36156100D01*
X50501156Y-36323980D01*
X50423890Y-36510518D01*
X50384500Y-36708546D01*
X25650000Y-36708546D01*
X25650000Y-35391096D01*
X40300942Y-35391096D01*
X40300942Y-35593004D01*
X40340332Y-35791032D01*
X40417598Y-35977570D01*
X40529772Y-36145450D01*
X40672542Y-36288220D01*
X40840422Y-36400394D01*
X41026960Y-36477660D01*
X41224988Y-36517050D01*
X41426896Y-36517050D01*
X41624924Y-36477660D01*
X41811462Y-36400394D01*
X41979342Y-36288220D01*
X42122112Y-36145450D01*
X42234286Y-35977570D01*
X42311552Y-35791032D01*
X42350942Y-35593004D01*
X42350942Y-35391096D01*
X42311552Y-35193068D01*
X42234286Y-35006530D01*
X42122112Y-34838650D01*
X41979342Y-34695880D01*
X41811462Y-34583706D01*
X41624924Y-34506440D01*
X41587752Y-34499046D01*
X45775000Y-34499046D01*
X45775000Y-34700954D01*
X45814390Y-34898982D01*
X45891656Y-35085520D01*
X45901331Y-35100000D01*
X45891656Y-35114480D01*
X45814390Y-35301018D01*
X45775000Y-35499046D01*
X45775000Y-35700954D01*
X45814390Y-35898982D01*
X45891656Y-36085520D01*
X46003830Y-36253400D01*
X46146600Y-36396170D01*
X46314480Y-36508344D01*
X46501018Y-36585610D01*
X46699046Y-36625000D01*
X46900954Y-36625000D01*
X47098982Y-36585610D01*
X47285520Y-36508344D01*
X47300000Y-36498669D01*
X47314480Y-36508344D01*
X47501018Y-36585610D01*
X47699046Y-36625000D01*
X47900954Y-36625000D01*
X48098982Y-36585610D01*
X48285520Y-36508344D01*
X48300000Y-36498669D01*
X48314480Y-36508344D01*
X48501018Y-36585610D01*
X48699046Y-36625000D01*
X48900954Y-36625000D01*
X49098982Y-36585610D01*
X49285520Y-36508344D01*
X49453400Y-36396170D01*
X49596170Y-36253400D01*
X49708344Y-36085520D01*
X49785610Y-35898982D01*
X49825000Y-35700954D01*
X49825000Y-35499046D01*
X49785610Y-35301018D01*
X49708344Y-35114480D01*
X49698669Y-35100000D01*
X49708344Y-35085520D01*
X49785610Y-34898982D01*
X49825000Y-34700954D01*
X49825000Y-34499046D01*
X49785610Y-34301018D01*
X49708344Y-34114480D01*
X49698669Y-34100000D01*
X49708344Y-34085520D01*
X49785610Y-33898982D01*
X49825000Y-33700954D01*
X49825000Y-33499046D01*
X49785610Y-33301018D01*
X49708344Y-33114480D01*
X49698669Y-33100000D01*
X49708344Y-33085520D01*
X49728843Y-33036030D01*
X54520747Y-33036030D01*
X54601198Y-33284591D01*
X54866773Y-33411845D01*
X55152073Y-33484842D01*
X55446131Y-33500778D01*
X55737648Y-33459040D01*
X56015420Y-33361231D01*
X56158802Y-33284591D01*
X56239253Y-33036030D01*
X55380000Y-32176777D01*
X54520747Y-33036030D01*
X49728843Y-33036030D01*
X49785610Y-32898982D01*
X49825000Y-32700954D01*
X49825000Y-32499046D01*
X49785610Y-32301018D01*
X49708344Y-32114480D01*
X49698669Y-32100000D01*
X49708344Y-32085520D01*
X49716375Y-32066131D01*
X53879222Y-32066131D01*
X53920960Y-32357648D01*
X54018769Y-32635420D01*
X54095409Y-32778802D01*
X54343970Y-32859253D01*
X55203223Y-32000000D01*
X55556777Y-32000000D01*
X56416030Y-32859253D01*
X56646311Y-32784719D01*
X56758757Y-32953007D01*
X56966993Y-33161243D01*
X57211852Y-33324852D01*
X57483924Y-33437548D01*
X57772755Y-33495000D01*
X58067245Y-33495000D01*
X58356076Y-33437548D01*
X58628148Y-33324852D01*
X58873007Y-33161243D01*
X59081243Y-32953007D01*
X59190000Y-32790240D01*
X59298757Y-32953007D01*
X59506993Y-33161243D01*
X59751852Y-33324852D01*
X60023924Y-33437548D01*
X60312755Y-33495000D01*
X60607245Y-33495000D01*
X60896076Y-33437548D01*
X61168148Y-33324852D01*
X61413007Y-33161243D01*
X61586031Y-32988219D01*
X61649950Y-33107804D01*
X61759143Y-33240857D01*
X61892196Y-33350050D01*
X62043994Y-33431188D01*
X62208705Y-33481153D01*
X62379999Y-33498024D01*
X63620001Y-33498024D01*
X63791295Y-33481153D01*
X63956006Y-33431188D01*
X64107804Y-33350050D01*
X64240857Y-33240857D01*
X64350050Y-33107804D01*
X64431188Y-32956006D01*
X64481153Y-32791295D01*
X64498024Y-32620001D01*
X64498024Y-32265262D01*
X74175000Y-32265262D01*
X74175000Y-33734737D01*
X74199960Y-33988158D01*
X74298597Y-34313322D01*
X74458775Y-34612994D01*
X74674339Y-34875661D01*
X74937005Y-35091225D01*
X75236677Y-35251403D01*
X75561841Y-35350040D01*
X75900000Y-35383346D01*
X76238158Y-35350040D01*
X76563322Y-35251403D01*
X76862994Y-35091225D01*
X77125661Y-34875661D01*
X77288244Y-34677553D01*
X77340024Y-34712717D01*
X77589295Y-34818170D01*
X77662332Y-34832893D01*
X77875000Y-34712323D01*
X77875000Y-33125000D01*
X77855000Y-33125000D01*
X77855000Y-32875000D01*
X77875000Y-32875000D01*
X77875000Y-31287677D01*
X77662332Y-31167107D01*
X77589295Y-31181830D01*
X77340024Y-31287283D01*
X77288244Y-31322447D01*
X77125661Y-31124339D01*
X76862995Y-30908775D01*
X76563323Y-30748597D01*
X76238159Y-30649960D01*
X75900000Y-30616654D01*
X75561842Y-30649960D01*
X75236678Y-30748597D01*
X74937006Y-30908775D01*
X74674340Y-31124339D01*
X74458776Y-31387005D01*
X74298598Y-31686677D01*
X74199960Y-32011841D01*
X74175000Y-32265262D01*
X64498024Y-32265262D01*
X64498024Y-31379999D01*
X64481153Y-31208705D01*
X64431188Y-31043994D01*
X64350050Y-30892196D01*
X64240857Y-30759143D01*
X64107804Y-30649950D01*
X63956006Y-30568812D01*
X63791295Y-30518847D01*
X63620001Y-30501976D01*
X62379999Y-30501976D01*
X62208705Y-30518847D01*
X62043994Y-30568812D01*
X61892196Y-30649950D01*
X61759143Y-30759143D01*
X61649950Y-30892196D01*
X61586031Y-31011781D01*
X61413007Y-30838757D01*
X61168148Y-30675148D01*
X60896076Y-30562452D01*
X60607245Y-30505000D01*
X60312755Y-30505000D01*
X60023924Y-30562452D01*
X59751852Y-30675148D01*
X59506993Y-30838757D01*
X59298757Y-31046993D01*
X59190000Y-31209760D01*
X59081243Y-31046993D01*
X58873007Y-30838757D01*
X58628148Y-30675148D01*
X58356076Y-30562452D01*
X58067245Y-30505000D01*
X57772755Y-30505000D01*
X57483924Y-30562452D01*
X57211852Y-30675148D01*
X56966993Y-30838757D01*
X56758757Y-31046993D01*
X56646311Y-31215281D01*
X56416030Y-31140747D01*
X55556777Y-32000000D01*
X55203223Y-32000000D01*
X54343970Y-31140747D01*
X54095409Y-31221198D01*
X53968155Y-31486773D01*
X53895158Y-31772073D01*
X53879222Y-32066131D01*
X49716375Y-32066131D01*
X49785610Y-31898982D01*
X49825000Y-31700954D01*
X49825000Y-31499046D01*
X49785610Y-31301018D01*
X49708344Y-31114480D01*
X49698669Y-31100000D01*
X49708344Y-31085520D01*
X49758691Y-30963970D01*
X54520747Y-30963970D01*
X55380000Y-31823223D01*
X56239253Y-30963970D01*
X56158802Y-30715409D01*
X55893227Y-30588155D01*
X55607927Y-30515158D01*
X55313869Y-30499222D01*
X55022352Y-30540960D01*
X54744580Y-30638769D01*
X54601198Y-30715409D01*
X54520747Y-30963970D01*
X49758691Y-30963970D01*
X49785610Y-30898982D01*
X49825000Y-30700954D01*
X49825000Y-30499046D01*
X49785610Y-30301018D01*
X49708344Y-30114480D01*
X49614537Y-29974087D01*
X86156579Y-29974087D01*
X86225374Y-30724399D01*
X86439226Y-31446873D01*
X86789916Y-32113744D01*
X86818708Y-32156835D01*
X87305825Y-32517398D01*
X89823223Y-30000000D01*
X90176777Y-30000000D01*
X92694175Y-32517398D01*
X93181292Y-32156835D01*
X93540942Y-31494753D01*
X93764516Y-30775229D01*
X93843421Y-30025913D01*
X93774626Y-29275601D01*
X93560774Y-28553127D01*
X93210084Y-27886256D01*
X93181292Y-27843165D01*
X92694175Y-27482602D01*
X90176777Y-30000000D01*
X89823223Y-30000000D01*
X87305825Y-27482602D01*
X86818708Y-27843165D01*
X86459058Y-28505247D01*
X86235484Y-29224771D01*
X86156579Y-29974087D01*
X49614537Y-29974087D01*
X49596170Y-29946600D01*
X49453400Y-29803830D01*
X49285520Y-29691656D01*
X49098982Y-29614390D01*
X48900954Y-29575000D01*
X48699046Y-29575000D01*
X48501018Y-29614390D01*
X48314480Y-29691656D01*
X48300000Y-29701331D01*
X48285520Y-29691656D01*
X48098982Y-29614390D01*
X47900954Y-29575000D01*
X47699046Y-29575000D01*
X47501018Y-29614390D01*
X47314480Y-29691656D01*
X47146600Y-29803830D01*
X47003830Y-29946600D01*
X46891656Y-30114480D01*
X46814390Y-30301018D01*
X46775000Y-30499046D01*
X46775000Y-30700954D01*
X46814390Y-30898982D01*
X46891656Y-31085520D01*
X46901331Y-31100000D01*
X46891656Y-31114480D01*
X46814390Y-31301018D01*
X46775000Y-31499046D01*
X46775000Y-31700954D01*
X46814390Y-31898982D01*
X46891656Y-32085520D01*
X46901331Y-32100000D01*
X46891656Y-32114480D01*
X46814390Y-32301018D01*
X46775000Y-32499046D01*
X46775000Y-32700954D01*
X46814390Y-32898982D01*
X46891656Y-33085520D01*
X46901331Y-33100000D01*
X46891656Y-33114480D01*
X46814390Y-33301018D01*
X46775000Y-33499046D01*
X46775000Y-33575000D01*
X46699046Y-33575000D01*
X46501018Y-33614390D01*
X46314480Y-33691656D01*
X46146600Y-33803830D01*
X46003830Y-33946600D01*
X45891656Y-34114480D01*
X45814390Y-34301018D01*
X45775000Y-34499046D01*
X41587752Y-34499046D01*
X41426896Y-34467050D01*
X41224988Y-34467050D01*
X41026960Y-34506440D01*
X40840422Y-34583706D01*
X40672542Y-34695880D01*
X40529772Y-34838650D01*
X40417598Y-35006530D01*
X40340332Y-35193068D01*
X40300942Y-35391096D01*
X25650000Y-35391096D01*
X25650000Y-32694175D01*
X27482602Y-32694175D01*
X27843165Y-33181292D01*
X28505247Y-33540942D01*
X29224771Y-33764516D01*
X29974087Y-33843421D01*
X30724399Y-33774626D01*
X31446873Y-33560774D01*
X32113744Y-33210084D01*
X32156835Y-33181292D01*
X32517398Y-32694175D01*
X30000000Y-30176777D01*
X27482602Y-32694175D01*
X25650000Y-32694175D01*
X25650000Y-30028951D01*
X25654896Y-29974087D01*
X26156579Y-29974087D01*
X26225374Y-30724399D01*
X26439226Y-31446873D01*
X26789916Y-32113744D01*
X26818708Y-32156835D01*
X27305825Y-32517398D01*
X29823223Y-30000000D01*
X30176777Y-30000000D01*
X32694175Y-32517398D01*
X33181292Y-32156835D01*
X33540942Y-31494753D01*
X33764516Y-30775229D01*
X33843421Y-30025913D01*
X33774626Y-29275601D01*
X33560774Y-28553127D01*
X33210084Y-27886256D01*
X33181292Y-27843165D01*
X32694175Y-27482602D01*
X30176777Y-30000000D01*
X29823223Y-30000000D01*
X27305825Y-27482602D01*
X26818708Y-27843165D01*
X26459058Y-28505247D01*
X26235484Y-29224771D01*
X26156579Y-29974087D01*
X25654896Y-29974087D01*
X25721292Y-29230136D01*
X25925245Y-28484611D01*
X26257995Y-27786987D01*
X26603745Y-27305825D01*
X27482602Y-27305825D01*
X30000000Y-29823223D01*
X32517398Y-27305825D01*
X87482602Y-27305825D01*
X90000000Y-29823223D01*
X92517398Y-27305825D01*
X92156835Y-26818708D01*
X91494753Y-26459058D01*
X90775229Y-26235484D01*
X90025913Y-26156579D01*
X89275601Y-26225374D01*
X88553127Y-26439226D01*
X87886256Y-26789916D01*
X87843165Y-26818708D01*
X87482602Y-27305825D01*
X32517398Y-27305825D01*
X32156835Y-26818708D01*
X31494753Y-26459058D01*
X30775229Y-26235484D01*
X30025913Y-26156579D01*
X29275601Y-26225374D01*
X28553127Y-26439226D01*
X27886256Y-26789916D01*
X27843165Y-26818708D01*
X27482602Y-27305825D01*
X26603745Y-27305825D01*
X26709026Y-27159311D01*
X27264085Y-26621421D01*
X27905618Y-26190329D01*
X28613354Y-25879655D01*
X29369917Y-25698020D01*
X30023829Y-25650000D01*
X71634649Y-25650000D01*
X71631656Y-25654480D01*
%TA.AperFunction,Conductor*%
D24*
G36*
X71631656Y-25654480D02*
G01*
X71554390Y-25841018D01*
X71515000Y-26039046D01*
X71515000Y-26240954D01*
X71554390Y-26438982D01*
X71631656Y-26625520D01*
X71743830Y-26793400D01*
X71886600Y-26936170D01*
X72054480Y-27048344D01*
X72241018Y-27125610D01*
X72439046Y-27165000D01*
X72640954Y-27165000D01*
X72838982Y-27125610D01*
X73025520Y-27048344D01*
X73193400Y-26936170D01*
X73336170Y-26793400D01*
X73448344Y-26625520D01*
X73525610Y-26438982D01*
X73565000Y-26240954D01*
X73565000Y-26039046D01*
X73525610Y-25841018D01*
X73448344Y-25654480D01*
X73445351Y-25650000D01*
X89971049Y-25650000D01*
X90769864Y-25721292D01*
X91515389Y-25925245D01*
X92213013Y-26257995D01*
X92840689Y-26709026D01*
X93378579Y-27264085D01*
X93809671Y-27905618D01*
X94120345Y-28613354D01*
X94301980Y-29369917D01*
X94350001Y-30023842D01*
X94350000Y-50570302D01*
X94296855Y-50395104D01*
X94176140Y-50169264D01*
X94013687Y-49971313D01*
X93815736Y-49808860D01*
X93589896Y-49688145D01*
X93344845Y-49613810D01*
X93153864Y-49595000D01*
X92676136Y-49595000D01*
X92485155Y-49613810D01*
X92240104Y-49688145D01*
X92014264Y-49808860D01*
X91816313Y-49971313D01*
X91653860Y-50169264D01*
X91533145Y-50395104D01*
X91458810Y-50640155D01*
X91433710Y-50895000D01*
X91458810Y-51149845D01*
X91533145Y-51394896D01*
X91653860Y-51620736D01*
X91816313Y-51818687D01*
X92014264Y-51981140D01*
X92240104Y-52101855D01*
X92485155Y-52176190D01*
X92676136Y-52195000D01*
X93153864Y-52195000D01*
X93344845Y-52176190D01*
X93589896Y-52101855D01*
X93815736Y-51981140D01*
X94013687Y-51818687D01*
X94176140Y-51620736D01*
X94296855Y-51394896D01*
X94350000Y-51219698D01*
X94350000Y-56030302D01*
X94296855Y-55855104D01*
X94176140Y-55629264D01*
X94013687Y-55431313D01*
X93815736Y-55268860D01*
X93589896Y-55148145D01*
X93344845Y-55073810D01*
X93153864Y-55055000D01*
X92676136Y-55055000D01*
X92485155Y-55073810D01*
X92240104Y-55148145D01*
X92014264Y-55268860D01*
X91816313Y-55431313D01*
X91653860Y-55629264D01*
X91533145Y-55855104D01*
X91458810Y-56100155D01*
X91433710Y-56355000D01*
X91458810Y-56609845D01*
X91533145Y-56854896D01*
X91653860Y-57080736D01*
X91816313Y-57278687D01*
X92014264Y-57441140D01*
X92240104Y-57561855D01*
X92485155Y-57636190D01*
X92676136Y-57655000D01*
X93153864Y-57655000D01*
X93344845Y-57636190D01*
X93589896Y-57561855D01*
X93815736Y-57441140D01*
X94013687Y-57278687D01*
X94176140Y-57080736D01*
X94296855Y-56854896D01*
X94350000Y-56679698D01*
X94350000Y-67971049D01*
X94278708Y-68769865D01*
X94074755Y-69515389D01*
X93742005Y-70213013D01*
X93290972Y-70840692D01*
X92735916Y-71378579D01*
X92094383Y-71809670D01*
X91386650Y-72120344D01*
X90630083Y-72301980D01*
X89976171Y-72350000D01*
X30028951Y-72350000D01*
X29230135Y-72278708D01*
X28484611Y-72074755D01*
X27786987Y-71742005D01*
X27159308Y-71290972D01*
X26621421Y-70735916D01*
X26190330Y-70094383D01*
X26014651Y-69694175D01*
X27482602Y-69694175D01*
X27843165Y-70181292D01*
X28505247Y-70540942D01*
X29224771Y-70764516D01*
X29974087Y-70843421D01*
X30724399Y-70774626D01*
X31446873Y-70560774D01*
X32113744Y-70210084D01*
X32156835Y-70181292D01*
X32517398Y-69694175D01*
X87482602Y-69694175D01*
X87843165Y-70181292D01*
X88505247Y-70540942D01*
X89224771Y-70764516D01*
X89974087Y-70843421D01*
X90724399Y-70774626D01*
X91446873Y-70560774D01*
X92113744Y-70210084D01*
X92156835Y-70181292D01*
X92517398Y-69694175D01*
X90000000Y-67176777D01*
X87482602Y-69694175D01*
X32517398Y-69694175D01*
X30000000Y-67176777D01*
X27482602Y-69694175D01*
X26014651Y-69694175D01*
X25879656Y-69386650D01*
X25698020Y-68630083D01*
X25650000Y-67976171D01*
X25650000Y-66974087D01*
X26156579Y-66974087D01*
X26225374Y-67724399D01*
X26439226Y-68446873D01*
X26789916Y-69113744D01*
X26818708Y-69156835D01*
X27305825Y-69517398D01*
X29823223Y-67000000D01*
X30176777Y-67000000D01*
X32694175Y-69517398D01*
X33181292Y-69156835D01*
X33540942Y-68494753D01*
X33764516Y-67775229D01*
X33843421Y-67025913D01*
X33774626Y-66275601D01*
X33560774Y-65553127D01*
X33533888Y-65502000D01*
X35790976Y-65502000D01*
X35790976Y-68102000D01*
X35803043Y-68224521D01*
X35838781Y-68342334D01*
X35896817Y-68450911D01*
X35974920Y-68546080D01*
X36070089Y-68624183D01*
X36178666Y-68682219D01*
X36296479Y-68717957D01*
X36419000Y-68730024D01*
X39019000Y-68730024D01*
X39141521Y-68717957D01*
X39259334Y-68682219D01*
X39367911Y-68624183D01*
X39463080Y-68546080D01*
X39541183Y-68450911D01*
X39599219Y-68342334D01*
X39634957Y-68224521D01*
X39647024Y-68102000D01*
X39647024Y-66612404D01*
X40794000Y-66612404D01*
X40794000Y-66991596D01*
X40867977Y-67363502D01*
X41013087Y-67713829D01*
X41223755Y-68029116D01*
X41491884Y-68297245D01*
X41807171Y-68507913D01*
X42157498Y-68653023D01*
X42529404Y-68727000D01*
X42908596Y-68727000D01*
X43280502Y-68653023D01*
X43630829Y-68507913D01*
X43946116Y-68297245D01*
X44214245Y-68029116D01*
X44424913Y-67713829D01*
X44570023Y-67363502D01*
X44644000Y-66991596D01*
X44644000Y-66612404D01*
X45794000Y-66612404D01*
X45794000Y-66991596D01*
X45867977Y-67363502D01*
X46013087Y-67713829D01*
X46223755Y-68029116D01*
X46491884Y-68297245D01*
X46807171Y-68507913D01*
X47157498Y-68653023D01*
X47529404Y-68727000D01*
X47908596Y-68727000D01*
X48280502Y-68653023D01*
X48630829Y-68507913D01*
X48946116Y-68297245D01*
X49214245Y-68029116D01*
X49424913Y-67713829D01*
X49570023Y-67363502D01*
X49644000Y-66991596D01*
X49644000Y-66612404D01*
X50794000Y-66612404D01*
X50794000Y-66991596D01*
X50867977Y-67363502D01*
X51013087Y-67713829D01*
X51223755Y-68029116D01*
X51491884Y-68297245D01*
X51807171Y-68507913D01*
X52157498Y-68653023D01*
X52529404Y-68727000D01*
X52908596Y-68727000D01*
X53280502Y-68653023D01*
X53630829Y-68507913D01*
X53946116Y-68297245D01*
X54214245Y-68029116D01*
X54424913Y-67713829D01*
X54570023Y-67363502D01*
X54644000Y-66991596D01*
X54644000Y-66612404D01*
X55794000Y-66612404D01*
X55794000Y-66991596D01*
X55867977Y-67363502D01*
X56013087Y-67713829D01*
X56223755Y-68029116D01*
X56491884Y-68297245D01*
X56807171Y-68507913D01*
X57157498Y-68653023D01*
X57529404Y-68727000D01*
X57908596Y-68727000D01*
X58280502Y-68653023D01*
X58630829Y-68507913D01*
X58946116Y-68297245D01*
X59214245Y-68029116D01*
X59424913Y-67713829D01*
X59570023Y-67363502D01*
X59644000Y-66991596D01*
X59644000Y-66612404D01*
X60794000Y-66612404D01*
X60794000Y-66991596D01*
X60867977Y-67363502D01*
X61013087Y-67713829D01*
X61223755Y-68029116D01*
X61491884Y-68297245D01*
X61807171Y-68507913D01*
X62157498Y-68653023D01*
X62529404Y-68727000D01*
X62908596Y-68727000D01*
X63280502Y-68653023D01*
X63630829Y-68507913D01*
X63946116Y-68297245D01*
X64214245Y-68029116D01*
X64424913Y-67713829D01*
X64570023Y-67363502D01*
X64644000Y-66991596D01*
X64644000Y-66612404D01*
X65794000Y-66612404D01*
X65794000Y-66991596D01*
X65867977Y-67363502D01*
X66013087Y-67713829D01*
X66223755Y-68029116D01*
X66491884Y-68297245D01*
X66807171Y-68507913D01*
X67157498Y-68653023D01*
X67529404Y-68727000D01*
X67908596Y-68727000D01*
X68280502Y-68653023D01*
X68630829Y-68507913D01*
X68946116Y-68297245D01*
X69214245Y-68029116D01*
X69424913Y-67713829D01*
X69570023Y-67363502D01*
X69644000Y-66991596D01*
X69644000Y-66612404D01*
X70794000Y-66612404D01*
X70794000Y-66991596D01*
X70867977Y-67363502D01*
X71013087Y-67713829D01*
X71223755Y-68029116D01*
X71491884Y-68297245D01*
X71807171Y-68507913D01*
X72157498Y-68653023D01*
X72529404Y-68727000D01*
X72908596Y-68727000D01*
X73280502Y-68653023D01*
X73630829Y-68507913D01*
X73946116Y-68297245D01*
X74214245Y-68029116D01*
X74424913Y-67713829D01*
X74570023Y-67363502D01*
X74644000Y-66991596D01*
X74644000Y-66612404D01*
X75794000Y-66612404D01*
X75794000Y-66991596D01*
X75867977Y-67363502D01*
X76013087Y-67713829D01*
X76223755Y-68029116D01*
X76491884Y-68297245D01*
X76807171Y-68507913D01*
X77157498Y-68653023D01*
X77529404Y-68727000D01*
X77908596Y-68727000D01*
X78280502Y-68653023D01*
X78630829Y-68507913D01*
X78946116Y-68297245D01*
X79214245Y-68029116D01*
X79424913Y-67713829D01*
X79570023Y-67363502D01*
X79644000Y-66991596D01*
X79644000Y-66612404D01*
X80794000Y-66612404D01*
X80794000Y-66991596D01*
X80867977Y-67363502D01*
X81013087Y-67713829D01*
X81223755Y-68029116D01*
X81491884Y-68297245D01*
X81807171Y-68507913D01*
X82157498Y-68653023D01*
X82529404Y-68727000D01*
X82908596Y-68727000D01*
X83280502Y-68653023D01*
X83630829Y-68507913D01*
X83946116Y-68297245D01*
X84214245Y-68029116D01*
X84424913Y-67713829D01*
X84570023Y-67363502D01*
X84644000Y-66991596D01*
X84644000Y-66974087D01*
X86156579Y-66974087D01*
X86225374Y-67724399D01*
X86439226Y-68446873D01*
X86789916Y-69113744D01*
X86818708Y-69156835D01*
X87305825Y-69517398D01*
X89823223Y-67000000D01*
X90176777Y-67000000D01*
X92694175Y-69517398D01*
X93181292Y-69156835D01*
X93540942Y-68494753D01*
X93764516Y-67775229D01*
X93843421Y-67025913D01*
X93774626Y-66275601D01*
X93560774Y-65553127D01*
X93210084Y-64886256D01*
X93181292Y-64843165D01*
X92694175Y-64482602D01*
X90176777Y-67000000D01*
X89823223Y-67000000D01*
X87305825Y-64482602D01*
X86818708Y-64843165D01*
X86459058Y-65505247D01*
X86235484Y-66224771D01*
X86156579Y-66974087D01*
X84644000Y-66974087D01*
X84644000Y-66612404D01*
X84570023Y-66240498D01*
X84424913Y-65890171D01*
X84214245Y-65574884D01*
X83946116Y-65306755D01*
X83630829Y-65096087D01*
X83280502Y-64950977D01*
X82908596Y-64877000D01*
X82529404Y-64877000D01*
X82157498Y-64950977D01*
X81807171Y-65096087D01*
X81491884Y-65306755D01*
X81223755Y-65574884D01*
X81013087Y-65890171D01*
X80867977Y-66240498D01*
X80794000Y-66612404D01*
X79644000Y-66612404D01*
X79570023Y-66240498D01*
X79424913Y-65890171D01*
X79214245Y-65574884D01*
X78946116Y-65306755D01*
X78630829Y-65096087D01*
X78280502Y-64950977D01*
X77908596Y-64877000D01*
X77529404Y-64877000D01*
X77157498Y-64950977D01*
X76807171Y-65096087D01*
X76491884Y-65306755D01*
X76223755Y-65574884D01*
X76013087Y-65890171D01*
X75867977Y-66240498D01*
X75794000Y-66612404D01*
X74644000Y-66612404D01*
X74570023Y-66240498D01*
X74424913Y-65890171D01*
X74214245Y-65574884D01*
X73946116Y-65306755D01*
X73630829Y-65096087D01*
X73280502Y-64950977D01*
X72908596Y-64877000D01*
X72529404Y-64877000D01*
X72157498Y-64950977D01*
X71807171Y-65096087D01*
X71491884Y-65306755D01*
X71223755Y-65574884D01*
X71013087Y-65890171D01*
X70867977Y-66240498D01*
X70794000Y-66612404D01*
X69644000Y-66612404D01*
X69570023Y-66240498D01*
X69424913Y-65890171D01*
X69214245Y-65574884D01*
X68946116Y-65306755D01*
X68630829Y-65096087D01*
X68280502Y-64950977D01*
X67908596Y-64877000D01*
X67529404Y-64877000D01*
X67157498Y-64950977D01*
X66807171Y-65096087D01*
X66491884Y-65306755D01*
X66223755Y-65574884D01*
X66013087Y-65890171D01*
X65867977Y-66240498D01*
X65794000Y-66612404D01*
X64644000Y-66612404D01*
X64570023Y-66240498D01*
X64424913Y-65890171D01*
X64214245Y-65574884D01*
X63946116Y-65306755D01*
X63630829Y-65096087D01*
X63280502Y-64950977D01*
X62908596Y-64877000D01*
X62529404Y-64877000D01*
X62157498Y-64950977D01*
X61807171Y-65096087D01*
X61491884Y-65306755D01*
X61223755Y-65574884D01*
X61013087Y-65890171D01*
X60867977Y-66240498D01*
X60794000Y-66612404D01*
X59644000Y-66612404D01*
X59570023Y-66240498D01*
X59424913Y-65890171D01*
X59214245Y-65574884D01*
X58946116Y-65306755D01*
X58630829Y-65096087D01*
X58280502Y-64950977D01*
X57908596Y-64877000D01*
X57529404Y-64877000D01*
X57157498Y-64950977D01*
X56807171Y-65096087D01*
X56491884Y-65306755D01*
X56223755Y-65574884D01*
X56013087Y-65890171D01*
X55867977Y-66240498D01*
X55794000Y-66612404D01*
X54644000Y-66612404D01*
X54570023Y-66240498D01*
X54424913Y-65890171D01*
X54214245Y-65574884D01*
X53946116Y-65306755D01*
X53630829Y-65096087D01*
X53280502Y-64950977D01*
X52908596Y-64877000D01*
X52529404Y-64877000D01*
X52157498Y-64950977D01*
X51807171Y-65096087D01*
X51491884Y-65306755D01*
X51223755Y-65574884D01*
X51013087Y-65890171D01*
X50867977Y-66240498D01*
X50794000Y-66612404D01*
X49644000Y-66612404D01*
X49570023Y-66240498D01*
X49424913Y-65890171D01*
X49214245Y-65574884D01*
X48946116Y-65306755D01*
X48630829Y-65096087D01*
X48280502Y-64950977D01*
X47908596Y-64877000D01*
X47529404Y-64877000D01*
X47157498Y-64950977D01*
X46807171Y-65096087D01*
X46491884Y-65306755D01*
X46223755Y-65574884D01*
X46013087Y-65890171D01*
X45867977Y-66240498D01*
X45794000Y-66612404D01*
X44644000Y-66612404D01*
X44570023Y-66240498D01*
X44424913Y-65890171D01*
X44214245Y-65574884D01*
X43946116Y-65306755D01*
X43630829Y-65096087D01*
X43280502Y-64950977D01*
X42908596Y-64877000D01*
X42529404Y-64877000D01*
X42157498Y-64950977D01*
X41807171Y-65096087D01*
X41491884Y-65306755D01*
X41223755Y-65574884D01*
X41013087Y-65890171D01*
X40867977Y-66240498D01*
X40794000Y-66612404D01*
X39647024Y-66612404D01*
X39647024Y-65502000D01*
X39634957Y-65379479D01*
X39599219Y-65261666D01*
X39541183Y-65153089D01*
X39463080Y-65057920D01*
X39367911Y-64979817D01*
X39259334Y-64921781D01*
X39141521Y-64886043D01*
X39019000Y-64873976D01*
X36419000Y-64873976D01*
X36296479Y-64886043D01*
X36178666Y-64921781D01*
X36070089Y-64979817D01*
X35974920Y-65057920D01*
X35896817Y-65153089D01*
X35838781Y-65261666D01*
X35803043Y-65379479D01*
X35790976Y-65502000D01*
X33533888Y-65502000D01*
X33210084Y-64886256D01*
X33181292Y-64843165D01*
X32694175Y-64482602D01*
X30176777Y-67000000D01*
X29823223Y-67000000D01*
X27305825Y-64482602D01*
X26818708Y-64843165D01*
X26459058Y-65505247D01*
X26235484Y-66224771D01*
X26156579Y-66974087D01*
X25650000Y-66974087D01*
X25650000Y-64305825D01*
X27482602Y-64305825D01*
X30000000Y-66823223D01*
X32517398Y-64305825D01*
X87482602Y-64305825D01*
X90000000Y-66823223D01*
X92517398Y-64305825D01*
X92156835Y-63818708D01*
X91494753Y-63459058D01*
X90775229Y-63235484D01*
X90025913Y-63156579D01*
X89275601Y-63225374D01*
X88553127Y-63439226D01*
X87886256Y-63789916D01*
X87843165Y-63818708D01*
X87482602Y-64305825D01*
X32517398Y-64305825D01*
X32156835Y-63818708D01*
X31494753Y-63459058D01*
X30775229Y-63235484D01*
X30025913Y-63156579D01*
X29275601Y-63225374D01*
X28553127Y-63439226D01*
X27886256Y-63789916D01*
X27843165Y-63818708D01*
X27482602Y-64305825D01*
X25650000Y-64305825D01*
X25650000Y-58873559D01*
X31219218Y-58873559D01*
X31351542Y-59166095D01*
X31690391Y-59336295D01*
X32055934Y-59437118D01*
X32434122Y-59464690D01*
X32810422Y-59417951D01*
X33170374Y-59298698D01*
X33418458Y-59166095D01*
X33550782Y-58873559D01*
X32385000Y-57707777D01*
X31219218Y-58873559D01*
X25650000Y-58873559D01*
X25650000Y-57580122D01*
X30451310Y-57580122D01*
X30498049Y-57956422D01*
X30617302Y-58316374D01*
X30749905Y-58564458D01*
X31042441Y-58696782D01*
X32208223Y-57531000D01*
X32561777Y-57531000D01*
X33727559Y-58696782D01*
X34020095Y-58564458D01*
X34190295Y-58225609D01*
X34291118Y-57860066D01*
X34318690Y-57481878D01*
X34271951Y-57105578D01*
X34152698Y-56745626D01*
X34020095Y-56497542D01*
X33727559Y-56365218D01*
X32561777Y-57531000D01*
X32208223Y-57531000D01*
X31042441Y-56365218D01*
X30749905Y-56497542D01*
X30579705Y-56836391D01*
X30478882Y-57201934D01*
X30451310Y-57580122D01*
X25650000Y-57580122D01*
X25650000Y-56188441D01*
X31219218Y-56188441D01*
X32385000Y-57354223D01*
X33550782Y-56188441D01*
X33418458Y-55895905D01*
X33079609Y-55725705D01*
X32714066Y-55624882D01*
X32335878Y-55597310D01*
X31959578Y-55644049D01*
X31599626Y-55763302D01*
X31351542Y-55895905D01*
X31219218Y-56188441D01*
X25650000Y-56188441D01*
X25650000Y-51151000D01*
X30456976Y-51151000D01*
X30456976Y-53751000D01*
X30469043Y-53873521D01*
X30504781Y-53991334D01*
X30562817Y-54099911D01*
X30640920Y-54195080D01*
X30736089Y-54273183D01*
X30844666Y-54331219D01*
X30962479Y-54366957D01*
X31085000Y-54379024D01*
X33685000Y-54379024D01*
X33807521Y-54366957D01*
X33925334Y-54331219D01*
X34033911Y-54273183D01*
X34129080Y-54195080D01*
X34207183Y-54099911D01*
X34265219Y-53991334D01*
X34300957Y-53873521D01*
X34313024Y-53751000D01*
X34313024Y-51151000D01*
X34300957Y-51028479D01*
X34265219Y-50910666D01*
X34207183Y-50802089D01*
X34129080Y-50706920D01*
X34033911Y-50628817D01*
X33925334Y-50570781D01*
X33807521Y-50535043D01*
X33685000Y-50522976D01*
X31085000Y-50522976D01*
X30962479Y-50535043D01*
X30844666Y-50570781D01*
X30736089Y-50628817D01*
X30640920Y-50706920D01*
X30562817Y-50802089D01*
X30504781Y-50910666D01*
X30469043Y-51028479D01*
X30456976Y-51151000D01*
X25650000Y-51151000D01*
X25650000Y-47700000D01*
X32469557Y-47700000D01*
X32475000Y-47755261D01*
X32475000Y-47755263D01*
X32491278Y-47920537D01*
X32555607Y-48132601D01*
X32660071Y-48328040D01*
X32800656Y-48499344D01*
X32843589Y-48534578D01*
X36975001Y-52665991D01*
X36975000Y-61144738D01*
X36969557Y-61200000D01*
X36975000Y-61255261D01*
X36975000Y-61255263D01*
X36991278Y-61420537D01*
X37055607Y-61632601D01*
X37160071Y-61828040D01*
X37300656Y-61999344D01*
X37343589Y-62034578D01*
X38365426Y-63056416D01*
X38400656Y-63099344D01*
X38571960Y-63239929D01*
X38767398Y-63344393D01*
X38979462Y-63408722D01*
X39144736Y-63425000D01*
X39144738Y-63425000D01*
X39200000Y-63430443D01*
X39255261Y-63425000D01*
X79944739Y-63425000D01*
X80000000Y-63430443D01*
X80055261Y-63425000D01*
X80055264Y-63425000D01*
X80220538Y-63408722D01*
X80432602Y-63344393D01*
X80628040Y-63239929D01*
X80799344Y-63099344D01*
X80834578Y-63056411D01*
X82156416Y-61734574D01*
X82199344Y-61699344D01*
X82339929Y-61528040D01*
X82444393Y-61332602D01*
X82508722Y-61120538D01*
X82525000Y-60955264D01*
X82525000Y-60955262D01*
X82530443Y-60900000D01*
X82525000Y-60844739D01*
X82525000Y-58144736D01*
X82508722Y-57979462D01*
X82444393Y-57767398D01*
X82339929Y-57571960D01*
X82199344Y-57400656D01*
X82028040Y-57260071D01*
X81832601Y-57155607D01*
X81620537Y-57091278D01*
X81400000Y-57069557D01*
X81179462Y-57091278D01*
X80967398Y-57155607D01*
X80771960Y-57260071D01*
X80600656Y-57400656D01*
X80460071Y-57571960D01*
X80355607Y-57767399D01*
X80291278Y-57979463D01*
X80275000Y-58144737D01*
X80275001Y-60434009D01*
X79534011Y-61175000D01*
X39665990Y-61175000D01*
X39225000Y-60734011D01*
X39225000Y-59299046D01*
X58425010Y-59299046D01*
X58425010Y-59500954D01*
X58464400Y-59698982D01*
X58541666Y-59885520D01*
X58653840Y-60053400D01*
X58796610Y-60196170D01*
X58964490Y-60308344D01*
X59151028Y-60385610D01*
X59349056Y-60425000D01*
X59550964Y-60425000D01*
X59748992Y-60385610D01*
X59888535Y-60327810D01*
X60028078Y-60385610D01*
X60226106Y-60425000D01*
X60428014Y-60425000D01*
X60626042Y-60385610D01*
X60812580Y-60308344D01*
X60980460Y-60196170D01*
X61123230Y-60053400D01*
X61235404Y-59885520D01*
X61312670Y-59698982D01*
X61352060Y-59500954D01*
X61352060Y-59299046D01*
X61312670Y-59101018D01*
X61235404Y-58914480D01*
X61123230Y-58746600D01*
X60980460Y-58603830D01*
X60812580Y-58491656D01*
X60626042Y-58414390D01*
X60428014Y-58375000D01*
X60226106Y-58375000D01*
X60028078Y-58414390D01*
X59888535Y-58472190D01*
X59748992Y-58414390D01*
X59550964Y-58375000D01*
X59349056Y-58375000D01*
X59151028Y-58414390D01*
X58964490Y-58491656D01*
X58796610Y-58603830D01*
X58653840Y-58746600D01*
X58541666Y-58914480D01*
X58464400Y-59101018D01*
X58425010Y-59299046D01*
X39225000Y-59299046D01*
X39225000Y-56799046D01*
X52875000Y-56799046D01*
X52875000Y-57000954D01*
X52914390Y-57198982D01*
X52976943Y-57350000D01*
X52914390Y-57501018D01*
X52875000Y-57699046D01*
X52875000Y-57900954D01*
X52914390Y-58098982D01*
X52991656Y-58285520D01*
X53103830Y-58453400D01*
X53246600Y-58596170D01*
X53414480Y-58708344D01*
X53601018Y-58785610D01*
X53799046Y-58825000D01*
X54000954Y-58825000D01*
X54198982Y-58785610D01*
X54385520Y-58708344D01*
X54553400Y-58596170D01*
X54696170Y-58453400D01*
X54808344Y-58285520D01*
X54885610Y-58098982D01*
X54925000Y-57900954D01*
X54925000Y-57699046D01*
X54885610Y-57501018D01*
X54823057Y-57350000D01*
X54885610Y-57198982D01*
X54925000Y-57000954D01*
X54925000Y-56799046D01*
X54885610Y-56601018D01*
X54884794Y-56599046D01*
X67775000Y-56599046D01*
X67775000Y-56800954D01*
X67814390Y-56998982D01*
X67891656Y-57185520D01*
X68003830Y-57353400D01*
X68146600Y-57496170D01*
X68314480Y-57608344D01*
X68501018Y-57685610D01*
X68699046Y-57725000D01*
X68900954Y-57725000D01*
X69098982Y-57685610D01*
X69285520Y-57608344D01*
X69450000Y-57498442D01*
X69614480Y-57608344D01*
X69801018Y-57685610D01*
X69999046Y-57725000D01*
X70017656Y-57725000D01*
X70023497Y-57733742D01*
X70166267Y-57876512D01*
X70334147Y-57988686D01*
X70520685Y-58065952D01*
X70718713Y-58105342D01*
X70920621Y-58105342D01*
X71118649Y-58065952D01*
X71305187Y-57988686D01*
X71473067Y-57876512D01*
X71615837Y-57733742D01*
X71728011Y-57565862D01*
X71805277Y-57379324D01*
X71841136Y-57199046D01*
X72775000Y-57199046D01*
X72775000Y-57400954D01*
X72814390Y-57598982D01*
X72891656Y-57785520D01*
X73003830Y-57953400D01*
X73146600Y-58096170D01*
X73314480Y-58208344D01*
X73501018Y-58285610D01*
X73699046Y-58325000D01*
X73900954Y-58325000D01*
X74098982Y-58285610D01*
X74285520Y-58208344D01*
X74453400Y-58096170D01*
X74596170Y-57953400D01*
X74708344Y-57785520D01*
X74785610Y-57598982D01*
X74825000Y-57400954D01*
X74825000Y-57199046D01*
X74785610Y-57001018D01*
X74708344Y-56814480D01*
X74596170Y-56646600D01*
X74575000Y-56625430D01*
X74575000Y-55974556D01*
X74696614Y-56096170D01*
X74864494Y-56208344D01*
X75051032Y-56285610D01*
X75249060Y-56325000D01*
X75450968Y-56325000D01*
X75648996Y-56285610D01*
X75835534Y-56208344D01*
X76003414Y-56096170D01*
X76054584Y-56045000D01*
X88534315Y-56045000D01*
X88557002Y-56275340D01*
X88624189Y-56496829D01*
X88733296Y-56700953D01*
X88880130Y-56879870D01*
X89059047Y-57026704D01*
X89263171Y-57135811D01*
X89484660Y-57202998D01*
X89657280Y-57220000D01*
X90172720Y-57220000D01*
X90345340Y-57202998D01*
X90566829Y-57135811D01*
X90770953Y-57026704D01*
X90949870Y-56879870D01*
X91096704Y-56700953D01*
X91205811Y-56496829D01*
X91272998Y-56275340D01*
X91295685Y-56045000D01*
X91272998Y-55814660D01*
X91205811Y-55593171D01*
X91096704Y-55389047D01*
X90949870Y-55210130D01*
X90770953Y-55063296D01*
X90566829Y-54954189D01*
X90345340Y-54887002D01*
X90172720Y-54870000D01*
X89657280Y-54870000D01*
X89484660Y-54887002D01*
X89263171Y-54954189D01*
X89059047Y-55063296D01*
X88880130Y-55210130D01*
X88733296Y-55389047D01*
X88624189Y-55593171D01*
X88557002Y-55814660D01*
X88534315Y-56045000D01*
X76054584Y-56045000D01*
X76146184Y-55953400D01*
X76258358Y-55785520D01*
X76335624Y-55598982D01*
X76375014Y-55400954D01*
X76375014Y-55321000D01*
X79596968Y-52099046D01*
X85975000Y-52099046D01*
X85975000Y-52300954D01*
X86014390Y-52498982D01*
X86091656Y-52685520D01*
X86203830Y-52853400D01*
X86346600Y-52996170D01*
X86514480Y-53108344D01*
X86701018Y-53185610D01*
X86899046Y-53225000D01*
X87100954Y-53225000D01*
X87298982Y-53185610D01*
X87485520Y-53108344D01*
X87653400Y-52996170D01*
X87796170Y-52853400D01*
X87908344Y-52685520D01*
X87985610Y-52498982D01*
X88025000Y-52300954D01*
X88025000Y-52099046D01*
X87985610Y-51901018D01*
X87908344Y-51714480D01*
X87796170Y-51546600D01*
X87653400Y-51403830D01*
X87485520Y-51291656D01*
X87298982Y-51214390D01*
X87251776Y-51205000D01*
X88534315Y-51205000D01*
X88557002Y-51435340D01*
X88624189Y-51656829D01*
X88733296Y-51860953D01*
X88880130Y-52039870D01*
X89059047Y-52186704D01*
X89263171Y-52295811D01*
X89484660Y-52362998D01*
X89657280Y-52380000D01*
X90172720Y-52380000D01*
X90345340Y-52362998D01*
X90566829Y-52295811D01*
X90770953Y-52186704D01*
X90949870Y-52039870D01*
X91096704Y-51860953D01*
X91205811Y-51656829D01*
X91272998Y-51435340D01*
X91295685Y-51205000D01*
X91272998Y-50974660D01*
X91205811Y-50753171D01*
X91096704Y-50549047D01*
X90949870Y-50370130D01*
X90770953Y-50223296D01*
X90566829Y-50114189D01*
X90345340Y-50047002D01*
X90172720Y-50030000D01*
X89657280Y-50030000D01*
X89484660Y-50047002D01*
X89263171Y-50114189D01*
X89059047Y-50223296D01*
X88880130Y-50370130D01*
X88733296Y-50549047D01*
X88624189Y-50753171D01*
X88557002Y-50974660D01*
X88534315Y-51205000D01*
X87251776Y-51205000D01*
X87100954Y-51175000D01*
X86899046Y-51175000D01*
X86701018Y-51214390D01*
X86514480Y-51291656D01*
X86346600Y-51403830D01*
X86203830Y-51546600D01*
X86091656Y-51714480D01*
X86014390Y-51901018D01*
X85975000Y-52099046D01*
X79596968Y-52099046D01*
X84739984Y-46956030D01*
X89940747Y-46956030D01*
X90021198Y-47204591D01*
X90286773Y-47331845D01*
X90572073Y-47404842D01*
X90866131Y-47420778D01*
X91157648Y-47379040D01*
X91435420Y-47281231D01*
X91578802Y-47204591D01*
X91659253Y-46956030D01*
X90800000Y-46096777D01*
X89940747Y-46956030D01*
X84739984Y-46956030D01*
X85709883Y-45986131D01*
X89299222Y-45986131D01*
X89340960Y-46277648D01*
X89438769Y-46555420D01*
X89515409Y-46698802D01*
X89763970Y-46779253D01*
X90623223Y-45920000D01*
X90976777Y-45920000D01*
X91836030Y-46779253D01*
X92084591Y-46698802D01*
X92211845Y-46433227D01*
X92284842Y-46147927D01*
X92300778Y-45853869D01*
X92259040Y-45562352D01*
X92161231Y-45284580D01*
X92084591Y-45141198D01*
X91836030Y-45060747D01*
X90976777Y-45920000D01*
X90623223Y-45920000D01*
X89763970Y-45060747D01*
X89515409Y-45141198D01*
X89388155Y-45406773D01*
X89315158Y-45692073D01*
X89299222Y-45986131D01*
X85709883Y-45986131D01*
X85874923Y-45821092D01*
X85874927Y-45821087D01*
X87541015Y-44155000D01*
X89519817Y-44155000D01*
X89638757Y-44333007D01*
X89846993Y-44541243D01*
X90015281Y-44653689D01*
X89940747Y-44883970D01*
X90800000Y-45743223D01*
X91659253Y-44883970D01*
X91584719Y-44653689D01*
X91753007Y-44541243D01*
X91961243Y-44333007D01*
X92124852Y-44088148D01*
X92237548Y-43816076D01*
X92295000Y-43527245D01*
X92295000Y-43232755D01*
X92237548Y-42943924D01*
X92124852Y-42671852D01*
X91961243Y-42426993D01*
X91753007Y-42218757D01*
X91590240Y-42110000D01*
X91753007Y-42001243D01*
X91961243Y-41793007D01*
X92124852Y-41548148D01*
X92237548Y-41276076D01*
X92295000Y-40987245D01*
X92295000Y-40692755D01*
X92237548Y-40403924D01*
X92124852Y-40131852D01*
X91961243Y-39886993D01*
X91788219Y-39713969D01*
X91907804Y-39650050D01*
X92040857Y-39540857D01*
X92150050Y-39407804D01*
X92231188Y-39256006D01*
X92281153Y-39091295D01*
X92298024Y-38920001D01*
X92298024Y-38292965D01*
X93062667Y-37528323D01*
X93228040Y-37439929D01*
X93399344Y-37299344D01*
X93539929Y-37128040D01*
X93644393Y-36932602D01*
X93708722Y-36720538D01*
X93730443Y-36500000D01*
X93708722Y-36279462D01*
X93644393Y-36067398D01*
X93539929Y-35871960D01*
X93399344Y-35700656D01*
X93228040Y-35560071D01*
X93032602Y-35455607D01*
X92820538Y-35391278D01*
X92655264Y-35375000D01*
X92555261Y-35375000D01*
X92499999Y-35369557D01*
X92444738Y-35375000D01*
X92444736Y-35375000D01*
X92279462Y-35391278D01*
X92067398Y-35455607D01*
X91871960Y-35560071D01*
X91700656Y-35700656D01*
X91665426Y-35743584D01*
X90607035Y-36801976D01*
X90179999Y-36801976D01*
X90008705Y-36818847D01*
X89843994Y-36868812D01*
X89692196Y-36949950D01*
X89559143Y-37059143D01*
X89449950Y-37192196D01*
X89368812Y-37343994D01*
X89318847Y-37508705D01*
X89301976Y-37679999D01*
X89301976Y-38920001D01*
X89318847Y-39091295D01*
X89368812Y-39256006D01*
X89449950Y-39407804D01*
X89559143Y-39540857D01*
X89692196Y-39650050D01*
X89811781Y-39713969D01*
X89638757Y-39886993D01*
X89519817Y-40065000D01*
X87798062Y-40065000D01*
X87759999Y-40061251D01*
X87721936Y-40065000D01*
X87721935Y-40065000D01*
X87608074Y-40076214D01*
X87461986Y-40120530D01*
X87327350Y-40192494D01*
X87209341Y-40289341D01*
X87185072Y-40318913D01*
X73278919Y-54225067D01*
X73249341Y-54249341D01*
X73182146Y-54331219D01*
X73152494Y-54367350D01*
X73114029Y-54439314D01*
X73080530Y-54501987D01*
X73036214Y-54648075D01*
X73025000Y-54761935D01*
X73021251Y-54800000D01*
X73025000Y-54838063D01*
X73025001Y-56625429D01*
X73003830Y-56646600D01*
X72891656Y-56814480D01*
X72814390Y-57001018D01*
X72775000Y-57199046D01*
X71841136Y-57199046D01*
X71844667Y-57181296D01*
X71844667Y-56979388D01*
X71805277Y-56781360D01*
X71728011Y-56594822D01*
X71615837Y-56426942D01*
X71473067Y-56284172D01*
X71305187Y-56171998D01*
X71118649Y-56094732D01*
X70920621Y-56055342D01*
X70902011Y-56055342D01*
X70896170Y-56046600D01*
X70753400Y-55903830D01*
X70585520Y-55791656D01*
X70398982Y-55714390D01*
X70200954Y-55675000D01*
X69999046Y-55675000D01*
X69801018Y-55714390D01*
X69614480Y-55791656D01*
X69450000Y-55901558D01*
X69285520Y-55791656D01*
X69098982Y-55714390D01*
X68900954Y-55675000D01*
X68699046Y-55675000D01*
X68501018Y-55714390D01*
X68314480Y-55791656D01*
X68146600Y-55903830D01*
X68003830Y-56046600D01*
X67891656Y-56214480D01*
X67814390Y-56401018D01*
X67775000Y-56599046D01*
X54884794Y-56599046D01*
X54808344Y-56414480D01*
X54696170Y-56246600D01*
X54553400Y-56103830D01*
X54385520Y-55991656D01*
X54198982Y-55914390D01*
X54000954Y-55875000D01*
X53799046Y-55875000D01*
X53601018Y-55914390D01*
X53414480Y-55991656D01*
X53246600Y-56103830D01*
X53103830Y-56246600D01*
X52991656Y-56414480D01*
X52914390Y-56601018D01*
X52875000Y-56799046D01*
X39225000Y-56799046D01*
X39225000Y-52255261D01*
X39230443Y-52199999D01*
X39225000Y-52144736D01*
X39208722Y-51979462D01*
X39144393Y-51767398D01*
X39039929Y-51571960D01*
X38899344Y-51400656D01*
X38856416Y-51365426D01*
X34819535Y-47328545D01*
X54790500Y-47328545D01*
X54790500Y-47530453D01*
X54829890Y-47728481D01*
X54907156Y-47915019D01*
X55019330Y-48082899D01*
X55162100Y-48225669D01*
X55329980Y-48337843D01*
X55516518Y-48415109D01*
X55714546Y-48454499D01*
X55916454Y-48454499D01*
X56114482Y-48415109D01*
X56301020Y-48337843D01*
X56468900Y-48225669D01*
X56611670Y-48082899D01*
X56723844Y-47915019D01*
X56801110Y-47728481D01*
X56840500Y-47530453D01*
X56840500Y-47328545D01*
X56801110Y-47130517D01*
X56723844Y-46943979D01*
X56611670Y-46776099D01*
X56468900Y-46633329D01*
X56301020Y-46521155D01*
X56114482Y-46443889D01*
X55916454Y-46404499D01*
X55714546Y-46404499D01*
X55516518Y-46443889D01*
X55329980Y-46521155D01*
X55162100Y-46633329D01*
X55019330Y-46776099D01*
X54907156Y-46943979D01*
X54829890Y-47130517D01*
X54790500Y-47328545D01*
X34819535Y-47328545D01*
X34725000Y-47234011D01*
X34725000Y-45599046D01*
X68975000Y-45599046D01*
X68975000Y-45800954D01*
X69014390Y-45998982D01*
X69091656Y-46185520D01*
X69203830Y-46353400D01*
X69346600Y-46496170D01*
X69514480Y-46608344D01*
X69701018Y-46685610D01*
X69899046Y-46725000D01*
X70100954Y-46725000D01*
X70298982Y-46685610D01*
X70485520Y-46608344D01*
X70653400Y-46496170D01*
X70796170Y-46353400D01*
X70908344Y-46185520D01*
X70985610Y-45998982D01*
X71025000Y-45800954D01*
X71025000Y-45599046D01*
X70985610Y-45401018D01*
X70908344Y-45214480D01*
X70796170Y-45046600D01*
X70653400Y-44903830D01*
X70485520Y-44791656D01*
X70298982Y-44714390D01*
X70100954Y-44675000D01*
X69899046Y-44675000D01*
X69701018Y-44714390D01*
X69514480Y-44791656D01*
X69346600Y-44903830D01*
X69203830Y-45046600D01*
X69091656Y-45214480D01*
X69014390Y-45401018D01*
X68975000Y-45599046D01*
X34725000Y-45599046D01*
X34725000Y-45544736D01*
X34708722Y-45379462D01*
X34644393Y-45167398D01*
X34539929Y-44971960D01*
X34399344Y-44800656D01*
X34228040Y-44660071D01*
X34032602Y-44555607D01*
X33820538Y-44491278D01*
X33600000Y-44469557D01*
X33379463Y-44491278D01*
X33167399Y-44555607D01*
X32971961Y-44660071D01*
X32800657Y-44800656D01*
X32660072Y-44971960D01*
X32555608Y-45167398D01*
X32491279Y-45379462D01*
X32475001Y-45544736D01*
X32475000Y-47644738D01*
X32469557Y-47700000D01*
X25650000Y-47700000D01*
X25650000Y-41399046D01*
X40175000Y-41399046D01*
X40175000Y-41600954D01*
X40214390Y-41798982D01*
X40291656Y-41985520D01*
X40301331Y-42000000D01*
X40291656Y-42014480D01*
X40214390Y-42201018D01*
X40175000Y-42399046D01*
X40175000Y-42600954D01*
X40214390Y-42798982D01*
X40291656Y-42985520D01*
X40403830Y-43153400D01*
X40546600Y-43296170D01*
X40714480Y-43408344D01*
X40901018Y-43485610D01*
X41099046Y-43525000D01*
X41300954Y-43525000D01*
X41498982Y-43485610D01*
X41685520Y-43408344D01*
X41853400Y-43296170D01*
X41996170Y-43153400D01*
X42108344Y-42985520D01*
X42185610Y-42798982D01*
X42225000Y-42600954D01*
X42225000Y-42399046D01*
X42185610Y-42201018D01*
X42121326Y-42045820D01*
X58490019Y-42045820D01*
X58490019Y-42247728D01*
X58529409Y-42445756D01*
X58606675Y-42632294D01*
X58718849Y-42800174D01*
X58861619Y-42942944D01*
X59029499Y-43055118D01*
X59216037Y-43132384D01*
X59414065Y-43171774D01*
X59615973Y-43171774D01*
X59814001Y-43132384D01*
X60000539Y-43055118D01*
X60168419Y-42942944D01*
X60311189Y-42800174D01*
X60423363Y-42632294D01*
X60500629Y-42445756D01*
X60540019Y-42247728D01*
X60540019Y-42045820D01*
X60500629Y-41847792D01*
X60429231Y-41675421D01*
X60587430Y-41740949D01*
X60785458Y-41780339D01*
X60987366Y-41780339D01*
X61185394Y-41740949D01*
X61371932Y-41663683D01*
X61539812Y-41551509D01*
X61560982Y-41530339D01*
X72506598Y-41530339D01*
X72544661Y-41534088D01*
X72582724Y-41530339D01*
X72582726Y-41530339D01*
X72696587Y-41519125D01*
X72842675Y-41474809D01*
X72977311Y-41402845D01*
X73095320Y-41305998D01*
X73119593Y-41276421D01*
X76721015Y-37675000D01*
X77661937Y-37675000D01*
X77700000Y-37678749D01*
X77738063Y-37675000D01*
X77738065Y-37675000D01*
X77851926Y-37663786D01*
X77998014Y-37619470D01*
X78132650Y-37547506D01*
X78250659Y-37450659D01*
X78274932Y-37421082D01*
X78594919Y-37101095D01*
X78614390Y-37198982D01*
X78691656Y-37385520D01*
X78803830Y-37553400D01*
X78946600Y-37696170D01*
X79114480Y-37808344D01*
X79301018Y-37885610D01*
X79499046Y-37925000D01*
X79700954Y-37925000D01*
X79898982Y-37885610D01*
X80085520Y-37808344D01*
X80253400Y-37696170D01*
X80396170Y-37553400D01*
X80508344Y-37385520D01*
X80585610Y-37198982D01*
X80625000Y-37000954D01*
X80625000Y-36799046D01*
X80585610Y-36601018D01*
X80508344Y-36414480D01*
X80396170Y-36246600D01*
X80253400Y-36103830D01*
X80085520Y-35991656D01*
X79898982Y-35914390D01*
X79801095Y-35894919D01*
X80521088Y-35174927D01*
X80550659Y-35150659D01*
X80612658Y-35075112D01*
X80647506Y-35032651D01*
X80693500Y-34946600D01*
X80719470Y-34898014D01*
X80763786Y-34751926D01*
X80773387Y-34654439D01*
X80805920Y-34694080D01*
X80901089Y-34772183D01*
X81009666Y-34830219D01*
X81127479Y-34865957D01*
X81250000Y-34878024D01*
X82750000Y-34878024D01*
X82866835Y-34866517D01*
X82874339Y-34875661D01*
X83137005Y-35091225D01*
X83436677Y-35251403D01*
X83761841Y-35350040D01*
X84100000Y-35383346D01*
X84438158Y-35350040D01*
X84763322Y-35251403D01*
X85062994Y-35091225D01*
X85325661Y-34875661D01*
X85541225Y-34612995D01*
X85701403Y-34313323D01*
X85800040Y-33988159D01*
X85825000Y-33734738D01*
X85825000Y-32694175D01*
X87482602Y-32694175D01*
X87843165Y-33181292D01*
X88505247Y-33540942D01*
X89224771Y-33764516D01*
X89974087Y-33843421D01*
X90724399Y-33774626D01*
X91446873Y-33560774D01*
X92113744Y-33210084D01*
X92156835Y-33181292D01*
X92517398Y-32694175D01*
X90000000Y-30176777D01*
X87482602Y-32694175D01*
X85825000Y-32694175D01*
X85825000Y-32265262D01*
X85800040Y-32011841D01*
X85701403Y-31686677D01*
X85541225Y-31387005D01*
X85325661Y-31124339D01*
X85062995Y-30908775D01*
X84763323Y-30748597D01*
X84438159Y-30649960D01*
X84100000Y-30616654D01*
X83761842Y-30649960D01*
X83436678Y-30748597D01*
X83137006Y-30908775D01*
X82874340Y-31124339D01*
X82866836Y-31133483D01*
X82750000Y-31121976D01*
X81250000Y-31121976D01*
X81127479Y-31134043D01*
X81009666Y-31169781D01*
X80901089Y-31227817D01*
X80805920Y-31305920D01*
X80768296Y-31351765D01*
X80767605Y-31351198D01*
X80528736Y-31223519D01*
X80269547Y-31144895D01*
X80000000Y-31118347D01*
X79730454Y-31144895D01*
X79471265Y-31223519D01*
X79232396Y-31351198D01*
X79023025Y-31523024D01*
X78997253Y-31554427D01*
X78883884Y-31439340D01*
X78659976Y-31287283D01*
X78410705Y-31181830D01*
X78337668Y-31167107D01*
X78125000Y-31287677D01*
X78125000Y-32875000D01*
X78145000Y-32875000D01*
X78145000Y-33125000D01*
X78125000Y-33125000D01*
X78125000Y-34712323D01*
X78337668Y-34832893D01*
X78410705Y-34818170D01*
X78659976Y-34712717D01*
X78883884Y-34560660D01*
X78997253Y-34445573D01*
X79023024Y-34476975D01*
X79025213Y-34478772D01*
X77378986Y-36125000D01*
X76438063Y-36125000D01*
X76400000Y-36121251D01*
X76361937Y-36125000D01*
X76361935Y-36125000D01*
X76248074Y-36136214D01*
X76135987Y-36170216D01*
X76101985Y-36180530D01*
X75967349Y-36252494D01*
X75934489Y-36279462D01*
X75849341Y-36349341D01*
X75825072Y-36378913D01*
X72223647Y-39980339D01*
X61560982Y-39980339D01*
X61539812Y-39959169D01*
X61371932Y-39846995D01*
X61185394Y-39769729D01*
X60987366Y-39730339D01*
X60810418Y-39730339D01*
X60771170Y-39671600D01*
X60628400Y-39528830D01*
X60460520Y-39416656D01*
X60273982Y-39339390D01*
X60075954Y-39300000D01*
X59874046Y-39300000D01*
X59676018Y-39339390D01*
X59489480Y-39416656D01*
X59321600Y-39528830D01*
X59178830Y-39671600D01*
X59066656Y-39839480D01*
X58989390Y-40026018D01*
X58950000Y-40224046D01*
X58950000Y-40425954D01*
X58989390Y-40623982D01*
X59066656Y-40810520D01*
X59178830Y-40978400D01*
X59321600Y-41121170D01*
X59343508Y-41135809D01*
X59216037Y-41161164D01*
X59029499Y-41238430D01*
X58861619Y-41350604D01*
X58718849Y-41493374D01*
X58606675Y-41661254D01*
X58529409Y-41847792D01*
X58490019Y-42045820D01*
X42121326Y-42045820D01*
X42108344Y-42014480D01*
X42098669Y-42000000D01*
X42108344Y-41985520D01*
X42185610Y-41798982D01*
X42225000Y-41600954D01*
X42225000Y-41399046D01*
X42185610Y-41201018D01*
X42108344Y-41014480D01*
X41996170Y-40846600D01*
X41853400Y-40703830D01*
X41685520Y-40591656D01*
X41498982Y-40514390D01*
X41300954Y-40475000D01*
X41099046Y-40475000D01*
X40901018Y-40514390D01*
X40714480Y-40591656D01*
X40546600Y-40703830D01*
X40403830Y-40846600D01*
X40291656Y-41014480D01*
X40214390Y-41201018D01*
X40175000Y-41399046D01*
X25650000Y-41399046D01*
X25650000Y-36708546D01*
X50384500Y-36708546D01*
X50384500Y-36910454D01*
X50423890Y-37108482D01*
X50501156Y-37295020D01*
X50613330Y-37462900D01*
X50756100Y-37605670D01*
X50923980Y-37717844D01*
X51110518Y-37795110D01*
X51308546Y-37834500D01*
X51510454Y-37834500D01*
X51708482Y-37795110D01*
X51895020Y-37717844D01*
X52062900Y-37605670D01*
X52205670Y-37462900D01*
X52317844Y-37295020D01*
X52395110Y-37108482D01*
X52396986Y-37099046D01*
X58375000Y-37099046D01*
X58375000Y-37300954D01*
X58414390Y-37498982D01*
X58491656Y-37685520D01*
X58603830Y-37853400D01*
X58746600Y-37996170D01*
X58914480Y-38108344D01*
X59101018Y-38185610D01*
X59299046Y-38225000D01*
X59500954Y-38225000D01*
X59698982Y-38185610D01*
X59885520Y-38108344D01*
X60053400Y-37996170D01*
X60074570Y-37975000D01*
X63790738Y-37975000D01*
X63944616Y-38077818D01*
X64131154Y-38155084D01*
X64329182Y-38194474D01*
X64531090Y-38194474D01*
X64729118Y-38155084D01*
X64751984Y-38145613D01*
X64739390Y-38176018D01*
X64700000Y-38374046D01*
X64700000Y-38575954D01*
X64739390Y-38773982D01*
X64816656Y-38960520D01*
X64928830Y-39128400D01*
X65071600Y-39271170D01*
X65239480Y-39383344D01*
X65426018Y-39460610D01*
X65624046Y-39500000D01*
X65825954Y-39500000D01*
X66023982Y-39460610D01*
X66210520Y-39383344D01*
X66378400Y-39271170D01*
X66521170Y-39128400D01*
X66633344Y-38960520D01*
X66710610Y-38773982D01*
X66750000Y-38575954D01*
X66750000Y-38374046D01*
X66710610Y-38176018D01*
X66633344Y-37989480D01*
X66521170Y-37821600D01*
X66378400Y-37678830D01*
X66210520Y-37566656D01*
X66023982Y-37489390D01*
X65825954Y-37450000D01*
X65624046Y-37450000D01*
X65426018Y-37489390D01*
X65403152Y-37498861D01*
X65415746Y-37468456D01*
X65455136Y-37270428D01*
X65455136Y-37068520D01*
X65415746Y-36870492D01*
X65338480Y-36683954D01*
X65226306Y-36516074D01*
X65083536Y-36373304D01*
X64915656Y-36261130D01*
X64729118Y-36183864D01*
X64531090Y-36144474D01*
X64329182Y-36144474D01*
X64131154Y-36183864D01*
X63944616Y-36261130D01*
X63776736Y-36373304D01*
X63725040Y-36425000D01*
X60074570Y-36425000D01*
X60053400Y-36403830D01*
X59885520Y-36291656D01*
X59698982Y-36214390D01*
X59500954Y-36175000D01*
X59299046Y-36175000D01*
X59101018Y-36214390D01*
X58914480Y-36291656D01*
X58746600Y-36403830D01*
X58603830Y-36546600D01*
X58491656Y-36714480D01*
X58414390Y-36901018D01*
X58375000Y-37099046D01*
X52396986Y-37099046D01*
X52434500Y-36910454D01*
X52434500Y-36708546D01*
X52395110Y-36510518D01*
X52317844Y-36323980D01*
X52205670Y-36156100D01*
X52062900Y-36013330D01*
X51895020Y-35901156D01*
X51708482Y-35823890D01*
X51510454Y-35784500D01*
X51308546Y-35784500D01*
X51110518Y-35823890D01*
X50923980Y-35901156D01*
X50756100Y-36013330D01*
X50613330Y-36156100D01*
X50501156Y-36323980D01*
X50423890Y-36510518D01*
X50384500Y-36708546D01*
X25650000Y-36708546D01*
X25650000Y-35391096D01*
X40300942Y-35391096D01*
X40300942Y-35593004D01*
X40340332Y-35791032D01*
X40417598Y-35977570D01*
X40529772Y-36145450D01*
X40672542Y-36288220D01*
X40840422Y-36400394D01*
X41026960Y-36477660D01*
X41224988Y-36517050D01*
X41426896Y-36517050D01*
X41624924Y-36477660D01*
X41811462Y-36400394D01*
X41979342Y-36288220D01*
X42122112Y-36145450D01*
X42234286Y-35977570D01*
X42311552Y-35791032D01*
X42350942Y-35593004D01*
X42350942Y-35391096D01*
X42311552Y-35193068D01*
X42234286Y-35006530D01*
X42122112Y-34838650D01*
X41979342Y-34695880D01*
X41811462Y-34583706D01*
X41624924Y-34506440D01*
X41587752Y-34499046D01*
X45775000Y-34499046D01*
X45775000Y-34700954D01*
X45814390Y-34898982D01*
X45891656Y-35085520D01*
X45901331Y-35100000D01*
X45891656Y-35114480D01*
X45814390Y-35301018D01*
X45775000Y-35499046D01*
X45775000Y-35700954D01*
X45814390Y-35898982D01*
X45891656Y-36085520D01*
X46003830Y-36253400D01*
X46146600Y-36396170D01*
X46314480Y-36508344D01*
X46501018Y-36585610D01*
X46699046Y-36625000D01*
X46900954Y-36625000D01*
X47098982Y-36585610D01*
X47285520Y-36508344D01*
X47300000Y-36498669D01*
X47314480Y-36508344D01*
X47501018Y-36585610D01*
X47699046Y-36625000D01*
X47900954Y-36625000D01*
X48098982Y-36585610D01*
X48285520Y-36508344D01*
X48300000Y-36498669D01*
X48314480Y-36508344D01*
X48501018Y-36585610D01*
X48699046Y-36625000D01*
X48900954Y-36625000D01*
X49098982Y-36585610D01*
X49285520Y-36508344D01*
X49453400Y-36396170D01*
X49596170Y-36253400D01*
X49708344Y-36085520D01*
X49785610Y-35898982D01*
X49825000Y-35700954D01*
X49825000Y-35499046D01*
X49785610Y-35301018D01*
X49708344Y-35114480D01*
X49698669Y-35100000D01*
X49708344Y-35085520D01*
X49785610Y-34898982D01*
X49825000Y-34700954D01*
X49825000Y-34499046D01*
X49785610Y-34301018D01*
X49708344Y-34114480D01*
X49698669Y-34100000D01*
X49708344Y-34085520D01*
X49785610Y-33898982D01*
X49825000Y-33700954D01*
X49825000Y-33499046D01*
X49785610Y-33301018D01*
X49708344Y-33114480D01*
X49698669Y-33100000D01*
X49708344Y-33085520D01*
X49728843Y-33036030D01*
X54520747Y-33036030D01*
X54601198Y-33284591D01*
X54866773Y-33411845D01*
X55152073Y-33484842D01*
X55446131Y-33500778D01*
X55737648Y-33459040D01*
X56015420Y-33361231D01*
X56158802Y-33284591D01*
X56239253Y-33036030D01*
X55380000Y-32176777D01*
X54520747Y-33036030D01*
X49728843Y-33036030D01*
X49785610Y-32898982D01*
X49825000Y-32700954D01*
X49825000Y-32499046D01*
X49785610Y-32301018D01*
X49708344Y-32114480D01*
X49698669Y-32100000D01*
X49708344Y-32085520D01*
X49716375Y-32066131D01*
X53879222Y-32066131D01*
X53920960Y-32357648D01*
X54018769Y-32635420D01*
X54095409Y-32778802D01*
X54343970Y-32859253D01*
X55203223Y-32000000D01*
X55556777Y-32000000D01*
X56416030Y-32859253D01*
X56646311Y-32784719D01*
X56758757Y-32953007D01*
X56966993Y-33161243D01*
X57211852Y-33324852D01*
X57483924Y-33437548D01*
X57772755Y-33495000D01*
X58067245Y-33495000D01*
X58356076Y-33437548D01*
X58628148Y-33324852D01*
X58873007Y-33161243D01*
X59081243Y-32953007D01*
X59190000Y-32790240D01*
X59298757Y-32953007D01*
X59506993Y-33161243D01*
X59751852Y-33324852D01*
X60023924Y-33437548D01*
X60312755Y-33495000D01*
X60607245Y-33495000D01*
X60896076Y-33437548D01*
X61168148Y-33324852D01*
X61413007Y-33161243D01*
X61586031Y-32988219D01*
X61649950Y-33107804D01*
X61759143Y-33240857D01*
X61892196Y-33350050D01*
X62043994Y-33431188D01*
X62208705Y-33481153D01*
X62379999Y-33498024D01*
X63620001Y-33498024D01*
X63791295Y-33481153D01*
X63956006Y-33431188D01*
X64107804Y-33350050D01*
X64240857Y-33240857D01*
X64350050Y-33107804D01*
X64431188Y-32956006D01*
X64481153Y-32791295D01*
X64498024Y-32620001D01*
X64498024Y-32265262D01*
X74175000Y-32265262D01*
X74175000Y-33734737D01*
X74199960Y-33988158D01*
X74298597Y-34313322D01*
X74458775Y-34612994D01*
X74674339Y-34875661D01*
X74937005Y-35091225D01*
X75236677Y-35251403D01*
X75561841Y-35350040D01*
X75900000Y-35383346D01*
X76238158Y-35350040D01*
X76563322Y-35251403D01*
X76862994Y-35091225D01*
X77125661Y-34875661D01*
X77288244Y-34677553D01*
X77340024Y-34712717D01*
X77589295Y-34818170D01*
X77662332Y-34832893D01*
X77875000Y-34712323D01*
X77875000Y-33125000D01*
X77855000Y-33125000D01*
X77855000Y-32875000D01*
X77875000Y-32875000D01*
X77875000Y-31287677D01*
X77662332Y-31167107D01*
X77589295Y-31181830D01*
X77340024Y-31287283D01*
X77288244Y-31322447D01*
X77125661Y-31124339D01*
X76862995Y-30908775D01*
X76563323Y-30748597D01*
X76238159Y-30649960D01*
X75900000Y-30616654D01*
X75561842Y-30649960D01*
X75236678Y-30748597D01*
X74937006Y-30908775D01*
X74674340Y-31124339D01*
X74458776Y-31387005D01*
X74298598Y-31686677D01*
X74199960Y-32011841D01*
X74175000Y-32265262D01*
X64498024Y-32265262D01*
X64498024Y-31379999D01*
X64481153Y-31208705D01*
X64431188Y-31043994D01*
X64350050Y-30892196D01*
X64240857Y-30759143D01*
X64107804Y-30649950D01*
X63956006Y-30568812D01*
X63791295Y-30518847D01*
X63620001Y-30501976D01*
X62379999Y-30501976D01*
X62208705Y-30518847D01*
X62043994Y-30568812D01*
X61892196Y-30649950D01*
X61759143Y-30759143D01*
X61649950Y-30892196D01*
X61586031Y-31011781D01*
X61413007Y-30838757D01*
X61168148Y-30675148D01*
X60896076Y-30562452D01*
X60607245Y-30505000D01*
X60312755Y-30505000D01*
X60023924Y-30562452D01*
X59751852Y-30675148D01*
X59506993Y-30838757D01*
X59298757Y-31046993D01*
X59190000Y-31209760D01*
X59081243Y-31046993D01*
X58873007Y-30838757D01*
X58628148Y-30675148D01*
X58356076Y-30562452D01*
X58067245Y-30505000D01*
X57772755Y-30505000D01*
X57483924Y-30562452D01*
X57211852Y-30675148D01*
X56966993Y-30838757D01*
X56758757Y-31046993D01*
X56646311Y-31215281D01*
X56416030Y-31140747D01*
X55556777Y-32000000D01*
X55203223Y-32000000D01*
X54343970Y-31140747D01*
X54095409Y-31221198D01*
X53968155Y-31486773D01*
X53895158Y-31772073D01*
X53879222Y-32066131D01*
X49716375Y-32066131D01*
X49785610Y-31898982D01*
X49825000Y-31700954D01*
X49825000Y-31499046D01*
X49785610Y-31301018D01*
X49708344Y-31114480D01*
X49698669Y-31100000D01*
X49708344Y-31085520D01*
X49758691Y-30963970D01*
X54520747Y-30963970D01*
X55380000Y-31823223D01*
X56239253Y-30963970D01*
X56158802Y-30715409D01*
X55893227Y-30588155D01*
X55607927Y-30515158D01*
X55313869Y-30499222D01*
X55022352Y-30540960D01*
X54744580Y-30638769D01*
X54601198Y-30715409D01*
X54520747Y-30963970D01*
X49758691Y-30963970D01*
X49785610Y-30898982D01*
X49825000Y-30700954D01*
X49825000Y-30499046D01*
X49785610Y-30301018D01*
X49708344Y-30114480D01*
X49614537Y-29974087D01*
X86156579Y-29974087D01*
X86225374Y-30724399D01*
X86439226Y-31446873D01*
X86789916Y-32113744D01*
X86818708Y-32156835D01*
X87305825Y-32517398D01*
X89823223Y-30000000D01*
X90176777Y-30000000D01*
X92694175Y-32517398D01*
X93181292Y-32156835D01*
X93540942Y-31494753D01*
X93764516Y-30775229D01*
X93843421Y-30025913D01*
X93774626Y-29275601D01*
X93560774Y-28553127D01*
X93210084Y-27886256D01*
X93181292Y-27843165D01*
X92694175Y-27482602D01*
X90176777Y-30000000D01*
X89823223Y-30000000D01*
X87305825Y-27482602D01*
X86818708Y-27843165D01*
X86459058Y-28505247D01*
X86235484Y-29224771D01*
X86156579Y-29974087D01*
X49614537Y-29974087D01*
X49596170Y-29946600D01*
X49453400Y-29803830D01*
X49285520Y-29691656D01*
X49098982Y-29614390D01*
X48900954Y-29575000D01*
X48699046Y-29575000D01*
X48501018Y-29614390D01*
X48314480Y-29691656D01*
X48300000Y-29701331D01*
X48285520Y-29691656D01*
X48098982Y-29614390D01*
X47900954Y-29575000D01*
X47699046Y-29575000D01*
X47501018Y-29614390D01*
X47314480Y-29691656D01*
X47146600Y-29803830D01*
X47003830Y-29946600D01*
X46891656Y-30114480D01*
X46814390Y-30301018D01*
X46775000Y-30499046D01*
X46775000Y-30700954D01*
X46814390Y-30898982D01*
X46891656Y-31085520D01*
X46901331Y-31100000D01*
X46891656Y-31114480D01*
X46814390Y-31301018D01*
X46775000Y-31499046D01*
X46775000Y-31700954D01*
X46814390Y-31898982D01*
X46891656Y-32085520D01*
X46901331Y-32100000D01*
X46891656Y-32114480D01*
X46814390Y-32301018D01*
X46775000Y-32499046D01*
X46775000Y-32700954D01*
X46814390Y-32898982D01*
X46891656Y-33085520D01*
X46901331Y-33100000D01*
X46891656Y-33114480D01*
X46814390Y-33301018D01*
X46775000Y-33499046D01*
X46775000Y-33575000D01*
X46699046Y-33575000D01*
X46501018Y-33614390D01*
X46314480Y-33691656D01*
X46146600Y-33803830D01*
X46003830Y-33946600D01*
X45891656Y-34114480D01*
X45814390Y-34301018D01*
X45775000Y-34499046D01*
X41587752Y-34499046D01*
X41426896Y-34467050D01*
X41224988Y-34467050D01*
X41026960Y-34506440D01*
X40840422Y-34583706D01*
X40672542Y-34695880D01*
X40529772Y-34838650D01*
X40417598Y-35006530D01*
X40340332Y-35193068D01*
X40300942Y-35391096D01*
X25650000Y-35391096D01*
X25650000Y-32694175D01*
X27482602Y-32694175D01*
X27843165Y-33181292D01*
X28505247Y-33540942D01*
X29224771Y-33764516D01*
X29974087Y-33843421D01*
X30724399Y-33774626D01*
X31446873Y-33560774D01*
X32113744Y-33210084D01*
X32156835Y-33181292D01*
X32517398Y-32694175D01*
X30000000Y-30176777D01*
X27482602Y-32694175D01*
X25650000Y-32694175D01*
X25650000Y-30028951D01*
X25654896Y-29974087D01*
X26156579Y-29974087D01*
X26225374Y-30724399D01*
X26439226Y-31446873D01*
X26789916Y-32113744D01*
X26818708Y-32156835D01*
X27305825Y-32517398D01*
X29823223Y-30000000D01*
X30176777Y-30000000D01*
X32694175Y-32517398D01*
X33181292Y-32156835D01*
X33540942Y-31494753D01*
X33764516Y-30775229D01*
X33843421Y-30025913D01*
X33774626Y-29275601D01*
X33560774Y-28553127D01*
X33210084Y-27886256D01*
X33181292Y-27843165D01*
X32694175Y-27482602D01*
X30176777Y-30000000D01*
X29823223Y-30000000D01*
X27305825Y-27482602D01*
X26818708Y-27843165D01*
X26459058Y-28505247D01*
X26235484Y-29224771D01*
X26156579Y-29974087D01*
X25654896Y-29974087D01*
X25721292Y-29230136D01*
X25925245Y-28484611D01*
X26257995Y-27786987D01*
X26603745Y-27305825D01*
X27482602Y-27305825D01*
X30000000Y-29823223D01*
X32517398Y-27305825D01*
X87482602Y-27305825D01*
X90000000Y-29823223D01*
X92517398Y-27305825D01*
X92156835Y-26818708D01*
X91494753Y-26459058D01*
X90775229Y-26235484D01*
X90025913Y-26156579D01*
X89275601Y-26225374D01*
X88553127Y-26439226D01*
X87886256Y-26789916D01*
X87843165Y-26818708D01*
X87482602Y-27305825D01*
X32517398Y-27305825D01*
X32156835Y-26818708D01*
X31494753Y-26459058D01*
X30775229Y-26235484D01*
X30025913Y-26156579D01*
X29275601Y-26225374D01*
X28553127Y-26439226D01*
X27886256Y-26789916D01*
X27843165Y-26818708D01*
X27482602Y-27305825D01*
X26603745Y-27305825D01*
X26709026Y-27159311D01*
X27264085Y-26621421D01*
X27905618Y-26190329D01*
X28613354Y-25879655D01*
X29369917Y-25698020D01*
X30023829Y-25650000D01*
X71634649Y-25650000D01*
X71631656Y-25654480D01*
G37*
%TD.AperFunction*%
%TD*%
M02*
