%TF.GenerationSoftware,KiCad,Pcbnew,(5.1.9)-1*%
%TF.CreationDate,2021-03-02T22:26:18+05:30*%
%TF.ProjectId,STM32F4,53544d33-3246-4342-9e6b-696361645f70,rev?*%
%TF.SameCoordinates,Original*%
%TF.FileFunction,Paste,Top*%
%TF.FilePolarity,Positive*%
%FSLAX46Y46*%
G04 Gerber Fmt 4.6, Leading zero omitted, Abs format (unit mm)*
G04 Created by KiCad (PCBNEW (5.1.9)-1) date 2021-03-02 22:26:18*
%MOMM*%
%LPD*%
G01*
G04 APERTURE LIST*
%ADD10C,0.300000*%
%ADD11R,0.740000X2.400000*%
%ADD12R,0.800000X0.900000*%
%ADD13R,0.650000X1.060000*%
%ADD14R,1.060000X0.650000*%
%ADD15R,1.200000X1.400000*%
%ADD16R,2.000000X1.350000*%
%ADD17R,0.700000X1.825000*%
%ADD18R,1.500000X2.000000*%
%ADD19R,1.650000X0.400000*%
%ADD20R,2.500000X1.430000*%
%ADD21R,0.900000X1.200000*%
%ADD22R,1.300000X1.700000*%
G04 APERTURE END LIST*
D10*
X89438571Y-59028571D02*
X89286785Y-60242857D01*
X89340357Y-60385714D01*
X89402857Y-60457142D01*
X89536785Y-60528571D01*
X89822500Y-60528571D01*
X89974285Y-60457142D01*
X90054642Y-60385714D01*
X90143928Y-60242857D01*
X90295714Y-59028571D01*
X90760000Y-60457142D02*
X90965357Y-60528571D01*
X91322500Y-60528571D01*
X91474285Y-60457142D01*
X91554642Y-60385714D01*
X91643928Y-60242857D01*
X91661785Y-60100000D01*
X91608214Y-59957142D01*
X91545714Y-59885714D01*
X91411785Y-59814285D01*
X91135000Y-59742857D01*
X91001071Y-59671428D01*
X90938571Y-59600000D01*
X90885000Y-59457142D01*
X90902857Y-59314285D01*
X90992142Y-59171428D01*
X91072500Y-59100000D01*
X91224285Y-59028571D01*
X91581428Y-59028571D01*
X91786785Y-59100000D01*
X92849285Y-59742857D02*
X93054642Y-59814285D01*
X93117142Y-59885714D01*
X93170714Y-60028571D01*
X93143928Y-60242857D01*
X93054642Y-60385714D01*
X92974285Y-60457142D01*
X92822500Y-60528571D01*
X92251071Y-60528571D01*
X92438571Y-59028571D01*
X92938571Y-59028571D01*
X93072500Y-59100000D01*
X93135000Y-59171428D01*
X93188571Y-59314285D01*
X93170714Y-59457142D01*
X93081428Y-59600000D01*
X93001071Y-59671428D01*
X92849285Y-59742857D01*
X92349285Y-59742857D01*
%TO.C,U3*%
G36*
G01*
X59436500Y-45481500D02*
X59436500Y-44081500D01*
G75*
G02*
X59511500Y-44006500I75000J0D01*
G01*
X59661500Y-44006500D01*
G75*
G02*
X59736500Y-44081500I0J-75000D01*
G01*
X59736500Y-45481500D01*
G75*
G02*
X59661500Y-45556500I-75000J0D01*
G01*
X59511500Y-45556500D01*
G75*
G02*
X59436500Y-45481500I0J75000D01*
G01*
G37*
G36*
G01*
X59936500Y-45481500D02*
X59936500Y-44081500D01*
G75*
G02*
X60011500Y-44006500I75000J0D01*
G01*
X60161500Y-44006500D01*
G75*
G02*
X60236500Y-44081500I0J-75000D01*
G01*
X60236500Y-45481500D01*
G75*
G02*
X60161500Y-45556500I-75000J0D01*
G01*
X60011500Y-45556500D01*
G75*
G02*
X59936500Y-45481500I0J75000D01*
G01*
G37*
G36*
G01*
X60436500Y-45481500D02*
X60436500Y-44081500D01*
G75*
G02*
X60511500Y-44006500I75000J0D01*
G01*
X60661500Y-44006500D01*
G75*
G02*
X60736500Y-44081500I0J-75000D01*
G01*
X60736500Y-45481500D01*
G75*
G02*
X60661500Y-45556500I-75000J0D01*
G01*
X60511500Y-45556500D01*
G75*
G02*
X60436500Y-45481500I0J75000D01*
G01*
G37*
G36*
G01*
X60936500Y-45481500D02*
X60936500Y-44081500D01*
G75*
G02*
X61011500Y-44006500I75000J0D01*
G01*
X61161500Y-44006500D01*
G75*
G02*
X61236500Y-44081500I0J-75000D01*
G01*
X61236500Y-45481500D01*
G75*
G02*
X61161500Y-45556500I-75000J0D01*
G01*
X61011500Y-45556500D01*
G75*
G02*
X60936500Y-45481500I0J75000D01*
G01*
G37*
G36*
G01*
X61436500Y-45481500D02*
X61436500Y-44081500D01*
G75*
G02*
X61511500Y-44006500I75000J0D01*
G01*
X61661500Y-44006500D01*
G75*
G02*
X61736500Y-44081500I0J-75000D01*
G01*
X61736500Y-45481500D01*
G75*
G02*
X61661500Y-45556500I-75000J0D01*
G01*
X61511500Y-45556500D01*
G75*
G02*
X61436500Y-45481500I0J75000D01*
G01*
G37*
G36*
G01*
X61936500Y-45481500D02*
X61936500Y-44081500D01*
G75*
G02*
X62011500Y-44006500I75000J0D01*
G01*
X62161500Y-44006500D01*
G75*
G02*
X62236500Y-44081500I0J-75000D01*
G01*
X62236500Y-45481500D01*
G75*
G02*
X62161500Y-45556500I-75000J0D01*
G01*
X62011500Y-45556500D01*
G75*
G02*
X61936500Y-45481500I0J75000D01*
G01*
G37*
G36*
G01*
X62436500Y-45481500D02*
X62436500Y-44081500D01*
G75*
G02*
X62511500Y-44006500I75000J0D01*
G01*
X62661500Y-44006500D01*
G75*
G02*
X62736500Y-44081500I0J-75000D01*
G01*
X62736500Y-45481500D01*
G75*
G02*
X62661500Y-45556500I-75000J0D01*
G01*
X62511500Y-45556500D01*
G75*
G02*
X62436500Y-45481500I0J75000D01*
G01*
G37*
G36*
G01*
X62936500Y-45481500D02*
X62936500Y-44081500D01*
G75*
G02*
X63011500Y-44006500I75000J0D01*
G01*
X63161500Y-44006500D01*
G75*
G02*
X63236500Y-44081500I0J-75000D01*
G01*
X63236500Y-45481500D01*
G75*
G02*
X63161500Y-45556500I-75000J0D01*
G01*
X63011500Y-45556500D01*
G75*
G02*
X62936500Y-45481500I0J75000D01*
G01*
G37*
G36*
G01*
X63436500Y-45481500D02*
X63436500Y-44081500D01*
G75*
G02*
X63511500Y-44006500I75000J0D01*
G01*
X63661500Y-44006500D01*
G75*
G02*
X63736500Y-44081500I0J-75000D01*
G01*
X63736500Y-45481500D01*
G75*
G02*
X63661500Y-45556500I-75000J0D01*
G01*
X63511500Y-45556500D01*
G75*
G02*
X63436500Y-45481500I0J75000D01*
G01*
G37*
G36*
G01*
X63936500Y-45481500D02*
X63936500Y-44081500D01*
G75*
G02*
X64011500Y-44006500I75000J0D01*
G01*
X64161500Y-44006500D01*
G75*
G02*
X64236500Y-44081500I0J-75000D01*
G01*
X64236500Y-45481500D01*
G75*
G02*
X64161500Y-45556500I-75000J0D01*
G01*
X64011500Y-45556500D01*
G75*
G02*
X63936500Y-45481500I0J75000D01*
G01*
G37*
G36*
G01*
X64436500Y-45481500D02*
X64436500Y-44081500D01*
G75*
G02*
X64511500Y-44006500I75000J0D01*
G01*
X64661500Y-44006500D01*
G75*
G02*
X64736500Y-44081500I0J-75000D01*
G01*
X64736500Y-45481500D01*
G75*
G02*
X64661500Y-45556500I-75000J0D01*
G01*
X64511500Y-45556500D01*
G75*
G02*
X64436500Y-45481500I0J75000D01*
G01*
G37*
G36*
G01*
X64936500Y-45481500D02*
X64936500Y-44081500D01*
G75*
G02*
X65011500Y-44006500I75000J0D01*
G01*
X65161500Y-44006500D01*
G75*
G02*
X65236500Y-44081500I0J-75000D01*
G01*
X65236500Y-45481500D01*
G75*
G02*
X65161500Y-45556500I-75000J0D01*
G01*
X65011500Y-45556500D01*
G75*
G02*
X64936500Y-45481500I0J75000D01*
G01*
G37*
G36*
G01*
X65436500Y-45481500D02*
X65436500Y-44081500D01*
G75*
G02*
X65511500Y-44006500I75000J0D01*
G01*
X65661500Y-44006500D01*
G75*
G02*
X65736500Y-44081500I0J-75000D01*
G01*
X65736500Y-45481500D01*
G75*
G02*
X65661500Y-45556500I-75000J0D01*
G01*
X65511500Y-45556500D01*
G75*
G02*
X65436500Y-45481500I0J75000D01*
G01*
G37*
G36*
G01*
X65936500Y-45481500D02*
X65936500Y-44081500D01*
G75*
G02*
X66011500Y-44006500I75000J0D01*
G01*
X66161500Y-44006500D01*
G75*
G02*
X66236500Y-44081500I0J-75000D01*
G01*
X66236500Y-45481500D01*
G75*
G02*
X66161500Y-45556500I-75000J0D01*
G01*
X66011500Y-45556500D01*
G75*
G02*
X65936500Y-45481500I0J75000D01*
G01*
G37*
G36*
G01*
X66436500Y-45481500D02*
X66436500Y-44081500D01*
G75*
G02*
X66511500Y-44006500I75000J0D01*
G01*
X66661500Y-44006500D01*
G75*
G02*
X66736500Y-44081500I0J-75000D01*
G01*
X66736500Y-45481500D01*
G75*
G02*
X66661500Y-45556500I-75000J0D01*
G01*
X66511500Y-45556500D01*
G75*
G02*
X66436500Y-45481500I0J75000D01*
G01*
G37*
G36*
G01*
X66936500Y-45481500D02*
X66936500Y-44081500D01*
G75*
G02*
X67011500Y-44006500I75000J0D01*
G01*
X67161500Y-44006500D01*
G75*
G02*
X67236500Y-44081500I0J-75000D01*
G01*
X67236500Y-45481500D01*
G75*
G02*
X67161500Y-45556500I-75000J0D01*
G01*
X67011500Y-45556500D01*
G75*
G02*
X66936500Y-45481500I0J75000D01*
G01*
G37*
G36*
G01*
X68236500Y-46781500D02*
X68236500Y-46631500D01*
G75*
G02*
X68311500Y-46556500I75000J0D01*
G01*
X69711500Y-46556500D01*
G75*
G02*
X69786500Y-46631500I0J-75000D01*
G01*
X69786500Y-46781500D01*
G75*
G02*
X69711500Y-46856500I-75000J0D01*
G01*
X68311500Y-46856500D01*
G75*
G02*
X68236500Y-46781500I0J75000D01*
G01*
G37*
G36*
G01*
X68236500Y-47281500D02*
X68236500Y-47131500D01*
G75*
G02*
X68311500Y-47056500I75000J0D01*
G01*
X69711500Y-47056500D01*
G75*
G02*
X69786500Y-47131500I0J-75000D01*
G01*
X69786500Y-47281500D01*
G75*
G02*
X69711500Y-47356500I-75000J0D01*
G01*
X68311500Y-47356500D01*
G75*
G02*
X68236500Y-47281500I0J75000D01*
G01*
G37*
G36*
G01*
X68236500Y-47781500D02*
X68236500Y-47631500D01*
G75*
G02*
X68311500Y-47556500I75000J0D01*
G01*
X69711500Y-47556500D01*
G75*
G02*
X69786500Y-47631500I0J-75000D01*
G01*
X69786500Y-47781500D01*
G75*
G02*
X69711500Y-47856500I-75000J0D01*
G01*
X68311500Y-47856500D01*
G75*
G02*
X68236500Y-47781500I0J75000D01*
G01*
G37*
G36*
G01*
X68236500Y-48281500D02*
X68236500Y-48131500D01*
G75*
G02*
X68311500Y-48056500I75000J0D01*
G01*
X69711500Y-48056500D01*
G75*
G02*
X69786500Y-48131500I0J-75000D01*
G01*
X69786500Y-48281500D01*
G75*
G02*
X69711500Y-48356500I-75000J0D01*
G01*
X68311500Y-48356500D01*
G75*
G02*
X68236500Y-48281500I0J75000D01*
G01*
G37*
G36*
G01*
X68236500Y-48781500D02*
X68236500Y-48631500D01*
G75*
G02*
X68311500Y-48556500I75000J0D01*
G01*
X69711500Y-48556500D01*
G75*
G02*
X69786500Y-48631500I0J-75000D01*
G01*
X69786500Y-48781500D01*
G75*
G02*
X69711500Y-48856500I-75000J0D01*
G01*
X68311500Y-48856500D01*
G75*
G02*
X68236500Y-48781500I0J75000D01*
G01*
G37*
G36*
G01*
X68236500Y-49281500D02*
X68236500Y-49131500D01*
G75*
G02*
X68311500Y-49056500I75000J0D01*
G01*
X69711500Y-49056500D01*
G75*
G02*
X69786500Y-49131500I0J-75000D01*
G01*
X69786500Y-49281500D01*
G75*
G02*
X69711500Y-49356500I-75000J0D01*
G01*
X68311500Y-49356500D01*
G75*
G02*
X68236500Y-49281500I0J75000D01*
G01*
G37*
G36*
G01*
X68236500Y-49781500D02*
X68236500Y-49631500D01*
G75*
G02*
X68311500Y-49556500I75000J0D01*
G01*
X69711500Y-49556500D01*
G75*
G02*
X69786500Y-49631500I0J-75000D01*
G01*
X69786500Y-49781500D01*
G75*
G02*
X69711500Y-49856500I-75000J0D01*
G01*
X68311500Y-49856500D01*
G75*
G02*
X68236500Y-49781500I0J75000D01*
G01*
G37*
G36*
G01*
X68236500Y-50281500D02*
X68236500Y-50131500D01*
G75*
G02*
X68311500Y-50056500I75000J0D01*
G01*
X69711500Y-50056500D01*
G75*
G02*
X69786500Y-50131500I0J-75000D01*
G01*
X69786500Y-50281500D01*
G75*
G02*
X69711500Y-50356500I-75000J0D01*
G01*
X68311500Y-50356500D01*
G75*
G02*
X68236500Y-50281500I0J75000D01*
G01*
G37*
G36*
G01*
X68236500Y-50781500D02*
X68236500Y-50631500D01*
G75*
G02*
X68311500Y-50556500I75000J0D01*
G01*
X69711500Y-50556500D01*
G75*
G02*
X69786500Y-50631500I0J-75000D01*
G01*
X69786500Y-50781500D01*
G75*
G02*
X69711500Y-50856500I-75000J0D01*
G01*
X68311500Y-50856500D01*
G75*
G02*
X68236500Y-50781500I0J75000D01*
G01*
G37*
G36*
G01*
X68236500Y-51281500D02*
X68236500Y-51131500D01*
G75*
G02*
X68311500Y-51056500I75000J0D01*
G01*
X69711500Y-51056500D01*
G75*
G02*
X69786500Y-51131500I0J-75000D01*
G01*
X69786500Y-51281500D01*
G75*
G02*
X69711500Y-51356500I-75000J0D01*
G01*
X68311500Y-51356500D01*
G75*
G02*
X68236500Y-51281500I0J75000D01*
G01*
G37*
G36*
G01*
X68236500Y-51781500D02*
X68236500Y-51631500D01*
G75*
G02*
X68311500Y-51556500I75000J0D01*
G01*
X69711500Y-51556500D01*
G75*
G02*
X69786500Y-51631500I0J-75000D01*
G01*
X69786500Y-51781500D01*
G75*
G02*
X69711500Y-51856500I-75000J0D01*
G01*
X68311500Y-51856500D01*
G75*
G02*
X68236500Y-51781500I0J75000D01*
G01*
G37*
G36*
G01*
X68236500Y-52281500D02*
X68236500Y-52131500D01*
G75*
G02*
X68311500Y-52056500I75000J0D01*
G01*
X69711500Y-52056500D01*
G75*
G02*
X69786500Y-52131500I0J-75000D01*
G01*
X69786500Y-52281500D01*
G75*
G02*
X69711500Y-52356500I-75000J0D01*
G01*
X68311500Y-52356500D01*
G75*
G02*
X68236500Y-52281500I0J75000D01*
G01*
G37*
G36*
G01*
X68236500Y-52781500D02*
X68236500Y-52631500D01*
G75*
G02*
X68311500Y-52556500I75000J0D01*
G01*
X69711500Y-52556500D01*
G75*
G02*
X69786500Y-52631500I0J-75000D01*
G01*
X69786500Y-52781500D01*
G75*
G02*
X69711500Y-52856500I-75000J0D01*
G01*
X68311500Y-52856500D01*
G75*
G02*
X68236500Y-52781500I0J75000D01*
G01*
G37*
G36*
G01*
X68236500Y-53281500D02*
X68236500Y-53131500D01*
G75*
G02*
X68311500Y-53056500I75000J0D01*
G01*
X69711500Y-53056500D01*
G75*
G02*
X69786500Y-53131500I0J-75000D01*
G01*
X69786500Y-53281500D01*
G75*
G02*
X69711500Y-53356500I-75000J0D01*
G01*
X68311500Y-53356500D01*
G75*
G02*
X68236500Y-53281500I0J75000D01*
G01*
G37*
G36*
G01*
X68236500Y-53781500D02*
X68236500Y-53631500D01*
G75*
G02*
X68311500Y-53556500I75000J0D01*
G01*
X69711500Y-53556500D01*
G75*
G02*
X69786500Y-53631500I0J-75000D01*
G01*
X69786500Y-53781500D01*
G75*
G02*
X69711500Y-53856500I-75000J0D01*
G01*
X68311500Y-53856500D01*
G75*
G02*
X68236500Y-53781500I0J75000D01*
G01*
G37*
G36*
G01*
X68236500Y-54281500D02*
X68236500Y-54131500D01*
G75*
G02*
X68311500Y-54056500I75000J0D01*
G01*
X69711500Y-54056500D01*
G75*
G02*
X69786500Y-54131500I0J-75000D01*
G01*
X69786500Y-54281500D01*
G75*
G02*
X69711500Y-54356500I-75000J0D01*
G01*
X68311500Y-54356500D01*
G75*
G02*
X68236500Y-54281500I0J75000D01*
G01*
G37*
G36*
G01*
X66936500Y-56831500D02*
X66936500Y-55431500D01*
G75*
G02*
X67011500Y-55356500I75000J0D01*
G01*
X67161500Y-55356500D01*
G75*
G02*
X67236500Y-55431500I0J-75000D01*
G01*
X67236500Y-56831500D01*
G75*
G02*
X67161500Y-56906500I-75000J0D01*
G01*
X67011500Y-56906500D01*
G75*
G02*
X66936500Y-56831500I0J75000D01*
G01*
G37*
G36*
G01*
X66436500Y-56831500D02*
X66436500Y-55431500D01*
G75*
G02*
X66511500Y-55356500I75000J0D01*
G01*
X66661500Y-55356500D01*
G75*
G02*
X66736500Y-55431500I0J-75000D01*
G01*
X66736500Y-56831500D01*
G75*
G02*
X66661500Y-56906500I-75000J0D01*
G01*
X66511500Y-56906500D01*
G75*
G02*
X66436500Y-56831500I0J75000D01*
G01*
G37*
G36*
G01*
X65936500Y-56831500D02*
X65936500Y-55431500D01*
G75*
G02*
X66011500Y-55356500I75000J0D01*
G01*
X66161500Y-55356500D01*
G75*
G02*
X66236500Y-55431500I0J-75000D01*
G01*
X66236500Y-56831500D01*
G75*
G02*
X66161500Y-56906500I-75000J0D01*
G01*
X66011500Y-56906500D01*
G75*
G02*
X65936500Y-56831500I0J75000D01*
G01*
G37*
G36*
G01*
X65436500Y-56831500D02*
X65436500Y-55431500D01*
G75*
G02*
X65511500Y-55356500I75000J0D01*
G01*
X65661500Y-55356500D01*
G75*
G02*
X65736500Y-55431500I0J-75000D01*
G01*
X65736500Y-56831500D01*
G75*
G02*
X65661500Y-56906500I-75000J0D01*
G01*
X65511500Y-56906500D01*
G75*
G02*
X65436500Y-56831500I0J75000D01*
G01*
G37*
G36*
G01*
X64936500Y-56831500D02*
X64936500Y-55431500D01*
G75*
G02*
X65011500Y-55356500I75000J0D01*
G01*
X65161500Y-55356500D01*
G75*
G02*
X65236500Y-55431500I0J-75000D01*
G01*
X65236500Y-56831500D01*
G75*
G02*
X65161500Y-56906500I-75000J0D01*
G01*
X65011500Y-56906500D01*
G75*
G02*
X64936500Y-56831500I0J75000D01*
G01*
G37*
G36*
G01*
X64436500Y-56831500D02*
X64436500Y-55431500D01*
G75*
G02*
X64511500Y-55356500I75000J0D01*
G01*
X64661500Y-55356500D01*
G75*
G02*
X64736500Y-55431500I0J-75000D01*
G01*
X64736500Y-56831500D01*
G75*
G02*
X64661500Y-56906500I-75000J0D01*
G01*
X64511500Y-56906500D01*
G75*
G02*
X64436500Y-56831500I0J75000D01*
G01*
G37*
G36*
G01*
X63936500Y-56831500D02*
X63936500Y-55431500D01*
G75*
G02*
X64011500Y-55356500I75000J0D01*
G01*
X64161500Y-55356500D01*
G75*
G02*
X64236500Y-55431500I0J-75000D01*
G01*
X64236500Y-56831500D01*
G75*
G02*
X64161500Y-56906500I-75000J0D01*
G01*
X64011500Y-56906500D01*
G75*
G02*
X63936500Y-56831500I0J75000D01*
G01*
G37*
G36*
G01*
X63436500Y-56831500D02*
X63436500Y-55431500D01*
G75*
G02*
X63511500Y-55356500I75000J0D01*
G01*
X63661500Y-55356500D01*
G75*
G02*
X63736500Y-55431500I0J-75000D01*
G01*
X63736500Y-56831500D01*
G75*
G02*
X63661500Y-56906500I-75000J0D01*
G01*
X63511500Y-56906500D01*
G75*
G02*
X63436500Y-56831500I0J75000D01*
G01*
G37*
G36*
G01*
X62936500Y-56831500D02*
X62936500Y-55431500D01*
G75*
G02*
X63011500Y-55356500I75000J0D01*
G01*
X63161500Y-55356500D01*
G75*
G02*
X63236500Y-55431500I0J-75000D01*
G01*
X63236500Y-56831500D01*
G75*
G02*
X63161500Y-56906500I-75000J0D01*
G01*
X63011500Y-56906500D01*
G75*
G02*
X62936500Y-56831500I0J75000D01*
G01*
G37*
G36*
G01*
X62436500Y-56831500D02*
X62436500Y-55431500D01*
G75*
G02*
X62511500Y-55356500I75000J0D01*
G01*
X62661500Y-55356500D01*
G75*
G02*
X62736500Y-55431500I0J-75000D01*
G01*
X62736500Y-56831500D01*
G75*
G02*
X62661500Y-56906500I-75000J0D01*
G01*
X62511500Y-56906500D01*
G75*
G02*
X62436500Y-56831500I0J75000D01*
G01*
G37*
G36*
G01*
X61936500Y-56831500D02*
X61936500Y-55431500D01*
G75*
G02*
X62011500Y-55356500I75000J0D01*
G01*
X62161500Y-55356500D01*
G75*
G02*
X62236500Y-55431500I0J-75000D01*
G01*
X62236500Y-56831500D01*
G75*
G02*
X62161500Y-56906500I-75000J0D01*
G01*
X62011500Y-56906500D01*
G75*
G02*
X61936500Y-56831500I0J75000D01*
G01*
G37*
G36*
G01*
X61436500Y-56831500D02*
X61436500Y-55431500D01*
G75*
G02*
X61511500Y-55356500I75000J0D01*
G01*
X61661500Y-55356500D01*
G75*
G02*
X61736500Y-55431500I0J-75000D01*
G01*
X61736500Y-56831500D01*
G75*
G02*
X61661500Y-56906500I-75000J0D01*
G01*
X61511500Y-56906500D01*
G75*
G02*
X61436500Y-56831500I0J75000D01*
G01*
G37*
G36*
G01*
X60936500Y-56831500D02*
X60936500Y-55431500D01*
G75*
G02*
X61011500Y-55356500I75000J0D01*
G01*
X61161500Y-55356500D01*
G75*
G02*
X61236500Y-55431500I0J-75000D01*
G01*
X61236500Y-56831500D01*
G75*
G02*
X61161500Y-56906500I-75000J0D01*
G01*
X61011500Y-56906500D01*
G75*
G02*
X60936500Y-56831500I0J75000D01*
G01*
G37*
G36*
G01*
X60436500Y-56831500D02*
X60436500Y-55431500D01*
G75*
G02*
X60511500Y-55356500I75000J0D01*
G01*
X60661500Y-55356500D01*
G75*
G02*
X60736500Y-55431500I0J-75000D01*
G01*
X60736500Y-56831500D01*
G75*
G02*
X60661500Y-56906500I-75000J0D01*
G01*
X60511500Y-56906500D01*
G75*
G02*
X60436500Y-56831500I0J75000D01*
G01*
G37*
G36*
G01*
X59936500Y-56831500D02*
X59936500Y-55431500D01*
G75*
G02*
X60011500Y-55356500I75000J0D01*
G01*
X60161500Y-55356500D01*
G75*
G02*
X60236500Y-55431500I0J-75000D01*
G01*
X60236500Y-56831500D01*
G75*
G02*
X60161500Y-56906500I-75000J0D01*
G01*
X60011500Y-56906500D01*
G75*
G02*
X59936500Y-56831500I0J75000D01*
G01*
G37*
G36*
G01*
X59436500Y-56831500D02*
X59436500Y-55431500D01*
G75*
G02*
X59511500Y-55356500I75000J0D01*
G01*
X59661500Y-55356500D01*
G75*
G02*
X59736500Y-55431500I0J-75000D01*
G01*
X59736500Y-56831500D01*
G75*
G02*
X59661500Y-56906500I-75000J0D01*
G01*
X59511500Y-56906500D01*
G75*
G02*
X59436500Y-56831500I0J75000D01*
G01*
G37*
G36*
G01*
X56886500Y-54281500D02*
X56886500Y-54131500D01*
G75*
G02*
X56961500Y-54056500I75000J0D01*
G01*
X58361500Y-54056500D01*
G75*
G02*
X58436500Y-54131500I0J-75000D01*
G01*
X58436500Y-54281500D01*
G75*
G02*
X58361500Y-54356500I-75000J0D01*
G01*
X56961500Y-54356500D01*
G75*
G02*
X56886500Y-54281500I0J75000D01*
G01*
G37*
G36*
G01*
X56886500Y-53781500D02*
X56886500Y-53631500D01*
G75*
G02*
X56961500Y-53556500I75000J0D01*
G01*
X58361500Y-53556500D01*
G75*
G02*
X58436500Y-53631500I0J-75000D01*
G01*
X58436500Y-53781500D01*
G75*
G02*
X58361500Y-53856500I-75000J0D01*
G01*
X56961500Y-53856500D01*
G75*
G02*
X56886500Y-53781500I0J75000D01*
G01*
G37*
G36*
G01*
X56886500Y-53281500D02*
X56886500Y-53131500D01*
G75*
G02*
X56961500Y-53056500I75000J0D01*
G01*
X58361500Y-53056500D01*
G75*
G02*
X58436500Y-53131500I0J-75000D01*
G01*
X58436500Y-53281500D01*
G75*
G02*
X58361500Y-53356500I-75000J0D01*
G01*
X56961500Y-53356500D01*
G75*
G02*
X56886500Y-53281500I0J75000D01*
G01*
G37*
G36*
G01*
X56886500Y-52781500D02*
X56886500Y-52631500D01*
G75*
G02*
X56961500Y-52556500I75000J0D01*
G01*
X58361500Y-52556500D01*
G75*
G02*
X58436500Y-52631500I0J-75000D01*
G01*
X58436500Y-52781500D01*
G75*
G02*
X58361500Y-52856500I-75000J0D01*
G01*
X56961500Y-52856500D01*
G75*
G02*
X56886500Y-52781500I0J75000D01*
G01*
G37*
G36*
G01*
X56886500Y-52281500D02*
X56886500Y-52131500D01*
G75*
G02*
X56961500Y-52056500I75000J0D01*
G01*
X58361500Y-52056500D01*
G75*
G02*
X58436500Y-52131500I0J-75000D01*
G01*
X58436500Y-52281500D01*
G75*
G02*
X58361500Y-52356500I-75000J0D01*
G01*
X56961500Y-52356500D01*
G75*
G02*
X56886500Y-52281500I0J75000D01*
G01*
G37*
G36*
G01*
X56886500Y-51781500D02*
X56886500Y-51631500D01*
G75*
G02*
X56961500Y-51556500I75000J0D01*
G01*
X58361500Y-51556500D01*
G75*
G02*
X58436500Y-51631500I0J-75000D01*
G01*
X58436500Y-51781500D01*
G75*
G02*
X58361500Y-51856500I-75000J0D01*
G01*
X56961500Y-51856500D01*
G75*
G02*
X56886500Y-51781500I0J75000D01*
G01*
G37*
G36*
G01*
X56886500Y-51281500D02*
X56886500Y-51131500D01*
G75*
G02*
X56961500Y-51056500I75000J0D01*
G01*
X58361500Y-51056500D01*
G75*
G02*
X58436500Y-51131500I0J-75000D01*
G01*
X58436500Y-51281500D01*
G75*
G02*
X58361500Y-51356500I-75000J0D01*
G01*
X56961500Y-51356500D01*
G75*
G02*
X56886500Y-51281500I0J75000D01*
G01*
G37*
G36*
G01*
X56886500Y-50781500D02*
X56886500Y-50631500D01*
G75*
G02*
X56961500Y-50556500I75000J0D01*
G01*
X58361500Y-50556500D01*
G75*
G02*
X58436500Y-50631500I0J-75000D01*
G01*
X58436500Y-50781500D01*
G75*
G02*
X58361500Y-50856500I-75000J0D01*
G01*
X56961500Y-50856500D01*
G75*
G02*
X56886500Y-50781500I0J75000D01*
G01*
G37*
G36*
G01*
X56886500Y-50281500D02*
X56886500Y-50131500D01*
G75*
G02*
X56961500Y-50056500I75000J0D01*
G01*
X58361500Y-50056500D01*
G75*
G02*
X58436500Y-50131500I0J-75000D01*
G01*
X58436500Y-50281500D01*
G75*
G02*
X58361500Y-50356500I-75000J0D01*
G01*
X56961500Y-50356500D01*
G75*
G02*
X56886500Y-50281500I0J75000D01*
G01*
G37*
G36*
G01*
X56886500Y-49781500D02*
X56886500Y-49631500D01*
G75*
G02*
X56961500Y-49556500I75000J0D01*
G01*
X58361500Y-49556500D01*
G75*
G02*
X58436500Y-49631500I0J-75000D01*
G01*
X58436500Y-49781500D01*
G75*
G02*
X58361500Y-49856500I-75000J0D01*
G01*
X56961500Y-49856500D01*
G75*
G02*
X56886500Y-49781500I0J75000D01*
G01*
G37*
G36*
G01*
X56886500Y-49281500D02*
X56886500Y-49131500D01*
G75*
G02*
X56961500Y-49056500I75000J0D01*
G01*
X58361500Y-49056500D01*
G75*
G02*
X58436500Y-49131500I0J-75000D01*
G01*
X58436500Y-49281500D01*
G75*
G02*
X58361500Y-49356500I-75000J0D01*
G01*
X56961500Y-49356500D01*
G75*
G02*
X56886500Y-49281500I0J75000D01*
G01*
G37*
G36*
G01*
X56886500Y-48781500D02*
X56886500Y-48631500D01*
G75*
G02*
X56961500Y-48556500I75000J0D01*
G01*
X58361500Y-48556500D01*
G75*
G02*
X58436500Y-48631500I0J-75000D01*
G01*
X58436500Y-48781500D01*
G75*
G02*
X58361500Y-48856500I-75000J0D01*
G01*
X56961500Y-48856500D01*
G75*
G02*
X56886500Y-48781500I0J75000D01*
G01*
G37*
G36*
G01*
X56886500Y-48281500D02*
X56886500Y-48131500D01*
G75*
G02*
X56961500Y-48056500I75000J0D01*
G01*
X58361500Y-48056500D01*
G75*
G02*
X58436500Y-48131500I0J-75000D01*
G01*
X58436500Y-48281500D01*
G75*
G02*
X58361500Y-48356500I-75000J0D01*
G01*
X56961500Y-48356500D01*
G75*
G02*
X56886500Y-48281500I0J75000D01*
G01*
G37*
G36*
G01*
X56886500Y-47781500D02*
X56886500Y-47631500D01*
G75*
G02*
X56961500Y-47556500I75000J0D01*
G01*
X58361500Y-47556500D01*
G75*
G02*
X58436500Y-47631500I0J-75000D01*
G01*
X58436500Y-47781500D01*
G75*
G02*
X58361500Y-47856500I-75000J0D01*
G01*
X56961500Y-47856500D01*
G75*
G02*
X56886500Y-47781500I0J75000D01*
G01*
G37*
G36*
G01*
X56886500Y-47281500D02*
X56886500Y-47131500D01*
G75*
G02*
X56961500Y-47056500I75000J0D01*
G01*
X58361500Y-47056500D01*
G75*
G02*
X58436500Y-47131500I0J-75000D01*
G01*
X58436500Y-47281500D01*
G75*
G02*
X58361500Y-47356500I-75000J0D01*
G01*
X56961500Y-47356500D01*
G75*
G02*
X56886500Y-47281500I0J75000D01*
G01*
G37*
G36*
G01*
X56886500Y-46781500D02*
X56886500Y-46631500D01*
G75*
G02*
X56961500Y-46556500I75000J0D01*
G01*
X58361500Y-46556500D01*
G75*
G02*
X58436500Y-46631500I0J-75000D01*
G01*
X58436500Y-46781500D01*
G75*
G02*
X58361500Y-46856500I-75000J0D01*
G01*
X56961500Y-46856500D01*
G75*
G02*
X56886500Y-46781500I0J75000D01*
G01*
G37*
%TD*%
%TO.C,C12*%
G36*
G01*
X55770000Y-52600000D02*
X55430000Y-52600000D01*
G75*
G02*
X55290000Y-52460000I0J140000D01*
G01*
X55290000Y-52180000D01*
G75*
G02*
X55430000Y-52040000I140000J0D01*
G01*
X55770000Y-52040000D01*
G75*
G02*
X55910000Y-52180000I0J-140000D01*
G01*
X55910000Y-52460000D01*
G75*
G02*
X55770000Y-52600000I-140000J0D01*
G01*
G37*
G36*
G01*
X55770000Y-53560000D02*
X55430000Y-53560000D01*
G75*
G02*
X55290000Y-53420000I0J140000D01*
G01*
X55290000Y-53140000D01*
G75*
G02*
X55430000Y-53000000I140000J0D01*
G01*
X55770000Y-53000000D01*
G75*
G02*
X55910000Y-53140000I0J-140000D01*
G01*
X55910000Y-53420000D01*
G75*
G02*
X55770000Y-53560000I-140000J0D01*
G01*
G37*
%TD*%
%TO.C,C2*%
G36*
G01*
X40188000Y-36550000D02*
X40188000Y-37050000D01*
G75*
G02*
X39963000Y-37275000I-225000J0D01*
G01*
X39513000Y-37275000D01*
G75*
G02*
X39288000Y-37050000I0J225000D01*
G01*
X39288000Y-36550000D01*
G75*
G02*
X39513000Y-36325000I225000J0D01*
G01*
X39963000Y-36325000D01*
G75*
G02*
X40188000Y-36550000I0J-225000D01*
G01*
G37*
G36*
G01*
X41738000Y-36550000D02*
X41738000Y-37050000D01*
G75*
G02*
X41513000Y-37275000I-225000J0D01*
G01*
X41063000Y-37275000D01*
G75*
G02*
X40838000Y-37050000I0J225000D01*
G01*
X40838000Y-36550000D01*
G75*
G02*
X41063000Y-36325000I225000J0D01*
G01*
X41513000Y-36325000D01*
G75*
G02*
X41738000Y-36550000I0J-225000D01*
G01*
G37*
%TD*%
%TO.C,R4*%
G36*
G01*
X44240000Y-35454000D02*
X44240000Y-34904000D01*
G75*
G02*
X44440000Y-34704000I200000J0D01*
G01*
X44840000Y-34704000D01*
G75*
G02*
X45040000Y-34904000I0J-200000D01*
G01*
X45040000Y-35454000D01*
G75*
G02*
X44840000Y-35654000I-200000J0D01*
G01*
X44440000Y-35654000D01*
G75*
G02*
X44240000Y-35454000I0J200000D01*
G01*
G37*
G36*
G01*
X42590000Y-35454000D02*
X42590000Y-34904000D01*
G75*
G02*
X42790000Y-34704000I200000J0D01*
G01*
X43190000Y-34704000D01*
G75*
G02*
X43390000Y-34904000I0J-200000D01*
G01*
X43390000Y-35454000D01*
G75*
G02*
X43190000Y-35654000I-200000J0D01*
G01*
X42790000Y-35654000D01*
G75*
G02*
X42590000Y-35454000I0J200000D01*
G01*
G37*
%TD*%
%TO.C,R3*%
G36*
G01*
X44304000Y-38692500D02*
X44304000Y-38142500D01*
G75*
G02*
X44504000Y-37942500I200000J0D01*
G01*
X44904000Y-37942500D01*
G75*
G02*
X45104000Y-38142500I0J-200000D01*
G01*
X45104000Y-38692500D01*
G75*
G02*
X44904000Y-38892500I-200000J0D01*
G01*
X44504000Y-38892500D01*
G75*
G02*
X44304000Y-38692500I0J200000D01*
G01*
G37*
G36*
G01*
X42654000Y-38692500D02*
X42654000Y-38142500D01*
G75*
G02*
X42854000Y-37942500I200000J0D01*
G01*
X43254000Y-37942500D01*
G75*
G02*
X43454000Y-38142500I0J-200000D01*
G01*
X43454000Y-38692500D01*
G75*
G02*
X43254000Y-38892500I-200000J0D01*
G01*
X42854000Y-38892500D01*
G75*
G02*
X42654000Y-38692500I0J200000D01*
G01*
G37*
%TD*%
%TO.C,R2*%
G36*
G01*
X41003000Y-45423500D02*
X41003000Y-44873500D01*
G75*
G02*
X41203000Y-44673500I200000J0D01*
G01*
X41603000Y-44673500D01*
G75*
G02*
X41803000Y-44873500I0J-200000D01*
G01*
X41803000Y-45423500D01*
G75*
G02*
X41603000Y-45623500I-200000J0D01*
G01*
X41203000Y-45623500D01*
G75*
G02*
X41003000Y-45423500I0J200000D01*
G01*
G37*
G36*
G01*
X42653000Y-45423500D02*
X42653000Y-44873500D01*
G75*
G02*
X42853000Y-44673500I200000J0D01*
G01*
X43253000Y-44673500D01*
G75*
G02*
X43453000Y-44873500I0J-200000D01*
G01*
X43453000Y-45423500D01*
G75*
G02*
X43253000Y-45623500I-200000J0D01*
G01*
X42853000Y-45623500D01*
G75*
G02*
X42653000Y-45423500I0J200000D01*
G01*
G37*
%TD*%
D11*
%TO.C,J3*%
X72540000Y-29050000D03*
X72540000Y-32950000D03*
X71270000Y-29050000D03*
X71270000Y-32950000D03*
X70000000Y-29050000D03*
X70000000Y-32950000D03*
X68730000Y-29050000D03*
X68730000Y-32950000D03*
X67460000Y-29050000D03*
X67460000Y-32950000D03*
%TD*%
D12*
%TO.C,Q1*%
X37592000Y-47863000D03*
X36642000Y-45863000D03*
X38542000Y-45863000D03*
%TD*%
%TO.C,R13*%
G36*
G01*
X60375000Y-39225000D02*
X60375000Y-39775000D01*
G75*
G02*
X60175000Y-39975000I-200000J0D01*
G01*
X59775000Y-39975000D01*
G75*
G02*
X59575000Y-39775000I0J200000D01*
G01*
X59575000Y-39225000D01*
G75*
G02*
X59775000Y-39025000I200000J0D01*
G01*
X60175000Y-39025000D01*
G75*
G02*
X60375000Y-39225000I0J-200000D01*
G01*
G37*
G36*
G01*
X62025000Y-39225000D02*
X62025000Y-39775000D01*
G75*
G02*
X61825000Y-39975000I-200000J0D01*
G01*
X61425000Y-39975000D01*
G75*
G02*
X61225000Y-39775000I0J200000D01*
G01*
X61225000Y-39225000D01*
G75*
G02*
X61425000Y-39025000I200000J0D01*
G01*
X61825000Y-39025000D01*
G75*
G02*
X62025000Y-39225000I0J-200000D01*
G01*
G37*
%TD*%
D13*
%TO.C,U1*%
X39690000Y-33104000D03*
X40640000Y-33104000D03*
X41590000Y-33104000D03*
X41590000Y-30904000D03*
X39690000Y-30904000D03*
X40640000Y-30904000D03*
%TD*%
%TO.C,R1*%
G36*
G01*
X40088000Y-38142500D02*
X40088000Y-38692500D01*
G75*
G02*
X39888000Y-38892500I-200000J0D01*
G01*
X39488000Y-38892500D01*
G75*
G02*
X39288000Y-38692500I0J200000D01*
G01*
X39288000Y-38142500D01*
G75*
G02*
X39488000Y-37942500I200000J0D01*
G01*
X39888000Y-37942500D01*
G75*
G02*
X40088000Y-38142500I0J-200000D01*
G01*
G37*
G36*
G01*
X41738000Y-38142500D02*
X41738000Y-38692500D01*
G75*
G02*
X41538000Y-38892500I-200000J0D01*
G01*
X41138000Y-38892500D01*
G75*
G02*
X40938000Y-38692500I0J200000D01*
G01*
X40938000Y-38142500D01*
G75*
G02*
X41138000Y-37942500I200000J0D01*
G01*
X41538000Y-37942500D01*
G75*
G02*
X41738000Y-38142500I0J-200000D01*
G01*
G37*
%TD*%
%TO.C,R11*%
G36*
G01*
X55547000Y-49714000D02*
X54997000Y-49714000D01*
G75*
G02*
X54797000Y-49514000I0J200000D01*
G01*
X54797000Y-49114000D01*
G75*
G02*
X54997000Y-48914000I200000J0D01*
G01*
X55547000Y-48914000D01*
G75*
G02*
X55747000Y-49114000I0J-200000D01*
G01*
X55747000Y-49514000D01*
G75*
G02*
X55547000Y-49714000I-200000J0D01*
G01*
G37*
G36*
G01*
X55547000Y-51364000D02*
X54997000Y-51364000D01*
G75*
G02*
X54797000Y-51164000I0J200000D01*
G01*
X54797000Y-50764000D01*
G75*
G02*
X54997000Y-50564000I200000J0D01*
G01*
X55547000Y-50564000D01*
G75*
G02*
X55747000Y-50764000I0J-200000D01*
G01*
X55747000Y-51164000D01*
G75*
G02*
X55547000Y-51364000I-200000J0D01*
G01*
G37*
%TD*%
%TO.C,R10*%
G36*
G01*
X61785000Y-42160000D02*
X61415000Y-42160000D01*
G75*
G02*
X61280000Y-42025000I0J135000D01*
G01*
X61280000Y-41755000D01*
G75*
G02*
X61415000Y-41620000I135000J0D01*
G01*
X61785000Y-41620000D01*
G75*
G02*
X61920000Y-41755000I0J-135000D01*
G01*
X61920000Y-42025000D01*
G75*
G02*
X61785000Y-42160000I-135000J0D01*
G01*
G37*
G36*
G01*
X61785000Y-43180000D02*
X61415000Y-43180000D01*
G75*
G02*
X61280000Y-43045000I0J135000D01*
G01*
X61280000Y-42775000D01*
G75*
G02*
X61415000Y-42640000I135000J0D01*
G01*
X61785000Y-42640000D01*
G75*
G02*
X61920000Y-42775000I0J-135000D01*
G01*
X61920000Y-43045000D01*
G75*
G02*
X61785000Y-43180000I-135000J0D01*
G01*
G37*
%TD*%
D14*
%TO.C,U2*%
X85900000Y-52200000D03*
X85900000Y-51250000D03*
X85900000Y-53150000D03*
X83700000Y-53150000D03*
X83700000Y-52200000D03*
X83700000Y-51250000D03*
%TD*%
%TO.C,R6*%
G36*
G01*
X38819500Y-40628000D02*
X38269500Y-40628000D01*
G75*
G02*
X38069500Y-40428000I0J200000D01*
G01*
X38069500Y-40028000D01*
G75*
G02*
X38269500Y-39828000I200000J0D01*
G01*
X38819500Y-39828000D01*
G75*
G02*
X39019500Y-40028000I0J-200000D01*
G01*
X39019500Y-40428000D01*
G75*
G02*
X38819500Y-40628000I-200000J0D01*
G01*
G37*
G36*
G01*
X38819500Y-42278000D02*
X38269500Y-42278000D01*
G75*
G02*
X38069500Y-42078000I0J200000D01*
G01*
X38069500Y-41678000D01*
G75*
G02*
X38269500Y-41478000I200000J0D01*
G01*
X38819500Y-41478000D01*
G75*
G02*
X39019500Y-41678000I0J-200000D01*
G01*
X39019500Y-42078000D01*
G75*
G02*
X38819500Y-42278000I-200000J0D01*
G01*
G37*
%TD*%
%TO.C,R7*%
G36*
G01*
X44241000Y-45360000D02*
X44241000Y-44810000D01*
G75*
G02*
X44441000Y-44610000I200000J0D01*
G01*
X44841000Y-44610000D01*
G75*
G02*
X45041000Y-44810000I0J-200000D01*
G01*
X45041000Y-45360000D01*
G75*
G02*
X44841000Y-45560000I-200000J0D01*
G01*
X44441000Y-45560000D01*
G75*
G02*
X44241000Y-45360000I0J200000D01*
G01*
G37*
G36*
G01*
X45891000Y-45360000D02*
X45891000Y-44810000D01*
G75*
G02*
X46091000Y-44610000I200000J0D01*
G01*
X46491000Y-44610000D01*
G75*
G02*
X46691000Y-44810000I0J-200000D01*
G01*
X46691000Y-45360000D01*
G75*
G02*
X46491000Y-45560000I-200000J0D01*
G01*
X46091000Y-45560000D01*
G75*
G02*
X45891000Y-45360000I0J200000D01*
G01*
G37*
%TD*%
D15*
%TO.C,Y1*%
X53264500Y-49229500D03*
X53264500Y-51429500D03*
X51564500Y-51429500D03*
X51564500Y-49229500D03*
%TD*%
%TO.C,R9*%
G36*
G01*
X73835000Y-54920000D02*
X73285000Y-54920000D01*
G75*
G02*
X73085000Y-54720000I0J200000D01*
G01*
X73085000Y-54320000D01*
G75*
G02*
X73285000Y-54120000I200000J0D01*
G01*
X73835000Y-54120000D01*
G75*
G02*
X74035000Y-54320000I0J-200000D01*
G01*
X74035000Y-54720000D01*
G75*
G02*
X73835000Y-54920000I-200000J0D01*
G01*
G37*
G36*
G01*
X73835000Y-53270000D02*
X73285000Y-53270000D01*
G75*
G02*
X73085000Y-53070000I0J200000D01*
G01*
X73085000Y-52670000D01*
G75*
G02*
X73285000Y-52470000I200000J0D01*
G01*
X73835000Y-52470000D01*
G75*
G02*
X74035000Y-52670000I0J-200000D01*
G01*
X74035000Y-53070000D01*
G75*
G02*
X73835000Y-53270000I-200000J0D01*
G01*
G37*
%TD*%
%TO.C,L1*%
G36*
G01*
X43314000Y-33460000D02*
X43314000Y-31310000D01*
G75*
G02*
X43564000Y-31060000I250000J0D01*
G01*
X44314000Y-31060000D01*
G75*
G02*
X44564000Y-31310000I0J-250000D01*
G01*
X44564000Y-33460000D01*
G75*
G02*
X44314000Y-33710000I-250000J0D01*
G01*
X43564000Y-33710000D01*
G75*
G02*
X43314000Y-33460000I0J250000D01*
G01*
G37*
G36*
G01*
X46114000Y-33460000D02*
X46114000Y-31310000D01*
G75*
G02*
X46364000Y-31060000I250000J0D01*
G01*
X47114000Y-31060000D01*
G75*
G02*
X47364000Y-31310000I0J-250000D01*
G01*
X47364000Y-33460000D01*
G75*
G02*
X47114000Y-33710000I-250000J0D01*
G01*
X46364000Y-33710000D01*
G75*
G02*
X46114000Y-33460000I0J250000D01*
G01*
G37*
%TD*%
%TO.C,R12*%
G36*
G01*
X63675000Y-39775000D02*
X63675000Y-39225000D01*
G75*
G02*
X63875000Y-39025000I200000J0D01*
G01*
X64275000Y-39025000D01*
G75*
G02*
X64475000Y-39225000I0J-200000D01*
G01*
X64475000Y-39775000D01*
G75*
G02*
X64275000Y-39975000I-200000J0D01*
G01*
X63875000Y-39975000D01*
G75*
G02*
X63675000Y-39775000I0J200000D01*
G01*
G37*
G36*
G01*
X65325000Y-39775000D02*
X65325000Y-39225000D01*
G75*
G02*
X65525000Y-39025000I200000J0D01*
G01*
X65925000Y-39025000D01*
G75*
G02*
X66125000Y-39225000I0J-200000D01*
G01*
X66125000Y-39775000D01*
G75*
G02*
X65925000Y-39975000I-200000J0D01*
G01*
X65525000Y-39975000D01*
G75*
G02*
X65325000Y-39775000I0J200000D01*
G01*
G37*
%TD*%
%TO.C,R5*%
G36*
G01*
X53335500Y-40006000D02*
X52785500Y-40006000D01*
G75*
G02*
X52585500Y-39806000I0J200000D01*
G01*
X52585500Y-39406000D01*
G75*
G02*
X52785500Y-39206000I200000J0D01*
G01*
X53335500Y-39206000D01*
G75*
G02*
X53535500Y-39406000I0J-200000D01*
G01*
X53535500Y-39806000D01*
G75*
G02*
X53335500Y-40006000I-200000J0D01*
G01*
G37*
G36*
G01*
X53335500Y-38356000D02*
X52785500Y-38356000D01*
G75*
G02*
X52585500Y-38156000I0J200000D01*
G01*
X52585500Y-37756000D01*
G75*
G02*
X52785500Y-37556000I200000J0D01*
G01*
X53335500Y-37556000D01*
G75*
G02*
X53535500Y-37756000I0J-200000D01*
G01*
X53535500Y-38156000D01*
G75*
G02*
X53335500Y-38356000I-200000J0D01*
G01*
G37*
%TD*%
D16*
%TO.C,J6*%
X91985000Y-50875000D03*
X91985000Y-56355000D03*
D17*
X91235000Y-56575000D03*
X91235000Y-50625000D03*
D18*
X89935000Y-56475000D03*
X89915000Y-50725000D03*
D19*
X90035000Y-54925000D03*
X90035000Y-54275000D03*
X90035000Y-53625000D03*
X90035000Y-52975000D03*
X90035000Y-52325000D03*
D20*
X93185000Y-54585000D03*
X93185000Y-52665000D03*
%TD*%
%TO.C,L2*%
G36*
G01*
X54047500Y-56126000D02*
X53702500Y-56126000D01*
G75*
G02*
X53555000Y-55978500I0J147500D01*
G01*
X53555000Y-55683500D01*
G75*
G02*
X53702500Y-55536000I147500J0D01*
G01*
X54047500Y-55536000D01*
G75*
G02*
X54195000Y-55683500I0J-147500D01*
G01*
X54195000Y-55978500D01*
G75*
G02*
X54047500Y-56126000I-147500J0D01*
G01*
G37*
G36*
G01*
X54047500Y-55156000D02*
X53702500Y-55156000D01*
G75*
G02*
X53555000Y-55008500I0J147500D01*
G01*
X53555000Y-54713500D01*
G75*
G02*
X53702500Y-54566000I147500J0D01*
G01*
X54047500Y-54566000D01*
G75*
G02*
X54195000Y-54713500I0J-147500D01*
G01*
X54195000Y-55008500D01*
G75*
G02*
X54047500Y-55156000I-147500J0D01*
G01*
G37*
%TD*%
%TO.C,R8*%
G36*
G01*
X45953000Y-36621000D02*
X46503000Y-36621000D01*
G75*
G02*
X46703000Y-36821000I0J-200000D01*
G01*
X46703000Y-37221000D01*
G75*
G02*
X46503000Y-37421000I-200000J0D01*
G01*
X45953000Y-37421000D01*
G75*
G02*
X45753000Y-37221000I0J200000D01*
G01*
X45753000Y-36821000D01*
G75*
G02*
X45953000Y-36621000I200000J0D01*
G01*
G37*
G36*
G01*
X45953000Y-38271000D02*
X46503000Y-38271000D01*
G75*
G02*
X46703000Y-38471000I0J-200000D01*
G01*
X46703000Y-38871000D01*
G75*
G02*
X46503000Y-39071000I-200000J0D01*
G01*
X45953000Y-39071000D01*
G75*
G02*
X45753000Y-38871000I0J200000D01*
G01*
X45753000Y-38471000D01*
G75*
G02*
X45953000Y-38271000I200000J0D01*
G01*
G37*
%TD*%
%TO.C,C3*%
G36*
G01*
X41857000Y-42004000D02*
X41857000Y-41054000D01*
G75*
G02*
X42107000Y-40804000I250000J0D01*
G01*
X42607000Y-40804000D01*
G75*
G02*
X42857000Y-41054000I0J-250000D01*
G01*
X42857000Y-42004000D01*
G75*
G02*
X42607000Y-42254000I-250000J0D01*
G01*
X42107000Y-42254000D01*
G75*
G02*
X41857000Y-42004000I0J250000D01*
G01*
G37*
G36*
G01*
X43757000Y-42004000D02*
X43757000Y-41054000D01*
G75*
G02*
X44007000Y-40804000I250000J0D01*
G01*
X44507000Y-40804000D01*
G75*
G02*
X44757000Y-41054000I0J-250000D01*
G01*
X44757000Y-42004000D01*
G75*
G02*
X44507000Y-42254000I-250000J0D01*
G01*
X44007000Y-42254000D01*
G75*
G02*
X43757000Y-42004000I0J250000D01*
G01*
G37*
%TD*%
%TO.C,C16*%
G36*
G01*
X52586280Y-53009980D02*
X52586280Y-53349980D01*
G75*
G02*
X52446280Y-53489980I-140000J0D01*
G01*
X52166280Y-53489980D01*
G75*
G02*
X52026280Y-53349980I0J140000D01*
G01*
X52026280Y-53009980D01*
G75*
G02*
X52166280Y-52869980I140000J0D01*
G01*
X52446280Y-52869980D01*
G75*
G02*
X52586280Y-53009980I0J-140000D01*
G01*
G37*
G36*
G01*
X53546280Y-53009980D02*
X53546280Y-53349980D01*
G75*
G02*
X53406280Y-53489980I-140000J0D01*
G01*
X53126280Y-53489980D01*
G75*
G02*
X52986280Y-53349980I0J140000D01*
G01*
X52986280Y-53009980D01*
G75*
G02*
X53126280Y-52869980I140000J0D01*
G01*
X53406280Y-52869980D01*
G75*
G02*
X53546280Y-53009980I0J-140000D01*
G01*
G37*
%TD*%
D21*
%TO.C,D1*%
X83350000Y-58200000D03*
X86650000Y-58200000D03*
%TD*%
%TO.C,C1*%
G36*
G01*
X37999500Y-30296000D02*
X38200500Y-30296000D01*
G75*
G02*
X38280000Y-30375500I0J-79500D01*
G01*
X38280000Y-30534500D01*
G75*
G02*
X38200500Y-30614000I-79500J0D01*
G01*
X37999500Y-30614000D01*
G75*
G02*
X37920000Y-30534500I0J79500D01*
G01*
X37920000Y-30375500D01*
G75*
G02*
X37999500Y-30296000I79500J0D01*
G01*
G37*
G36*
G01*
X37999500Y-30986000D02*
X38200500Y-30986000D01*
G75*
G02*
X38280000Y-31065500I0J-79500D01*
G01*
X38280000Y-31224500D01*
G75*
G02*
X38200500Y-31304000I-79500J0D01*
G01*
X37999500Y-31304000D01*
G75*
G02*
X37920000Y-31224500I0J79500D01*
G01*
X37920000Y-31065500D01*
G75*
G02*
X37999500Y-30986000I79500J0D01*
G01*
G37*
%TD*%
D22*
%TO.C,D3*%
X39150000Y-43800000D03*
X35650000Y-43800000D03*
%TD*%
%TO.C,D2*%
G36*
G01*
X51665750Y-40006000D02*
X51153250Y-40006000D01*
G75*
G02*
X50934500Y-39787250I0J218750D01*
G01*
X50934500Y-39349750D01*
G75*
G02*
X51153250Y-39131000I218750J0D01*
G01*
X51665750Y-39131000D01*
G75*
G02*
X51884500Y-39349750I0J-218750D01*
G01*
X51884500Y-39787250D01*
G75*
G02*
X51665750Y-40006000I-218750J0D01*
G01*
G37*
G36*
G01*
X51665750Y-38431000D02*
X51153250Y-38431000D01*
G75*
G02*
X50934500Y-38212250I0J218750D01*
G01*
X50934500Y-37774750D01*
G75*
G02*
X51153250Y-37556000I218750J0D01*
G01*
X51665750Y-37556000D01*
G75*
G02*
X51884500Y-37774750I0J-218750D01*
G01*
X51884500Y-38212250D01*
G75*
G02*
X51665750Y-38431000I-218750J0D01*
G01*
G37*
%TD*%
D21*
%TO.C,D4*%
X47116000Y-29337000D03*
X43816000Y-29337000D03*
%TD*%
%TO.C,D5*%
G36*
G01*
X72038250Y-54983500D02*
X71525750Y-54983500D01*
G75*
G02*
X71307000Y-54764750I0J218750D01*
G01*
X71307000Y-54327250D01*
G75*
G02*
X71525750Y-54108500I218750J0D01*
G01*
X72038250Y-54108500D01*
G75*
G02*
X72257000Y-54327250I0J-218750D01*
G01*
X72257000Y-54764750D01*
G75*
G02*
X72038250Y-54983500I-218750J0D01*
G01*
G37*
G36*
G01*
X72038250Y-53408500D02*
X71525750Y-53408500D01*
G75*
G02*
X71307000Y-53189750I0J218750D01*
G01*
X71307000Y-52752250D01*
G75*
G02*
X71525750Y-52533500I218750J0D01*
G01*
X72038250Y-52533500D01*
G75*
G02*
X72257000Y-52752250I0J-218750D01*
G01*
X72257000Y-53189750D01*
G75*
G02*
X72038250Y-53408500I-218750J0D01*
G01*
G37*
%TD*%
%TO.C,FB1*%
G36*
G01*
X36068750Y-41275000D02*
X36831250Y-41275000D01*
G75*
G02*
X37050000Y-41493750I0J-218750D01*
G01*
X37050000Y-41931250D01*
G75*
G02*
X36831250Y-42150000I-218750J0D01*
G01*
X36068750Y-42150000D01*
G75*
G02*
X35850000Y-41931250I0J218750D01*
G01*
X35850000Y-41493750D01*
G75*
G02*
X36068750Y-41275000I218750J0D01*
G01*
G37*
G36*
G01*
X36068750Y-39150000D02*
X36831250Y-39150000D01*
G75*
G02*
X37050000Y-39368750I0J-218750D01*
G01*
X37050000Y-39806250D01*
G75*
G02*
X36831250Y-40025000I-218750J0D01*
G01*
X36068750Y-40025000D01*
G75*
G02*
X35850000Y-39806250I0J218750D01*
G01*
X35850000Y-39368750D01*
G75*
G02*
X36068750Y-39150000I218750J0D01*
G01*
G37*
%TD*%
%TO.C,C7*%
G36*
G01*
X59274500Y-43133500D02*
X59274500Y-42793500D01*
G75*
G02*
X59414500Y-42653500I140000J0D01*
G01*
X59694500Y-42653500D01*
G75*
G02*
X59834500Y-42793500I0J-140000D01*
G01*
X59834500Y-43133500D01*
G75*
G02*
X59694500Y-43273500I-140000J0D01*
G01*
X59414500Y-43273500D01*
G75*
G02*
X59274500Y-43133500I0J140000D01*
G01*
G37*
G36*
G01*
X60234500Y-43133500D02*
X60234500Y-42793500D01*
G75*
G02*
X60374500Y-42653500I140000J0D01*
G01*
X60654500Y-42653500D01*
G75*
G02*
X60794500Y-42793500I0J-140000D01*
G01*
X60794500Y-43133500D01*
G75*
G02*
X60654500Y-43273500I-140000J0D01*
G01*
X60374500Y-43273500D01*
G75*
G02*
X60234500Y-43133500I0J140000D01*
G01*
G37*
%TD*%
%TO.C,C5*%
G36*
G01*
X66996600Y-58574000D02*
X67336600Y-58574000D01*
G75*
G02*
X67476600Y-58714000I0J-140000D01*
G01*
X67476600Y-58994000D01*
G75*
G02*
X67336600Y-59134000I-140000J0D01*
G01*
X66996600Y-59134000D01*
G75*
G02*
X66856600Y-58994000I0J140000D01*
G01*
X66856600Y-58714000D01*
G75*
G02*
X66996600Y-58574000I140000J0D01*
G01*
G37*
G36*
G01*
X66996600Y-57614000D02*
X67336600Y-57614000D01*
G75*
G02*
X67476600Y-57754000I0J-140000D01*
G01*
X67476600Y-58034000D01*
G75*
G02*
X67336600Y-58174000I-140000J0D01*
G01*
X66996600Y-58174000D01*
G75*
G02*
X66856600Y-58034000I0J140000D01*
G01*
X66856600Y-57754000D01*
G75*
G02*
X66996600Y-57614000I140000J0D01*
G01*
G37*
%TD*%
%TO.C,C8*%
G36*
G01*
X69602500Y-45374500D02*
X69262500Y-45374500D01*
G75*
G02*
X69122500Y-45234500I0J140000D01*
G01*
X69122500Y-44954500D01*
G75*
G02*
X69262500Y-44814500I140000J0D01*
G01*
X69602500Y-44814500D01*
G75*
G02*
X69742500Y-44954500I0J-140000D01*
G01*
X69742500Y-45234500D01*
G75*
G02*
X69602500Y-45374500I-140000J0D01*
G01*
G37*
G36*
G01*
X69602500Y-44414500D02*
X69262500Y-44414500D01*
G75*
G02*
X69122500Y-44274500I0J140000D01*
G01*
X69122500Y-43994500D01*
G75*
G02*
X69262500Y-43854500I140000J0D01*
G01*
X69602500Y-43854500D01*
G75*
G02*
X69742500Y-43994500I0J-140000D01*
G01*
X69742500Y-44274500D01*
G75*
G02*
X69602500Y-44414500I-140000J0D01*
G01*
G37*
%TD*%
%TO.C,C11*%
G36*
G01*
X51622000Y-56558000D02*
X52572000Y-56558000D01*
G75*
G02*
X52822000Y-56808000I0J-250000D01*
G01*
X52822000Y-57308000D01*
G75*
G02*
X52572000Y-57558000I-250000J0D01*
G01*
X51622000Y-57558000D01*
G75*
G02*
X51372000Y-57308000I0J250000D01*
G01*
X51372000Y-56808000D01*
G75*
G02*
X51622000Y-56558000I250000J0D01*
G01*
G37*
G36*
G01*
X51622000Y-54658000D02*
X52572000Y-54658000D01*
G75*
G02*
X52822000Y-54908000I0J-250000D01*
G01*
X52822000Y-55408000D01*
G75*
G02*
X52572000Y-55658000I-250000J0D01*
G01*
X51622000Y-55658000D01*
G75*
G02*
X51372000Y-55408000I0J250000D01*
G01*
X51372000Y-54908000D01*
G75*
G02*
X51622000Y-54658000I250000J0D01*
G01*
G37*
%TD*%
%TO.C,C14*%
G36*
G01*
X71397000Y-46982500D02*
X70897000Y-46982500D01*
G75*
G02*
X70672000Y-46757500I0J225000D01*
G01*
X70672000Y-46307500D01*
G75*
G02*
X70897000Y-46082500I225000J0D01*
G01*
X71397000Y-46082500D01*
G75*
G02*
X71622000Y-46307500I0J-225000D01*
G01*
X71622000Y-46757500D01*
G75*
G02*
X71397000Y-46982500I-225000J0D01*
G01*
G37*
G36*
G01*
X71397000Y-45432500D02*
X70897000Y-45432500D01*
G75*
G02*
X70672000Y-45207500I0J225000D01*
G01*
X70672000Y-44757500D01*
G75*
G02*
X70897000Y-44532500I225000J0D01*
G01*
X71397000Y-44532500D01*
G75*
G02*
X71622000Y-44757500I0J-225000D01*
G01*
X71622000Y-45207500D01*
G75*
G02*
X71397000Y-45432500I-225000J0D01*
G01*
G37*
%TD*%
%TO.C,C13*%
G36*
G01*
X65436000Y-57677000D02*
X65936000Y-57677000D01*
G75*
G02*
X66161000Y-57902000I0J-225000D01*
G01*
X66161000Y-58352000D01*
G75*
G02*
X65936000Y-58577000I-225000J0D01*
G01*
X65436000Y-58577000D01*
G75*
G02*
X65211000Y-58352000I0J225000D01*
G01*
X65211000Y-57902000D01*
G75*
G02*
X65436000Y-57677000I225000J0D01*
G01*
G37*
G36*
G01*
X65436000Y-59227000D02*
X65936000Y-59227000D01*
G75*
G02*
X66161000Y-59452000I0J-225000D01*
G01*
X66161000Y-59902000D01*
G75*
G02*
X65936000Y-60127000I-225000J0D01*
G01*
X65436000Y-60127000D01*
G75*
G02*
X65211000Y-59902000I0J225000D01*
G01*
X65211000Y-59452000D01*
G75*
G02*
X65436000Y-59227000I225000J0D01*
G01*
G37*
%TD*%
%TO.C,C15*%
G36*
G01*
X51689540Y-47185760D02*
X51689540Y-47525760D01*
G75*
G02*
X51549540Y-47665760I-140000J0D01*
G01*
X51269540Y-47665760D01*
G75*
G02*
X51129540Y-47525760I0J140000D01*
G01*
X51129540Y-47185760D01*
G75*
G02*
X51269540Y-47045760I140000J0D01*
G01*
X51549540Y-47045760D01*
G75*
G02*
X51689540Y-47185760I0J-140000D01*
G01*
G37*
G36*
G01*
X50729540Y-47185760D02*
X50729540Y-47525760D01*
G75*
G02*
X50589540Y-47665760I-140000J0D01*
G01*
X50309540Y-47665760D01*
G75*
G02*
X50169540Y-47525760I0J140000D01*
G01*
X50169540Y-47185760D01*
G75*
G02*
X50309540Y-47045760I140000J0D01*
G01*
X50589540Y-47045760D01*
G75*
G02*
X50729540Y-47185760I0J-140000D01*
G01*
G37*
%TD*%
%TO.C,C9*%
G36*
G01*
X59580000Y-58230000D02*
X59580000Y-58570000D01*
G75*
G02*
X59440000Y-58710000I-140000J0D01*
G01*
X59160000Y-58710000D01*
G75*
G02*
X59020000Y-58570000I0J140000D01*
G01*
X59020000Y-58230000D01*
G75*
G02*
X59160000Y-58090000I140000J0D01*
G01*
X59440000Y-58090000D01*
G75*
G02*
X59580000Y-58230000I0J-140000D01*
G01*
G37*
G36*
G01*
X60540000Y-58230000D02*
X60540000Y-58570000D01*
G75*
G02*
X60400000Y-58710000I-140000J0D01*
G01*
X60120000Y-58710000D01*
G75*
G02*
X59980000Y-58570000I0J140000D01*
G01*
X59980000Y-58230000D01*
G75*
G02*
X60120000Y-58090000I140000J0D01*
G01*
X60400000Y-58090000D01*
G75*
G02*
X60540000Y-58230000I0J-140000D01*
G01*
G37*
%TD*%
%TO.C,C6*%
G36*
G01*
X55135500Y-46603500D02*
X55135500Y-46943500D01*
G75*
G02*
X54995500Y-47083500I-140000J0D01*
G01*
X54715500Y-47083500D01*
G75*
G02*
X54575500Y-46943500I0J140000D01*
G01*
X54575500Y-46603500D01*
G75*
G02*
X54715500Y-46463500I140000J0D01*
G01*
X54995500Y-46463500D01*
G75*
G02*
X55135500Y-46603500I0J-140000D01*
G01*
G37*
G36*
G01*
X56095500Y-46603500D02*
X56095500Y-46943500D01*
G75*
G02*
X55955500Y-47083500I-140000J0D01*
G01*
X55675500Y-47083500D01*
G75*
G02*
X55535500Y-46943500I0J140000D01*
G01*
X55535500Y-46603500D01*
G75*
G02*
X55675500Y-46463500I140000J0D01*
G01*
X55955500Y-46463500D01*
G75*
G02*
X56095500Y-46603500I0J-140000D01*
G01*
G37*
%TD*%
%TO.C,C4*%
G36*
G01*
X37117000Y-34994000D02*
X38067000Y-34994000D01*
G75*
G02*
X38317000Y-35244000I0J-250000D01*
G01*
X38317000Y-35744000D01*
G75*
G02*
X38067000Y-35994000I-250000J0D01*
G01*
X37117000Y-35994000D01*
G75*
G02*
X36867000Y-35744000I0J250000D01*
G01*
X36867000Y-35244000D01*
G75*
G02*
X37117000Y-34994000I250000J0D01*
G01*
G37*
G36*
G01*
X37117000Y-33094000D02*
X38067000Y-33094000D01*
G75*
G02*
X38317000Y-33344000I0J-250000D01*
G01*
X38317000Y-33844000D01*
G75*
G02*
X38067000Y-34094000I-250000J0D01*
G01*
X37117000Y-34094000D01*
G75*
G02*
X36867000Y-33844000I0J250000D01*
G01*
X36867000Y-33344000D01*
G75*
G02*
X37117000Y-33094000I250000J0D01*
G01*
G37*
%TD*%
%TO.C,C10*%
G36*
G01*
X68266600Y-57614000D02*
X68606600Y-57614000D01*
G75*
G02*
X68746600Y-57754000I0J-140000D01*
G01*
X68746600Y-58034000D01*
G75*
G02*
X68606600Y-58174000I-140000J0D01*
G01*
X68266600Y-58174000D01*
G75*
G02*
X68126600Y-58034000I0J140000D01*
G01*
X68126600Y-57754000D01*
G75*
G02*
X68266600Y-57614000I140000J0D01*
G01*
G37*
G36*
G01*
X68266600Y-58574000D02*
X68606600Y-58574000D01*
G75*
G02*
X68746600Y-58714000I0J-140000D01*
G01*
X68746600Y-58994000D01*
G75*
G02*
X68606600Y-59134000I-140000J0D01*
G01*
X68266600Y-59134000D01*
G75*
G02*
X68126600Y-58994000I0J140000D01*
G01*
X68126600Y-58714000D01*
G75*
G02*
X68266600Y-58574000I140000J0D01*
G01*
G37*
%TD*%
M02*
