%TF.GenerationSoftware,KiCad,Pcbnew,(5.1.9)-1*%
%TF.CreationDate,2021-03-02T22:26:18+05:30*%
%TF.ProjectId,STM32F4,53544d33-3246-4342-9e6b-696361645f70,rev?*%
%TF.SameCoordinates,Original*%
%TF.FileFunction,Copper,L1,Top*%
%TF.FilePolarity,Positive*%
%FSLAX46Y46*%
G04 Gerber Fmt 4.6, Leading zero omitted, Abs format (unit mm)*
G04 Created by KiCad (PCBNEW (5.1.9)-1) date 2021-03-02 22:26:18*
%MOMM*%
%LPD*%
G01*
G04 APERTURE LIST*
%TA.AperFunction,NonConductor*%
%ADD10C,0.200000*%
%TD*%
%TA.AperFunction,NonConductor*%
%ADD11C,0.300000*%
%TD*%
%TA.AperFunction,ComponentPad*%
%ADD12C,6.400000*%
%TD*%
%TA.AperFunction,ComponentPad*%
%ADD13C,0.800000*%
%TD*%
%TA.AperFunction,ComponentPad*%
%ADD14C,2.600000*%
%TD*%
%TA.AperFunction,ComponentPad*%
%ADD15R,2.600000X2.600000*%
%TD*%
%TA.AperFunction,SMDPad,CuDef*%
%ADD16R,0.740000X2.400000*%
%TD*%
%TA.AperFunction,SMDPad,CuDef*%
%ADD17R,0.800000X0.900000*%
%TD*%
%TA.AperFunction,SMDPad,CuDef*%
%ADD18R,0.650000X1.060000*%
%TD*%
%TA.AperFunction,SMDPad,CuDef*%
%ADD19R,1.060000X0.650000*%
%TD*%
%TA.AperFunction,SMDPad,CuDef*%
%ADD20R,1.200000X1.400000*%
%TD*%
%TA.AperFunction,ComponentPad*%
%ADD21C,1.740000*%
%TD*%
%TA.AperFunction,ComponentPad*%
%ADD22R,1.500000X2.500000*%
%TD*%
%TA.AperFunction,ComponentPad*%
%ADD23O,1.500000X2.500000*%
%TD*%
%TA.AperFunction,ComponentPad*%
%ADD24O,2.200000X3.500000*%
%TD*%
%TA.AperFunction,SMDPad,CuDef*%
%ADD25R,2.000000X1.350000*%
%TD*%
%TA.AperFunction,SMDPad,CuDef*%
%ADD26R,0.700000X1.825000*%
%TD*%
%TA.AperFunction,SMDPad,CuDef*%
%ADD27R,1.500000X2.000000*%
%TD*%
%TA.AperFunction,SMDPad,CuDef*%
%ADD28R,1.650000X0.400000*%
%TD*%
%TA.AperFunction,ComponentPad*%
%ADD29O,1.500000X1.100000*%
%TD*%
%TA.AperFunction,ComponentPad*%
%ADD30O,1.700000X1.350000*%
%TD*%
%TA.AperFunction,SMDPad,CuDef*%
%ADD31R,2.500000X1.430000*%
%TD*%
%TA.AperFunction,SMDPad,CuDef*%
%ADD32R,0.900000X1.200000*%
%TD*%
%TA.AperFunction,SMDPad,CuDef*%
%ADD33R,1.300000X1.700000*%
%TD*%
%TA.AperFunction,ViaPad*%
%ADD34C,0.800000*%
%TD*%
%TA.AperFunction,Conductor*%
%ADD35C,0.300000*%
%TD*%
%TA.AperFunction,Conductor*%
%ADD36C,0.500000*%
%TD*%
%TA.AperFunction,Conductor*%
%ADD37C,1.000000*%
%TD*%
%TA.AperFunction,Conductor*%
%ADD38C,0.700000*%
%TD*%
%TA.AperFunction,Conductor*%
%ADD39C,0.250000*%
%TD*%
%TA.AperFunction,Conductor*%
%ADD40C,0.261112*%
%TD*%
%TA.AperFunction,Conductor*%
%ADD41C,0.254000*%
%TD*%
%TA.AperFunction,Conductor*%
%ADD42C,0.100000*%
%TD*%
%TA.AperFunction,Conductor*%
%ADD43C,0.200000*%
%TD*%
G04 APERTURE END LIST*
D10*
X43640476Y-56454761D02*
X42973809Y-55502380D01*
X42497619Y-56454761D02*
X42497619Y-54454761D01*
X43259523Y-54454761D01*
X43450000Y-54550000D01*
X43545238Y-54645238D01*
X43640476Y-54835714D01*
X43640476Y-55121428D01*
X43545238Y-55311904D01*
X43450000Y-55407142D01*
X43259523Y-55502380D01*
X42497619Y-55502380D01*
X44497619Y-56264285D02*
X44592857Y-56359523D01*
X44497619Y-56454761D01*
X44402380Y-56359523D01*
X44497619Y-56264285D01*
X44497619Y-56454761D01*
X45450000Y-56454761D02*
X45450000Y-54454761D01*
X45926190Y-54454761D01*
X46211904Y-54550000D01*
X46402380Y-54740476D01*
X46497619Y-54930952D01*
X46592857Y-55311904D01*
X46592857Y-55597619D01*
X46497619Y-55978571D01*
X46402380Y-56169047D01*
X46211904Y-56359523D01*
X45926190Y-56454761D01*
X45450000Y-56454761D01*
X47450000Y-56264285D02*
X47545238Y-56359523D01*
X47450000Y-56454761D01*
X47354761Y-56359523D01*
X47450000Y-56264285D01*
X47450000Y-56454761D01*
X48402380Y-56454761D02*
X48402380Y-54454761D01*
X48878571Y-54454761D01*
X49164285Y-54550000D01*
X49354761Y-54740476D01*
X49450000Y-54930952D01*
X49545238Y-55311904D01*
X49545238Y-55597619D01*
X49450000Y-55978571D01*
X49354761Y-56169047D01*
X49164285Y-56359523D01*
X48878571Y-56454761D01*
X48402380Y-56454761D01*
X50402380Y-56264285D02*
X50497619Y-56359523D01*
X50402380Y-56454761D01*
X50307142Y-56359523D01*
X50402380Y-56264285D01*
X50402380Y-56454761D01*
D11*
X89438571Y-59028571D02*
X89286785Y-60242857D01*
X89340357Y-60385714D01*
X89402857Y-60457142D01*
X89536785Y-60528571D01*
X89822500Y-60528571D01*
X89974285Y-60457142D01*
X90054642Y-60385714D01*
X90143928Y-60242857D01*
X90295714Y-59028571D01*
X90760000Y-60457142D02*
X90965357Y-60528571D01*
X91322500Y-60528571D01*
X91474285Y-60457142D01*
X91554642Y-60385714D01*
X91643928Y-60242857D01*
X91661785Y-60100000D01*
X91608214Y-59957142D01*
X91545714Y-59885714D01*
X91411785Y-59814285D01*
X91135000Y-59742857D01*
X91001071Y-59671428D01*
X90938571Y-59600000D01*
X90885000Y-59457142D01*
X90902857Y-59314285D01*
X90992142Y-59171428D01*
X91072500Y-59100000D01*
X91224285Y-59028571D01*
X91581428Y-59028571D01*
X91786785Y-59100000D01*
X92849285Y-59742857D02*
X93054642Y-59814285D01*
X93117142Y-59885714D01*
X93170714Y-60028571D01*
X93143928Y-60242857D01*
X93054642Y-60385714D01*
X92974285Y-60457142D01*
X92822500Y-60528571D01*
X92251071Y-60528571D01*
X92438571Y-59028571D01*
X92938571Y-59028571D01*
X93072500Y-59100000D01*
X93135000Y-59171428D01*
X93188571Y-59314285D01*
X93170714Y-59457142D01*
X93081428Y-59600000D01*
X93001071Y-59671428D01*
X92849285Y-59742857D01*
X92349285Y-59742857D01*
%TO.P,U3,64*%
%TO.N,+3V3*%
%TA.AperFunction,SMDPad,CuDef*%
G36*
G01*
X59436500Y-45481500D02*
X59436500Y-44081500D01*
G75*
G02*
X59511500Y-44006500I75000J0D01*
G01*
X59661500Y-44006500D01*
G75*
G02*
X59736500Y-44081500I0J-75000D01*
G01*
X59736500Y-45481500D01*
G75*
G02*
X59661500Y-45556500I-75000J0D01*
G01*
X59511500Y-45556500D01*
G75*
G02*
X59436500Y-45481500I0J75000D01*
G01*
G37*
%TD.AperFunction*%
%TO.P,U3,63*%
%TO.N,GND*%
%TA.AperFunction,SMDPad,CuDef*%
G36*
G01*
X59936500Y-45481500D02*
X59936500Y-44081500D01*
G75*
G02*
X60011500Y-44006500I75000J0D01*
G01*
X60161500Y-44006500D01*
G75*
G02*
X60236500Y-44081500I0J-75000D01*
G01*
X60236500Y-45481500D01*
G75*
G02*
X60161500Y-45556500I-75000J0D01*
G01*
X60011500Y-45556500D01*
G75*
G02*
X59936500Y-45481500I0J75000D01*
G01*
G37*
%TD.AperFunction*%
%TO.P,U3,62*%
%TO.N,Net-(U3-Pad62)*%
%TA.AperFunction,SMDPad,CuDef*%
G36*
G01*
X60436500Y-45481500D02*
X60436500Y-44081500D01*
G75*
G02*
X60511500Y-44006500I75000J0D01*
G01*
X60661500Y-44006500D01*
G75*
G02*
X60736500Y-44081500I0J-75000D01*
G01*
X60736500Y-45481500D01*
G75*
G02*
X60661500Y-45556500I-75000J0D01*
G01*
X60511500Y-45556500D01*
G75*
G02*
X60436500Y-45481500I0J75000D01*
G01*
G37*
%TD.AperFunction*%
%TO.P,U3,61*%
%TO.N,Net-(U3-Pad61)*%
%TA.AperFunction,SMDPad,CuDef*%
G36*
G01*
X60936500Y-45481500D02*
X60936500Y-44081500D01*
G75*
G02*
X61011500Y-44006500I75000J0D01*
G01*
X61161500Y-44006500D01*
G75*
G02*
X61236500Y-44081500I0J-75000D01*
G01*
X61236500Y-45481500D01*
G75*
G02*
X61161500Y-45556500I-75000J0D01*
G01*
X61011500Y-45556500D01*
G75*
G02*
X60936500Y-45481500I0J75000D01*
G01*
G37*
%TD.AperFunction*%
%TO.P,U3,60*%
%TO.N,BOOT0*%
%TA.AperFunction,SMDPad,CuDef*%
G36*
G01*
X61436500Y-45481500D02*
X61436500Y-44081500D01*
G75*
G02*
X61511500Y-44006500I75000J0D01*
G01*
X61661500Y-44006500D01*
G75*
G02*
X61736500Y-44081500I0J-75000D01*
G01*
X61736500Y-45481500D01*
G75*
G02*
X61661500Y-45556500I-75000J0D01*
G01*
X61511500Y-45556500D01*
G75*
G02*
X61436500Y-45481500I0J75000D01*
G01*
G37*
%TD.AperFunction*%
%TO.P,U3,59*%
%TO.N,I2C1_SDA*%
%TA.AperFunction,SMDPad,CuDef*%
G36*
G01*
X61936500Y-45481500D02*
X61936500Y-44081500D01*
G75*
G02*
X62011500Y-44006500I75000J0D01*
G01*
X62161500Y-44006500D01*
G75*
G02*
X62236500Y-44081500I0J-75000D01*
G01*
X62236500Y-45481500D01*
G75*
G02*
X62161500Y-45556500I-75000J0D01*
G01*
X62011500Y-45556500D01*
G75*
G02*
X61936500Y-45481500I0J75000D01*
G01*
G37*
%TD.AperFunction*%
%TO.P,U3,58*%
%TO.N,I2C1_SCL*%
%TA.AperFunction,SMDPad,CuDef*%
G36*
G01*
X62436500Y-45481500D02*
X62436500Y-44081500D01*
G75*
G02*
X62511500Y-44006500I75000J0D01*
G01*
X62661500Y-44006500D01*
G75*
G02*
X62736500Y-44081500I0J-75000D01*
G01*
X62736500Y-45481500D01*
G75*
G02*
X62661500Y-45556500I-75000J0D01*
G01*
X62511500Y-45556500D01*
G75*
G02*
X62436500Y-45481500I0J75000D01*
G01*
G37*
%TD.AperFunction*%
%TO.P,U3,57*%
%TO.N,Net-(U3-Pad57)*%
%TA.AperFunction,SMDPad,CuDef*%
G36*
G01*
X62936500Y-45481500D02*
X62936500Y-44081500D01*
G75*
G02*
X63011500Y-44006500I75000J0D01*
G01*
X63161500Y-44006500D01*
G75*
G02*
X63236500Y-44081500I0J-75000D01*
G01*
X63236500Y-45481500D01*
G75*
G02*
X63161500Y-45556500I-75000J0D01*
G01*
X63011500Y-45556500D01*
G75*
G02*
X62936500Y-45481500I0J75000D01*
G01*
G37*
%TD.AperFunction*%
%TO.P,U3,56*%
%TO.N,Net-(U3-Pad56)*%
%TA.AperFunction,SMDPad,CuDef*%
G36*
G01*
X63436500Y-45481500D02*
X63436500Y-44081500D01*
G75*
G02*
X63511500Y-44006500I75000J0D01*
G01*
X63661500Y-44006500D01*
G75*
G02*
X63736500Y-44081500I0J-75000D01*
G01*
X63736500Y-45481500D01*
G75*
G02*
X63661500Y-45556500I-75000J0D01*
G01*
X63511500Y-45556500D01*
G75*
G02*
X63436500Y-45481500I0J75000D01*
G01*
G37*
%TD.AperFunction*%
%TO.P,U3,55*%
%TO.N,SWO*%
%TA.AperFunction,SMDPad,CuDef*%
G36*
G01*
X63936500Y-45481500D02*
X63936500Y-44081500D01*
G75*
G02*
X64011500Y-44006500I75000J0D01*
G01*
X64161500Y-44006500D01*
G75*
G02*
X64236500Y-44081500I0J-75000D01*
G01*
X64236500Y-45481500D01*
G75*
G02*
X64161500Y-45556500I-75000J0D01*
G01*
X64011500Y-45556500D01*
G75*
G02*
X63936500Y-45481500I0J75000D01*
G01*
G37*
%TD.AperFunction*%
%TO.P,U3,54*%
%TO.N,Net-(U3-Pad54)*%
%TA.AperFunction,SMDPad,CuDef*%
G36*
G01*
X64436500Y-45481500D02*
X64436500Y-44081500D01*
G75*
G02*
X64511500Y-44006500I75000J0D01*
G01*
X64661500Y-44006500D01*
G75*
G02*
X64736500Y-44081500I0J-75000D01*
G01*
X64736500Y-45481500D01*
G75*
G02*
X64661500Y-45556500I-75000J0D01*
G01*
X64511500Y-45556500D01*
G75*
G02*
X64436500Y-45481500I0J75000D01*
G01*
G37*
%TD.AperFunction*%
%TO.P,U3,53*%
%TO.N,Net-(U3-Pad53)*%
%TA.AperFunction,SMDPad,CuDef*%
G36*
G01*
X64936500Y-45481500D02*
X64936500Y-44081500D01*
G75*
G02*
X65011500Y-44006500I75000J0D01*
G01*
X65161500Y-44006500D01*
G75*
G02*
X65236500Y-44081500I0J-75000D01*
G01*
X65236500Y-45481500D01*
G75*
G02*
X65161500Y-45556500I-75000J0D01*
G01*
X65011500Y-45556500D01*
G75*
G02*
X64936500Y-45481500I0J75000D01*
G01*
G37*
%TD.AperFunction*%
%TO.P,U3,52*%
%TO.N,Net-(U3-Pad52)*%
%TA.AperFunction,SMDPad,CuDef*%
G36*
G01*
X65436500Y-45481500D02*
X65436500Y-44081500D01*
G75*
G02*
X65511500Y-44006500I75000J0D01*
G01*
X65661500Y-44006500D01*
G75*
G02*
X65736500Y-44081500I0J-75000D01*
G01*
X65736500Y-45481500D01*
G75*
G02*
X65661500Y-45556500I-75000J0D01*
G01*
X65511500Y-45556500D01*
G75*
G02*
X65436500Y-45481500I0J75000D01*
G01*
G37*
%TD.AperFunction*%
%TO.P,U3,51*%
%TO.N,Net-(U3-Pad51)*%
%TA.AperFunction,SMDPad,CuDef*%
G36*
G01*
X65936500Y-45481500D02*
X65936500Y-44081500D01*
G75*
G02*
X66011500Y-44006500I75000J0D01*
G01*
X66161500Y-44006500D01*
G75*
G02*
X66236500Y-44081500I0J-75000D01*
G01*
X66236500Y-45481500D01*
G75*
G02*
X66161500Y-45556500I-75000J0D01*
G01*
X66011500Y-45556500D01*
G75*
G02*
X65936500Y-45481500I0J75000D01*
G01*
G37*
%TD.AperFunction*%
%TO.P,U3,50*%
%TO.N,Net-(U3-Pad50)*%
%TA.AperFunction,SMDPad,CuDef*%
G36*
G01*
X66436500Y-45481500D02*
X66436500Y-44081500D01*
G75*
G02*
X66511500Y-44006500I75000J0D01*
G01*
X66661500Y-44006500D01*
G75*
G02*
X66736500Y-44081500I0J-75000D01*
G01*
X66736500Y-45481500D01*
G75*
G02*
X66661500Y-45556500I-75000J0D01*
G01*
X66511500Y-45556500D01*
G75*
G02*
X66436500Y-45481500I0J75000D01*
G01*
G37*
%TD.AperFunction*%
%TO.P,U3,49*%
%TO.N,SWCLK*%
%TA.AperFunction,SMDPad,CuDef*%
G36*
G01*
X66936500Y-45481500D02*
X66936500Y-44081500D01*
G75*
G02*
X67011500Y-44006500I75000J0D01*
G01*
X67161500Y-44006500D01*
G75*
G02*
X67236500Y-44081500I0J-75000D01*
G01*
X67236500Y-45481500D01*
G75*
G02*
X67161500Y-45556500I-75000J0D01*
G01*
X67011500Y-45556500D01*
G75*
G02*
X66936500Y-45481500I0J75000D01*
G01*
G37*
%TD.AperFunction*%
%TO.P,U3,48*%
%TO.N,+3V3*%
%TA.AperFunction,SMDPad,CuDef*%
G36*
G01*
X68236500Y-46781500D02*
X68236500Y-46631500D01*
G75*
G02*
X68311500Y-46556500I75000J0D01*
G01*
X69711500Y-46556500D01*
G75*
G02*
X69786500Y-46631500I0J-75000D01*
G01*
X69786500Y-46781500D01*
G75*
G02*
X69711500Y-46856500I-75000J0D01*
G01*
X68311500Y-46856500D01*
G75*
G02*
X68236500Y-46781500I0J75000D01*
G01*
G37*
%TD.AperFunction*%
%TO.P,U3,47*%
%TO.N,Net-(C14-Pad1)*%
%TA.AperFunction,SMDPad,CuDef*%
G36*
G01*
X68236500Y-47281500D02*
X68236500Y-47131500D01*
G75*
G02*
X68311500Y-47056500I75000J0D01*
G01*
X69711500Y-47056500D01*
G75*
G02*
X69786500Y-47131500I0J-75000D01*
G01*
X69786500Y-47281500D01*
G75*
G02*
X69711500Y-47356500I-75000J0D01*
G01*
X68311500Y-47356500D01*
G75*
G02*
X68236500Y-47281500I0J75000D01*
G01*
G37*
%TD.AperFunction*%
%TO.P,U3,46*%
%TO.N,SDWIO*%
%TA.AperFunction,SMDPad,CuDef*%
G36*
G01*
X68236500Y-47781500D02*
X68236500Y-47631500D01*
G75*
G02*
X68311500Y-47556500I75000J0D01*
G01*
X69711500Y-47556500D01*
G75*
G02*
X69786500Y-47631500I0J-75000D01*
G01*
X69786500Y-47781500D01*
G75*
G02*
X69711500Y-47856500I-75000J0D01*
G01*
X68311500Y-47856500D01*
G75*
G02*
X68236500Y-47781500I0J75000D01*
G01*
G37*
%TD.AperFunction*%
%TO.P,U3,45*%
%TO.N,USB_D+*%
%TA.AperFunction,SMDPad,CuDef*%
G36*
G01*
X68236500Y-48281500D02*
X68236500Y-48131500D01*
G75*
G02*
X68311500Y-48056500I75000J0D01*
G01*
X69711500Y-48056500D01*
G75*
G02*
X69786500Y-48131500I0J-75000D01*
G01*
X69786500Y-48281500D01*
G75*
G02*
X69711500Y-48356500I-75000J0D01*
G01*
X68311500Y-48356500D01*
G75*
G02*
X68236500Y-48281500I0J75000D01*
G01*
G37*
%TD.AperFunction*%
%TO.P,U3,44*%
%TO.N,USB_D-*%
%TA.AperFunction,SMDPad,CuDef*%
G36*
G01*
X68236500Y-48781500D02*
X68236500Y-48631500D01*
G75*
G02*
X68311500Y-48556500I75000J0D01*
G01*
X69711500Y-48556500D01*
G75*
G02*
X69786500Y-48631500I0J-75000D01*
G01*
X69786500Y-48781500D01*
G75*
G02*
X69711500Y-48856500I-75000J0D01*
G01*
X68311500Y-48856500D01*
G75*
G02*
X68236500Y-48781500I0J75000D01*
G01*
G37*
%TD.AperFunction*%
%TO.P,U3,43*%
%TO.N,Net-(U3-Pad43)*%
%TA.AperFunction,SMDPad,CuDef*%
G36*
G01*
X68236500Y-49281500D02*
X68236500Y-49131500D01*
G75*
G02*
X68311500Y-49056500I75000J0D01*
G01*
X69711500Y-49056500D01*
G75*
G02*
X69786500Y-49131500I0J-75000D01*
G01*
X69786500Y-49281500D01*
G75*
G02*
X69711500Y-49356500I-75000J0D01*
G01*
X68311500Y-49356500D01*
G75*
G02*
X68236500Y-49281500I0J75000D01*
G01*
G37*
%TD.AperFunction*%
%TO.P,U3,42*%
%TO.N,Net-(U3-Pad42)*%
%TA.AperFunction,SMDPad,CuDef*%
G36*
G01*
X68236500Y-49781500D02*
X68236500Y-49631500D01*
G75*
G02*
X68311500Y-49556500I75000J0D01*
G01*
X69711500Y-49556500D01*
G75*
G02*
X69786500Y-49631500I0J-75000D01*
G01*
X69786500Y-49781500D01*
G75*
G02*
X69711500Y-49856500I-75000J0D01*
G01*
X68311500Y-49856500D01*
G75*
G02*
X68236500Y-49781500I0J75000D01*
G01*
G37*
%TD.AperFunction*%
%TO.P,U3,41*%
%TO.N,Net-(U3-Pad41)*%
%TA.AperFunction,SMDPad,CuDef*%
G36*
G01*
X68236500Y-50281500D02*
X68236500Y-50131500D01*
G75*
G02*
X68311500Y-50056500I75000J0D01*
G01*
X69711500Y-50056500D01*
G75*
G02*
X69786500Y-50131500I0J-75000D01*
G01*
X69786500Y-50281500D01*
G75*
G02*
X69711500Y-50356500I-75000J0D01*
G01*
X68311500Y-50356500D01*
G75*
G02*
X68236500Y-50281500I0J75000D01*
G01*
G37*
%TD.AperFunction*%
%TO.P,U3,40*%
%TO.N,Net-(U3-Pad40)*%
%TA.AperFunction,SMDPad,CuDef*%
G36*
G01*
X68236500Y-50781500D02*
X68236500Y-50631500D01*
G75*
G02*
X68311500Y-50556500I75000J0D01*
G01*
X69711500Y-50556500D01*
G75*
G02*
X69786500Y-50631500I0J-75000D01*
G01*
X69786500Y-50781500D01*
G75*
G02*
X69711500Y-50856500I-75000J0D01*
G01*
X68311500Y-50856500D01*
G75*
G02*
X68236500Y-50781500I0J75000D01*
G01*
G37*
%TD.AperFunction*%
%TO.P,U3,39*%
%TO.N,Net-(U3-Pad39)*%
%TA.AperFunction,SMDPad,CuDef*%
G36*
G01*
X68236500Y-51281500D02*
X68236500Y-51131500D01*
G75*
G02*
X68311500Y-51056500I75000J0D01*
G01*
X69711500Y-51056500D01*
G75*
G02*
X69786500Y-51131500I0J-75000D01*
G01*
X69786500Y-51281500D01*
G75*
G02*
X69711500Y-51356500I-75000J0D01*
G01*
X68311500Y-51356500D01*
G75*
G02*
X68236500Y-51281500I0J75000D01*
G01*
G37*
%TD.AperFunction*%
%TO.P,U3,38*%
%TO.N,Net-(U3-Pad38)*%
%TA.AperFunction,SMDPad,CuDef*%
G36*
G01*
X68236500Y-51781500D02*
X68236500Y-51631500D01*
G75*
G02*
X68311500Y-51556500I75000J0D01*
G01*
X69711500Y-51556500D01*
G75*
G02*
X69786500Y-51631500I0J-75000D01*
G01*
X69786500Y-51781500D01*
G75*
G02*
X69711500Y-51856500I-75000J0D01*
G01*
X68311500Y-51856500D01*
G75*
G02*
X68236500Y-51781500I0J75000D01*
G01*
G37*
%TD.AperFunction*%
%TO.P,U3,37*%
%TO.N,Net-(U3-Pad37)*%
%TA.AperFunction,SMDPad,CuDef*%
G36*
G01*
X68236500Y-52281500D02*
X68236500Y-52131500D01*
G75*
G02*
X68311500Y-52056500I75000J0D01*
G01*
X69711500Y-52056500D01*
G75*
G02*
X69786500Y-52131500I0J-75000D01*
G01*
X69786500Y-52281500D01*
G75*
G02*
X69711500Y-52356500I-75000J0D01*
G01*
X68311500Y-52356500D01*
G75*
G02*
X68236500Y-52281500I0J75000D01*
G01*
G37*
%TD.AperFunction*%
%TO.P,U3,36*%
%TO.N,LED_STATUS*%
%TA.AperFunction,SMDPad,CuDef*%
G36*
G01*
X68236500Y-52781500D02*
X68236500Y-52631500D01*
G75*
G02*
X68311500Y-52556500I75000J0D01*
G01*
X69711500Y-52556500D01*
G75*
G02*
X69786500Y-52631500I0J-75000D01*
G01*
X69786500Y-52781500D01*
G75*
G02*
X69711500Y-52856500I-75000J0D01*
G01*
X68311500Y-52856500D01*
G75*
G02*
X68236500Y-52781500I0J75000D01*
G01*
G37*
%TD.AperFunction*%
%TO.P,U3,35*%
%TO.N,Net-(U3-Pad35)*%
%TA.AperFunction,SMDPad,CuDef*%
G36*
G01*
X68236500Y-53281500D02*
X68236500Y-53131500D01*
G75*
G02*
X68311500Y-53056500I75000J0D01*
G01*
X69711500Y-53056500D01*
G75*
G02*
X69786500Y-53131500I0J-75000D01*
G01*
X69786500Y-53281500D01*
G75*
G02*
X69711500Y-53356500I-75000J0D01*
G01*
X68311500Y-53356500D01*
G75*
G02*
X68236500Y-53281500I0J75000D01*
G01*
G37*
%TD.AperFunction*%
%TO.P,U3,34*%
%TO.N,Net-(U3-Pad34)*%
%TA.AperFunction,SMDPad,CuDef*%
G36*
G01*
X68236500Y-53781500D02*
X68236500Y-53631500D01*
G75*
G02*
X68311500Y-53556500I75000J0D01*
G01*
X69711500Y-53556500D01*
G75*
G02*
X69786500Y-53631500I0J-75000D01*
G01*
X69786500Y-53781500D01*
G75*
G02*
X69711500Y-53856500I-75000J0D01*
G01*
X68311500Y-53856500D01*
G75*
G02*
X68236500Y-53781500I0J75000D01*
G01*
G37*
%TD.AperFunction*%
%TO.P,U3,33*%
%TO.N,Net-(U3-Pad33)*%
%TA.AperFunction,SMDPad,CuDef*%
G36*
G01*
X68236500Y-54281500D02*
X68236500Y-54131500D01*
G75*
G02*
X68311500Y-54056500I75000J0D01*
G01*
X69711500Y-54056500D01*
G75*
G02*
X69786500Y-54131500I0J-75000D01*
G01*
X69786500Y-54281500D01*
G75*
G02*
X69711500Y-54356500I-75000J0D01*
G01*
X68311500Y-54356500D01*
G75*
G02*
X68236500Y-54281500I0J75000D01*
G01*
G37*
%TD.AperFunction*%
%TO.P,U3,32*%
%TO.N,+3V3*%
%TA.AperFunction,SMDPad,CuDef*%
G36*
G01*
X66936500Y-56831500D02*
X66936500Y-55431500D01*
G75*
G02*
X67011500Y-55356500I75000J0D01*
G01*
X67161500Y-55356500D01*
G75*
G02*
X67236500Y-55431500I0J-75000D01*
G01*
X67236500Y-56831500D01*
G75*
G02*
X67161500Y-56906500I-75000J0D01*
G01*
X67011500Y-56906500D01*
G75*
G02*
X66936500Y-56831500I0J75000D01*
G01*
G37*
%TD.AperFunction*%
%TO.P,U3,31*%
%TO.N,Net-(C13-Pad1)*%
%TA.AperFunction,SMDPad,CuDef*%
G36*
G01*
X66436500Y-56831500D02*
X66436500Y-55431500D01*
G75*
G02*
X66511500Y-55356500I75000J0D01*
G01*
X66661500Y-55356500D01*
G75*
G02*
X66736500Y-55431500I0J-75000D01*
G01*
X66736500Y-56831500D01*
G75*
G02*
X66661500Y-56906500I-75000J0D01*
G01*
X66511500Y-56906500D01*
G75*
G02*
X66436500Y-56831500I0J75000D01*
G01*
G37*
%TD.AperFunction*%
%TO.P,U3,30*%
%TO.N,USART_RX*%
%TA.AperFunction,SMDPad,CuDef*%
G36*
G01*
X65936500Y-56831500D02*
X65936500Y-55431500D01*
G75*
G02*
X66011500Y-55356500I75000J0D01*
G01*
X66161500Y-55356500D01*
G75*
G02*
X66236500Y-55431500I0J-75000D01*
G01*
X66236500Y-56831500D01*
G75*
G02*
X66161500Y-56906500I-75000J0D01*
G01*
X66011500Y-56906500D01*
G75*
G02*
X65936500Y-56831500I0J75000D01*
G01*
G37*
%TD.AperFunction*%
%TO.P,U3,29*%
%TO.N,USART_TX*%
%TA.AperFunction,SMDPad,CuDef*%
G36*
G01*
X65436500Y-56831500D02*
X65436500Y-55431500D01*
G75*
G02*
X65511500Y-55356500I75000J0D01*
G01*
X65661500Y-55356500D01*
G75*
G02*
X65736500Y-55431500I0J-75000D01*
G01*
X65736500Y-56831500D01*
G75*
G02*
X65661500Y-56906500I-75000J0D01*
G01*
X65511500Y-56906500D01*
G75*
G02*
X65436500Y-56831500I0J75000D01*
G01*
G37*
%TD.AperFunction*%
%TO.P,U3,28*%
%TO.N,Net-(U3-Pad28)*%
%TA.AperFunction,SMDPad,CuDef*%
G36*
G01*
X64936500Y-56831500D02*
X64936500Y-55431500D01*
G75*
G02*
X65011500Y-55356500I75000J0D01*
G01*
X65161500Y-55356500D01*
G75*
G02*
X65236500Y-55431500I0J-75000D01*
G01*
X65236500Y-56831500D01*
G75*
G02*
X65161500Y-56906500I-75000J0D01*
G01*
X65011500Y-56906500D01*
G75*
G02*
X64936500Y-56831500I0J75000D01*
G01*
G37*
%TD.AperFunction*%
%TO.P,U3,27*%
%TO.N,PB1*%
%TA.AperFunction,SMDPad,CuDef*%
G36*
G01*
X64436500Y-56831500D02*
X64436500Y-55431500D01*
G75*
G02*
X64511500Y-55356500I75000J0D01*
G01*
X64661500Y-55356500D01*
G75*
G02*
X64736500Y-55431500I0J-75000D01*
G01*
X64736500Y-56831500D01*
G75*
G02*
X64661500Y-56906500I-75000J0D01*
G01*
X64511500Y-56906500D01*
G75*
G02*
X64436500Y-56831500I0J75000D01*
G01*
G37*
%TD.AperFunction*%
%TO.P,U3,26*%
%TO.N,PB0*%
%TA.AperFunction,SMDPad,CuDef*%
G36*
G01*
X63936500Y-56831500D02*
X63936500Y-55431500D01*
G75*
G02*
X64011500Y-55356500I75000J0D01*
G01*
X64161500Y-55356500D01*
G75*
G02*
X64236500Y-55431500I0J-75000D01*
G01*
X64236500Y-56831500D01*
G75*
G02*
X64161500Y-56906500I-75000J0D01*
G01*
X64011500Y-56906500D01*
G75*
G02*
X63936500Y-56831500I0J75000D01*
G01*
G37*
%TD.AperFunction*%
%TO.P,U3,25*%
%TO.N,Net-(U3-Pad25)*%
%TA.AperFunction,SMDPad,CuDef*%
G36*
G01*
X63436500Y-56831500D02*
X63436500Y-55431500D01*
G75*
G02*
X63511500Y-55356500I75000J0D01*
G01*
X63661500Y-55356500D01*
G75*
G02*
X63736500Y-55431500I0J-75000D01*
G01*
X63736500Y-56831500D01*
G75*
G02*
X63661500Y-56906500I-75000J0D01*
G01*
X63511500Y-56906500D01*
G75*
G02*
X63436500Y-56831500I0J75000D01*
G01*
G37*
%TD.AperFunction*%
%TO.P,U3,24*%
%TO.N,PC4*%
%TA.AperFunction,SMDPad,CuDef*%
G36*
G01*
X62936500Y-56831500D02*
X62936500Y-55431500D01*
G75*
G02*
X63011500Y-55356500I75000J0D01*
G01*
X63161500Y-55356500D01*
G75*
G02*
X63236500Y-55431500I0J-75000D01*
G01*
X63236500Y-56831500D01*
G75*
G02*
X63161500Y-56906500I-75000J0D01*
G01*
X63011500Y-56906500D01*
G75*
G02*
X62936500Y-56831500I0J75000D01*
G01*
G37*
%TD.AperFunction*%
%TO.P,U3,23*%
%TO.N,PA7*%
%TA.AperFunction,SMDPad,CuDef*%
G36*
G01*
X62436500Y-56831500D02*
X62436500Y-55431500D01*
G75*
G02*
X62511500Y-55356500I75000J0D01*
G01*
X62661500Y-55356500D01*
G75*
G02*
X62736500Y-55431500I0J-75000D01*
G01*
X62736500Y-56831500D01*
G75*
G02*
X62661500Y-56906500I-75000J0D01*
G01*
X62511500Y-56906500D01*
G75*
G02*
X62436500Y-56831500I0J75000D01*
G01*
G37*
%TD.AperFunction*%
%TO.P,U3,22*%
%TO.N,PA6*%
%TA.AperFunction,SMDPad,CuDef*%
G36*
G01*
X61936500Y-56831500D02*
X61936500Y-55431500D01*
G75*
G02*
X62011500Y-55356500I75000J0D01*
G01*
X62161500Y-55356500D01*
G75*
G02*
X62236500Y-55431500I0J-75000D01*
G01*
X62236500Y-56831500D01*
G75*
G02*
X62161500Y-56906500I-75000J0D01*
G01*
X62011500Y-56906500D01*
G75*
G02*
X61936500Y-56831500I0J75000D01*
G01*
G37*
%TD.AperFunction*%
%TO.P,U3,21*%
%TO.N,PA5*%
%TA.AperFunction,SMDPad,CuDef*%
G36*
G01*
X61436500Y-56831500D02*
X61436500Y-55431500D01*
G75*
G02*
X61511500Y-55356500I75000J0D01*
G01*
X61661500Y-55356500D01*
G75*
G02*
X61736500Y-55431500I0J-75000D01*
G01*
X61736500Y-56831500D01*
G75*
G02*
X61661500Y-56906500I-75000J0D01*
G01*
X61511500Y-56906500D01*
G75*
G02*
X61436500Y-56831500I0J75000D01*
G01*
G37*
%TD.AperFunction*%
%TO.P,U3,20*%
%TO.N,PA4*%
%TA.AperFunction,SMDPad,CuDef*%
G36*
G01*
X60936500Y-56831500D02*
X60936500Y-55431500D01*
G75*
G02*
X61011500Y-55356500I75000J0D01*
G01*
X61161500Y-55356500D01*
G75*
G02*
X61236500Y-55431500I0J-75000D01*
G01*
X61236500Y-56831500D01*
G75*
G02*
X61161500Y-56906500I-75000J0D01*
G01*
X61011500Y-56906500D01*
G75*
G02*
X60936500Y-56831500I0J75000D01*
G01*
G37*
%TD.AperFunction*%
%TO.P,U3,19*%
%TO.N,+3V3*%
%TA.AperFunction,SMDPad,CuDef*%
G36*
G01*
X60436500Y-56831500D02*
X60436500Y-55431500D01*
G75*
G02*
X60511500Y-55356500I75000J0D01*
G01*
X60661500Y-55356500D01*
G75*
G02*
X60736500Y-55431500I0J-75000D01*
G01*
X60736500Y-56831500D01*
G75*
G02*
X60661500Y-56906500I-75000J0D01*
G01*
X60511500Y-56906500D01*
G75*
G02*
X60436500Y-56831500I0J75000D01*
G01*
G37*
%TD.AperFunction*%
%TO.P,U3,18*%
%TO.N,GND*%
%TA.AperFunction,SMDPad,CuDef*%
G36*
G01*
X59936500Y-56831500D02*
X59936500Y-55431500D01*
G75*
G02*
X60011500Y-55356500I75000J0D01*
G01*
X60161500Y-55356500D01*
G75*
G02*
X60236500Y-55431500I0J-75000D01*
G01*
X60236500Y-56831500D01*
G75*
G02*
X60161500Y-56906500I-75000J0D01*
G01*
X60011500Y-56906500D01*
G75*
G02*
X59936500Y-56831500I0J75000D01*
G01*
G37*
%TD.AperFunction*%
%TO.P,U3,17*%
%TO.N,Net-(U3-Pad17)*%
%TA.AperFunction,SMDPad,CuDef*%
G36*
G01*
X59436500Y-56831500D02*
X59436500Y-55431500D01*
G75*
G02*
X59511500Y-55356500I75000J0D01*
G01*
X59661500Y-55356500D01*
G75*
G02*
X59736500Y-55431500I0J-75000D01*
G01*
X59736500Y-56831500D01*
G75*
G02*
X59661500Y-56906500I-75000J0D01*
G01*
X59511500Y-56906500D01*
G75*
G02*
X59436500Y-56831500I0J75000D01*
G01*
G37*
%TD.AperFunction*%
%TO.P,U3,16*%
%TO.N,PA2*%
%TA.AperFunction,SMDPad,CuDef*%
G36*
G01*
X56886500Y-54281500D02*
X56886500Y-54131500D01*
G75*
G02*
X56961500Y-54056500I75000J0D01*
G01*
X58361500Y-54056500D01*
G75*
G02*
X58436500Y-54131500I0J-75000D01*
G01*
X58436500Y-54281500D01*
G75*
G02*
X58361500Y-54356500I-75000J0D01*
G01*
X56961500Y-54356500D01*
G75*
G02*
X56886500Y-54281500I0J75000D01*
G01*
G37*
%TD.AperFunction*%
%TO.P,U3,15*%
%TO.N,PA1*%
%TA.AperFunction,SMDPad,CuDef*%
G36*
G01*
X56886500Y-53781500D02*
X56886500Y-53631500D01*
G75*
G02*
X56961500Y-53556500I75000J0D01*
G01*
X58361500Y-53556500D01*
G75*
G02*
X58436500Y-53631500I0J-75000D01*
G01*
X58436500Y-53781500D01*
G75*
G02*
X58361500Y-53856500I-75000J0D01*
G01*
X56961500Y-53856500D01*
G75*
G02*
X56886500Y-53781500I0J75000D01*
G01*
G37*
%TD.AperFunction*%
%TO.P,U3,14*%
%TO.N,PA0*%
%TA.AperFunction,SMDPad,CuDef*%
G36*
G01*
X56886500Y-53281500D02*
X56886500Y-53131500D01*
G75*
G02*
X56961500Y-53056500I75000J0D01*
G01*
X58361500Y-53056500D01*
G75*
G02*
X58436500Y-53131500I0J-75000D01*
G01*
X58436500Y-53281500D01*
G75*
G02*
X58361500Y-53356500I-75000J0D01*
G01*
X56961500Y-53356500D01*
G75*
G02*
X56886500Y-53281500I0J75000D01*
G01*
G37*
%TD.AperFunction*%
%TO.P,U3,13*%
%TO.N,+3.3VA*%
%TA.AperFunction,SMDPad,CuDef*%
G36*
G01*
X56886500Y-52781500D02*
X56886500Y-52631500D01*
G75*
G02*
X56961500Y-52556500I75000J0D01*
G01*
X58361500Y-52556500D01*
G75*
G02*
X58436500Y-52631500I0J-75000D01*
G01*
X58436500Y-52781500D01*
G75*
G02*
X58361500Y-52856500I-75000J0D01*
G01*
X56961500Y-52856500D01*
G75*
G02*
X56886500Y-52781500I0J75000D01*
G01*
G37*
%TD.AperFunction*%
%TO.P,U3,12*%
%TO.N,GND*%
%TA.AperFunction,SMDPad,CuDef*%
G36*
G01*
X56886500Y-52281500D02*
X56886500Y-52131500D01*
G75*
G02*
X56961500Y-52056500I75000J0D01*
G01*
X58361500Y-52056500D01*
G75*
G02*
X58436500Y-52131500I0J-75000D01*
G01*
X58436500Y-52281500D01*
G75*
G02*
X58361500Y-52356500I-75000J0D01*
G01*
X56961500Y-52356500D01*
G75*
G02*
X56886500Y-52281500I0J75000D01*
G01*
G37*
%TD.AperFunction*%
%TO.P,U3,11*%
%TO.N,Net-(U3-Pad11)*%
%TA.AperFunction,SMDPad,CuDef*%
G36*
G01*
X56886500Y-51781500D02*
X56886500Y-51631500D01*
G75*
G02*
X56961500Y-51556500I75000J0D01*
G01*
X58361500Y-51556500D01*
G75*
G02*
X58436500Y-51631500I0J-75000D01*
G01*
X58436500Y-51781500D01*
G75*
G02*
X58361500Y-51856500I-75000J0D01*
G01*
X56961500Y-51856500D01*
G75*
G02*
X56886500Y-51781500I0J75000D01*
G01*
G37*
%TD.AperFunction*%
%TO.P,U3,10*%
%TO.N,Net-(U3-Pad10)*%
%TA.AperFunction,SMDPad,CuDef*%
G36*
G01*
X56886500Y-51281500D02*
X56886500Y-51131500D01*
G75*
G02*
X56961500Y-51056500I75000J0D01*
G01*
X58361500Y-51056500D01*
G75*
G02*
X58436500Y-51131500I0J-75000D01*
G01*
X58436500Y-51281500D01*
G75*
G02*
X58361500Y-51356500I-75000J0D01*
G01*
X56961500Y-51356500D01*
G75*
G02*
X56886500Y-51281500I0J75000D01*
G01*
G37*
%TD.AperFunction*%
%TO.P,U3,9*%
%TO.N,Net-(U3-Pad9)*%
%TA.AperFunction,SMDPad,CuDef*%
G36*
G01*
X56886500Y-50781500D02*
X56886500Y-50631500D01*
G75*
G02*
X56961500Y-50556500I75000J0D01*
G01*
X58361500Y-50556500D01*
G75*
G02*
X58436500Y-50631500I0J-75000D01*
G01*
X58436500Y-50781500D01*
G75*
G02*
X58361500Y-50856500I-75000J0D01*
G01*
X56961500Y-50856500D01*
G75*
G02*
X56886500Y-50781500I0J75000D01*
G01*
G37*
%TD.AperFunction*%
%TO.P,U3,8*%
%TO.N,Net-(U3-Pad8)*%
%TA.AperFunction,SMDPad,CuDef*%
G36*
G01*
X56886500Y-50281500D02*
X56886500Y-50131500D01*
G75*
G02*
X56961500Y-50056500I75000J0D01*
G01*
X58361500Y-50056500D01*
G75*
G02*
X58436500Y-50131500I0J-75000D01*
G01*
X58436500Y-50281500D01*
G75*
G02*
X58361500Y-50356500I-75000J0D01*
G01*
X56961500Y-50356500D01*
G75*
G02*
X56886500Y-50281500I0J75000D01*
G01*
G37*
%TD.AperFunction*%
%TO.P,U3,7*%
%TO.N,NRST*%
%TA.AperFunction,SMDPad,CuDef*%
G36*
G01*
X56886500Y-49781500D02*
X56886500Y-49631500D01*
G75*
G02*
X56961500Y-49556500I75000J0D01*
G01*
X58361500Y-49556500D01*
G75*
G02*
X58436500Y-49631500I0J-75000D01*
G01*
X58436500Y-49781500D01*
G75*
G02*
X58361500Y-49856500I-75000J0D01*
G01*
X56961500Y-49856500D01*
G75*
G02*
X56886500Y-49781500I0J75000D01*
G01*
G37*
%TD.AperFunction*%
%TO.P,U3,6*%
%TO.N,HSE_OUT*%
%TA.AperFunction,SMDPad,CuDef*%
G36*
G01*
X56886500Y-49281500D02*
X56886500Y-49131500D01*
G75*
G02*
X56961500Y-49056500I75000J0D01*
G01*
X58361500Y-49056500D01*
G75*
G02*
X58436500Y-49131500I0J-75000D01*
G01*
X58436500Y-49281500D01*
G75*
G02*
X58361500Y-49356500I-75000J0D01*
G01*
X56961500Y-49356500D01*
G75*
G02*
X56886500Y-49281500I0J75000D01*
G01*
G37*
%TD.AperFunction*%
%TO.P,U3,5*%
%TO.N,HSE_IN*%
%TA.AperFunction,SMDPad,CuDef*%
G36*
G01*
X56886500Y-48781500D02*
X56886500Y-48631500D01*
G75*
G02*
X56961500Y-48556500I75000J0D01*
G01*
X58361500Y-48556500D01*
G75*
G02*
X58436500Y-48631500I0J-75000D01*
G01*
X58436500Y-48781500D01*
G75*
G02*
X58361500Y-48856500I-75000J0D01*
G01*
X56961500Y-48856500D01*
G75*
G02*
X56886500Y-48781500I0J75000D01*
G01*
G37*
%TD.AperFunction*%
%TO.P,U3,4*%
%TO.N,Net-(U3-Pad4)*%
%TA.AperFunction,SMDPad,CuDef*%
G36*
G01*
X56886500Y-48281500D02*
X56886500Y-48131500D01*
G75*
G02*
X56961500Y-48056500I75000J0D01*
G01*
X58361500Y-48056500D01*
G75*
G02*
X58436500Y-48131500I0J-75000D01*
G01*
X58436500Y-48281500D01*
G75*
G02*
X58361500Y-48356500I-75000J0D01*
G01*
X56961500Y-48356500D01*
G75*
G02*
X56886500Y-48281500I0J75000D01*
G01*
G37*
%TD.AperFunction*%
%TO.P,U3,3*%
%TO.N,Net-(U3-Pad3)*%
%TA.AperFunction,SMDPad,CuDef*%
G36*
G01*
X56886500Y-47781500D02*
X56886500Y-47631500D01*
G75*
G02*
X56961500Y-47556500I75000J0D01*
G01*
X58361500Y-47556500D01*
G75*
G02*
X58436500Y-47631500I0J-75000D01*
G01*
X58436500Y-47781500D01*
G75*
G02*
X58361500Y-47856500I-75000J0D01*
G01*
X56961500Y-47856500D01*
G75*
G02*
X56886500Y-47781500I0J75000D01*
G01*
G37*
%TD.AperFunction*%
%TO.P,U3,2*%
%TO.N,Net-(U3-Pad2)*%
%TA.AperFunction,SMDPad,CuDef*%
G36*
G01*
X56886500Y-47281500D02*
X56886500Y-47131500D01*
G75*
G02*
X56961500Y-47056500I75000J0D01*
G01*
X58361500Y-47056500D01*
G75*
G02*
X58436500Y-47131500I0J-75000D01*
G01*
X58436500Y-47281500D01*
G75*
G02*
X58361500Y-47356500I-75000J0D01*
G01*
X56961500Y-47356500D01*
G75*
G02*
X56886500Y-47281500I0J75000D01*
G01*
G37*
%TD.AperFunction*%
%TO.P,U3,1*%
%TO.N,+3V3*%
%TA.AperFunction,SMDPad,CuDef*%
G36*
G01*
X56886500Y-46781500D02*
X56886500Y-46631500D01*
G75*
G02*
X56961500Y-46556500I75000J0D01*
G01*
X58361500Y-46556500D01*
G75*
G02*
X58436500Y-46631500I0J-75000D01*
G01*
X58436500Y-46781500D01*
G75*
G02*
X58361500Y-46856500I-75000J0D01*
G01*
X56961500Y-46856500D01*
G75*
G02*
X56886500Y-46781500I0J75000D01*
G01*
G37*
%TD.AperFunction*%
%TD*%
D12*
%TO.P,H4,1*%
%TO.N,GND*%
X90000000Y-67000000D03*
D13*
X92400000Y-67000000D03*
X91697056Y-68697056D03*
X90000000Y-69400000D03*
X88302944Y-68697056D03*
X87600000Y-67000000D03*
X88302944Y-65302944D03*
X90000000Y-64600000D03*
X91697056Y-65302944D03*
%TD*%
%TO.P,H3,1*%
%TO.N,GND*%
X91697056Y-28302944D03*
X90000000Y-27600000D03*
X88302944Y-28302944D03*
X87600000Y-30000000D03*
X88302944Y-31697056D03*
X90000000Y-32400000D03*
X91697056Y-31697056D03*
X92400000Y-30000000D03*
D12*
X90000000Y-30000000D03*
%TD*%
D13*
%TO.P,H2,1*%
%TO.N,GND*%
X31697056Y-28302944D03*
X30000000Y-27600000D03*
X28302944Y-28302944D03*
X27600000Y-30000000D03*
X28302944Y-31697056D03*
X30000000Y-32400000D03*
X31697056Y-31697056D03*
X32400000Y-30000000D03*
D12*
X30000000Y-30000000D03*
%TD*%
D13*
%TO.P,H1,1*%
%TO.N,GND*%
X31697056Y-65302944D03*
X30000000Y-64600000D03*
X28302944Y-65302944D03*
X27600000Y-67000000D03*
X28302944Y-68697056D03*
X30000000Y-69400000D03*
X31697056Y-68697056D03*
X32400000Y-67000000D03*
D12*
X30000000Y-67000000D03*
%TD*%
%TO.P,C12,2*%
%TO.N,GND*%
%TA.AperFunction,SMDPad,CuDef*%
G36*
G01*
X55770000Y-52600000D02*
X55430000Y-52600000D01*
G75*
G02*
X55290000Y-52460000I0J140000D01*
G01*
X55290000Y-52180000D01*
G75*
G02*
X55430000Y-52040000I140000J0D01*
G01*
X55770000Y-52040000D01*
G75*
G02*
X55910000Y-52180000I0J-140000D01*
G01*
X55910000Y-52460000D01*
G75*
G02*
X55770000Y-52600000I-140000J0D01*
G01*
G37*
%TD.AperFunction*%
%TO.P,C12,1*%
%TO.N,+3.3VA*%
%TA.AperFunction,SMDPad,CuDef*%
G36*
G01*
X55770000Y-53560000D02*
X55430000Y-53560000D01*
G75*
G02*
X55290000Y-53420000I0J140000D01*
G01*
X55290000Y-53140000D01*
G75*
G02*
X55430000Y-53000000I140000J0D01*
G01*
X55770000Y-53000000D01*
G75*
G02*
X55910000Y-53140000I0J-140000D01*
G01*
X55910000Y-53420000D01*
G75*
G02*
X55770000Y-53560000I-140000J0D01*
G01*
G37*
%TD.AperFunction*%
%TD*%
%TO.P,C2,2*%
%TO.N,BUCK_FB*%
%TA.AperFunction,SMDPad,CuDef*%
G36*
G01*
X40188000Y-36550000D02*
X40188000Y-37050000D01*
G75*
G02*
X39963000Y-37275000I-225000J0D01*
G01*
X39513000Y-37275000D01*
G75*
G02*
X39288000Y-37050000I0J225000D01*
G01*
X39288000Y-36550000D01*
G75*
G02*
X39513000Y-36325000I225000J0D01*
G01*
X39963000Y-36325000D01*
G75*
G02*
X40188000Y-36550000I0J-225000D01*
G01*
G37*
%TD.AperFunction*%
%TO.P,C2,1*%
%TO.N,+3V3*%
%TA.AperFunction,SMDPad,CuDef*%
G36*
G01*
X41738000Y-36550000D02*
X41738000Y-37050000D01*
G75*
G02*
X41513000Y-37275000I-225000J0D01*
G01*
X41063000Y-37275000D01*
G75*
G02*
X40838000Y-37050000I0J225000D01*
G01*
X40838000Y-36550000D01*
G75*
G02*
X41063000Y-36325000I225000J0D01*
G01*
X41513000Y-36325000D01*
G75*
G02*
X41738000Y-36550000I0J-225000D01*
G01*
G37*
%TD.AperFunction*%
%TD*%
%TO.P,R4,2*%
%TO.N,Net-(R3-Pad2)*%
%TA.AperFunction,SMDPad,CuDef*%
G36*
G01*
X44240000Y-35454000D02*
X44240000Y-34904000D01*
G75*
G02*
X44440000Y-34704000I200000J0D01*
G01*
X44840000Y-34704000D01*
G75*
G02*
X45040000Y-34904000I0J-200000D01*
G01*
X45040000Y-35454000D01*
G75*
G02*
X44840000Y-35654000I-200000J0D01*
G01*
X44440000Y-35654000D01*
G75*
G02*
X44240000Y-35454000I0J200000D01*
G01*
G37*
%TD.AperFunction*%
%TO.P,R4,1*%
%TO.N,BUCK_FB*%
%TA.AperFunction,SMDPad,CuDef*%
G36*
G01*
X42590000Y-35454000D02*
X42590000Y-34904000D01*
G75*
G02*
X42790000Y-34704000I200000J0D01*
G01*
X43190000Y-34704000D01*
G75*
G02*
X43390000Y-34904000I0J-200000D01*
G01*
X43390000Y-35454000D01*
G75*
G02*
X43190000Y-35654000I-200000J0D01*
G01*
X42790000Y-35654000D01*
G75*
G02*
X42590000Y-35454000I0J200000D01*
G01*
G37*
%TD.AperFunction*%
%TD*%
%TO.P,R3,2*%
%TO.N,Net-(R3-Pad2)*%
%TA.AperFunction,SMDPad,CuDef*%
G36*
G01*
X44304000Y-38692500D02*
X44304000Y-38142500D01*
G75*
G02*
X44504000Y-37942500I200000J0D01*
G01*
X44904000Y-37942500D01*
G75*
G02*
X45104000Y-38142500I0J-200000D01*
G01*
X45104000Y-38692500D01*
G75*
G02*
X44904000Y-38892500I-200000J0D01*
G01*
X44504000Y-38892500D01*
G75*
G02*
X44304000Y-38692500I0J200000D01*
G01*
G37*
%TD.AperFunction*%
%TO.P,R3,1*%
%TO.N,BUCK_FB*%
%TA.AperFunction,SMDPad,CuDef*%
G36*
G01*
X42654000Y-38692500D02*
X42654000Y-38142500D01*
G75*
G02*
X42854000Y-37942500I200000J0D01*
G01*
X43254000Y-37942500D01*
G75*
G02*
X43454000Y-38142500I0J-200000D01*
G01*
X43454000Y-38692500D01*
G75*
G02*
X43254000Y-38892500I-200000J0D01*
G01*
X42854000Y-38892500D01*
G75*
G02*
X42654000Y-38692500I0J200000D01*
G01*
G37*
%TD.AperFunction*%
%TD*%
%TO.P,R2,1*%
%TO.N,BUCK_IN*%
%TA.AperFunction,SMDPad,CuDef*%
G36*
G01*
X41003000Y-45423500D02*
X41003000Y-44873500D01*
G75*
G02*
X41203000Y-44673500I200000J0D01*
G01*
X41603000Y-44673500D01*
G75*
G02*
X41803000Y-44873500I0J-200000D01*
G01*
X41803000Y-45423500D01*
G75*
G02*
X41603000Y-45623500I-200000J0D01*
G01*
X41203000Y-45623500D01*
G75*
G02*
X41003000Y-45423500I0J200000D01*
G01*
G37*
%TD.AperFunction*%
%TO.P,R2,2*%
%TO.N,BUCK_EN*%
%TA.AperFunction,SMDPad,CuDef*%
G36*
G01*
X42653000Y-45423500D02*
X42653000Y-44873500D01*
G75*
G02*
X42853000Y-44673500I200000J0D01*
G01*
X43253000Y-44673500D01*
G75*
G02*
X43453000Y-44873500I0J-200000D01*
G01*
X43453000Y-45423500D01*
G75*
G02*
X43253000Y-45623500I-200000J0D01*
G01*
X42853000Y-45623500D01*
G75*
G02*
X42653000Y-45423500I0J200000D01*
G01*
G37*
%TD.AperFunction*%
%TD*%
D14*
%TO.P,J1,2*%
%TO.N,GND*%
X32385000Y-57531000D03*
D15*
%TO.P,J1,1*%
%TO.N,+12V*%
X32385000Y-52451000D03*
%TD*%
D16*
%TO.P,J3,1*%
%TO.N,+3V3*%
X72540000Y-29050000D03*
%TO.P,J3,2*%
%TO.N,SDWIO*%
X72540000Y-32950000D03*
%TO.P,J3,3*%
%TO.N,GND*%
X71270000Y-29050000D03*
%TO.P,J3,4*%
%TO.N,SWCLK*%
X71270000Y-32950000D03*
%TO.P,J3,5*%
%TO.N,GND*%
X70000000Y-29050000D03*
%TO.P,J3,6*%
%TO.N,SWO*%
X70000000Y-32950000D03*
%TO.P,J3,7*%
%TO.N,Net-(J3-Pad7)*%
X68730000Y-29050000D03*
%TO.P,J3,8*%
%TO.N,Net-(J3-Pad8)*%
X68730000Y-32950000D03*
%TO.P,J3,9*%
%TO.N,GND*%
X67460000Y-29050000D03*
%TO.P,J3,10*%
%TO.N,NRST*%
X67460000Y-32950000D03*
%TD*%
D17*
%TO.P,Q1,3*%
%TO.N,+12V*%
X37592000Y-47863000D03*
%TO.P,Q1,2*%
%TO.N,Net-(D1-Pad1)*%
X36642000Y-45863000D03*
%TO.P,Q1,1*%
%TO.N,Net-(D3-Pad2)*%
X38542000Y-45863000D03*
%TD*%
%TO.P,R13,2*%
%TO.N,+3V3*%
%TA.AperFunction,SMDPad,CuDef*%
G36*
G01*
X60375000Y-39225000D02*
X60375000Y-39775000D01*
G75*
G02*
X60175000Y-39975000I-200000J0D01*
G01*
X59775000Y-39975000D01*
G75*
G02*
X59575000Y-39775000I0J200000D01*
G01*
X59575000Y-39225000D01*
G75*
G02*
X59775000Y-39025000I200000J0D01*
G01*
X60175000Y-39025000D01*
G75*
G02*
X60375000Y-39225000I0J-200000D01*
G01*
G37*
%TD.AperFunction*%
%TO.P,R13,1*%
%TO.N,I2C1_SDA*%
%TA.AperFunction,SMDPad,CuDef*%
G36*
G01*
X62025000Y-39225000D02*
X62025000Y-39775000D01*
G75*
G02*
X61825000Y-39975000I-200000J0D01*
G01*
X61425000Y-39975000D01*
G75*
G02*
X61225000Y-39775000I0J200000D01*
G01*
X61225000Y-39225000D01*
G75*
G02*
X61425000Y-39025000I200000J0D01*
G01*
X61825000Y-39025000D01*
G75*
G02*
X62025000Y-39225000I0J-200000D01*
G01*
G37*
%TD.AperFunction*%
%TD*%
D18*
%TO.P,U1,1*%
%TO.N,BUCK_BST*%
X39690000Y-33104000D03*
%TO.P,U1,2*%
%TO.N,GND*%
X40640000Y-33104000D03*
%TO.P,U1,3*%
%TO.N,BUCK_FB*%
X41590000Y-33104000D03*
%TO.P,U1,4*%
%TO.N,BUCK_EN*%
X41590000Y-30904000D03*
%TO.P,U1,6*%
%TO.N,BUCK_SW*%
X39690000Y-30904000D03*
%TO.P,U1,5*%
%TO.N,BUCK_IN*%
X40640000Y-30904000D03*
%TD*%
%TO.P,R1,2*%
%TO.N,BUCK_FB*%
%TA.AperFunction,SMDPad,CuDef*%
G36*
G01*
X40088000Y-38142500D02*
X40088000Y-38692500D01*
G75*
G02*
X39888000Y-38892500I-200000J0D01*
G01*
X39488000Y-38892500D01*
G75*
G02*
X39288000Y-38692500I0J200000D01*
G01*
X39288000Y-38142500D01*
G75*
G02*
X39488000Y-37942500I200000J0D01*
G01*
X39888000Y-37942500D01*
G75*
G02*
X40088000Y-38142500I0J-200000D01*
G01*
G37*
%TD.AperFunction*%
%TO.P,R1,1*%
%TO.N,+3V3*%
%TA.AperFunction,SMDPad,CuDef*%
G36*
G01*
X41738000Y-38142500D02*
X41738000Y-38692500D01*
G75*
G02*
X41538000Y-38892500I-200000J0D01*
G01*
X41138000Y-38892500D01*
G75*
G02*
X40938000Y-38692500I0J200000D01*
G01*
X40938000Y-38142500D01*
G75*
G02*
X41138000Y-37942500I200000J0D01*
G01*
X41538000Y-37942500D01*
G75*
G02*
X41738000Y-38142500I0J-200000D01*
G01*
G37*
%TD.AperFunction*%
%TD*%
%TO.P,R11,2*%
%TO.N,HSE_OUT*%
%TA.AperFunction,SMDPad,CuDef*%
G36*
G01*
X55547000Y-49714000D02*
X54997000Y-49714000D01*
G75*
G02*
X54797000Y-49514000I0J200000D01*
G01*
X54797000Y-49114000D01*
G75*
G02*
X54997000Y-48914000I200000J0D01*
G01*
X55547000Y-48914000D01*
G75*
G02*
X55747000Y-49114000I0J-200000D01*
G01*
X55747000Y-49514000D01*
G75*
G02*
X55547000Y-49714000I-200000J0D01*
G01*
G37*
%TD.AperFunction*%
%TO.P,R11,1*%
%TO.N,Net-(C16-Pad1)*%
%TA.AperFunction,SMDPad,CuDef*%
G36*
G01*
X55547000Y-51364000D02*
X54997000Y-51364000D01*
G75*
G02*
X54797000Y-51164000I0J200000D01*
G01*
X54797000Y-50764000D01*
G75*
G02*
X54997000Y-50564000I200000J0D01*
G01*
X55547000Y-50564000D01*
G75*
G02*
X55747000Y-50764000I0J-200000D01*
G01*
X55747000Y-51164000D01*
G75*
G02*
X55547000Y-51364000I-200000J0D01*
G01*
G37*
%TD.AperFunction*%
%TD*%
%TO.P,R10,2*%
%TO.N,Net-(R10-Pad2)*%
%TA.AperFunction,SMDPad,CuDef*%
G36*
G01*
X61785000Y-42160000D02*
X61415000Y-42160000D01*
G75*
G02*
X61280000Y-42025000I0J135000D01*
G01*
X61280000Y-41755000D01*
G75*
G02*
X61415000Y-41620000I135000J0D01*
G01*
X61785000Y-41620000D01*
G75*
G02*
X61920000Y-41755000I0J-135000D01*
G01*
X61920000Y-42025000D01*
G75*
G02*
X61785000Y-42160000I-135000J0D01*
G01*
G37*
%TD.AperFunction*%
%TO.P,R10,1*%
%TO.N,BOOT0*%
%TA.AperFunction,SMDPad,CuDef*%
G36*
G01*
X61785000Y-43180000D02*
X61415000Y-43180000D01*
G75*
G02*
X61280000Y-43045000I0J135000D01*
G01*
X61280000Y-42775000D01*
G75*
G02*
X61415000Y-42640000I135000J0D01*
G01*
X61785000Y-42640000D01*
G75*
G02*
X61920000Y-42775000I0J-135000D01*
G01*
X61920000Y-43045000D01*
G75*
G02*
X61785000Y-43180000I-135000J0D01*
G01*
G37*
%TD.AperFunction*%
%TD*%
D19*
%TO.P,U2,5*%
%TO.N,+5V*%
X85900000Y-52200000D03*
%TO.P,U2,6*%
%TO.N,USB_D+*%
X85900000Y-51250000D03*
%TO.P,U2,4*%
%TO.N,USB_D-*%
X85900000Y-53150000D03*
%TO.P,U2,3*%
X83700000Y-53150000D03*
%TO.P,U2,2*%
%TO.N,GND*%
X83700000Y-52200000D03*
%TO.P,U2,1*%
%TO.N,USB_D+*%
X83700000Y-51250000D03*
%TD*%
%TO.P,R6,2*%
%TO.N,GND*%
%TA.AperFunction,SMDPad,CuDef*%
G36*
G01*
X38819500Y-40628000D02*
X38269500Y-40628000D01*
G75*
G02*
X38069500Y-40428000I0J200000D01*
G01*
X38069500Y-40028000D01*
G75*
G02*
X38269500Y-39828000I200000J0D01*
G01*
X38819500Y-39828000D01*
G75*
G02*
X39019500Y-40028000I0J-200000D01*
G01*
X39019500Y-40428000D01*
G75*
G02*
X38819500Y-40628000I-200000J0D01*
G01*
G37*
%TD.AperFunction*%
%TO.P,R6,1*%
%TO.N,Net-(D3-Pad2)*%
%TA.AperFunction,SMDPad,CuDef*%
G36*
G01*
X38819500Y-42278000D02*
X38269500Y-42278000D01*
G75*
G02*
X38069500Y-42078000I0J200000D01*
G01*
X38069500Y-41678000D01*
G75*
G02*
X38269500Y-41478000I200000J0D01*
G01*
X38819500Y-41478000D01*
G75*
G02*
X39019500Y-41678000I0J-200000D01*
G01*
X39019500Y-42078000D01*
G75*
G02*
X38819500Y-42278000I-200000J0D01*
G01*
G37*
%TD.AperFunction*%
%TD*%
%TO.P,R7,1*%
%TO.N,BUCK_EN*%
%TA.AperFunction,SMDPad,CuDef*%
G36*
G01*
X44241000Y-45360000D02*
X44241000Y-44810000D01*
G75*
G02*
X44441000Y-44610000I200000J0D01*
G01*
X44841000Y-44610000D01*
G75*
G02*
X45041000Y-44810000I0J-200000D01*
G01*
X45041000Y-45360000D01*
G75*
G02*
X44841000Y-45560000I-200000J0D01*
G01*
X44441000Y-45560000D01*
G75*
G02*
X44241000Y-45360000I0J200000D01*
G01*
G37*
%TD.AperFunction*%
%TO.P,R7,2*%
%TO.N,GND*%
%TA.AperFunction,SMDPad,CuDef*%
G36*
G01*
X45891000Y-45360000D02*
X45891000Y-44810000D01*
G75*
G02*
X46091000Y-44610000I200000J0D01*
G01*
X46491000Y-44610000D01*
G75*
G02*
X46691000Y-44810000I0J-200000D01*
G01*
X46691000Y-45360000D01*
G75*
G02*
X46491000Y-45560000I-200000J0D01*
G01*
X46091000Y-45560000D01*
G75*
G02*
X45891000Y-45360000I0J200000D01*
G01*
G37*
%TD.AperFunction*%
%TD*%
D20*
%TO.P,Y1,4*%
%TO.N,GND*%
X53264500Y-49229500D03*
%TO.P,Y1,3*%
%TO.N,Net-(C16-Pad1)*%
X53264500Y-51429500D03*
%TO.P,Y1,2*%
%TO.N,GND*%
X51564500Y-51429500D03*
%TO.P,Y1,1*%
%TO.N,HSE_IN*%
X51564500Y-49229500D03*
%TD*%
D21*
%TO.P,J4,4*%
%TO.N,GND*%
X90800000Y-45920000D03*
%TO.P,J4,3*%
%TO.N,USART_TX*%
X90800000Y-43380000D03*
%TO.P,J4,2*%
%TO.N,USART_RX*%
X90800000Y-40840000D03*
%TO.P,J4,1*%
%TO.N,+3V3*%
%TA.AperFunction,ComponentPad*%
G36*
G01*
X90179999Y-37430000D02*
X91420001Y-37430000D01*
G75*
G02*
X91670000Y-37679999I0J-249999D01*
G01*
X91670000Y-38920001D01*
G75*
G02*
X91420001Y-39170000I-249999J0D01*
G01*
X90179999Y-39170000D01*
G75*
G02*
X89930000Y-38920001I0J249999D01*
G01*
X89930000Y-37679999D01*
G75*
G02*
X90179999Y-37430000I249999J0D01*
G01*
G37*
%TD.AperFunction*%
%TD*%
%TO.P,R9,1*%
%TO.N,Net-(D5-Pad1)*%
%TA.AperFunction,SMDPad,CuDef*%
G36*
G01*
X73835000Y-54920000D02*
X73285000Y-54920000D01*
G75*
G02*
X73085000Y-54720000I0J200000D01*
G01*
X73085000Y-54320000D01*
G75*
G02*
X73285000Y-54120000I200000J0D01*
G01*
X73835000Y-54120000D01*
G75*
G02*
X74035000Y-54320000I0J-200000D01*
G01*
X74035000Y-54720000D01*
G75*
G02*
X73835000Y-54920000I-200000J0D01*
G01*
G37*
%TD.AperFunction*%
%TO.P,R9,2*%
%TO.N,GND*%
%TA.AperFunction,SMDPad,CuDef*%
G36*
G01*
X73835000Y-53270000D02*
X73285000Y-53270000D01*
G75*
G02*
X73085000Y-53070000I0J200000D01*
G01*
X73085000Y-52670000D01*
G75*
G02*
X73285000Y-52470000I200000J0D01*
G01*
X73835000Y-52470000D01*
G75*
G02*
X74035000Y-52670000I0J-200000D01*
G01*
X74035000Y-53070000D01*
G75*
G02*
X73835000Y-53270000I-200000J0D01*
G01*
G37*
%TD.AperFunction*%
%TD*%
D22*
%TO.P,SW1,1*%
%TO.N,+3V3*%
X82000000Y-33000000D03*
D23*
%TO.P,SW1,2*%
%TO.N,Net-(R10-Pad2)*%
X80000000Y-33000000D03*
%TO.P,SW1,3*%
%TO.N,GND*%
X78000000Y-33000000D03*
D24*
%TO.P,SW1,*%
%TO.N,*%
X84100000Y-33000000D03*
X75900000Y-33000000D03*
%TD*%
D15*
%TO.P,J2,1*%
%TO.N,PA0*%
X37719000Y-66802000D03*
D14*
%TO.P,J2,2*%
%TO.N,PA1*%
X42719000Y-66802000D03*
%TO.P,J2,3*%
%TO.N,PA2*%
X47719000Y-66802000D03*
%TO.P,J2,4*%
%TO.N,PA4*%
X52719000Y-66802000D03*
%TO.P,J2,5*%
%TO.N,PA5*%
X57719000Y-66802000D03*
%TO.P,J2,6*%
%TO.N,PA6*%
X62719000Y-66802000D03*
%TO.P,J2,7*%
%TO.N,PA7*%
X67719000Y-66802000D03*
%TO.P,J2,8*%
%TO.N,PC4*%
X72719000Y-66802000D03*
%TO.P,J2,9*%
%TO.N,PB0*%
X77719000Y-66802000D03*
%TO.P,J2,10*%
%TO.N,PB1*%
X82719000Y-66802000D03*
%TD*%
%TO.P,L1,1*%
%TO.N,BUCK_SW*%
%TA.AperFunction,SMDPad,CuDef*%
G36*
G01*
X43314000Y-33460000D02*
X43314000Y-31310000D01*
G75*
G02*
X43564000Y-31060000I250000J0D01*
G01*
X44314000Y-31060000D01*
G75*
G02*
X44564000Y-31310000I0J-250000D01*
G01*
X44564000Y-33460000D01*
G75*
G02*
X44314000Y-33710000I-250000J0D01*
G01*
X43564000Y-33710000D01*
G75*
G02*
X43314000Y-33460000I0J250000D01*
G01*
G37*
%TD.AperFunction*%
%TO.P,L1,2*%
%TO.N,+3V3*%
%TA.AperFunction,SMDPad,CuDef*%
G36*
G01*
X46114000Y-33460000D02*
X46114000Y-31310000D01*
G75*
G02*
X46364000Y-31060000I250000J0D01*
G01*
X47114000Y-31060000D01*
G75*
G02*
X47364000Y-31310000I0J-250000D01*
G01*
X47364000Y-33460000D01*
G75*
G02*
X47114000Y-33710000I-250000J0D01*
G01*
X46364000Y-33710000D01*
G75*
G02*
X46114000Y-33460000I0J250000D01*
G01*
G37*
%TD.AperFunction*%
%TD*%
%TO.P,R12,1*%
%TO.N,I2C1_SCL*%
%TA.AperFunction,SMDPad,CuDef*%
G36*
G01*
X63675000Y-39775000D02*
X63675000Y-39225000D01*
G75*
G02*
X63875000Y-39025000I200000J0D01*
G01*
X64275000Y-39025000D01*
G75*
G02*
X64475000Y-39225000I0J-200000D01*
G01*
X64475000Y-39775000D01*
G75*
G02*
X64275000Y-39975000I-200000J0D01*
G01*
X63875000Y-39975000D01*
G75*
G02*
X63675000Y-39775000I0J200000D01*
G01*
G37*
%TD.AperFunction*%
%TO.P,R12,2*%
%TO.N,+3V3*%
%TA.AperFunction,SMDPad,CuDef*%
G36*
G01*
X65325000Y-39775000D02*
X65325000Y-39225000D01*
G75*
G02*
X65525000Y-39025000I200000J0D01*
G01*
X65925000Y-39025000D01*
G75*
G02*
X66125000Y-39225000I0J-200000D01*
G01*
X66125000Y-39775000D01*
G75*
G02*
X65925000Y-39975000I-200000J0D01*
G01*
X65525000Y-39975000D01*
G75*
G02*
X65325000Y-39775000I0J200000D01*
G01*
G37*
%TD.AperFunction*%
%TD*%
%TO.P,J5,1*%
%TO.N,+3V3*%
%TA.AperFunction,ComponentPad*%
G36*
G01*
X63870000Y-31379999D02*
X63870000Y-32620001D01*
G75*
G02*
X63620001Y-32870000I-249999J0D01*
G01*
X62379999Y-32870000D01*
G75*
G02*
X62130000Y-32620001I0J249999D01*
G01*
X62130000Y-31379999D01*
G75*
G02*
X62379999Y-31130000I249999J0D01*
G01*
X63620001Y-31130000D01*
G75*
G02*
X63870000Y-31379999I0J-249999D01*
G01*
G37*
%TD.AperFunction*%
D21*
%TO.P,J5,2*%
%TO.N,I2C1_SCL*%
X60460000Y-32000000D03*
%TO.P,J5,3*%
%TO.N,I2C1_SDA*%
X57920000Y-32000000D03*
%TO.P,J5,4*%
%TO.N,GND*%
X55380000Y-32000000D03*
%TD*%
%TO.P,R5,1*%
%TO.N,Net-(D2-Pad1)*%
%TA.AperFunction,SMDPad,CuDef*%
G36*
G01*
X53335500Y-40006000D02*
X52785500Y-40006000D01*
G75*
G02*
X52585500Y-39806000I0J200000D01*
G01*
X52585500Y-39406000D01*
G75*
G02*
X52785500Y-39206000I200000J0D01*
G01*
X53335500Y-39206000D01*
G75*
G02*
X53535500Y-39406000I0J-200000D01*
G01*
X53535500Y-39806000D01*
G75*
G02*
X53335500Y-40006000I-200000J0D01*
G01*
G37*
%TD.AperFunction*%
%TO.P,R5,2*%
%TO.N,GND*%
%TA.AperFunction,SMDPad,CuDef*%
G36*
G01*
X53335500Y-38356000D02*
X52785500Y-38356000D01*
G75*
G02*
X52585500Y-38156000I0J200000D01*
G01*
X52585500Y-37756000D01*
G75*
G02*
X52785500Y-37556000I200000J0D01*
G01*
X53335500Y-37556000D01*
G75*
G02*
X53535500Y-37756000I0J-200000D01*
G01*
X53535500Y-38156000D01*
G75*
G02*
X53335500Y-38356000I-200000J0D01*
G01*
G37*
%TD.AperFunction*%
%TD*%
D25*
%TO.P,J6,6*%
%TO.N,Net-(J6-Pad6)*%
X91985000Y-50875000D03*
X91985000Y-56355000D03*
D26*
X91235000Y-56575000D03*
X91235000Y-50625000D03*
D27*
X89935000Y-56475000D03*
X89915000Y-50725000D03*
D28*
%TO.P,J6,1*%
%TO.N,+5V*%
X90035000Y-54925000D03*
%TO.P,J6,2*%
%TO.N,USB_D-*%
X90035000Y-54275000D03*
%TO.P,J6,3*%
%TO.N,USB_D+*%
X90035000Y-53625000D03*
%TO.P,J6,4*%
%TO.N,Net-(J6-Pad4)*%
X90035000Y-52975000D03*
%TO.P,J6,5*%
%TO.N,GND*%
X90035000Y-52325000D03*
D29*
%TO.P,J6,6*%
%TO.N,Net-(J6-Pad6)*%
X89915000Y-56045000D03*
X89915000Y-51205000D03*
D30*
X92915000Y-56355000D03*
X92915000Y-50895000D03*
D31*
X93185000Y-54585000D03*
X93185000Y-52665000D03*
%TD*%
%TO.P,L2,1*%
%TO.N,+3V3*%
%TA.AperFunction,SMDPad,CuDef*%
G36*
G01*
X54047500Y-56126000D02*
X53702500Y-56126000D01*
G75*
G02*
X53555000Y-55978500I0J147500D01*
G01*
X53555000Y-55683500D01*
G75*
G02*
X53702500Y-55536000I147500J0D01*
G01*
X54047500Y-55536000D01*
G75*
G02*
X54195000Y-55683500I0J-147500D01*
G01*
X54195000Y-55978500D01*
G75*
G02*
X54047500Y-56126000I-147500J0D01*
G01*
G37*
%TD.AperFunction*%
%TO.P,L2,2*%
%TO.N,+3.3VA*%
%TA.AperFunction,SMDPad,CuDef*%
G36*
G01*
X54047500Y-55156000D02*
X53702500Y-55156000D01*
G75*
G02*
X53555000Y-55008500I0J147500D01*
G01*
X53555000Y-54713500D01*
G75*
G02*
X53702500Y-54566000I147500J0D01*
G01*
X54047500Y-54566000D01*
G75*
G02*
X54195000Y-54713500I0J-147500D01*
G01*
X54195000Y-55008500D01*
G75*
G02*
X54047500Y-55156000I-147500J0D01*
G01*
G37*
%TD.AperFunction*%
%TD*%
%TO.P,R8,1*%
%TO.N,Net-(R3-Pad2)*%
%TA.AperFunction,SMDPad,CuDef*%
G36*
G01*
X45953000Y-36621000D02*
X46503000Y-36621000D01*
G75*
G02*
X46703000Y-36821000I0J-200000D01*
G01*
X46703000Y-37221000D01*
G75*
G02*
X46503000Y-37421000I-200000J0D01*
G01*
X45953000Y-37421000D01*
G75*
G02*
X45753000Y-37221000I0J200000D01*
G01*
X45753000Y-36821000D01*
G75*
G02*
X45953000Y-36621000I200000J0D01*
G01*
G37*
%TD.AperFunction*%
%TO.P,R8,2*%
%TO.N,GND*%
%TA.AperFunction,SMDPad,CuDef*%
G36*
G01*
X45953000Y-38271000D02*
X46503000Y-38271000D01*
G75*
G02*
X46703000Y-38471000I0J-200000D01*
G01*
X46703000Y-38871000D01*
G75*
G02*
X46503000Y-39071000I-200000J0D01*
G01*
X45953000Y-39071000D01*
G75*
G02*
X45753000Y-38871000I0J200000D01*
G01*
X45753000Y-38471000D01*
G75*
G02*
X45953000Y-38271000I200000J0D01*
G01*
G37*
%TD.AperFunction*%
%TD*%
%TO.P,C3,1*%
%TO.N,+3V3*%
%TA.AperFunction,SMDPad,CuDef*%
G36*
G01*
X41857000Y-42004000D02*
X41857000Y-41054000D01*
G75*
G02*
X42107000Y-40804000I250000J0D01*
G01*
X42607000Y-40804000D01*
G75*
G02*
X42857000Y-41054000I0J-250000D01*
G01*
X42857000Y-42004000D01*
G75*
G02*
X42607000Y-42254000I-250000J0D01*
G01*
X42107000Y-42254000D01*
G75*
G02*
X41857000Y-42004000I0J250000D01*
G01*
G37*
%TD.AperFunction*%
%TO.P,C3,2*%
%TO.N,GND*%
%TA.AperFunction,SMDPad,CuDef*%
G36*
G01*
X43757000Y-42004000D02*
X43757000Y-41054000D01*
G75*
G02*
X44007000Y-40804000I250000J0D01*
G01*
X44507000Y-40804000D01*
G75*
G02*
X44757000Y-41054000I0J-250000D01*
G01*
X44757000Y-42004000D01*
G75*
G02*
X44507000Y-42254000I-250000J0D01*
G01*
X44007000Y-42254000D01*
G75*
G02*
X43757000Y-42004000I0J250000D01*
G01*
G37*
%TD.AperFunction*%
%TD*%
%TO.P,C16,2*%
%TO.N,GND*%
%TA.AperFunction,SMDPad,CuDef*%
G36*
G01*
X52586280Y-53009980D02*
X52586280Y-53349980D01*
G75*
G02*
X52446280Y-53489980I-140000J0D01*
G01*
X52166280Y-53489980D01*
G75*
G02*
X52026280Y-53349980I0J140000D01*
G01*
X52026280Y-53009980D01*
G75*
G02*
X52166280Y-52869980I140000J0D01*
G01*
X52446280Y-52869980D01*
G75*
G02*
X52586280Y-53009980I0J-140000D01*
G01*
G37*
%TD.AperFunction*%
%TO.P,C16,1*%
%TO.N,Net-(C16-Pad1)*%
%TA.AperFunction,SMDPad,CuDef*%
G36*
G01*
X53546280Y-53009980D02*
X53546280Y-53349980D01*
G75*
G02*
X53406280Y-53489980I-140000J0D01*
G01*
X53126280Y-53489980D01*
G75*
G02*
X52986280Y-53349980I0J140000D01*
G01*
X52986280Y-53009980D01*
G75*
G02*
X53126280Y-52869980I140000J0D01*
G01*
X53406280Y-52869980D01*
G75*
G02*
X53546280Y-53009980I0J-140000D01*
G01*
G37*
%TD.AperFunction*%
%TD*%
D32*
%TO.P,D1,1*%
%TO.N,Net-(D1-Pad1)*%
X83350000Y-58200000D03*
%TO.P,D1,2*%
%TO.N,+5V*%
X86650000Y-58200000D03*
%TD*%
%TO.P,C1,1*%
%TO.N,BUCK_SW*%
%TA.AperFunction,SMDPad,CuDef*%
G36*
G01*
X38000000Y-30250000D02*
X38200000Y-30250000D01*
G75*
G02*
X38300000Y-30350000I0J-100000D01*
G01*
X38300000Y-30610000D01*
G75*
G02*
X38200000Y-30710000I-100000J0D01*
G01*
X38000000Y-30710000D01*
G75*
G02*
X37900000Y-30610000I0J100000D01*
G01*
X37900000Y-30350000D01*
G75*
G02*
X38000000Y-30250000I100000J0D01*
G01*
G37*
%TD.AperFunction*%
%TO.P,C1,2*%
%TO.N,BUCK_BST*%
%TA.AperFunction,SMDPad,CuDef*%
G36*
G01*
X38000000Y-30890000D02*
X38200000Y-30890000D01*
G75*
G02*
X38300000Y-30990000I0J-100000D01*
G01*
X38300000Y-31250000D01*
G75*
G02*
X38200000Y-31350000I-100000J0D01*
G01*
X38000000Y-31350000D01*
G75*
G02*
X37900000Y-31250000I0J100000D01*
G01*
X37900000Y-30990000D01*
G75*
G02*
X38000000Y-30890000I100000J0D01*
G01*
G37*
%TD.AperFunction*%
%TD*%
D33*
%TO.P,D3,2*%
%TO.N,Net-(D3-Pad2)*%
X39150000Y-43800000D03*
%TO.P,D3,1*%
%TO.N,Net-(D1-Pad1)*%
X35650000Y-43800000D03*
%TD*%
%TO.P,D2,1*%
%TO.N,Net-(D2-Pad1)*%
%TA.AperFunction,SMDPad,CuDef*%
G36*
G01*
X51665750Y-40006000D02*
X51153250Y-40006000D01*
G75*
G02*
X50934500Y-39787250I0J218750D01*
G01*
X50934500Y-39349750D01*
G75*
G02*
X51153250Y-39131000I218750J0D01*
G01*
X51665750Y-39131000D01*
G75*
G02*
X51884500Y-39349750I0J-218750D01*
G01*
X51884500Y-39787250D01*
G75*
G02*
X51665750Y-40006000I-218750J0D01*
G01*
G37*
%TD.AperFunction*%
%TO.P,D2,2*%
%TO.N,+3V3*%
%TA.AperFunction,SMDPad,CuDef*%
G36*
G01*
X51665750Y-38431000D02*
X51153250Y-38431000D01*
G75*
G02*
X50934500Y-38212250I0J218750D01*
G01*
X50934500Y-37774750D01*
G75*
G02*
X51153250Y-37556000I218750J0D01*
G01*
X51665750Y-37556000D01*
G75*
G02*
X51884500Y-37774750I0J-218750D01*
G01*
X51884500Y-38212250D01*
G75*
G02*
X51665750Y-38431000I-218750J0D01*
G01*
G37*
%TD.AperFunction*%
%TD*%
D32*
%TO.P,D4,2*%
%TO.N,GND*%
X47116000Y-29337000D03*
%TO.P,D4,1*%
%TO.N,BUCK_SW*%
X43816000Y-29337000D03*
%TD*%
%TO.P,D5,1*%
%TO.N,Net-(D5-Pad1)*%
%TA.AperFunction,SMDPad,CuDef*%
G36*
G01*
X72038250Y-54983500D02*
X71525750Y-54983500D01*
G75*
G02*
X71307000Y-54764750I0J218750D01*
G01*
X71307000Y-54327250D01*
G75*
G02*
X71525750Y-54108500I218750J0D01*
G01*
X72038250Y-54108500D01*
G75*
G02*
X72257000Y-54327250I0J-218750D01*
G01*
X72257000Y-54764750D01*
G75*
G02*
X72038250Y-54983500I-218750J0D01*
G01*
G37*
%TD.AperFunction*%
%TO.P,D5,2*%
%TO.N,LED_STATUS*%
%TA.AperFunction,SMDPad,CuDef*%
G36*
G01*
X72038250Y-53408500D02*
X71525750Y-53408500D01*
G75*
G02*
X71307000Y-53189750I0J218750D01*
G01*
X71307000Y-52752250D01*
G75*
G02*
X71525750Y-52533500I218750J0D01*
G01*
X72038250Y-52533500D01*
G75*
G02*
X72257000Y-52752250I0J-218750D01*
G01*
X72257000Y-53189750D01*
G75*
G02*
X72038250Y-53408500I-218750J0D01*
G01*
G37*
%TD.AperFunction*%
%TD*%
%TO.P,FB1,2*%
%TO.N,Net-(D1-Pad1)*%
%TA.AperFunction,SMDPad,CuDef*%
G36*
G01*
X36068750Y-41275000D02*
X36831250Y-41275000D01*
G75*
G02*
X37050000Y-41493750I0J-218750D01*
G01*
X37050000Y-41931250D01*
G75*
G02*
X36831250Y-42150000I-218750J0D01*
G01*
X36068750Y-42150000D01*
G75*
G02*
X35850000Y-41931250I0J218750D01*
G01*
X35850000Y-41493750D01*
G75*
G02*
X36068750Y-41275000I218750J0D01*
G01*
G37*
%TD.AperFunction*%
%TO.P,FB1,1*%
%TO.N,BUCK_IN*%
%TA.AperFunction,SMDPad,CuDef*%
G36*
G01*
X36068750Y-39150000D02*
X36831250Y-39150000D01*
G75*
G02*
X37050000Y-39368750I0J-218750D01*
G01*
X37050000Y-39806250D01*
G75*
G02*
X36831250Y-40025000I-218750J0D01*
G01*
X36068750Y-40025000D01*
G75*
G02*
X35850000Y-39806250I0J218750D01*
G01*
X35850000Y-39368750D01*
G75*
G02*
X36068750Y-39150000I218750J0D01*
G01*
G37*
%TD.AperFunction*%
%TD*%
%TO.P,C7,1*%
%TO.N,+3V3*%
%TA.AperFunction,SMDPad,CuDef*%
G36*
G01*
X59274500Y-43133500D02*
X59274500Y-42793500D01*
G75*
G02*
X59414500Y-42653500I140000J0D01*
G01*
X59694500Y-42653500D01*
G75*
G02*
X59834500Y-42793500I0J-140000D01*
G01*
X59834500Y-43133500D01*
G75*
G02*
X59694500Y-43273500I-140000J0D01*
G01*
X59414500Y-43273500D01*
G75*
G02*
X59274500Y-43133500I0J140000D01*
G01*
G37*
%TD.AperFunction*%
%TO.P,C7,2*%
%TO.N,GND*%
%TA.AperFunction,SMDPad,CuDef*%
G36*
G01*
X60234500Y-43133500D02*
X60234500Y-42793500D01*
G75*
G02*
X60374500Y-42653500I140000J0D01*
G01*
X60654500Y-42653500D01*
G75*
G02*
X60794500Y-42793500I0J-140000D01*
G01*
X60794500Y-43133500D01*
G75*
G02*
X60654500Y-43273500I-140000J0D01*
G01*
X60374500Y-43273500D01*
G75*
G02*
X60234500Y-43133500I0J140000D01*
G01*
G37*
%TD.AperFunction*%
%TD*%
%TO.P,C5,2*%
%TO.N,GND*%
%TA.AperFunction,SMDPad,CuDef*%
G36*
G01*
X66996600Y-58574000D02*
X67336600Y-58574000D01*
G75*
G02*
X67476600Y-58714000I0J-140000D01*
G01*
X67476600Y-58994000D01*
G75*
G02*
X67336600Y-59134000I-140000J0D01*
G01*
X66996600Y-59134000D01*
G75*
G02*
X66856600Y-58994000I0J140000D01*
G01*
X66856600Y-58714000D01*
G75*
G02*
X66996600Y-58574000I140000J0D01*
G01*
G37*
%TD.AperFunction*%
%TO.P,C5,1*%
%TO.N,+3V3*%
%TA.AperFunction,SMDPad,CuDef*%
G36*
G01*
X66996600Y-57614000D02*
X67336600Y-57614000D01*
G75*
G02*
X67476600Y-57754000I0J-140000D01*
G01*
X67476600Y-58034000D01*
G75*
G02*
X67336600Y-58174000I-140000J0D01*
G01*
X66996600Y-58174000D01*
G75*
G02*
X66856600Y-58034000I0J140000D01*
G01*
X66856600Y-57754000D01*
G75*
G02*
X66996600Y-57614000I140000J0D01*
G01*
G37*
%TD.AperFunction*%
%TD*%
%TO.P,C8,1*%
%TO.N,+3V3*%
%TA.AperFunction,SMDPad,CuDef*%
G36*
G01*
X69602500Y-45374500D02*
X69262500Y-45374500D01*
G75*
G02*
X69122500Y-45234500I0J140000D01*
G01*
X69122500Y-44954500D01*
G75*
G02*
X69262500Y-44814500I140000J0D01*
G01*
X69602500Y-44814500D01*
G75*
G02*
X69742500Y-44954500I0J-140000D01*
G01*
X69742500Y-45234500D01*
G75*
G02*
X69602500Y-45374500I-140000J0D01*
G01*
G37*
%TD.AperFunction*%
%TO.P,C8,2*%
%TO.N,GND*%
%TA.AperFunction,SMDPad,CuDef*%
G36*
G01*
X69602500Y-44414500D02*
X69262500Y-44414500D01*
G75*
G02*
X69122500Y-44274500I0J140000D01*
G01*
X69122500Y-43994500D01*
G75*
G02*
X69262500Y-43854500I140000J0D01*
G01*
X69602500Y-43854500D01*
G75*
G02*
X69742500Y-43994500I0J-140000D01*
G01*
X69742500Y-44274500D01*
G75*
G02*
X69602500Y-44414500I-140000J0D01*
G01*
G37*
%TD.AperFunction*%
%TD*%
%TO.P,C11,2*%
%TO.N,GND*%
%TA.AperFunction,SMDPad,CuDef*%
G36*
G01*
X51622000Y-56558000D02*
X52572000Y-56558000D01*
G75*
G02*
X52822000Y-56808000I0J-250000D01*
G01*
X52822000Y-57308000D01*
G75*
G02*
X52572000Y-57558000I-250000J0D01*
G01*
X51622000Y-57558000D01*
G75*
G02*
X51372000Y-57308000I0J250000D01*
G01*
X51372000Y-56808000D01*
G75*
G02*
X51622000Y-56558000I250000J0D01*
G01*
G37*
%TD.AperFunction*%
%TO.P,C11,1*%
%TO.N,+3.3VA*%
%TA.AperFunction,SMDPad,CuDef*%
G36*
G01*
X51622000Y-54658000D02*
X52572000Y-54658000D01*
G75*
G02*
X52822000Y-54908000I0J-250000D01*
G01*
X52822000Y-55408000D01*
G75*
G02*
X52572000Y-55658000I-250000J0D01*
G01*
X51622000Y-55658000D01*
G75*
G02*
X51372000Y-55408000I0J250000D01*
G01*
X51372000Y-54908000D01*
G75*
G02*
X51622000Y-54658000I250000J0D01*
G01*
G37*
%TD.AperFunction*%
%TD*%
%TO.P,C14,1*%
%TO.N,Net-(C14-Pad1)*%
%TA.AperFunction,SMDPad,CuDef*%
G36*
G01*
X71397000Y-46982500D02*
X70897000Y-46982500D01*
G75*
G02*
X70672000Y-46757500I0J225000D01*
G01*
X70672000Y-46307500D01*
G75*
G02*
X70897000Y-46082500I225000J0D01*
G01*
X71397000Y-46082500D01*
G75*
G02*
X71622000Y-46307500I0J-225000D01*
G01*
X71622000Y-46757500D01*
G75*
G02*
X71397000Y-46982500I-225000J0D01*
G01*
G37*
%TD.AperFunction*%
%TO.P,C14,2*%
%TO.N,GND*%
%TA.AperFunction,SMDPad,CuDef*%
G36*
G01*
X71397000Y-45432500D02*
X70897000Y-45432500D01*
G75*
G02*
X70672000Y-45207500I0J225000D01*
G01*
X70672000Y-44757500D01*
G75*
G02*
X70897000Y-44532500I225000J0D01*
G01*
X71397000Y-44532500D01*
G75*
G02*
X71622000Y-44757500I0J-225000D01*
G01*
X71622000Y-45207500D01*
G75*
G02*
X71397000Y-45432500I-225000J0D01*
G01*
G37*
%TD.AperFunction*%
%TD*%
%TO.P,C13,1*%
%TO.N,Net-(C13-Pad1)*%
%TA.AperFunction,SMDPad,CuDef*%
G36*
G01*
X65436000Y-57677000D02*
X65936000Y-57677000D01*
G75*
G02*
X66161000Y-57902000I0J-225000D01*
G01*
X66161000Y-58352000D01*
G75*
G02*
X65936000Y-58577000I-225000J0D01*
G01*
X65436000Y-58577000D01*
G75*
G02*
X65211000Y-58352000I0J225000D01*
G01*
X65211000Y-57902000D01*
G75*
G02*
X65436000Y-57677000I225000J0D01*
G01*
G37*
%TD.AperFunction*%
%TO.P,C13,2*%
%TO.N,GND*%
%TA.AperFunction,SMDPad,CuDef*%
G36*
G01*
X65436000Y-59227000D02*
X65936000Y-59227000D01*
G75*
G02*
X66161000Y-59452000I0J-225000D01*
G01*
X66161000Y-59902000D01*
G75*
G02*
X65936000Y-60127000I-225000J0D01*
G01*
X65436000Y-60127000D01*
G75*
G02*
X65211000Y-59902000I0J225000D01*
G01*
X65211000Y-59452000D01*
G75*
G02*
X65436000Y-59227000I225000J0D01*
G01*
G37*
%TD.AperFunction*%
%TD*%
%TO.P,C15,1*%
%TO.N,HSE_IN*%
%TA.AperFunction,SMDPad,CuDef*%
G36*
G01*
X51689540Y-47185760D02*
X51689540Y-47525760D01*
G75*
G02*
X51549540Y-47665760I-140000J0D01*
G01*
X51269540Y-47665760D01*
G75*
G02*
X51129540Y-47525760I0J140000D01*
G01*
X51129540Y-47185760D01*
G75*
G02*
X51269540Y-47045760I140000J0D01*
G01*
X51549540Y-47045760D01*
G75*
G02*
X51689540Y-47185760I0J-140000D01*
G01*
G37*
%TD.AperFunction*%
%TO.P,C15,2*%
%TO.N,GND*%
%TA.AperFunction,SMDPad,CuDef*%
G36*
G01*
X50729540Y-47185760D02*
X50729540Y-47525760D01*
G75*
G02*
X50589540Y-47665760I-140000J0D01*
G01*
X50309540Y-47665760D01*
G75*
G02*
X50169540Y-47525760I0J140000D01*
G01*
X50169540Y-47185760D01*
G75*
G02*
X50309540Y-47045760I140000J0D01*
G01*
X50589540Y-47045760D01*
G75*
G02*
X50729540Y-47185760I0J-140000D01*
G01*
G37*
%TD.AperFunction*%
%TD*%
%TO.P,C9,2*%
%TO.N,GND*%
%TA.AperFunction,SMDPad,CuDef*%
G36*
G01*
X59580000Y-58230000D02*
X59580000Y-58570000D01*
G75*
G02*
X59440000Y-58710000I-140000J0D01*
G01*
X59160000Y-58710000D01*
G75*
G02*
X59020000Y-58570000I0J140000D01*
G01*
X59020000Y-58230000D01*
G75*
G02*
X59160000Y-58090000I140000J0D01*
G01*
X59440000Y-58090000D01*
G75*
G02*
X59580000Y-58230000I0J-140000D01*
G01*
G37*
%TD.AperFunction*%
%TO.P,C9,1*%
%TO.N,+3V3*%
%TA.AperFunction,SMDPad,CuDef*%
G36*
G01*
X60540000Y-58230000D02*
X60540000Y-58570000D01*
G75*
G02*
X60400000Y-58710000I-140000J0D01*
G01*
X60120000Y-58710000D01*
G75*
G02*
X59980000Y-58570000I0J140000D01*
G01*
X59980000Y-58230000D01*
G75*
G02*
X60120000Y-58090000I140000J0D01*
G01*
X60400000Y-58090000D01*
G75*
G02*
X60540000Y-58230000I0J-140000D01*
G01*
G37*
%TD.AperFunction*%
%TD*%
%TO.P,C6,2*%
%TO.N,GND*%
%TA.AperFunction,SMDPad,CuDef*%
G36*
G01*
X55135500Y-46603500D02*
X55135500Y-46943500D01*
G75*
G02*
X54995500Y-47083500I-140000J0D01*
G01*
X54715500Y-47083500D01*
G75*
G02*
X54575500Y-46943500I0J140000D01*
G01*
X54575500Y-46603500D01*
G75*
G02*
X54715500Y-46463500I140000J0D01*
G01*
X54995500Y-46463500D01*
G75*
G02*
X55135500Y-46603500I0J-140000D01*
G01*
G37*
%TD.AperFunction*%
%TO.P,C6,1*%
%TO.N,+3V3*%
%TA.AperFunction,SMDPad,CuDef*%
G36*
G01*
X56095500Y-46603500D02*
X56095500Y-46943500D01*
G75*
G02*
X55955500Y-47083500I-140000J0D01*
G01*
X55675500Y-47083500D01*
G75*
G02*
X55535500Y-46943500I0J140000D01*
G01*
X55535500Y-46603500D01*
G75*
G02*
X55675500Y-46463500I140000J0D01*
G01*
X55955500Y-46463500D01*
G75*
G02*
X56095500Y-46603500I0J-140000D01*
G01*
G37*
%TD.AperFunction*%
%TD*%
%TO.P,C4,2*%
%TO.N,GND*%
%TA.AperFunction,SMDPad,CuDef*%
G36*
G01*
X37117000Y-34994000D02*
X38067000Y-34994000D01*
G75*
G02*
X38317000Y-35244000I0J-250000D01*
G01*
X38317000Y-35744000D01*
G75*
G02*
X38067000Y-35994000I-250000J0D01*
G01*
X37117000Y-35994000D01*
G75*
G02*
X36867000Y-35744000I0J250000D01*
G01*
X36867000Y-35244000D01*
G75*
G02*
X37117000Y-34994000I250000J0D01*
G01*
G37*
%TD.AperFunction*%
%TO.P,C4,1*%
%TO.N,BUCK_IN*%
%TA.AperFunction,SMDPad,CuDef*%
G36*
G01*
X37117000Y-33094000D02*
X38067000Y-33094000D01*
G75*
G02*
X38317000Y-33344000I0J-250000D01*
G01*
X38317000Y-33844000D01*
G75*
G02*
X38067000Y-34094000I-250000J0D01*
G01*
X37117000Y-34094000D01*
G75*
G02*
X36867000Y-33844000I0J250000D01*
G01*
X36867000Y-33344000D01*
G75*
G02*
X37117000Y-33094000I250000J0D01*
G01*
G37*
%TD.AperFunction*%
%TD*%
%TO.P,C10,1*%
%TO.N,+3V3*%
%TA.AperFunction,SMDPad,CuDef*%
G36*
G01*
X68266600Y-57614000D02*
X68606600Y-57614000D01*
G75*
G02*
X68746600Y-57754000I0J-140000D01*
G01*
X68746600Y-58034000D01*
G75*
G02*
X68606600Y-58174000I-140000J0D01*
G01*
X68266600Y-58174000D01*
G75*
G02*
X68126600Y-58034000I0J140000D01*
G01*
X68126600Y-57754000D01*
G75*
G02*
X68266600Y-57614000I140000J0D01*
G01*
G37*
%TD.AperFunction*%
%TO.P,C10,2*%
%TO.N,GND*%
%TA.AperFunction,SMDPad,CuDef*%
G36*
G01*
X68266600Y-58574000D02*
X68606600Y-58574000D01*
G75*
G02*
X68746600Y-58714000I0J-140000D01*
G01*
X68746600Y-58994000D01*
G75*
G02*
X68606600Y-59134000I-140000J0D01*
G01*
X68266600Y-59134000D01*
G75*
G02*
X68126600Y-58994000I0J140000D01*
G01*
X68126600Y-58714000D01*
G75*
G02*
X68266600Y-58574000I140000J0D01*
G01*
G37*
%TD.AperFunction*%
%TD*%
D34*
%TO.N,GND*%
X72382500Y-44982500D03*
X68436600Y-59863400D03*
X65686000Y-60486000D03*
X68436600Y-60663400D03*
X50400000Y-58400000D03*
X49100000Y-58400000D03*
X50070500Y-51429500D03*
X48800000Y-51500000D03*
X54600000Y-52400000D03*
X54600000Y-53200000D03*
X53773500Y-46773500D03*
X52726500Y-46773500D03*
X52700000Y-45600000D03*
X53800000Y-45600000D03*
X58500000Y-58900000D03*
X58500000Y-59774990D03*
X75200000Y-36700000D03*
X92580000Y-47700000D03*
X74850000Y-57300000D03*
X46200000Y-39800000D03*
X46200000Y-40700000D03*
X37600000Y-38000000D03*
X37600000Y-37200000D03*
X38544500Y-38955500D03*
X37600000Y-36400000D03*
X49444240Y-47355760D03*
X47485000Y-45085000D03*
X47600000Y-27700000D03*
X48469669Y-27730331D03*
X40640000Y-34140000D03*
X53060520Y-36860480D03*
X60514500Y-42114500D03*
X73800000Y-26100000D03*
X82600000Y-52200000D03*
X88400000Y-49699990D03*
X88400000Y-50600004D03*
X74600000Y-52700000D03*
X41500000Y-34234026D03*
X50400024Y-59700000D03*
X49100000Y-59699992D03*
X75000000Y-45000000D03*
X77500000Y-45000000D03*
X80000000Y-45000000D03*
X82500000Y-45000000D03*
X82500000Y-42500000D03*
X80000000Y-42500000D03*
X77500000Y-42500000D03*
X75000000Y-42500000D03*
X75000000Y-40000000D03*
X77500000Y-40000000D03*
X80000000Y-40000000D03*
X82500000Y-40000000D03*
X85000000Y-40000000D03*
X41000000Y-47000000D03*
X41000000Y-49000000D03*
X41000000Y-51000000D03*
X41000000Y-53000000D03*
X41000000Y-55000000D03*
X41000000Y-57000000D03*
X41000000Y-59000000D03*
X43000000Y-59000000D03*
X45000000Y-59000000D03*
X47000000Y-59000000D03*
X47000000Y-57000000D03*
X49000000Y-57000000D03*
X45000000Y-57000000D03*
X43000000Y-57000000D03*
X43000000Y-55000000D03*
X45000000Y-55000000D03*
X47000000Y-55000000D03*
X49000000Y-55000000D03*
X49000000Y-53000000D03*
X47000000Y-53000000D03*
X45000000Y-53000000D03*
X43000000Y-53000000D03*
X43000000Y-51000000D03*
X45000000Y-51000000D03*
X47000000Y-51000000D03*
X43000000Y-49000000D03*
X45000000Y-49000000D03*
X47000000Y-49000000D03*
X47000000Y-47000000D03*
X45000000Y-47000000D03*
X43000000Y-47000000D03*
X27500000Y-42500000D03*
X30000000Y-42500000D03*
X32500000Y-42500000D03*
X32500000Y-40000000D03*
X32500000Y-37500000D03*
X32500000Y-35000000D03*
X32500000Y-35000000D03*
X30000000Y-35000000D03*
X30000000Y-37500000D03*
X30000000Y-40000000D03*
X27500000Y-40000000D03*
X27500000Y-37500000D03*
X27500000Y-35000000D03*
X27500000Y-57500000D03*
X27500000Y-60000000D03*
X27500000Y-62500000D03*
X30000000Y-60000000D03*
X30000000Y-62500000D03*
X35000000Y-62500000D03*
X32500000Y-62500000D03*
X32500000Y-60000000D03*
X35000000Y-60000000D03*
X35000000Y-57500000D03*
X35000000Y-70000000D03*
X37500000Y-70000000D03*
X40000000Y-70000000D03*
X42500000Y-70000000D03*
X45000000Y-70000000D03*
X47500000Y-70000000D03*
X50000000Y-70000000D03*
X52500000Y-70000000D03*
X55000000Y-70000000D03*
X57500000Y-70000000D03*
X60000000Y-70000000D03*
X65000000Y-70000000D03*
X62500000Y-70000000D03*
X67500000Y-70000000D03*
X70000000Y-70000000D03*
X72500000Y-70000000D03*
X75000000Y-70000000D03*
X77500000Y-70000000D03*
X80000000Y-70000000D03*
X82500000Y-70000000D03*
X85000000Y-70000000D03*
X92500000Y-62500000D03*
X87500000Y-62500000D03*
X52500000Y-35000000D03*
X52500000Y-32500000D03*
X52500000Y-30000000D03*
X52500000Y-27500000D03*
X55000000Y-27500000D03*
X57500000Y-27500000D03*
X60000000Y-27500000D03*
X62500000Y-27500000D03*
X65000000Y-27500000D03*
X55000000Y-35000000D03*
X62500000Y-35000000D03*
X65000000Y-35000000D03*
X85000000Y-27500000D03*
X82500000Y-27500000D03*
X80000000Y-27500000D03*
X77500000Y-27500000D03*
X75000000Y-27500000D03*
X75000000Y-30000000D03*
X77500000Y-30000000D03*
X80000000Y-30000000D03*
X82500000Y-30000000D03*
X85000000Y-30000000D03*
X79000000Y-60000000D03*
X79000000Y-58000000D03*
X79000000Y-56000000D03*
X77000000Y-56000000D03*
X77000000Y-58000000D03*
X77000000Y-60000000D03*
X75000000Y-60000000D03*
X73000000Y-60000000D03*
X71000000Y-60000000D03*
X71000000Y-59000000D03*
X73000000Y-59000000D03*
X75000000Y-59000000D03*
X83000000Y-49000000D03*
X88400000Y-46600000D03*
X85000000Y-49000000D03*
X87000000Y-49000000D03*
X87000000Y-47000000D03*
X85000000Y-47000000D03*
X80000000Y-47000000D03*
X60000000Y-52000000D03*
X62000000Y-52000000D03*
X64000000Y-52000000D03*
X66000000Y-52000000D03*
X66000000Y-50000000D03*
X64000000Y-50000000D03*
X62000000Y-50000000D03*
X60000000Y-50000000D03*
X60000000Y-48000000D03*
X62000000Y-48000000D03*
X64000000Y-48000000D03*
X66000000Y-48000000D03*
X75900000Y-56250000D03*
%TO.N,Net-(D1-Pad1)*%
X81400000Y-58200000D03*
X33600000Y-45600000D03*
%TO.N,NRST*%
X59400000Y-37200000D03*
X64430136Y-37169474D03*
%TO.N,USART_TX*%
X75350014Y-55300000D03*
%TO.N,USART_RX*%
X73800000Y-57300000D03*
%TO.N,Net-(R10-Pad2)*%
X60886412Y-40755339D03*
%TO.N,+5V*%
X87000000Y-52200000D03*
%TO.N,+3V3*%
X47800000Y-34600000D03*
X48800000Y-34600000D03*
X48800000Y-33600000D03*
X48800000Y-32600000D03*
X47800000Y-32600000D03*
X47800000Y-33600000D03*
X48800000Y-31600000D03*
X47800000Y-31600000D03*
X46800000Y-35600000D03*
X47800000Y-35600000D03*
X48800000Y-35600000D03*
X48800000Y-30600000D03*
X47800000Y-30600000D03*
X46800000Y-34600000D03*
X70000000Y-45700000D03*
X68800000Y-56700000D03*
X70100000Y-56700000D03*
X53900000Y-56900000D03*
X53900000Y-57800000D03*
X60327060Y-59400000D03*
X59450010Y-59400000D03*
X79600000Y-36900000D03*
X70819667Y-57080342D03*
X92600000Y-36500000D03*
X41200000Y-41500000D03*
X41200000Y-42500000D03*
X51409500Y-36809500D03*
X59515019Y-42146774D03*
X59975000Y-40325000D03*
X65725000Y-38475000D03*
X55815500Y-47429499D03*
X72540000Y-26140000D03*
X41325942Y-35492050D03*
%TD*%
D35*
%TO.N,BUCK_SW*%
X39266000Y-30480000D02*
X39690000Y-30904000D01*
X38100000Y-30480000D02*
X39266000Y-30480000D01*
D36*
X43438001Y-31884001D02*
X43939000Y-32385000D01*
X39954999Y-31884001D02*
X43438001Y-31884001D01*
X39690000Y-31619002D02*
X39954999Y-31884001D01*
X39690000Y-30904000D02*
X39690000Y-31619002D01*
D37*
X43939000Y-32385000D02*
X43939000Y-31939000D01*
D36*
X43939000Y-31939000D02*
X43939000Y-29460000D01*
D37*
X43939000Y-29460000D02*
X43816000Y-29337000D01*
X43939000Y-32385000D02*
X43939000Y-29460000D01*
D35*
%TO.N,BUCK_BST*%
X38100000Y-31120000D02*
X38100000Y-32100000D01*
X39104000Y-33104000D02*
X39690000Y-33104000D01*
X38100000Y-32100000D02*
X39104000Y-33104000D01*
%TO.N,BUCK_FB*%
X42990000Y-38353500D02*
X43054000Y-38417500D01*
X42990000Y-35179000D02*
X42990000Y-38353500D01*
X43054000Y-38417500D02*
X41871500Y-39600000D01*
X41871500Y-39600000D02*
X39900000Y-39600000D01*
X39738000Y-39438000D02*
X39738000Y-36800000D01*
X39900000Y-39600000D02*
X39738000Y-39438000D01*
X42990000Y-34504000D02*
X42990000Y-35179000D01*
X41590000Y-33104000D02*
X42990000Y-34504000D01*
%TO.N,GND*%
X60086500Y-44781500D02*
X60086500Y-43813500D01*
X60514500Y-43385500D02*
X60514500Y-42963500D01*
X60086500Y-43813500D02*
X60514500Y-43385500D01*
X67460000Y-30550000D02*
X67910000Y-31000000D01*
X67460000Y-29050000D02*
X67460000Y-30550000D01*
X71200000Y-29120000D02*
X71270000Y-29050000D01*
X71200000Y-31000000D02*
X71200000Y-29120000D01*
X70000000Y-29050000D02*
X70000000Y-31000000D01*
X70000000Y-31000000D02*
X71200000Y-31000000D01*
X67910000Y-31000000D02*
X70000000Y-31000000D01*
D38*
X70299000Y-44134500D02*
X71147000Y-44982500D01*
X69432500Y-44134500D02*
X70299000Y-44134500D01*
X71147000Y-44982500D02*
X72382500Y-44982500D01*
X65686000Y-59677000D02*
X65823000Y-59677000D01*
X66646000Y-58854000D02*
X67166600Y-58854000D01*
X65823000Y-59677000D02*
X66646000Y-58854000D01*
X67166600Y-58854000D02*
X68436600Y-58854000D01*
X68436600Y-58854000D02*
X68436600Y-59863400D01*
X65686000Y-59677000D02*
X65686000Y-60486000D01*
X68436600Y-59863400D02*
X68436600Y-60463400D01*
X68436600Y-60463400D02*
X68436600Y-60663400D01*
X52097000Y-57058000D02*
X50442000Y-57058000D01*
X50442000Y-57058000D02*
X50400000Y-57100000D01*
X50400000Y-57100000D02*
X50400000Y-58400000D01*
X50400000Y-58400000D02*
X49100000Y-58400000D01*
X51564500Y-52438200D02*
X51564500Y-51429500D01*
X52306280Y-53179980D02*
X51564500Y-52438200D01*
X51564500Y-51429500D02*
X50070500Y-51429500D01*
D35*
X53264500Y-49629500D02*
X53264500Y-49229500D01*
X51564500Y-51329500D02*
X53264500Y-49629500D01*
X51564500Y-51429500D02*
X51564500Y-51329500D01*
X53264500Y-49329500D02*
X51094000Y-51500000D01*
X53264500Y-49229500D02*
X53264500Y-49329500D01*
D38*
X50000000Y-51500000D02*
X50070500Y-51429500D01*
X48800000Y-51500000D02*
X50000000Y-51500000D01*
D35*
X55713500Y-52206500D02*
X57661500Y-52206500D01*
X55600000Y-52320000D02*
X55713500Y-52206500D01*
D36*
X55600000Y-52320000D02*
X54880000Y-52320000D01*
X54800000Y-52400000D02*
X54600000Y-52400000D01*
X54880000Y-52320000D02*
X54800000Y-52400000D01*
X54600000Y-52400000D02*
X54600000Y-53200000D01*
D38*
X54855500Y-46773500D02*
X53773500Y-46773500D01*
X53773500Y-46773500D02*
X52726500Y-46773500D01*
X52726500Y-45626500D02*
X52700000Y-45600000D01*
X52726500Y-46773500D02*
X52726500Y-45626500D01*
X52700000Y-45600000D02*
X53800000Y-45600000D01*
X53800000Y-46747000D02*
X53773500Y-46773500D01*
X53800000Y-45600000D02*
X53800000Y-46747000D01*
X53773500Y-46673500D02*
X52700000Y-45600000D01*
X53773500Y-46773500D02*
X53773500Y-46673500D01*
X58500000Y-58900000D02*
X58500000Y-58400000D01*
X58500000Y-58400000D02*
X59300000Y-58400000D01*
D39*
X59300000Y-57758702D02*
X60086500Y-56972202D01*
X60086500Y-56972202D02*
X60086500Y-56131500D01*
X59300000Y-58400000D02*
X59300000Y-57758702D01*
D38*
X58500000Y-58900000D02*
X58500000Y-59774990D01*
D35*
X78000000Y-33000000D02*
X78000000Y-33900000D01*
X78000000Y-33900000D02*
X75200000Y-36700000D01*
X46228000Y-38671000D02*
X46228000Y-39572000D01*
X46200000Y-39600000D02*
X46200000Y-39800000D01*
X46228000Y-39572000D02*
X46200000Y-39600000D01*
X44257000Y-41529000D02*
X44229000Y-41529000D01*
D38*
X44257000Y-41529000D02*
X45471000Y-41529000D01*
X46200000Y-40800000D02*
X46200000Y-40700000D01*
X45471000Y-41529000D02*
X46200000Y-40800000D01*
X46200000Y-40700000D02*
X46200000Y-39800000D01*
X38544500Y-40228000D02*
X38544500Y-38955500D01*
X37800000Y-38000000D02*
X37600000Y-38000000D01*
X38544500Y-38744500D02*
X37800000Y-38000000D01*
X37600000Y-38000000D02*
X37600000Y-37100000D01*
X37600000Y-35502000D02*
X37592000Y-35494000D01*
X37600000Y-37100000D02*
X37600000Y-36300000D01*
X38544500Y-38955500D02*
X38544500Y-38744500D01*
X37600000Y-36300000D02*
X37600000Y-35502000D01*
D35*
X50449540Y-47355760D02*
X49444240Y-47355760D01*
D36*
X46291000Y-45085000D02*
X47485000Y-45085000D01*
D38*
X47116000Y-29337000D02*
X47116000Y-28184000D01*
X47116000Y-28184000D02*
X47600000Y-27700000D01*
X47600000Y-27700000D02*
X48400000Y-27700000D01*
X48430331Y-27730331D02*
X48469669Y-27730331D01*
X48400000Y-27700000D02*
X48430331Y-27730331D01*
X40640000Y-33104000D02*
X40640000Y-34140000D01*
D35*
X53060500Y-37956000D02*
X53060500Y-36860500D01*
X53060500Y-36860500D02*
X53060520Y-36860480D01*
X60514500Y-42963500D02*
X60514500Y-42114500D01*
X72790002Y-31000000D02*
X73800000Y-29990002D01*
X71200000Y-31000000D02*
X72790002Y-31000000D01*
X73800000Y-29990002D02*
X73800000Y-26100000D01*
D36*
X83700000Y-52200000D02*
X82700000Y-52200000D01*
X82700000Y-52200000D02*
X82600000Y-52200000D01*
D35*
X88400000Y-49699990D02*
X88400000Y-50600004D01*
X88400000Y-51600000D02*
X88400000Y-50600004D01*
X89125000Y-52325000D02*
X88400000Y-51600000D01*
X90035000Y-52325000D02*
X89125000Y-52325000D01*
X74430000Y-52870000D02*
X74600000Y-52700000D01*
X73560000Y-52870000D02*
X74430000Y-52870000D01*
D38*
X40734026Y-34234026D02*
X41500000Y-34234026D01*
X40640000Y-34140000D02*
X40734026Y-34234026D01*
X88400000Y-49699990D02*
X88400000Y-46600000D01*
X88400000Y-46600000D02*
X89000000Y-46000000D01*
X89000000Y-46000000D02*
X90000000Y-46000000D01*
X50400000Y-58400000D02*
X50400000Y-59700000D01*
X49100000Y-58400000D02*
X50400000Y-59700000D01*
X50400000Y-59700000D02*
X50400024Y-59700000D01*
X49100000Y-59700000D02*
X49100000Y-59699992D01*
X49100000Y-58400000D02*
X49100000Y-59700000D01*
X50400000Y-58400000D02*
X49100000Y-59700000D01*
X50400024Y-59700000D02*
X49100000Y-59700000D01*
X88400000Y-46600000D02*
X88400000Y-46600000D01*
D37*
%TO.N,BUCK_IN*%
X36867000Y-33594000D02*
X37592000Y-33594000D01*
X36867000Y-33594000D02*
X36600000Y-33327000D01*
X36600000Y-33327000D02*
X36600000Y-30618612D01*
X36600000Y-30618612D02*
X36600000Y-29200000D01*
X36600000Y-29200000D02*
X37200000Y-28600000D01*
X37200000Y-28600000D02*
X40200000Y-28600000D01*
X40200000Y-28600000D02*
X40600000Y-29000000D01*
D38*
X40640000Y-29040000D02*
X40640000Y-30904000D01*
X40600000Y-29000000D02*
X40640000Y-29040000D01*
D39*
X37088775Y-41052991D02*
X39752991Y-41052991D01*
X40474999Y-41774999D02*
X40474999Y-45074999D01*
X37035774Y-40999990D02*
X37088775Y-41052991D01*
X40548500Y-45148500D02*
X41403000Y-45148500D01*
X36799990Y-40999990D02*
X37035774Y-40999990D01*
X36450000Y-40650000D02*
X36799990Y-40999990D01*
X36450000Y-39989500D02*
X36450000Y-40650000D01*
X40474999Y-45074999D02*
X40548500Y-45148500D01*
X39752991Y-41052991D02*
X40474999Y-41774999D01*
X36512500Y-39927000D02*
X36450000Y-39989500D01*
D37*
X36166990Y-34294010D02*
X36867000Y-33594000D01*
X36166990Y-39304490D02*
X36166990Y-34294010D01*
X36450000Y-39587500D02*
X36166990Y-39304490D01*
D35*
%TO.N,Net-(C13-Pad1)*%
X66586500Y-57226500D02*
X66586500Y-56131500D01*
X65686000Y-58127000D02*
X66586500Y-57226500D01*
%TO.N,Net-(C14-Pad1)*%
X70473000Y-47206500D02*
X71147000Y-46532500D01*
X69011500Y-47206500D02*
X70473000Y-47206500D01*
%TO.N,HSE_IN*%
X51409540Y-49074540D02*
X51564500Y-49229500D01*
X51409540Y-47355760D02*
X51409540Y-49074540D01*
X56785442Y-48706500D02*
X57661500Y-48706500D01*
X56258441Y-48179499D02*
X56785442Y-48706500D01*
X51614501Y-48179499D02*
X56258441Y-48179499D01*
X51564500Y-48229500D02*
X51614501Y-48179499D01*
X51564500Y-49229500D02*
X51564500Y-48229500D01*
%TO.N,Net-(C16-Pad1)*%
X53730000Y-50964000D02*
X53264500Y-51429500D01*
X55272000Y-50964000D02*
X53730000Y-50964000D01*
X53264500Y-53178200D02*
X53266280Y-53179980D01*
X53264500Y-51429500D02*
X53264500Y-53178200D01*
D37*
%TO.N,Net-(D1-Pad1)*%
X36642000Y-44792000D02*
X35650000Y-43800000D01*
X36642000Y-45863000D02*
X36642000Y-44792000D01*
X83350000Y-58200000D02*
X81400000Y-58200000D01*
X33600000Y-45600000D02*
X33600000Y-44100000D01*
X33900000Y-43800000D02*
X35650000Y-43800000D01*
X33600000Y-44100000D02*
X33900000Y-43800000D01*
X35650000Y-42512500D02*
X36450000Y-41712500D01*
X35650000Y-43800000D02*
X35650000Y-42512500D01*
D35*
%TO.N,Net-(D2-Pad1)*%
X53023000Y-39568500D02*
X53060500Y-39606000D01*
X51409500Y-39568500D02*
X53023000Y-39568500D01*
D37*
%TO.N,Net-(D3-Pad2)*%
X38542000Y-44408000D02*
X39150000Y-43800000D01*
X38542000Y-45863000D02*
X38542000Y-44408000D01*
X39150000Y-42483500D02*
X38544500Y-41878000D01*
X39150000Y-43800000D02*
X39150000Y-42483500D01*
D35*
%TO.N,LED_STATUS*%
X71517500Y-52706500D02*
X71782000Y-52971000D01*
X69011500Y-52706500D02*
X71517500Y-52706500D01*
D38*
%TO.N,Net-(D5-Pad1)*%
X73534000Y-54546000D02*
X73560000Y-54520000D01*
X71782000Y-54546000D02*
X73534000Y-54546000D01*
D39*
%TO.N,PA0*%
X57661500Y-53206500D02*
X56641126Y-53206500D01*
X56641126Y-53206500D02*
X54625001Y-55222625D01*
X54625001Y-55222625D02*
X54625001Y-58474999D01*
X54625001Y-58474999D02*
X52574996Y-60525004D01*
X52574996Y-60525004D02*
X42445996Y-60525004D01*
X42445996Y-60525004D02*
X37719000Y-65252000D01*
X37719000Y-65252000D02*
X37719000Y-66802000D01*
%TO.N,PA1*%
X42719000Y-62719000D02*
X42719000Y-66802000D01*
X52900000Y-61400000D02*
X44038000Y-61400000D01*
X55400000Y-58900000D02*
X52900000Y-61400000D01*
X55400000Y-55127298D02*
X55400000Y-58900000D01*
X44038000Y-61400000D02*
X42719000Y-62719000D01*
X56820798Y-53706500D02*
X55400000Y-55127298D01*
X57661500Y-53706500D02*
X56820798Y-53706500D01*
%TO.N,PA2*%
X47719000Y-63581000D02*
X47719000Y-66802000D01*
X48900000Y-62400000D02*
X47719000Y-63581000D01*
X56300000Y-59500000D02*
X53400000Y-62400000D01*
X53400000Y-62400000D02*
X48900000Y-62400000D01*
X56300000Y-54900000D02*
X56300000Y-59500000D01*
X56993500Y-54206500D02*
X56300000Y-54900000D01*
X57661500Y-54206500D02*
X56993500Y-54206500D01*
%TO.N,PA4*%
X53700000Y-65821000D02*
X52719000Y-66802000D01*
X56400000Y-60500000D02*
X53700000Y-63200000D01*
X53700000Y-63200000D02*
X53700000Y-65821000D01*
X61086500Y-56131500D02*
X61086500Y-60013500D01*
X60600000Y-60500000D02*
X60400000Y-60500000D01*
X61086500Y-60013500D02*
X60600000Y-60500000D01*
X60400000Y-60500000D02*
X56400000Y-60500000D01*
X60573002Y-60500000D02*
X60400000Y-60500000D01*
%TO.N,PA5*%
X61586500Y-56313500D02*
X61611490Y-56338490D01*
X61586500Y-56131500D02*
X61586500Y-56313500D01*
X61586500Y-56513500D02*
X61600000Y-56527000D01*
X61586500Y-56131500D02*
X61586500Y-56513500D01*
X61586500Y-60149910D02*
X60786400Y-60950010D01*
X61586500Y-56131500D02*
X61586500Y-60149910D01*
X60786400Y-60950010D02*
X58149990Y-60950010D01*
X57719000Y-61381000D02*
X57719000Y-66802000D01*
X58149990Y-60950010D02*
X57719000Y-61381000D01*
%TO.N,PA6*%
X62086500Y-66169500D02*
X62719000Y-66802000D01*
X62086500Y-56131500D02*
X62086500Y-66169500D01*
D35*
%TO.N,PA7*%
X62586500Y-56131500D02*
X62586500Y-62186500D01*
X67202000Y-66802000D02*
X67719000Y-66802000D01*
X62586500Y-62186500D02*
X67202000Y-66802000D01*
%TO.N,PB0*%
X66300000Y-63600000D02*
X74517000Y-63600000D01*
X64086500Y-61386500D02*
X66300000Y-63600000D01*
X74517000Y-63600000D02*
X77719000Y-66802000D01*
X64086500Y-56131500D02*
X64086500Y-61386500D01*
%TO.N,PB1*%
X64586500Y-60496502D02*
X66889998Y-62800000D01*
X64586500Y-56131500D02*
X64586500Y-60496502D01*
X78717000Y-62800000D02*
X82719000Y-66802000D01*
X66889998Y-62800000D02*
X78717000Y-62800000D01*
%TO.N,PC4*%
X70517000Y-64600000D02*
X72719000Y-66802000D01*
X66100000Y-64600000D02*
X70517000Y-64600000D01*
X63086500Y-61586500D02*
X66100000Y-64600000D01*
X63086500Y-56131500D02*
X63086500Y-61586500D01*
%TO.N,SDWIO*%
X72540000Y-32950000D02*
X72540000Y-39060000D01*
X68106500Y-47706500D02*
X69011500Y-47706500D01*
X67886490Y-47486490D02*
X68106500Y-47706500D01*
X67886490Y-43713510D02*
X67886490Y-47486490D01*
X72540000Y-39060000D02*
X67886490Y-43713510D01*
%TO.N,SWCLK*%
X71270000Y-32950000D02*
X71270000Y-39030000D01*
X67086500Y-43905442D02*
X67086500Y-44781500D01*
X67000000Y-43818942D02*
X67086500Y-43905442D01*
X67000000Y-43300000D02*
X67000000Y-43818942D01*
X71270000Y-39030000D02*
X67000000Y-43300000D01*
%TO.N,SWO*%
X70000000Y-32950000D02*
X70000000Y-38800000D01*
X70000000Y-38800000D02*
X66300000Y-42500000D01*
X64086500Y-43905442D02*
X64086500Y-44781500D01*
X65491942Y-42500000D02*
X64086500Y-43905442D01*
X66300000Y-42500000D02*
X65491942Y-42500000D01*
%TO.N,NRST*%
X57661500Y-49706500D02*
X58693500Y-49706500D01*
X58786510Y-49613490D02*
X58786510Y-45486510D01*
X58693500Y-49706500D02*
X58786510Y-49613490D01*
X57800000Y-44500000D02*
X57800000Y-38800000D01*
X58786510Y-45486510D02*
X57800000Y-44500000D01*
X57800000Y-38800000D02*
X59400000Y-37200000D01*
X64430136Y-37169474D02*
X65730526Y-37169474D01*
X67460000Y-35440000D02*
X67460000Y-32950000D01*
X65730526Y-37169474D02*
X67460000Y-35440000D01*
%TO.N,USART_TX*%
X75316504Y-55333510D02*
X75350014Y-55300000D01*
X68762452Y-55333510D02*
X75316504Y-55333510D01*
X66000000Y-54200000D02*
X67628942Y-54200000D01*
X67628942Y-54200000D02*
X68762452Y-55333510D01*
X65586500Y-56131500D02*
X65586500Y-54613500D01*
X65586500Y-54613500D02*
X66000000Y-54200000D01*
%TO.N,USART_RX*%
X68671821Y-55949999D02*
X72449999Y-55949999D01*
X74000000Y-57500000D02*
X73800000Y-57300000D01*
X66086500Y-56131500D02*
X66086500Y-55213500D01*
X66086500Y-55213500D02*
X66293510Y-55006490D01*
X66293510Y-55006490D02*
X67728312Y-55006490D01*
X67728312Y-55006490D02*
X68671821Y-55949999D01*
X72449999Y-55949999D02*
X73800000Y-57300000D01*
%TO.N,I2C1_SCL*%
X62586500Y-44781500D02*
X62586500Y-43713500D01*
X64075000Y-42225000D02*
X64075000Y-39500000D01*
X62586500Y-43713500D02*
X64075000Y-42225000D01*
X64075000Y-39500000D02*
X64075000Y-37875000D01*
X60460000Y-34260000D02*
X60460000Y-32000000D01*
X64075000Y-37875000D02*
X60460000Y-34260000D01*
%TO.N,I2C1_SDA*%
X62086500Y-43429408D02*
X62500000Y-43015908D01*
X62086500Y-44781500D02*
X62086500Y-43429408D01*
X62500000Y-43015908D02*
X62500000Y-41500000D01*
X61625000Y-40625000D02*
X61625000Y-39500000D01*
X62500000Y-41500000D02*
X61625000Y-40625000D01*
X61625000Y-39500000D02*
X61625000Y-38025000D01*
X57920000Y-34320000D02*
X57920000Y-32000000D01*
X61625000Y-38025000D02*
X57920000Y-34320000D01*
D40*
%TO.N,USB_D-*%
X88797499Y-54275000D02*
X90035000Y-54275000D01*
X88175519Y-54182156D02*
X88704655Y-54182156D01*
X88704655Y-54182156D02*
X88797499Y-54275000D01*
X85900000Y-53150000D02*
X87143363Y-53150000D01*
X87143363Y-53150000D02*
X88175519Y-54182156D01*
X85400557Y-52855557D02*
X85695000Y-53150000D01*
X85105554Y-52855557D02*
X85400557Y-52855557D01*
X85039443Y-52789446D02*
X85105554Y-52855557D01*
X85039443Y-52494443D02*
X85039443Y-52789446D01*
X84977156Y-52432156D02*
X85039443Y-52494443D01*
X84560557Y-52494443D02*
X84622844Y-52432156D01*
X84560557Y-52789446D02*
X84560557Y-52494443D01*
X85695000Y-53150000D02*
X85900000Y-53150000D01*
X84494446Y-52855557D02*
X84560557Y-52789446D01*
X84199443Y-52855557D02*
X84494446Y-52855557D01*
X83905000Y-53150000D02*
X84199443Y-52855557D01*
X83700000Y-53150000D02*
X83905000Y-53150000D01*
X84622844Y-52432156D02*
X84977156Y-52432156D01*
X69029344Y-48688656D02*
X69011500Y-48706500D01*
X74216048Y-48688656D02*
X69029344Y-48688656D01*
X74274150Y-48695203D02*
X74216048Y-48688656D01*
X74329340Y-48714515D02*
X74274150Y-48695203D01*
X74420193Y-48786968D02*
X74378848Y-48745623D01*
X74470613Y-48891666D02*
X74451301Y-48836476D01*
X74477160Y-48949768D02*
X74470613Y-48891666D01*
X74477160Y-49237306D02*
X74477160Y-48949768D01*
X74494296Y-49389400D02*
X74477160Y-49237306D01*
X74626279Y-49663465D02*
X74544848Y-49533868D01*
X74864104Y-49853124D02*
X74734507Y-49771693D01*
X75008572Y-49903676D02*
X74864104Y-49853124D01*
X75160666Y-49920812D02*
X75008572Y-49903676D01*
X75396595Y-49903676D02*
X75244501Y-49920812D01*
X75541063Y-49853124D02*
X75396595Y-49903676D01*
X75860319Y-49533868D02*
X75778888Y-49663465D01*
X75910871Y-49389400D02*
X75860319Y-49533868D01*
X75928008Y-49237306D02*
X75910871Y-49389400D01*
X75244501Y-49920812D02*
X75160666Y-49920812D01*
X75928008Y-47717612D02*
X75928008Y-49237306D01*
X74378848Y-48745623D02*
X74329340Y-48714515D01*
X75934554Y-47659509D02*
X75928008Y-47717612D01*
X75953866Y-47604319D02*
X75934554Y-47659509D01*
X75984974Y-47554811D02*
X75953866Y-47604319D01*
X74544848Y-49533868D02*
X74494296Y-49389400D01*
X76026319Y-47513466D02*
X75984974Y-47554811D01*
X74451301Y-48836476D02*
X74420193Y-48786968D01*
X76075827Y-47482358D02*
X76026319Y-47513466D01*
X76131017Y-47463046D02*
X76075827Y-47482358D01*
X76189120Y-47456500D02*
X76131017Y-47463046D01*
X76247222Y-47463046D02*
X76189120Y-47456500D01*
X74734507Y-49771693D02*
X74626279Y-49663465D01*
X76302412Y-47482358D02*
X76247222Y-47463046D01*
X76351920Y-47513466D02*
X76302412Y-47482358D01*
X76393265Y-47554811D02*
X76351920Y-47513466D01*
X76424373Y-47604319D02*
X76393265Y-47554811D01*
X75670660Y-49771693D02*
X75541063Y-49853124D01*
X76443685Y-47659509D02*
X76424373Y-47604319D01*
X76450232Y-47717612D02*
X76443685Y-47659509D01*
X76450232Y-48005149D02*
X76450232Y-47717612D01*
X76467368Y-48157243D02*
X76450232Y-48005149D01*
X76517920Y-48301711D02*
X76467368Y-48157243D01*
X76599351Y-48431308D02*
X76517920Y-48301711D01*
X76707579Y-48539536D02*
X76599351Y-48431308D01*
X76837176Y-48620967D02*
X76707579Y-48539536D01*
X76981644Y-48671519D02*
X76837176Y-48620967D01*
X77133738Y-48688656D02*
X76981644Y-48671519D01*
X77560336Y-48688656D02*
X77133738Y-48688656D01*
X81303836Y-52432156D02*
X77560336Y-48688656D01*
X81750931Y-52432156D02*
X81303836Y-52432156D01*
X75778888Y-49663465D02*
X75670660Y-49771693D01*
X83700000Y-53150000D02*
X82904999Y-53150000D01*
X82904999Y-53150000D02*
X82685556Y-52930557D01*
X82685556Y-52930557D02*
X82249332Y-52930557D01*
X82249332Y-52930557D02*
X81750931Y-52432156D01*
%TO.N,USB_D+*%
X86194443Y-51544443D02*
X86574332Y-51544443D01*
X86574332Y-51544443D02*
X86649332Y-51469443D01*
X87730557Y-51849332D02*
X87730557Y-52550668D01*
X85900000Y-51250000D02*
X86194443Y-51544443D01*
X87350668Y-51469443D02*
X87730557Y-51849332D01*
X87730557Y-52550668D02*
X87465613Y-52815612D01*
X87465613Y-52815612D02*
X88367844Y-53717844D01*
X86649332Y-51469443D02*
X87350668Y-51469443D01*
X88367844Y-53717844D02*
X88704655Y-53717844D01*
X88797499Y-53625000D02*
X90035000Y-53625000D01*
X88704655Y-53717844D02*
X88797499Y-53625000D01*
X83700000Y-51250000D02*
X83905000Y-51250000D01*
X83905000Y-51250000D02*
X84199443Y-51544443D01*
X84199443Y-51544443D02*
X84494446Y-51544443D01*
X84560557Y-51610554D02*
X84560557Y-51905557D01*
X84494446Y-51544443D02*
X84560557Y-51610554D01*
X84977156Y-51967844D02*
X85039443Y-51905557D01*
X85039443Y-51905557D02*
X85039443Y-51610554D01*
X84560557Y-51905557D02*
X84622844Y-51967844D01*
X85695000Y-51250000D02*
X85900000Y-51250000D01*
X84622844Y-51967844D02*
X84977156Y-51967844D01*
X85039443Y-51610554D02*
X85105554Y-51544443D01*
X85105554Y-51544443D02*
X85400557Y-51544443D01*
X85400557Y-51544443D02*
X85695000Y-51250000D01*
X75612815Y-47249535D02*
X75531384Y-47379132D01*
X75721043Y-47141307D02*
X75612815Y-47249535D01*
X75850640Y-47059876D02*
X75721043Y-47141307D01*
X75995108Y-47009324D02*
X75850640Y-47059876D01*
X76147202Y-46992188D02*
X75995108Y-47009324D01*
X76231037Y-46992188D02*
X76147202Y-46992188D01*
X76527599Y-47059876D02*
X76383131Y-47009324D01*
X76657196Y-47141307D02*
X76527599Y-47059876D01*
X76846855Y-47379132D02*
X76765424Y-47249535D01*
X76897407Y-47523600D02*
X76846855Y-47379132D01*
X82685556Y-51469443D02*
X82249332Y-51469443D01*
X76921090Y-48021334D02*
X76914544Y-47963232D01*
X75531384Y-47379132D02*
X75480832Y-47523600D01*
X76765424Y-47249535D02*
X76657196Y-47141307D01*
X82249332Y-51469443D02*
X81750931Y-51967844D01*
X81750931Y-51967844D02*
X81496164Y-51967844D01*
X75260686Y-49449954D02*
X75202584Y-49456500D01*
X76914544Y-47963232D02*
X76914544Y-47675694D01*
X83700000Y-51250000D02*
X82904999Y-51250000D01*
X77117553Y-48217797D02*
X77062363Y-48198485D01*
X77175656Y-48224344D02*
X77117553Y-48217797D01*
X81496164Y-51967844D02*
X77752664Y-48224344D01*
X75039783Y-49399534D02*
X74998438Y-49358189D01*
X76914544Y-47675694D02*
X76897407Y-47523600D01*
X76940402Y-48076524D02*
X76921090Y-48021334D01*
X77752664Y-48224344D02*
X77175656Y-48224344D01*
X75406729Y-49358189D02*
X75365384Y-49399534D01*
X76383131Y-47009324D02*
X76231037Y-46992188D01*
X77062363Y-48198485D02*
X77012855Y-48167377D01*
X77012855Y-48167377D02*
X76971510Y-48126032D01*
X75457149Y-49253491D02*
X75437837Y-49308681D01*
X82904999Y-51250000D02*
X82685556Y-51469443D01*
X76971510Y-48126032D02*
X76940402Y-48076524D01*
X75480832Y-47523600D02*
X75463696Y-47675694D01*
X75463696Y-47675694D02*
X75463696Y-49195388D01*
X75463696Y-49195388D02*
X75457149Y-49253491D01*
X75437837Y-49308681D02*
X75406729Y-49358189D01*
X75365384Y-49399534D02*
X75315876Y-49430642D01*
X75315876Y-49430642D02*
X75260686Y-49449954D01*
X75202584Y-49456500D02*
X75144481Y-49449954D01*
X75144481Y-49449954D02*
X75089291Y-49430642D01*
X75089291Y-49430642D02*
X75039783Y-49399534D01*
X74998438Y-49358189D02*
X74967330Y-49308681D01*
X74967330Y-49308681D02*
X74948018Y-49253491D01*
X74948018Y-49253491D02*
X74941472Y-49195388D01*
X74941472Y-49195388D02*
X74941472Y-48907851D01*
X74941472Y-48907851D02*
X74924335Y-48755757D01*
X74924335Y-48755757D02*
X74873783Y-48611289D01*
X74873783Y-48611289D02*
X74792352Y-48481692D01*
X74792352Y-48481692D02*
X74684124Y-48373464D01*
X74684124Y-48373464D02*
X74554527Y-48292033D01*
X74554527Y-48292033D02*
X74410059Y-48241481D01*
X74410059Y-48241481D02*
X74257965Y-48224344D01*
X74257965Y-48224344D02*
X69029344Y-48224344D01*
X69029344Y-48224344D02*
X69011500Y-48206500D01*
D35*
%TO.N,BUCK_EN*%
X44577500Y-45148500D02*
X44641000Y-45085000D01*
X43053000Y-45148500D02*
X44577500Y-45148500D01*
X41590000Y-29810000D02*
X41590000Y-30904000D01*
X41590000Y-27210000D02*
X41590000Y-29810000D01*
X42600000Y-26200000D02*
X41590000Y-27210000D01*
X48000000Y-26200000D02*
X42600000Y-26200000D01*
X50200000Y-28400000D02*
X48000000Y-26200000D01*
X48110010Y-45910010D02*
X50200000Y-43820020D01*
X45310010Y-45910010D02*
X48110010Y-45910010D01*
X44641000Y-45241000D02*
X45310010Y-45910010D01*
X50200000Y-43820020D02*
X50200000Y-28400000D01*
X44641000Y-45085000D02*
X44641000Y-45241000D01*
%TO.N,Net-(R3-Pad2)*%
X44640000Y-35179000D02*
X44640000Y-36340000D01*
X45321000Y-37021000D02*
X46228000Y-37021000D01*
X44640000Y-36340000D02*
X45321000Y-37021000D01*
X44704000Y-37638000D02*
X45321000Y-37021000D01*
X44704000Y-38417500D02*
X44704000Y-37638000D01*
%TO.N,BOOT0*%
X61586500Y-42923500D02*
X61586500Y-44781500D01*
X61600000Y-42910000D02*
X61586500Y-42923500D01*
%TO.N,Net-(R10-Pad2)*%
X61600000Y-41890000D02*
X61600000Y-41500000D01*
X61600000Y-41500000D02*
X61200000Y-41100000D01*
X60886412Y-40786412D02*
X60886412Y-40755339D01*
X61200000Y-41100000D02*
X60886412Y-40786412D01*
%TO.N,HSE_OUT*%
X55379500Y-49206500D02*
X57661500Y-49206500D01*
X55272000Y-49314000D02*
X55379500Y-49206500D01*
%TO.N,+5V*%
X88910000Y-54925000D02*
X88100000Y-55735000D01*
X90035000Y-54925000D02*
X88910000Y-54925000D01*
X88100000Y-55735000D02*
X88100000Y-58000000D01*
X87900000Y-58200000D02*
X86650000Y-58200000D01*
X88100000Y-58000000D02*
X87900000Y-58200000D01*
D36*
X85900000Y-52200000D02*
X87000000Y-52200000D01*
D35*
%TO.N,+3V3*%
X69011500Y-45515500D02*
X69432500Y-45094500D01*
X69011500Y-46706500D02*
X69011500Y-45515500D01*
X55882500Y-46706500D02*
X55815500Y-46773500D01*
X57661500Y-46706500D02*
X55882500Y-46706500D01*
D38*
X67166600Y-57894000D02*
X68436600Y-57894000D01*
D35*
X67166600Y-56211600D02*
X67086500Y-56131500D01*
X67166600Y-57894000D02*
X67166600Y-56211600D01*
X59554500Y-44749500D02*
X59586500Y-44781500D01*
X59554500Y-42963500D02*
X59554500Y-44749500D01*
X69432500Y-45094500D02*
X69994500Y-45094500D01*
X69994500Y-45094500D02*
X70000000Y-45100000D01*
X70000000Y-45100000D02*
X70000000Y-45700000D01*
D38*
X68436600Y-57894000D02*
X68436600Y-57063400D01*
X68436600Y-57063400D02*
X68800000Y-56700000D01*
X68800000Y-56700000D02*
X69600000Y-56700000D01*
X69600000Y-56700000D02*
X70100000Y-56700000D01*
X53875000Y-55831000D02*
X53875000Y-56875000D01*
X53875000Y-56875000D02*
X53900000Y-56900000D01*
X53900000Y-56900000D02*
X53900000Y-57800000D01*
X60377060Y-59350000D02*
X60327060Y-59400000D01*
X60327060Y-58467060D02*
X60260000Y-58400000D01*
X60327060Y-59400000D02*
X60327060Y-58467060D01*
D35*
X60586500Y-58073500D02*
X60260000Y-58400000D01*
X60586500Y-56131500D02*
X60586500Y-58073500D01*
D38*
X60327060Y-59400000D02*
X59450010Y-59400000D01*
D35*
X82000000Y-33000000D02*
X82000000Y-34500000D01*
X82000000Y-34500000D02*
X79600000Y-36900000D01*
D38*
X70439325Y-56700000D02*
X70819667Y-57080342D01*
X70100000Y-56700000D02*
X70439325Y-56700000D01*
D35*
X41338000Y-36850000D02*
X41288000Y-36800000D01*
X41338000Y-38417500D02*
X41338000Y-36850000D01*
X42357000Y-41529000D02*
X41429000Y-41529000D01*
X41400000Y-41500000D02*
X41200000Y-41500000D01*
X41429000Y-41529000D02*
X41400000Y-41500000D01*
D38*
X41200000Y-41500000D02*
X41200000Y-42500000D01*
D35*
X51409500Y-37993500D02*
X51409500Y-36809500D01*
X51409500Y-36809500D02*
X51409500Y-36809500D01*
X59554500Y-42963500D02*
X59554500Y-42145500D01*
X59553226Y-42146774D02*
X59515019Y-42146774D01*
X59554500Y-42145500D02*
X59553226Y-42146774D01*
X59975000Y-39500000D02*
X59975000Y-40325000D01*
X65725000Y-39500000D02*
X65725000Y-38475000D01*
X55815500Y-46773500D02*
X55815500Y-47484500D01*
X55815500Y-47484500D02*
X55815500Y-47429499D01*
D38*
X72540000Y-29050000D02*
X72540000Y-26140000D01*
D35*
X41288000Y-36800000D02*
X41288000Y-35529992D01*
X41288000Y-35529992D02*
X41325942Y-35492050D01*
%TO.N,+3.3VA*%
X53578000Y-55158000D02*
X53875000Y-54861000D01*
X52097000Y-55158000D02*
X53578000Y-55158000D01*
X56340780Y-52706500D02*
X57661500Y-52706500D01*
X55677280Y-53370000D02*
X56340780Y-52706500D01*
X55630000Y-53370000D02*
X55677280Y-53370000D01*
X54139000Y-54861000D02*
X55630000Y-53370000D01*
X53875000Y-54861000D02*
X54139000Y-54861000D01*
%TD*%
D41*
%TO.N,+12V*%
X38826984Y-47134856D02*
X38849859Y-47150141D01*
X38865144Y-47173016D01*
X38873000Y-47212509D01*
X38873000Y-49087491D01*
X38865144Y-49126984D01*
X38849859Y-49149859D01*
X38826984Y-49165144D01*
X38787491Y-49173000D01*
X34200000Y-49173000D01*
X34175224Y-49175440D01*
X34098687Y-49190664D01*
X34074862Y-49197891D01*
X34052905Y-49209628D01*
X33988021Y-49252983D01*
X33968776Y-49268777D01*
X33952983Y-49288021D01*
X33909628Y-49352905D01*
X33897892Y-49374861D01*
X33890664Y-49398687D01*
X33875440Y-49475224D01*
X33873000Y-49500000D01*
X33873000Y-53787491D01*
X33865144Y-53826984D01*
X33849859Y-53849859D01*
X33826984Y-53865144D01*
X33787491Y-53873000D01*
X31212509Y-53873000D01*
X31173016Y-53865144D01*
X31150141Y-53849859D01*
X31134856Y-53826984D01*
X31127000Y-53787491D01*
X31127000Y-47212509D01*
X31134856Y-47173016D01*
X31150141Y-47150141D01*
X31173016Y-47134856D01*
X31212509Y-47127000D01*
X38787491Y-47127000D01*
X38826984Y-47134856D01*
%TA.AperFunction,Conductor*%
D42*
G36*
X38826984Y-47134856D02*
G01*
X38849859Y-47150141D01*
X38865144Y-47173016D01*
X38873000Y-47212509D01*
X38873000Y-49087491D01*
X38865144Y-49126984D01*
X38849859Y-49149859D01*
X38826984Y-49165144D01*
X38787491Y-49173000D01*
X34200000Y-49173000D01*
X34175224Y-49175440D01*
X34098687Y-49190664D01*
X34074862Y-49197891D01*
X34052905Y-49209628D01*
X33988021Y-49252983D01*
X33968776Y-49268777D01*
X33952983Y-49288021D01*
X33909628Y-49352905D01*
X33897892Y-49374861D01*
X33890664Y-49398687D01*
X33875440Y-49475224D01*
X33873000Y-49500000D01*
X33873000Y-53787491D01*
X33865144Y-53826984D01*
X33849859Y-53849859D01*
X33826984Y-53865144D01*
X33787491Y-53873000D01*
X31212509Y-53873000D01*
X31173016Y-53865144D01*
X31150141Y-53849859D01*
X31134856Y-53826984D01*
X31127000Y-53787491D01*
X31127000Y-47212509D01*
X31134856Y-47173016D01*
X31150141Y-47150141D01*
X31173016Y-47134856D01*
X31212509Y-47127000D01*
X38787491Y-47127000D01*
X38826984Y-47134856D01*
G37*
%TD.AperFunction*%
%TD*%
D43*
%TO.N,+3V3*%
X49137520Y-30309423D02*
X49169325Y-30330675D01*
X49190577Y-30362480D01*
X49200000Y-30409851D01*
X49200000Y-36090149D01*
X49190577Y-36137520D01*
X49169325Y-36169325D01*
X49137520Y-36190577D01*
X49090149Y-36200000D01*
X46309851Y-36200000D01*
X46262480Y-36190577D01*
X46230675Y-36169325D01*
X46209423Y-36137520D01*
X46200000Y-36090149D01*
X46200000Y-31309851D01*
X46209423Y-31262480D01*
X46230675Y-31230675D01*
X46262480Y-31209423D01*
X46309851Y-31200000D01*
X47200000Y-31200000D01*
X47219509Y-31198079D01*
X47296046Y-31182855D01*
X47314805Y-31177164D01*
X47332095Y-31167922D01*
X47396979Y-31124567D01*
X47412132Y-31112131D01*
X47424567Y-31096979D01*
X47467922Y-31032095D01*
X47477164Y-31014806D01*
X47482855Y-30996046D01*
X47498079Y-30919509D01*
X47500000Y-30900000D01*
X47500000Y-30409851D01*
X47509423Y-30362480D01*
X47530675Y-30330675D01*
X47562480Y-30309423D01*
X47609851Y-30300000D01*
X49090149Y-30300000D01*
X49137520Y-30309423D01*
%TA.AperFunction,Conductor*%
D42*
G36*
X49137520Y-30309423D02*
G01*
X49169325Y-30330675D01*
X49190577Y-30362480D01*
X49200000Y-30409851D01*
X49200000Y-36090149D01*
X49190577Y-36137520D01*
X49169325Y-36169325D01*
X49137520Y-36190577D01*
X49090149Y-36200000D01*
X46309851Y-36200000D01*
X46262480Y-36190577D01*
X46230675Y-36169325D01*
X46209423Y-36137520D01*
X46200000Y-36090149D01*
X46200000Y-31309851D01*
X46209423Y-31262480D01*
X46230675Y-31230675D01*
X46262480Y-31209423D01*
X46309851Y-31200000D01*
X47200000Y-31200000D01*
X47219509Y-31198079D01*
X47296046Y-31182855D01*
X47314805Y-31177164D01*
X47332095Y-31167922D01*
X47396979Y-31124567D01*
X47412132Y-31112131D01*
X47424567Y-31096979D01*
X47467922Y-31032095D01*
X47477164Y-31014806D01*
X47482855Y-30996046D01*
X47498079Y-30919509D01*
X47500000Y-30900000D01*
X47500000Y-30409851D01*
X47509423Y-30362480D01*
X47530675Y-30330675D01*
X47562480Y-30309423D01*
X47609851Y-30300000D01*
X49090149Y-30300000D01*
X49137520Y-30309423D01*
G37*
%TD.AperFunction*%
%TD*%
D41*
%TO.N,GND*%
X49543165Y-46924147D02*
X49531475Y-47048683D01*
X49534540Y-47070010D01*
X49693290Y-47228760D01*
X49873000Y-47228760D01*
X49873000Y-47482760D01*
X49693290Y-47482760D01*
X49534540Y-47641510D01*
X49531475Y-47662837D01*
X49543165Y-47787373D01*
X49578926Y-47907236D01*
X49637384Y-48017819D01*
X49716293Y-48114873D01*
X49812619Y-48194668D01*
X49873000Y-48227299D01*
X49873000Y-48373000D01*
X49000000Y-48373000D01*
X48975224Y-48375440D01*
X48951399Y-48382667D01*
X48929443Y-48394403D01*
X48910197Y-48410197D01*
X48894403Y-48429443D01*
X48882667Y-48451399D01*
X48875440Y-48475224D01*
X48873000Y-48500000D01*
X48873000Y-53000000D01*
X48875440Y-53024776D01*
X48882667Y-53048601D01*
X48894403Y-53070557D01*
X48910197Y-53089803D01*
X48929443Y-53105597D01*
X48951399Y-53117333D01*
X48975224Y-53124560D01*
X49000000Y-53127000D01*
X50373000Y-53127000D01*
X50373000Y-53433000D01*
X41094429Y-53433000D01*
X41094429Y-57887000D01*
X50373000Y-57887000D01*
X50373000Y-59373000D01*
X40127000Y-59373000D01*
X40127000Y-46877000D01*
X49557231Y-46877000D01*
X49543165Y-46924147D01*
%TA.AperFunction,Conductor*%
D42*
G36*
X49543165Y-46924147D02*
G01*
X49531475Y-47048683D01*
X49534540Y-47070010D01*
X49693290Y-47228760D01*
X49873000Y-47228760D01*
X49873000Y-47482760D01*
X49693290Y-47482760D01*
X49534540Y-47641510D01*
X49531475Y-47662837D01*
X49543165Y-47787373D01*
X49578926Y-47907236D01*
X49637384Y-48017819D01*
X49716293Y-48114873D01*
X49812619Y-48194668D01*
X49873000Y-48227299D01*
X49873000Y-48373000D01*
X49000000Y-48373000D01*
X48975224Y-48375440D01*
X48951399Y-48382667D01*
X48929443Y-48394403D01*
X48910197Y-48410197D01*
X48894403Y-48429443D01*
X48882667Y-48451399D01*
X48875440Y-48475224D01*
X48873000Y-48500000D01*
X48873000Y-53000000D01*
X48875440Y-53024776D01*
X48882667Y-53048601D01*
X48894403Y-53070557D01*
X48910197Y-53089803D01*
X48929443Y-53105597D01*
X48951399Y-53117333D01*
X48975224Y-53124560D01*
X49000000Y-53127000D01*
X50373000Y-53127000D01*
X50373000Y-53433000D01*
X41094429Y-53433000D01*
X41094429Y-57887000D01*
X50373000Y-57887000D01*
X50373000Y-59373000D01*
X40127000Y-59373000D01*
X40127000Y-46877000D01*
X49557231Y-46877000D01*
X49543165Y-46924147D01*
G37*
%TD.AperFunction*%
%TD*%
D41*
%TO.N,GND*%
X78802277Y-36245326D02*
X78689885Y-36413533D01*
X78612467Y-36600435D01*
X78573000Y-36798849D01*
X78573000Y-37001151D01*
X78612467Y-37199565D01*
X78689885Y-37386467D01*
X78802277Y-37554674D01*
X78945326Y-37697723D01*
X79113533Y-37810115D01*
X79300435Y-37887533D01*
X79498849Y-37927000D01*
X79701151Y-37927000D01*
X79899565Y-37887533D01*
X80086467Y-37810115D01*
X80254674Y-37697723D01*
X80397723Y-37554674D01*
X80510115Y-37386467D01*
X80587533Y-37199565D01*
X80627000Y-37001151D01*
X80627000Y-36971843D01*
X81471843Y-36127000D01*
X86373000Y-36127000D01*
X86373000Y-45873000D01*
X72129598Y-45873000D01*
X72127000Y-45868139D01*
X72127000Y-43127000D01*
X73000000Y-43127000D01*
X73024776Y-43124560D01*
X73048601Y-43117333D01*
X73070557Y-43105597D01*
X73089803Y-43089803D01*
X73105597Y-43070557D01*
X73117333Y-43048601D01*
X73124560Y-43024776D01*
X73127000Y-43000000D01*
X73127000Y-39569530D01*
X73141029Y-39552435D01*
X73189177Y-39493767D01*
X73225252Y-39426275D01*
X73261327Y-39358784D01*
X73305757Y-39212319D01*
X73317000Y-39098166D01*
X73317000Y-39098164D01*
X73320759Y-39060000D01*
X73317000Y-39021837D01*
X73317000Y-36127000D01*
X78920603Y-36127000D01*
X78802277Y-36245326D01*
%TA.AperFunction,Conductor*%
D42*
G36*
X78802277Y-36245326D02*
G01*
X78689885Y-36413533D01*
X78612467Y-36600435D01*
X78573000Y-36798849D01*
X78573000Y-37001151D01*
X78612467Y-37199565D01*
X78689885Y-37386467D01*
X78802277Y-37554674D01*
X78945326Y-37697723D01*
X79113533Y-37810115D01*
X79300435Y-37887533D01*
X79498849Y-37927000D01*
X79701151Y-37927000D01*
X79899565Y-37887533D01*
X80086467Y-37810115D01*
X80254674Y-37697723D01*
X80397723Y-37554674D01*
X80510115Y-37386467D01*
X80587533Y-37199565D01*
X80627000Y-37001151D01*
X80627000Y-36971843D01*
X81471843Y-36127000D01*
X86373000Y-36127000D01*
X86373000Y-45873000D01*
X72129598Y-45873000D01*
X72127000Y-45868139D01*
X72127000Y-43127000D01*
X73000000Y-43127000D01*
X73024776Y-43124560D01*
X73048601Y-43117333D01*
X73070557Y-43105597D01*
X73089803Y-43089803D01*
X73105597Y-43070557D01*
X73117333Y-43048601D01*
X73124560Y-43024776D01*
X73127000Y-43000000D01*
X73127000Y-39569530D01*
X73141029Y-39552435D01*
X73189177Y-39493767D01*
X73225252Y-39426275D01*
X73261327Y-39358784D01*
X73305757Y-39212319D01*
X73317000Y-39098166D01*
X73317000Y-39098164D01*
X73320759Y-39060000D01*
X73317000Y-39021837D01*
X73317000Y-36127000D01*
X78920603Y-36127000D01*
X78802277Y-36245326D01*
G37*
%TD.AperFunction*%
%TD*%
D41*
%TO.N,GND*%
X34873000Y-41692232D02*
X34849236Y-41711735D01*
X34813946Y-41754736D01*
X34813942Y-41754740D01*
X34716889Y-41873000D01*
X33000000Y-41873000D01*
X32975224Y-41875440D01*
X32951399Y-41882667D01*
X32929443Y-41894403D01*
X32910197Y-41910197D01*
X32894403Y-41929443D01*
X32882667Y-41951399D01*
X32875440Y-41975224D01*
X32873000Y-42000000D01*
X32873000Y-43233182D01*
X32842237Y-43263945D01*
X32799236Y-43299235D01*
X32763946Y-43342236D01*
X32763942Y-43342240D01*
X32658400Y-43470844D01*
X32553750Y-43666630D01*
X32531303Y-43740628D01*
X32489307Y-43879069D01*
X32473000Y-44044635D01*
X32473000Y-44044646D01*
X32467548Y-44100000D01*
X32473000Y-44155354D01*
X32473000Y-44873000D01*
X25652000Y-44873000D01*
X25652000Y-30029039D01*
X25723269Y-29230490D01*
X25927126Y-28485315D01*
X26259723Y-27788008D01*
X26710548Y-27160620D01*
X27265346Y-26622983D01*
X27906581Y-26192091D01*
X28613992Y-25881559D01*
X29370225Y-25700003D01*
X30023907Y-25652000D01*
X34873000Y-25652000D01*
X34873000Y-41692232D01*
%TA.AperFunction,Conductor*%
D42*
G36*
X34873000Y-41692232D02*
G01*
X34849236Y-41711735D01*
X34813946Y-41754736D01*
X34813942Y-41754740D01*
X34716889Y-41873000D01*
X33000000Y-41873000D01*
X32975224Y-41875440D01*
X32951399Y-41882667D01*
X32929443Y-41894403D01*
X32910197Y-41910197D01*
X32894403Y-41929443D01*
X32882667Y-41951399D01*
X32875440Y-41975224D01*
X32873000Y-42000000D01*
X32873000Y-43233182D01*
X32842237Y-43263945D01*
X32799236Y-43299235D01*
X32763946Y-43342236D01*
X32763942Y-43342240D01*
X32658400Y-43470844D01*
X32553750Y-43666630D01*
X32531303Y-43740628D01*
X32489307Y-43879069D01*
X32473000Y-44044635D01*
X32473000Y-44044646D01*
X32467548Y-44100000D01*
X32473000Y-44155354D01*
X32473000Y-44873000D01*
X25652000Y-44873000D01*
X25652000Y-30029039D01*
X25723269Y-29230490D01*
X25927126Y-28485315D01*
X26259723Y-27788008D01*
X26710548Y-27160620D01*
X27265346Y-26622983D01*
X27906581Y-26192091D01*
X28613992Y-25881559D01*
X29370225Y-25700003D01*
X30023907Y-25652000D01*
X34873000Y-25652000D01*
X34873000Y-41692232D01*
G37*
%TD.AperFunction*%
%TD*%
D36*
%TO.N,GND*%
X39750000Y-61000000D02*
X39754804Y-61048773D01*
X39769030Y-61095671D01*
X39792133Y-61138893D01*
X39823223Y-61176777D01*
X39837754Y-61188702D01*
X36794489Y-64231968D01*
X36777449Y-64245952D01*
X36419000Y-64245952D01*
X36173957Y-64270087D01*
X35938331Y-64341563D01*
X35721177Y-64457634D01*
X35530840Y-64613840D01*
X35374634Y-64804177D01*
X35258563Y-65021331D01*
X35187087Y-65256957D01*
X35162952Y-65502000D01*
X35162952Y-68102000D01*
X35187087Y-68347043D01*
X35258563Y-68582669D01*
X35374634Y-68799823D01*
X35530840Y-68990160D01*
X35721177Y-69146366D01*
X35938331Y-69262437D01*
X36173957Y-69333913D01*
X36419000Y-69358048D01*
X39019000Y-69358048D01*
X39264043Y-69333913D01*
X39499669Y-69262437D01*
X39716823Y-69146366D01*
X39907160Y-68990160D01*
X40063366Y-68799823D01*
X40179437Y-68582669D01*
X40250913Y-68347043D01*
X40275048Y-68102000D01*
X40275048Y-67565249D01*
X40459220Y-68009878D01*
X40738286Y-68427530D01*
X41093470Y-68782714D01*
X41511122Y-69061780D01*
X41975193Y-69254005D01*
X42467847Y-69352000D01*
X42970153Y-69352000D01*
X43462807Y-69254005D01*
X43926878Y-69061780D01*
X44344530Y-68782714D01*
X44699714Y-68427530D01*
X44978780Y-68009878D01*
X45171005Y-67545807D01*
X45219000Y-67304520D01*
X45266995Y-67545807D01*
X45459220Y-68009878D01*
X45738286Y-68427530D01*
X46093470Y-68782714D01*
X46511122Y-69061780D01*
X46975193Y-69254005D01*
X47467847Y-69352000D01*
X47970153Y-69352000D01*
X48462807Y-69254005D01*
X48926878Y-69061780D01*
X49344530Y-68782714D01*
X49699714Y-68427530D01*
X49978780Y-68009878D01*
X50171005Y-67545807D01*
X50219000Y-67304520D01*
X50266995Y-67545807D01*
X50459220Y-68009878D01*
X50738286Y-68427530D01*
X51093470Y-68782714D01*
X51511122Y-69061780D01*
X51975193Y-69254005D01*
X52467847Y-69352000D01*
X52970153Y-69352000D01*
X53462807Y-69254005D01*
X53926878Y-69061780D01*
X54344530Y-68782714D01*
X54699714Y-68427530D01*
X54978780Y-68009878D01*
X55171005Y-67545807D01*
X55219000Y-67304520D01*
X55266995Y-67545807D01*
X55459220Y-68009878D01*
X55738286Y-68427530D01*
X56093470Y-68782714D01*
X56511122Y-69061780D01*
X56975193Y-69254005D01*
X57467847Y-69352000D01*
X57970153Y-69352000D01*
X58462807Y-69254005D01*
X58926878Y-69061780D01*
X59344530Y-68782714D01*
X59699714Y-68427530D01*
X59978780Y-68009878D01*
X60171005Y-67545807D01*
X60219000Y-67304520D01*
X60266995Y-67545807D01*
X60459220Y-68009878D01*
X60738286Y-68427530D01*
X61093470Y-68782714D01*
X61511122Y-69061780D01*
X61975193Y-69254005D01*
X62467847Y-69352000D01*
X62970153Y-69352000D01*
X63462807Y-69254005D01*
X63926878Y-69061780D01*
X64344530Y-68782714D01*
X64699714Y-68427530D01*
X64978780Y-68009878D01*
X65171005Y-67545807D01*
X65219000Y-67304520D01*
X65266995Y-67545807D01*
X65459220Y-68009878D01*
X65738286Y-68427530D01*
X66093470Y-68782714D01*
X66511122Y-69061780D01*
X66975193Y-69254005D01*
X67467847Y-69352000D01*
X67970153Y-69352000D01*
X68462807Y-69254005D01*
X68926878Y-69061780D01*
X69344530Y-68782714D01*
X69699714Y-68427530D01*
X69978780Y-68009878D01*
X70171005Y-67545807D01*
X70219000Y-67304520D01*
X70266995Y-67545807D01*
X70459220Y-68009878D01*
X70738286Y-68427530D01*
X71093470Y-68782714D01*
X71511122Y-69061780D01*
X71975193Y-69254005D01*
X72467847Y-69352000D01*
X72970153Y-69352000D01*
X73462807Y-69254005D01*
X73926878Y-69061780D01*
X74344530Y-68782714D01*
X74699714Y-68427530D01*
X74978780Y-68009878D01*
X75171005Y-67545807D01*
X75219000Y-67304520D01*
X75266995Y-67545807D01*
X75459220Y-68009878D01*
X75738286Y-68427530D01*
X76093470Y-68782714D01*
X76511122Y-69061780D01*
X76975193Y-69254005D01*
X77467847Y-69352000D01*
X77970153Y-69352000D01*
X78462807Y-69254005D01*
X78926878Y-69061780D01*
X79344530Y-68782714D01*
X79699714Y-68427530D01*
X79978780Y-68009878D01*
X80171005Y-67545807D01*
X80219000Y-67304520D01*
X80266995Y-67545807D01*
X80459220Y-68009878D01*
X80738286Y-68427530D01*
X81093470Y-68782714D01*
X81511122Y-69061780D01*
X81975193Y-69254005D01*
X82467847Y-69352000D01*
X82970153Y-69352000D01*
X83462807Y-69254005D01*
X83926878Y-69061780D01*
X84344530Y-68782714D01*
X84699714Y-68427530D01*
X84978780Y-68009878D01*
X85171005Y-67545807D01*
X85269000Y-67053153D01*
X85269000Y-66550847D01*
X85171005Y-66058193D01*
X84978780Y-65594122D01*
X84699714Y-65176470D01*
X84344530Y-64821286D01*
X83926878Y-64542220D01*
X83462807Y-64349995D01*
X82970153Y-64252000D01*
X82467847Y-64252000D01*
X82201816Y-64304917D01*
X79755584Y-61858686D01*
X79711739Y-61805261D01*
X79498562Y-61630310D01*
X79255349Y-61500310D01*
X78991448Y-61420257D01*
X78785777Y-61400000D01*
X78785769Y-61400000D01*
X78717000Y-61393227D01*
X78648231Y-61400000D01*
X67469897Y-61400000D01*
X67319897Y-61250000D01*
X87490625Y-61250000D01*
X87490625Y-62495000D01*
X93725000Y-62495000D01*
X93725000Y-67943222D01*
X93661142Y-68658740D01*
X93486625Y-69296666D01*
X93201901Y-69893601D01*
X92815972Y-70430678D01*
X92341028Y-70890932D01*
X91792092Y-71259801D01*
X91186511Y-71525633D01*
X90533609Y-71682381D01*
X89953248Y-71725000D01*
X30056778Y-71725000D01*
X29341260Y-71661142D01*
X28703334Y-71486625D01*
X28106399Y-71201901D01*
X27569322Y-70815972D01*
X27109068Y-70341028D01*
X26740199Y-69792092D01*
X26474367Y-69186511D01*
X26317619Y-68533609D01*
X26275000Y-67953248D01*
X26275000Y-56250000D01*
X39750000Y-56250000D01*
X39750000Y-61000000D01*
%TA.AperFunction,Conductor*%
D42*
G36*
X39750000Y-61000000D02*
G01*
X39754804Y-61048773D01*
X39769030Y-61095671D01*
X39792133Y-61138893D01*
X39823223Y-61176777D01*
X39837754Y-61188702D01*
X36794489Y-64231968D01*
X36777449Y-64245952D01*
X36419000Y-64245952D01*
X36173957Y-64270087D01*
X35938331Y-64341563D01*
X35721177Y-64457634D01*
X35530840Y-64613840D01*
X35374634Y-64804177D01*
X35258563Y-65021331D01*
X35187087Y-65256957D01*
X35162952Y-65502000D01*
X35162952Y-68102000D01*
X35187087Y-68347043D01*
X35258563Y-68582669D01*
X35374634Y-68799823D01*
X35530840Y-68990160D01*
X35721177Y-69146366D01*
X35938331Y-69262437D01*
X36173957Y-69333913D01*
X36419000Y-69358048D01*
X39019000Y-69358048D01*
X39264043Y-69333913D01*
X39499669Y-69262437D01*
X39716823Y-69146366D01*
X39907160Y-68990160D01*
X40063366Y-68799823D01*
X40179437Y-68582669D01*
X40250913Y-68347043D01*
X40275048Y-68102000D01*
X40275048Y-67565249D01*
X40459220Y-68009878D01*
X40738286Y-68427530D01*
X41093470Y-68782714D01*
X41511122Y-69061780D01*
X41975193Y-69254005D01*
X42467847Y-69352000D01*
X42970153Y-69352000D01*
X43462807Y-69254005D01*
X43926878Y-69061780D01*
X44344530Y-68782714D01*
X44699714Y-68427530D01*
X44978780Y-68009878D01*
X45171005Y-67545807D01*
X45219000Y-67304520D01*
X45266995Y-67545807D01*
X45459220Y-68009878D01*
X45738286Y-68427530D01*
X46093470Y-68782714D01*
X46511122Y-69061780D01*
X46975193Y-69254005D01*
X47467847Y-69352000D01*
X47970153Y-69352000D01*
X48462807Y-69254005D01*
X48926878Y-69061780D01*
X49344530Y-68782714D01*
X49699714Y-68427530D01*
X49978780Y-68009878D01*
X50171005Y-67545807D01*
X50219000Y-67304520D01*
X50266995Y-67545807D01*
X50459220Y-68009878D01*
X50738286Y-68427530D01*
X51093470Y-68782714D01*
X51511122Y-69061780D01*
X51975193Y-69254005D01*
X52467847Y-69352000D01*
X52970153Y-69352000D01*
X53462807Y-69254005D01*
X53926878Y-69061780D01*
X54344530Y-68782714D01*
X54699714Y-68427530D01*
X54978780Y-68009878D01*
X55171005Y-67545807D01*
X55219000Y-67304520D01*
X55266995Y-67545807D01*
X55459220Y-68009878D01*
X55738286Y-68427530D01*
X56093470Y-68782714D01*
X56511122Y-69061780D01*
X56975193Y-69254005D01*
X57467847Y-69352000D01*
X57970153Y-69352000D01*
X58462807Y-69254005D01*
X58926878Y-69061780D01*
X59344530Y-68782714D01*
X59699714Y-68427530D01*
X59978780Y-68009878D01*
X60171005Y-67545807D01*
X60219000Y-67304520D01*
X60266995Y-67545807D01*
X60459220Y-68009878D01*
X60738286Y-68427530D01*
X61093470Y-68782714D01*
X61511122Y-69061780D01*
X61975193Y-69254005D01*
X62467847Y-69352000D01*
X62970153Y-69352000D01*
X63462807Y-69254005D01*
X63926878Y-69061780D01*
X64344530Y-68782714D01*
X64699714Y-68427530D01*
X64978780Y-68009878D01*
X65171005Y-67545807D01*
X65219000Y-67304520D01*
X65266995Y-67545807D01*
X65459220Y-68009878D01*
X65738286Y-68427530D01*
X66093470Y-68782714D01*
X66511122Y-69061780D01*
X66975193Y-69254005D01*
X67467847Y-69352000D01*
X67970153Y-69352000D01*
X68462807Y-69254005D01*
X68926878Y-69061780D01*
X69344530Y-68782714D01*
X69699714Y-68427530D01*
X69978780Y-68009878D01*
X70171005Y-67545807D01*
X70219000Y-67304520D01*
X70266995Y-67545807D01*
X70459220Y-68009878D01*
X70738286Y-68427530D01*
X71093470Y-68782714D01*
X71511122Y-69061780D01*
X71975193Y-69254005D01*
X72467847Y-69352000D01*
X72970153Y-69352000D01*
X73462807Y-69254005D01*
X73926878Y-69061780D01*
X74344530Y-68782714D01*
X74699714Y-68427530D01*
X74978780Y-68009878D01*
X75171005Y-67545807D01*
X75219000Y-67304520D01*
X75266995Y-67545807D01*
X75459220Y-68009878D01*
X75738286Y-68427530D01*
X76093470Y-68782714D01*
X76511122Y-69061780D01*
X76975193Y-69254005D01*
X77467847Y-69352000D01*
X77970153Y-69352000D01*
X78462807Y-69254005D01*
X78926878Y-69061780D01*
X79344530Y-68782714D01*
X79699714Y-68427530D01*
X79978780Y-68009878D01*
X80171005Y-67545807D01*
X80219000Y-67304520D01*
X80266995Y-67545807D01*
X80459220Y-68009878D01*
X80738286Y-68427530D01*
X81093470Y-68782714D01*
X81511122Y-69061780D01*
X81975193Y-69254005D01*
X82467847Y-69352000D01*
X82970153Y-69352000D01*
X83462807Y-69254005D01*
X83926878Y-69061780D01*
X84344530Y-68782714D01*
X84699714Y-68427530D01*
X84978780Y-68009878D01*
X85171005Y-67545807D01*
X85269000Y-67053153D01*
X85269000Y-66550847D01*
X85171005Y-66058193D01*
X84978780Y-65594122D01*
X84699714Y-65176470D01*
X84344530Y-64821286D01*
X83926878Y-64542220D01*
X83462807Y-64349995D01*
X82970153Y-64252000D01*
X82467847Y-64252000D01*
X82201816Y-64304917D01*
X79755584Y-61858686D01*
X79711739Y-61805261D01*
X79498562Y-61630310D01*
X79255349Y-61500310D01*
X78991448Y-61420257D01*
X78785777Y-61400000D01*
X78785769Y-61400000D01*
X78717000Y-61393227D01*
X78648231Y-61400000D01*
X67469897Y-61400000D01*
X67319897Y-61250000D01*
X87490625Y-61250000D01*
X87490625Y-62495000D01*
X93725000Y-62495000D01*
X93725000Y-67943222D01*
X93661142Y-68658740D01*
X93486625Y-69296666D01*
X93201901Y-69893601D01*
X92815972Y-70430678D01*
X92341028Y-70890932D01*
X91792092Y-71259801D01*
X91186511Y-71525633D01*
X90533609Y-71682381D01*
X89953248Y-71725000D01*
X30056778Y-71725000D01*
X29341260Y-71661142D01*
X28703334Y-71486625D01*
X28106399Y-71201901D01*
X27569322Y-70815972D01*
X27109068Y-70341028D01*
X26740199Y-69792092D01*
X26474367Y-69186511D01*
X26317619Y-68533609D01*
X26275000Y-67953248D01*
X26275000Y-56250000D01*
X39750000Y-56250000D01*
X39750000Y-61000000D01*
G37*
%TD.AperFunction*%
%TD*%
D36*
%TO.N,GND*%
X85750000Y-31512426D02*
X85645661Y-31317222D01*
X85414477Y-31035523D01*
X85132778Y-30804339D01*
X84811390Y-30632553D01*
X84462663Y-30526768D01*
X84100000Y-30491049D01*
X83737338Y-30526768D01*
X83388611Y-30632553D01*
X83067223Y-30804339D01*
X82824311Y-31003691D01*
X82750000Y-30996372D01*
X81250000Y-30996372D01*
X81102974Y-31010853D01*
X80961599Y-31053739D01*
X80831307Y-31123381D01*
X80742662Y-31196130D01*
X80576802Y-31107476D01*
X80294051Y-31021705D01*
X80000000Y-30992743D01*
X79705950Y-31021705D01*
X79423199Y-31107476D01*
X79162614Y-31246762D01*
X78934209Y-31434208D01*
X78746762Y-31662613D01*
X78607476Y-31923198D01*
X78521705Y-32205949D01*
X78500000Y-32426320D01*
X78500000Y-33573679D01*
X78521705Y-33794050D01*
X78607476Y-34076801D01*
X78746762Y-34337386D01*
X78934208Y-34565792D01*
X79162613Y-34753238D01*
X79423198Y-34892524D01*
X79705949Y-34978295D01*
X80000000Y-35007257D01*
X80243982Y-34983226D01*
X79477208Y-35750000D01*
X73440000Y-35750000D01*
X73440000Y-34685271D01*
X73442895Y-34682895D01*
X73536619Y-34568693D01*
X73606261Y-34438401D01*
X73649147Y-34297026D01*
X73663628Y-34150000D01*
X73663628Y-32259118D01*
X74050000Y-32259118D01*
X74050000Y-33740881D01*
X74076768Y-34012662D01*
X74182553Y-34361389D01*
X74354339Y-34682777D01*
X74585523Y-34964477D01*
X74867222Y-35195661D01*
X75188610Y-35367447D01*
X75537337Y-35473232D01*
X75900000Y-35508951D01*
X76262662Y-35473232D01*
X76611389Y-35367447D01*
X76932777Y-35195661D01*
X77214477Y-34964477D01*
X77445661Y-34682778D01*
X77617447Y-34361390D01*
X77723232Y-34012663D01*
X77750000Y-33740882D01*
X77750000Y-32259118D01*
X77723232Y-31987337D01*
X77617447Y-31638610D01*
X77445661Y-31317222D01*
X77214477Y-31035523D01*
X76932778Y-30804339D01*
X76611390Y-30632553D01*
X76262663Y-30526768D01*
X75900000Y-30491049D01*
X75537338Y-30526768D01*
X75188611Y-30632553D01*
X74867223Y-30804339D01*
X74585524Y-31035523D01*
X74354340Y-31317222D01*
X74182554Y-31638610D01*
X74076768Y-31987337D01*
X74050000Y-32259118D01*
X73663628Y-32259118D01*
X73663628Y-31750000D01*
X73649147Y-31602974D01*
X73606261Y-31461599D01*
X73536619Y-31331307D01*
X73442895Y-31217105D01*
X73328693Y-31123381D01*
X73198401Y-31053739D01*
X73057026Y-31010853D01*
X72946835Y-31000000D01*
X73057026Y-30989147D01*
X73198401Y-30946261D01*
X73328693Y-30876619D01*
X73442895Y-30782895D01*
X73536619Y-30668693D01*
X73606261Y-30538401D01*
X73649147Y-30397026D01*
X73663628Y-30250000D01*
X73663628Y-27850000D01*
X73649147Y-27702974D01*
X73640000Y-27672821D01*
X73640000Y-26489460D01*
X73645806Y-26475443D01*
X73690000Y-26253265D01*
X73690000Y-26026735D01*
X73645806Y-25804557D01*
X73633563Y-25775000D01*
X85750000Y-25775000D01*
X85750000Y-31512426D01*
%TA.AperFunction,Conductor*%
D42*
G36*
X85750000Y-31512426D02*
G01*
X85645661Y-31317222D01*
X85414477Y-31035523D01*
X85132778Y-30804339D01*
X84811390Y-30632553D01*
X84462663Y-30526768D01*
X84100000Y-30491049D01*
X83737338Y-30526768D01*
X83388611Y-30632553D01*
X83067223Y-30804339D01*
X82824311Y-31003691D01*
X82750000Y-30996372D01*
X81250000Y-30996372D01*
X81102974Y-31010853D01*
X80961599Y-31053739D01*
X80831307Y-31123381D01*
X80742662Y-31196130D01*
X80576802Y-31107476D01*
X80294051Y-31021705D01*
X80000000Y-30992743D01*
X79705950Y-31021705D01*
X79423199Y-31107476D01*
X79162614Y-31246762D01*
X78934209Y-31434208D01*
X78746762Y-31662613D01*
X78607476Y-31923198D01*
X78521705Y-32205949D01*
X78500000Y-32426320D01*
X78500000Y-33573679D01*
X78521705Y-33794050D01*
X78607476Y-34076801D01*
X78746762Y-34337386D01*
X78934208Y-34565792D01*
X79162613Y-34753238D01*
X79423198Y-34892524D01*
X79705949Y-34978295D01*
X80000000Y-35007257D01*
X80243982Y-34983226D01*
X79477208Y-35750000D01*
X73440000Y-35750000D01*
X73440000Y-34685271D01*
X73442895Y-34682895D01*
X73536619Y-34568693D01*
X73606261Y-34438401D01*
X73649147Y-34297026D01*
X73663628Y-34150000D01*
X73663628Y-32259118D01*
X74050000Y-32259118D01*
X74050000Y-33740881D01*
X74076768Y-34012662D01*
X74182553Y-34361389D01*
X74354339Y-34682777D01*
X74585523Y-34964477D01*
X74867222Y-35195661D01*
X75188610Y-35367447D01*
X75537337Y-35473232D01*
X75900000Y-35508951D01*
X76262662Y-35473232D01*
X76611389Y-35367447D01*
X76932777Y-35195661D01*
X77214477Y-34964477D01*
X77445661Y-34682778D01*
X77617447Y-34361390D01*
X77723232Y-34012663D01*
X77750000Y-33740882D01*
X77750000Y-32259118D01*
X77723232Y-31987337D01*
X77617447Y-31638610D01*
X77445661Y-31317222D01*
X77214477Y-31035523D01*
X76932778Y-30804339D01*
X76611390Y-30632553D01*
X76262663Y-30526768D01*
X75900000Y-30491049D01*
X75537338Y-30526768D01*
X75188611Y-30632553D01*
X74867223Y-30804339D01*
X74585524Y-31035523D01*
X74354340Y-31317222D01*
X74182554Y-31638610D01*
X74076768Y-31987337D01*
X74050000Y-32259118D01*
X73663628Y-32259118D01*
X73663628Y-31750000D01*
X73649147Y-31602974D01*
X73606261Y-31461599D01*
X73536619Y-31331307D01*
X73442895Y-31217105D01*
X73328693Y-31123381D01*
X73198401Y-31053739D01*
X73057026Y-31010853D01*
X72946835Y-31000000D01*
X73057026Y-30989147D01*
X73198401Y-30946261D01*
X73328693Y-30876619D01*
X73442895Y-30782895D01*
X73536619Y-30668693D01*
X73606261Y-30538401D01*
X73649147Y-30397026D01*
X73663628Y-30250000D01*
X73663628Y-27850000D01*
X73649147Y-27702974D01*
X73640000Y-27672821D01*
X73640000Y-26489460D01*
X73645806Y-26475443D01*
X73690000Y-26253265D01*
X73690000Y-26026735D01*
X73645806Y-25804557D01*
X73633563Y-25775000D01*
X85750000Y-25775000D01*
X85750000Y-31512426D01*
G37*
%TD.AperFunction*%
D36*
X71434194Y-25804557D02*
X71390000Y-26026735D01*
X71390000Y-26253265D01*
X71434194Y-26475443D01*
X71440001Y-26489462D01*
X71440000Y-27672819D01*
X71430853Y-27702974D01*
X71416372Y-27850000D01*
X71416372Y-30250000D01*
X71430853Y-30397026D01*
X71473739Y-30538401D01*
X71543381Y-30668693D01*
X71637105Y-30782895D01*
X71751307Y-30876619D01*
X71881599Y-30946261D01*
X72022974Y-30989147D01*
X72133165Y-31000000D01*
X72022974Y-31010853D01*
X71905000Y-31046640D01*
X71787026Y-31010853D01*
X71640000Y-30996372D01*
X70900000Y-30996372D01*
X70752974Y-31010853D01*
X70635000Y-31046640D01*
X70517026Y-31010853D01*
X70370000Y-30996372D01*
X69630000Y-30996372D01*
X69482974Y-31010853D01*
X69365000Y-31046640D01*
X69247026Y-31010853D01*
X69136835Y-31000000D01*
X69247026Y-30989147D01*
X69388401Y-30946261D01*
X69518693Y-30876619D01*
X69632895Y-30782895D01*
X69726619Y-30668693D01*
X69796261Y-30538401D01*
X69839147Y-30397026D01*
X69853628Y-30250000D01*
X69853628Y-27850000D01*
X69839147Y-27702974D01*
X69796261Y-27561599D01*
X69726619Y-27431307D01*
X69632895Y-27317105D01*
X69518693Y-27223381D01*
X69388401Y-27153739D01*
X69247026Y-27110853D01*
X69100000Y-27096372D01*
X68360000Y-27096372D01*
X68212974Y-27110853D01*
X68071599Y-27153739D01*
X67941307Y-27223381D01*
X67827105Y-27317105D01*
X67733381Y-27431307D01*
X67663739Y-27561599D01*
X67620853Y-27702974D01*
X67606372Y-27850000D01*
X67606372Y-30250000D01*
X67620853Y-30397026D01*
X67663739Y-30538401D01*
X67733381Y-30668693D01*
X67827105Y-30782895D01*
X67941307Y-30876619D01*
X68071599Y-30946261D01*
X68212974Y-30989147D01*
X68323165Y-31000000D01*
X68212974Y-31010853D01*
X68095000Y-31046640D01*
X67977026Y-31010853D01*
X67830000Y-30996372D01*
X67090000Y-30996372D01*
X66942974Y-31010853D01*
X66801599Y-31053739D01*
X66671307Y-31123381D01*
X66557105Y-31217105D01*
X66463381Y-31331307D01*
X66393739Y-31461599D01*
X66350853Y-31602974D01*
X66336372Y-31750000D01*
X66336372Y-34150000D01*
X66350853Y-34297026D01*
X66393739Y-34438401D01*
X66463381Y-34568693D01*
X66557105Y-34682895D01*
X66560000Y-34685271D01*
X66560000Y-35067208D01*
X65877208Y-35750000D01*
X63222793Y-35750000D01*
X61360000Y-33887208D01*
X61360000Y-33346996D01*
X61492689Y-33258336D01*
X61558101Y-33192924D01*
X61670328Y-33329672D01*
X61822414Y-33454486D01*
X61995928Y-33547231D01*
X62184201Y-33604344D01*
X62379999Y-33623628D01*
X63620001Y-33623628D01*
X63815799Y-33604344D01*
X64004072Y-33547231D01*
X64177586Y-33454486D01*
X64329672Y-33329672D01*
X64454486Y-33177586D01*
X64547231Y-33004072D01*
X64604344Y-32815799D01*
X64623628Y-32620001D01*
X64623628Y-31379999D01*
X64604344Y-31184201D01*
X64547231Y-30995928D01*
X64454486Y-30822414D01*
X64329672Y-30670328D01*
X64177586Y-30545514D01*
X64004072Y-30452769D01*
X63815799Y-30395656D01*
X63620001Y-30376372D01*
X62379999Y-30376372D01*
X62184201Y-30395656D01*
X61995928Y-30452769D01*
X61822414Y-30545514D01*
X61670328Y-30670328D01*
X61558101Y-30807076D01*
X61492689Y-30741664D01*
X61227358Y-30564375D01*
X60932536Y-30442256D01*
X60619556Y-30380000D01*
X60300444Y-30380000D01*
X59987464Y-30442256D01*
X59692642Y-30564375D01*
X59427311Y-30741664D01*
X59201664Y-30967311D01*
X59190000Y-30984767D01*
X59178336Y-30967311D01*
X58952689Y-30741664D01*
X58687358Y-30564375D01*
X58392536Y-30442256D01*
X58079556Y-30380000D01*
X57760444Y-30380000D01*
X57447464Y-30442256D01*
X57152642Y-30564375D01*
X56887311Y-30741664D01*
X56661664Y-30967311D01*
X56484375Y-31232642D01*
X56362256Y-31527464D01*
X56300000Y-31840444D01*
X56300000Y-32159556D01*
X56362256Y-32472536D01*
X56484375Y-32767358D01*
X56661664Y-33032689D01*
X56887311Y-33258336D01*
X57020000Y-33346996D01*
X57020000Y-34275793D01*
X57015646Y-34320000D01*
X57027113Y-34436430D01*
X57033023Y-34496430D01*
X57084486Y-34666080D01*
X57168057Y-34822431D01*
X57280525Y-34959475D01*
X57314865Y-34987657D01*
X58077208Y-35750000D01*
X51856734Y-35750000D01*
X51744943Y-35703694D01*
X51522765Y-35659500D01*
X51296235Y-35659500D01*
X51250000Y-35668697D01*
X51250000Y-25775000D01*
X71446437Y-25775000D01*
X71434194Y-25804557D01*
%TA.AperFunction,Conductor*%
D42*
G36*
X71434194Y-25804557D02*
G01*
X71390000Y-26026735D01*
X71390000Y-26253265D01*
X71434194Y-26475443D01*
X71440001Y-26489462D01*
X71440000Y-27672819D01*
X71430853Y-27702974D01*
X71416372Y-27850000D01*
X71416372Y-30250000D01*
X71430853Y-30397026D01*
X71473739Y-30538401D01*
X71543381Y-30668693D01*
X71637105Y-30782895D01*
X71751307Y-30876619D01*
X71881599Y-30946261D01*
X72022974Y-30989147D01*
X72133165Y-31000000D01*
X72022974Y-31010853D01*
X71905000Y-31046640D01*
X71787026Y-31010853D01*
X71640000Y-30996372D01*
X70900000Y-30996372D01*
X70752974Y-31010853D01*
X70635000Y-31046640D01*
X70517026Y-31010853D01*
X70370000Y-30996372D01*
X69630000Y-30996372D01*
X69482974Y-31010853D01*
X69365000Y-31046640D01*
X69247026Y-31010853D01*
X69136835Y-31000000D01*
X69247026Y-30989147D01*
X69388401Y-30946261D01*
X69518693Y-30876619D01*
X69632895Y-30782895D01*
X69726619Y-30668693D01*
X69796261Y-30538401D01*
X69839147Y-30397026D01*
X69853628Y-30250000D01*
X69853628Y-27850000D01*
X69839147Y-27702974D01*
X69796261Y-27561599D01*
X69726619Y-27431307D01*
X69632895Y-27317105D01*
X69518693Y-27223381D01*
X69388401Y-27153739D01*
X69247026Y-27110853D01*
X69100000Y-27096372D01*
X68360000Y-27096372D01*
X68212974Y-27110853D01*
X68071599Y-27153739D01*
X67941307Y-27223381D01*
X67827105Y-27317105D01*
X67733381Y-27431307D01*
X67663739Y-27561599D01*
X67620853Y-27702974D01*
X67606372Y-27850000D01*
X67606372Y-30250000D01*
X67620853Y-30397026D01*
X67663739Y-30538401D01*
X67733381Y-30668693D01*
X67827105Y-30782895D01*
X67941307Y-30876619D01*
X68071599Y-30946261D01*
X68212974Y-30989147D01*
X68323165Y-31000000D01*
X68212974Y-31010853D01*
X68095000Y-31046640D01*
X67977026Y-31010853D01*
X67830000Y-30996372D01*
X67090000Y-30996372D01*
X66942974Y-31010853D01*
X66801599Y-31053739D01*
X66671307Y-31123381D01*
X66557105Y-31217105D01*
X66463381Y-31331307D01*
X66393739Y-31461599D01*
X66350853Y-31602974D01*
X66336372Y-31750000D01*
X66336372Y-34150000D01*
X66350853Y-34297026D01*
X66393739Y-34438401D01*
X66463381Y-34568693D01*
X66557105Y-34682895D01*
X66560000Y-34685271D01*
X66560000Y-35067208D01*
X65877208Y-35750000D01*
X63222793Y-35750000D01*
X61360000Y-33887208D01*
X61360000Y-33346996D01*
X61492689Y-33258336D01*
X61558101Y-33192924D01*
X61670328Y-33329672D01*
X61822414Y-33454486D01*
X61995928Y-33547231D01*
X62184201Y-33604344D01*
X62379999Y-33623628D01*
X63620001Y-33623628D01*
X63815799Y-33604344D01*
X64004072Y-33547231D01*
X64177586Y-33454486D01*
X64329672Y-33329672D01*
X64454486Y-33177586D01*
X64547231Y-33004072D01*
X64604344Y-32815799D01*
X64623628Y-32620001D01*
X64623628Y-31379999D01*
X64604344Y-31184201D01*
X64547231Y-30995928D01*
X64454486Y-30822414D01*
X64329672Y-30670328D01*
X64177586Y-30545514D01*
X64004072Y-30452769D01*
X63815799Y-30395656D01*
X63620001Y-30376372D01*
X62379999Y-30376372D01*
X62184201Y-30395656D01*
X61995928Y-30452769D01*
X61822414Y-30545514D01*
X61670328Y-30670328D01*
X61558101Y-30807076D01*
X61492689Y-30741664D01*
X61227358Y-30564375D01*
X60932536Y-30442256D01*
X60619556Y-30380000D01*
X60300444Y-30380000D01*
X59987464Y-30442256D01*
X59692642Y-30564375D01*
X59427311Y-30741664D01*
X59201664Y-30967311D01*
X59190000Y-30984767D01*
X59178336Y-30967311D01*
X58952689Y-30741664D01*
X58687358Y-30564375D01*
X58392536Y-30442256D01*
X58079556Y-30380000D01*
X57760444Y-30380000D01*
X57447464Y-30442256D01*
X57152642Y-30564375D01*
X56887311Y-30741664D01*
X56661664Y-30967311D01*
X56484375Y-31232642D01*
X56362256Y-31527464D01*
X56300000Y-31840444D01*
X56300000Y-32159556D01*
X56362256Y-32472536D01*
X56484375Y-32767358D01*
X56661664Y-33032689D01*
X56887311Y-33258336D01*
X57020000Y-33346996D01*
X57020000Y-34275793D01*
X57015646Y-34320000D01*
X57027113Y-34436430D01*
X57033023Y-34496430D01*
X57084486Y-34666080D01*
X57168057Y-34822431D01*
X57280525Y-34959475D01*
X57314865Y-34987657D01*
X58077208Y-35750000D01*
X51856734Y-35750000D01*
X51744943Y-35703694D01*
X51522765Y-35659500D01*
X51296235Y-35659500D01*
X51250000Y-35668697D01*
X51250000Y-25775000D01*
X71446437Y-25775000D01*
X71434194Y-25804557D01*
G37*
%TD.AperFunction*%
%TD*%
D36*
%TO.N,GND*%
X79750000Y-60250000D02*
X67750000Y-60250000D01*
X67750000Y-58994000D01*
X68382564Y-58994000D01*
X68436600Y-58999322D01*
X68490636Y-58994000D01*
X68652238Y-58978084D01*
X68859588Y-58915184D01*
X69050684Y-58813042D01*
X69078690Y-58790058D01*
X69103073Y-58777025D01*
X69136003Y-58750000D01*
X69500000Y-58750000D01*
X69548773Y-58745196D01*
X69595671Y-58730970D01*
X69638893Y-58707867D01*
X69676777Y-58676777D01*
X69707867Y-58638893D01*
X69730970Y-58595671D01*
X69745196Y-58548773D01*
X69750000Y-58500000D01*
X69745196Y-58451227D01*
X69723607Y-58388197D01*
X69531157Y-58003298D01*
X69541922Y-57894000D01*
X69536600Y-57839964D01*
X69536600Y-57800000D01*
X69750540Y-57800000D01*
X69764557Y-57805806D01*
X69957082Y-57844102D01*
X70086585Y-57973605D01*
X70274938Y-58099458D01*
X70484224Y-58186148D01*
X70706402Y-58230342D01*
X70932932Y-58230342D01*
X71155110Y-58186148D01*
X71364396Y-58099458D01*
X71552749Y-57973605D01*
X71712930Y-57813424D01*
X71755308Y-57750000D01*
X72741646Y-57750000D01*
X72780884Y-57844729D01*
X72906737Y-58033082D01*
X73066918Y-58193263D01*
X73255271Y-58319116D01*
X73464557Y-58405806D01*
X73686735Y-58450000D01*
X73913265Y-58450000D01*
X74135443Y-58405806D01*
X74193127Y-58381912D01*
X74346081Y-58335514D01*
X74502432Y-58251943D01*
X74639475Y-58139475D01*
X74751943Y-58002432D01*
X74835514Y-57846081D01*
X74881912Y-57693127D01*
X74905806Y-57635443D01*
X74950000Y-57413265D01*
X74950000Y-57186735D01*
X74905806Y-56964557D01*
X74819116Y-56755271D01*
X74750000Y-56651831D01*
X74750000Y-56282176D01*
X74805285Y-56319116D01*
X75014571Y-56405806D01*
X75236749Y-56450000D01*
X75463279Y-56450000D01*
X75685457Y-56405806D01*
X75894743Y-56319116D01*
X76083096Y-56193263D01*
X76243277Y-56033082D01*
X76369130Y-55844729D01*
X76408368Y-55750000D01*
X79750000Y-55750000D01*
X79750000Y-60250000D01*
%TA.AperFunction,Conductor*%
D42*
G36*
X79750000Y-60250000D02*
G01*
X67750000Y-60250000D01*
X67750000Y-58994000D01*
X68382564Y-58994000D01*
X68436600Y-58999322D01*
X68490636Y-58994000D01*
X68652238Y-58978084D01*
X68859588Y-58915184D01*
X69050684Y-58813042D01*
X69078690Y-58790058D01*
X69103073Y-58777025D01*
X69136003Y-58750000D01*
X69500000Y-58750000D01*
X69548773Y-58745196D01*
X69595671Y-58730970D01*
X69638893Y-58707867D01*
X69676777Y-58676777D01*
X69707867Y-58638893D01*
X69730970Y-58595671D01*
X69745196Y-58548773D01*
X69750000Y-58500000D01*
X69745196Y-58451227D01*
X69723607Y-58388197D01*
X69531157Y-58003298D01*
X69541922Y-57894000D01*
X69536600Y-57839964D01*
X69536600Y-57800000D01*
X69750540Y-57800000D01*
X69764557Y-57805806D01*
X69957082Y-57844102D01*
X70086585Y-57973605D01*
X70274938Y-58099458D01*
X70484224Y-58186148D01*
X70706402Y-58230342D01*
X70932932Y-58230342D01*
X71155110Y-58186148D01*
X71364396Y-58099458D01*
X71552749Y-57973605D01*
X71712930Y-57813424D01*
X71755308Y-57750000D01*
X72741646Y-57750000D01*
X72780884Y-57844729D01*
X72906737Y-58033082D01*
X73066918Y-58193263D01*
X73255271Y-58319116D01*
X73464557Y-58405806D01*
X73686735Y-58450000D01*
X73913265Y-58450000D01*
X74135443Y-58405806D01*
X74193127Y-58381912D01*
X74346081Y-58335514D01*
X74502432Y-58251943D01*
X74639475Y-58139475D01*
X74751943Y-58002432D01*
X74835514Y-57846081D01*
X74881912Y-57693127D01*
X74905806Y-57635443D01*
X74950000Y-57413265D01*
X74950000Y-57186735D01*
X74905806Y-56964557D01*
X74819116Y-56755271D01*
X74750000Y-56651831D01*
X74750000Y-56282176D01*
X74805285Y-56319116D01*
X75014571Y-56405806D01*
X75236749Y-56450000D01*
X75463279Y-56450000D01*
X75685457Y-56405806D01*
X75894743Y-56319116D01*
X76083096Y-56193263D01*
X76243277Y-56033082D01*
X76369130Y-55844729D01*
X76408368Y-55750000D01*
X79750000Y-55750000D01*
X79750000Y-60250000D01*
G37*
%TD.AperFunction*%
%TD*%
D36*
%TO.N,GND*%
X88750000Y-48750000D02*
X88000000Y-48750000D01*
X87951227Y-48754804D01*
X87904329Y-48769030D01*
X87861107Y-48792133D01*
X87823223Y-48823223D01*
X87792133Y-48861107D01*
X87769030Y-48904329D01*
X87754804Y-48951227D01*
X87750000Y-49000000D01*
X87750000Y-49750000D01*
X82103554Y-49750000D01*
X78603554Y-46250000D01*
X88750000Y-46250000D01*
X88750000Y-48750000D01*
%TA.AperFunction,Conductor*%
D42*
G36*
X88750000Y-48750000D02*
G01*
X88000000Y-48750000D01*
X87951227Y-48754804D01*
X87904329Y-48769030D01*
X87861107Y-48792133D01*
X87823223Y-48823223D01*
X87792133Y-48861107D01*
X87769030Y-48904329D01*
X87754804Y-48951227D01*
X87750000Y-49000000D01*
X87750000Y-49750000D01*
X82103554Y-49750000D01*
X78603554Y-46250000D01*
X88750000Y-46250000D01*
X88750000Y-48750000D01*
G37*
%TD.AperFunction*%
%TD*%
D36*
%TO.N,GND*%
X66750000Y-53300000D02*
X66044196Y-53300000D01*
X65999999Y-53295647D01*
X65955802Y-53300000D01*
X65955793Y-53300000D01*
X65823569Y-53313023D01*
X65653919Y-53364486D01*
X65497568Y-53448057D01*
X65360525Y-53560525D01*
X65332339Y-53594870D01*
X65177209Y-53750000D01*
X59750000Y-53750000D01*
X59750000Y-46750000D01*
X66750000Y-46750000D01*
X66750000Y-53300000D01*
%TA.AperFunction,Conductor*%
D42*
G36*
X66750000Y-53300000D02*
G01*
X66044196Y-53300000D01*
X65999999Y-53295647D01*
X65955802Y-53300000D01*
X65955793Y-53300000D01*
X65823569Y-53313023D01*
X65653919Y-53364486D01*
X65497568Y-53448057D01*
X65360525Y-53560525D01*
X65332339Y-53594870D01*
X65177209Y-53750000D01*
X59750000Y-53750000D01*
X59750000Y-46750000D01*
X66750000Y-46750000D01*
X66750000Y-53300000D01*
G37*
%TD.AperFunction*%
%TD*%
M02*
